<?xml version="1.0" standalone="no"?>
<!DOCTYPE svg PUBLIC "-//W3C//DTD SVG 1.1//EN" "http://www.w3.org/Graphics/SVG/1.1/DTD/svg11.dtd" >
<svg xmlns="http://www.w3.org/2000/svg">
<metadata>
This is a custom SVG webfont generated by Font Squirrel.
Copyright   : Copyright c 20052010 by Hannes von Doehren Livius Dietzel All rights reserved
Designer    : Hannes von Doehren Livius Dietzel
Foundry     : Hannes von Doehren Livius Dietzel
</metadata>
<defs>
<font id="LivoryRegular" horiz-adv-x="1476" >
<font-face units-per-em="2048" ascent="1536" descent="-512" />
<missing-glyph horiz-adv-x="593" />
<glyph unicode=" "  horiz-adv-x="593" />
<glyph unicode="&#x09;" horiz-adv-x="593" />
<glyph unicode="&#xa0;" horiz-adv-x="593" />
<glyph unicode="!" horiz-adv-x="591" d="M160 104q0 63 38 97.5t99 34.5q131 0 131 -115q0 -66 -34 -106t-97 -40q-66 0 -101.5 37t-35.5 92zM160 1280q0 59 44 94t99 35q51 0 94 -37t43 -90q0 -27 -18 -82l-41 -123q-23 -68 -38 -214t-11 -333q0 -41 -41 -41q-12 0 -23.5 9.5t-11.5 17.5q0 195 -13.5 340 t-25.5 202.5t-30.5 115t-20.5 63.5q-6 20 -6 43z" />
<glyph unicode="&#x22;" horiz-adv-x="595" d="M94 1427q0 102 86 103q66 0 66 -78q0 -57 -13.5 -170t-21.5 -256q0 -25 -47 -25q-23 0 -23 25q0 121 -23.5 245.5t-23.5 155.5zM346 1448q0 82 80 82q72 0 72 -94q0 -45 -17.5 -152.5t-25.5 -257.5q-2 -25 -47 -25q-23 0 -23 25q0 115 -19.5 241t-19.5 181z" />
<glyph unicode="#" horiz-adv-x="1241" d="M80 522q0 20 13 34.5t38 12.5q23 -2 195 -2q25 0 34 29q6 27 19.5 120t11.5 111q-2 16 -6 20.5t-20 6.5q-53 2 -90 2t-85.5 -2t-56.5 -2q-25 0 -24 43q0 51 45 51q6 0 90 -1t131 -1q31 0 41 31q10 39 28.5 185.5t18.5 176.5q4 53 63 58q29 2 41.5 -17.5t7.5 -40.5 q-41 -215 -53 -356q-4 -37 21 -37q154 0 219 2q6 0 17.5 10.5t15.5 24.5q51 285 57 356q2 20 18.5 39t44.5 19q25 0 39.5 -20.5t8.5 -37.5q-8 -23 -37 -187.5t-27 -178.5q0 -27 31 -27h211q18 0 18 -39q0 -20 -9 -35.5t-30 -13.5q-29 2 -207 2q-25 0 -32 -35 q-4 -16 -21.5 -118.5t-15.5 -112.5q2 -25 30 -27q94 -8 224 0q18 2 28.5 -9t10.5 -31.5t-11.5 -37t-29.5 -14.5q-127 6 -238 2q-27 0 -35 -37q-4 -14 -30.5 -188t-26.5 -193q0 -23 -17.5 -42t-46.5 -19q-25 0 -39 17.5t-7.5 42t33 193.5t24.5 189q-4 37 -31 39 q-123 8 -203 0q-20 -2 -30 -33q-10 -35 -35 -196.5t-27 -192.5q-8 -59 -68 -59q-27 0 -40 19.5t-9 41.5q8 18 37 191.5t29 202.5q-2 20 -21 24q-16 4 -202 4q-33 0 -33 43zM471 594q0 -31 33 -31h194q18 2 24.5 8.5t10.5 24.5q6 20 20.5 115.5t14.5 115.5q0 29 -31 31 q-96 8 -190 0q-37 -2 -43 -31q-27 -129 -33 -233z" />
<glyph unicode="$" horiz-adv-x="1028" d="M100 1047q0 119 87 223t253 129q33 4 33 39v51q0 18 6 27.5t12.5 11.5t18.5 2q49 0 49 -39l-2 -21v-34q0 -23 7 -29t36 -8h8q86 -8 166 -36t94 -48q20 -16 21 -260q0 -20 -17.5 -34.5t-37.5 -14.5q-37 0 -43 38q-29 182 -156 246q-16 12 -45 19q-18 4 -24.5 -8.5 t-8.5 -40.5q-6 -135 -2 -367q0 -45 12.5 -65.5t42.5 -34.5q63 -33 96 -50.5t87.5 -57.5t82 -77t50 -96t22.5 -127q0 -117 -90 -235.5t-254 -153.5q-33 -8 -41 -18.5t-8 -32.5q0 -14 1 -29.5t1 -26.5v-8q2 -25 -8 -36t-39 -11q-51 0 -45 45l2 8v22v28q0 23 -9 34t-40 13 q-129 12 -221.5 60t-92.5 106q0 115 27 217q8 37 49 36q39 0 39 -30q0 -90 47 -170t142 -109q39 -12 52 2.5t13 46.5q6 270 2 398q-2 51 -9 65.5t-38 28.5q-74 37 -121 66.5t-100 78.5t-80 116t-27 151zM281 1112q0 -78 30.5 -121t108.5 -92q20 -18 36.5 -14t18.5 55 q2 145 0 324q0 59 -49 43q-66 -18 -105.5 -71.5t-39.5 -123.5zM555 147q0 -72 53 -51q70 23 109 79t39 132q0 135 -135 228q-35 25 -50.5 17.5t-15.5 -56.5v-349z" />
<glyph unicode="%" horiz-adv-x="1751" d="M80 1040q0 174 105.5 272.5t263.5 98.5q147 0 247.5 -92t100.5 -250q0 -166 -103.5 -265t-263.5 -99q-147 0 -248.5 92.5t-101.5 242.5zM199 1092q0 -115 89 -198t191 -83q92 0 144.5 61.5t52.5 147.5q0 106 -85 196.5t-196 90.5q-76 0 -136 -58.5t-60 -156.5zM391 20 q0 29 27 56q12 14 112.5 168.5t295 476t378.5 653.5q16 35 51 35q23 0 42.5 -16.5t19.5 -36.5q0 -12 -10 -27q-14 -18 -389 -636.5t-386 -639.5q-2 -4 -8 -14t-8 -14.5t-7 -12.5t-8 -11l-8 -8q-5 -5 -10.5 -7t-12.5 -4t-15 -2q-64 -1 -64 40zM954 313q0 174 105.5 272.5 t263.5 98.5q147 0 247.5 -92t100.5 -250q0 -166 -103.5 -265.5t-262.5 -99.5q-147 0 -249 93t-102 243zM1073 365q0 -115 89 -198t192 -83q92 0 144 61.5t52 147.5q0 106 -85 196.5t-195 90.5q-76 0 -136.5 -58.5t-60.5 -156.5z" />
<glyph unicode="&#x26;" horiz-adv-x="1527" d="M100 381q0 98 53.5 191.5t111 145.5t126.5 95q33 18 -8 68q-4 6 -24.5 29.5t-32 40t-26.5 45t-23.5 61.5t-8.5 69q0 131 96.5 212t233.5 81q102 0 184 -64.5t82 -168.5q0 -68 -31.5 -128.5t-69.5 -92t-69.5 -59t-31.5 -40.5q0 -10 36.5 -44t105 -102.5t124.5 -146.5 q4 -6 12 -17t12 -16t10.5 -11.5t9.5 -7.5t8 0t8 7.5t8 17.5t10 27q41 139 24 246q-6 29 -26.5 39t-42 10t-39 14.5t-17.5 47.5q0 35 51 35q14 0 43 -5.5t48 -5.5q31 0 108.5 7.5t112.5 7.5q119 0 118 -66q0 -23 -12 -39t-22 -10q-29 20 -101.5 13t-79.5 -54 q-10 -68 -24 -129t-28.5 -104t-27 -73t-22.5 -53.5t-12 -25.5q-14 -43 2 -63q35 -78 124 -161t156 -79q12 0 50 20.5t49 20.5q27 0 26 -37q0 -47 -58 -98t-136 -51q-66 0 -129.5 40.5t-94 76.5t-65.5 85q-6 8 -8 13q-10 18 -17.5 21t-27.5 -9l-51 -49q-49 -49 -85 -77 t-117 -56.5t-173 -28.5q-160 0 -281 104.5t-121 280.5zM264 444q0 -115 86 -209t228 -94q84 0 157.5 39t107.5 80t34 62q0 49 -161 244.5t-212 195.5q-55 0 -147.5 -106t-92.5 -212zM418 1176q0 -90 52 -167t97 -77q35 0 93.5 69.5t58.5 155.5q0 74 -39 122t-115 48 q-70 0 -108.5 -45t-38.5 -106z" />
<glyph unicode="'" horiz-adv-x="350" d="M94 1427q0 102 86 103q66 0 66 -78q0 -57 -13.5 -170t-21.5 -256q0 -25 -47 -25q-23 0 -23 25q0 121 -23.5 245.5t-23.5 155.5z" />
<glyph unicode="(" horiz-adv-x="651" d="M84 636.5q0 237.5 126 470t327 409.5q12 12 30.5 12t32.5 -11.5t14 -27.5t-16 -33q-319 -309 -319 -819q0 -508 319 -817q16 -16 16 -35q0 -16 -13 -26.5t-32 -10.5q-20 0 -32 12q-201 174 -327 406.5t-126 470z" />
<glyph unicode=")" horiz-adv-x="655" d="M37 -215q0 16 18 35q319 305 320 817q0 514 -320 819q-18 18 -18 33q0 16 14.5 27.5t32.5 11.5t33 -12q203 -174 328.5 -406.5t125.5 -472.5t-126 -472.5t-328 -404.5q-14 -12 -33 -12q-47 0 -47 37z" />
<glyph unicode="*" horiz-adv-x="829" d="M80 1274q0 33 25.5 54.5t60.5 8.5q14 -4 68.5 -30.5t109.5 -46.5q25 -10 25 14q0 49 -10.5 114.5t-10.5 69.5q-4 31 16.5 49.5t49 18.5t49 -17.5t18.5 -48.5q0 -2 -12 -58t-12 -134q0 -27 26 -23q53 16 112.5 50t66.5 36q37 16 61.5 -5t24.5 -56q0 -45 -48 -58 q-10 -2 -69.5 -13t-122.5 -28q-8 -2 -10 -11t2 -13q43 -59 133 -137q29 -35 7 -69t-60 -34q-31 0 -52 31q-8 10 -37.5 63.5t-60.5 94.5q-4 6 -14 6t-17 -6q-31 -43 -62.5 -97.5t-35.5 -60.5q-18 -33 -51 -33q-39 0 -60.5 34t7.5 69q6 8 29.5 27.5t48 46t49.5 63.5 q12 20 -13 31q-47 14 -82.5 22t-61.5 12t-36 7q-51 8 -51 57z" />
<glyph unicode="+" horiz-adv-x="1228" d="M213 563q0 25 16.5 44.5t38.5 21.5q2 0 45 -1t85 -1h96q37 2 45 13t8 38q0 166 -2 227q-2 29 16.5 44.5t44.5 15.5q25 0 41.5 -12.5t11.5 -30.5q-2 -6 -6 -260q0 -12 1 -19.5t5.5 -11.5t6.5 -5t11 -1h13q184 0 246 10q33 6 55.5 -11.5t22.5 -41.5q0 -51 -78 -54 q-10 0 -102.5 -2t-141.5 0q-27 2 -32 -4t-7 -37q0 -45 3 -134t3 -99q2 -23 -16 -37t-43 -14q-23 0 -39 13t-16 38q-2 27 0 112t2 103q0 23 -4 36t-11.5 18t-18.5 6t-26 -1q-12 0 -93 -2t-111 -4q-70 -6 -70 43z" />
<glyph unicode="," horiz-adv-x="546" d="M129 102q0 55 37 82t86 27q90 0 143.5 -79t53.5 -216q0 -92 -52.5 -180t-138.5 -142q-14 -8 -27 -8q-18 0 -32.5 17.5t-14.5 36.5q0 20 33 43q57 39 93 101t36 124q0 94 -43 94q-8 0 -30.5 -11t-41.5 -11q-49 0 -75.5 39.5t-26.5 82.5z" />
<glyph unicode="-" horiz-adv-x="808" d="M117 555q0 29 14 50.5t41 23.5q8 0 75.5 1t128 2t134.5 7t117 16q27 8 48 -18.5t21 -58.5q0 -66 -71 -66q-260 -2 -445 -20q-31 -6 -47 13t-16 50z" />
<glyph unicode="." horiz-adv-x="524" d="M127 104q0 63 38 97.5t99 34.5q131 0 131 -115q0 -66 -33.5 -106t-97.5 -40q-66 0 -101.5 37t-35.5 92z" />
<glyph unicode="/" horiz-adv-x="733" d="M80 18q0 25 14 50q8 14 60.5 160.5t159 469t218.5 684.5q14 45 60 45q25 0 43 -13t18 -34q0 -2 -16 -47q-8 -20 -214 -634.5t-210 -628.5q-10 -35 -17.5 -50.5t-24.5 -27.5t-48 -12q-43 -1 -43 38z" />
<glyph unicode="0" horiz-adv-x="1275" d="M119 670q0 113 31.5 230.5t93 225t168 175t237.5 67.5q150 0 269.5 -106.5t179 -263t59.5 -322.5q0 -285 -141.5 -490.5t-362.5 -205.5q-166 0 -290.5 100t-184 255t-59.5 335zM315 729q0 -272 106.5 -455.5t276.5 -183.5q78 0 132.5 56.5t79 146.5t33.5 169t9 156 q0 111 -18.5 218.5t-57 209t-112.5 163t-172 61.5q-80 0 -138.5 -56.5t-86 -146.5t-40 -173t-12.5 -165z" />
<glyph unicode="1" horiz-adv-x="880" d="M80 47q0 45 45 43q154 -8 202 12.5t56 100.5q10 102 12 415.5t-10 450.5q-4 41 -44 47t-210 -2q-18 -2 -30.5 16.5t-12.5 38.5q0 35 35 35q92 0 168 29t112.5 64.5t66.5 65.5t38 30q82 0 76 -70q-10 -160 -10.5 -607.5t6.5 -510.5q4 -29 6 -41t7 -29.5t15 -23t25.5 -12.5 t43.5 -8t61.5 -1t86.5 2q16 2 27.5 -13.5t11.5 -35.5q0 -47 -49 -47q-516 14 -696 0q-16 -2 -27.5 14.5t-11.5 36.5z" />
<glyph unicode="2" horiz-adv-x="1097" d="M63 45q0 29 15 49q92 63 194.5 150.5t215 205t184 251t71.5 249.5q0 129 -65.5 211t-198.5 82q-106 0 -174.5 -58.5t-97.5 -119.5q-8 -23 -30.5 -23t-41 18.5t-14.5 37.5q31 92 143.5 181t288.5 89q164 0 278.5 -98.5t114.5 -257.5q0 -90 -32.5 -183.5t-74.5 -161 t-116 -148.5t-120 -122t-125 -107.5t-95 -80.5q-37 -35 45 -45q29 -4 68 -4q174 0 280 16q102 18 142 82q16 25 47 25q23 0 36 -13.5t5 -31.5q-35 -59 -107 -238q-4 -16 -33.5 -20.5t-54.5 4.5q-37 10 -96 14q-244 16 -619 -2q-14 -2 -23.5 13.5t-9.5 35.5z" />
<glyph unicode="3" horiz-adv-x="1075" d="M92 113q0 33 22.5 60.5t65.5 27.5t76 -19.5t52.5 -44t62.5 -44t102 -19.5q123 0 215 75.5t92 194.5q0 84 -41 145.5t-113.5 94t-153.5 47t-175 14.5q-37 0 -37 45q0 43 37 47q147 12 261 99.5t114 205.5q0 86 -57.5 148.5t-194.5 62.5q-78 0 -137.5 -28.5t-89 -57 t-35.5 -28.5q-23 0 -34 16t-11 35q0 23 47 63.5t142 78.5t200 38q164 0 264 -76.5t100 -199.5q0 -106 -69.5 -193.5t-153.5 -128.5q-10 -4 -6 -11t16 -11q12 -2 34 -8.5t76 -32t95 -59.5t75 -97.5t34 -138.5q0 -195 -147.5 -314.5t-409.5 -119.5q-139 0 -228.5 35t-89.5 98z " />
<glyph unicode="4" horiz-adv-x="1177" d="M33 498q0 31 8 39q139 137 372.5 426.5t239.5 334.5q6 61 45 60q41 0 86 18.5t47 38.5q4 18 31 19q18 0 33.5 -10.5t13.5 -24.5q-4 -53 -8 -306t0 -522q0 -45 49 -47q16 -2 50 0t53 2q80 0 80 -59q0 -61 -78 -61q-8 0 -61.5 1t-69.5 1q-25 0 -25 -31q0 -266 2 -322 q2 -29 -11 -44t-40 -13q-18 2 -43 2h-41q-59 2 -57 59q12 178 6 312q0 31 -35 35q-270 18 -590 -3q-57 7 -57 95zM211 582q-41 -55 18 -58q350 -10 449 11q29 8 37 32q16 98 16 518q0 39 -23.5 45.5t-37.5 -12.5q-68 -68 -247 -277.5t-212 -258.5z" />
<glyph unicode="5" horiz-adv-x="1048" d="M88 113q0 106 70 106q37 0 69.5 -23.5t57 -50t74 -50t114.5 -23.5q117 0 204 87t87 206q0 102 -50 179t-133 120t-174.5 63.5t-187.5 20.5q-33 0 -47 13t-12 25l2 15q45 262 57 512q2 14 17.5 25.5t35.5 11.5q37 0 105.5 -2t96.5 -3.5t80 -2.5t75.5 -1t61.5 1t60.5 3.5 t48 5.5t48.5 7q25 6 42 4t15 -27q-2 -10 -8 -51t-6 -49q-6 -29 -25.5 -39t-70.5 -10q-344 12 -435 2q-39 -4 -49 -23q-6 -10 -12 -24q-4 -10 -8 -54.5t-7 -91.5t-3 -51q-4 -33 2 -42t30 -9q74 0 152 -11.5t166 -42t154.5 -77.5t111.5 -128t45 -183q0 -188 -146.5 -329.5 t-373.5 -141.5q-334 0 -334 133z" />
<glyph unicode="6" horiz-adv-x="1189" d="M121 598q0 164 43 298t110.5 219t155.5 144.5t175 84t171 24.5q240 0 240 -82q0 -68 -90 -67q-18 0 -80 29.5t-131 29.5q-168 0 -277.5 -180t-109.5 -461q0 -283 92 -425t233 -142q109 0 175.5 95t66.5 214q0 164 -94 286.5t-219 122.5q-27 0 -64 -10t-47 -10t-21.5 10 t-11.5 23q0 16 13.5 32.5t64.5 32t131 15.5q176 0 309.5 -109.5t133.5 -308.5q0 -223 -140.5 -353t-328.5 -130q-227 0 -363.5 162.5t-136.5 455.5z" />
<glyph unicode="7" horiz-adv-x="968" d="M45 1133q51 133 74 225q14 49 112 2q47 -20 707 -4q18 0 18 -17q0 -23 -25.5 -63.5t-35.5 -50.5q-397 -612 -397 -1069q0 -182 -115 -183q-113 0 -113 129q0 55 9.5 114.5t32 127.5t42 122t58.5 131t63.5 123t74.5 129t70.5 117.5t75 121t68.5 108.5q8 16 -1 22.5 t-40 4.5q-293 4 -414 0q-104 -10 -131.5 -25.5t-77.5 -83.5q-6 -14 -22.5 -14t-27.5 11.5t-5 21.5z" />
<glyph unicode="8" horiz-adv-x="1138" d="M133 297q0 199 221 317q14 8 21.5 14.5t9.5 12.5t1 11t-8 11.5t-13.5 10.5t-17.5 11t-17 11q-195 147 -195 324q0 147 123 247.5t309 100.5q203 0 312.5 -87t109.5 -222q0 -68 -27.5 -126.5t-68.5 -96t-66.5 -55t-44.5 -27.5q-45 -29 -39 -47q6 -16 35 -33 q240 -135 240 -342q0 -160 -133 -259.5t-328 -99.5q-205 0 -314.5 92.5t-109.5 231.5zM305 324q0 -98 73 -175t195 -77q113 0 177.5 57t64.5 152q0 121 -103.5 216t-183.5 95q-27 2 -76 -20.5t-98 -89t-49 -158.5zM317 1061q0 -106 106.5 -201.5t190.5 -97.5q20 0 68.5 30.5 t96.5 99.5t48 146q0 102 -69.5 172t-200.5 70q-109 0 -174.5 -61.5t-65.5 -157.5z" />
<glyph unicode="9" horiz-adv-x="1175" d="M98 907q0 199 139.5 330t344.5 131q203 0 338 -165t135 -417q0 -352 -165 -580.5t-458 -228.5q-115 0 -190.5 29t-75.5 78q0 31 21.5 51.5t60.5 20.5q18 0 46 -22.5t72 -44t105 -21.5q152 0 263.5 161.5t111.5 483.5q0 242 -81 402.5t-251 160.5q-109 0 -167 -97.5 t-58 -234.5q0 -156 105.5 -252t269.5 -96q20 0 41.5 5t27.5 5q14 0 23.5 -12t9.5 -29q0 -29 -23 -39q-66 -39 -180 -39q-207 0 -336 112.5t-129 307.5z" />
<glyph unicode=":" horiz-adv-x="604" d="M168 104q0 61 39 96.5t98 35.5q131 0 131 -115q0 -66 -33.5 -106t-97 -40t-100.5 37t-37 92zM168 842q0 61 39 96t98 35q131 0 131 -115q0 -66 -33.5 -105.5t-97 -39.5t-100.5 37t-37 92z" />
<glyph unicode=";" horiz-adv-x="620" d="M166 842q0 61 38 96t97 35q131 0 131 -115q0 -66 -33.5 -105.5t-97 -39.5t-99.5 37t-36 92zM176 102q0 55 37 82t86 27q90 0 143.5 -79t53.5 -216q0 -92 -52.5 -180t-138.5 -142q-12 -8 -24 -8q-20 0 -35 16.5t-15 37t33 43.5q57 39 93 101t36 124q0 94 -41 94 q-8 0 -31.5 -11t-39.5 -11q-51 0 -78 39.5t-27 82.5z" />
<glyph unicode="&#x3c;" horiz-adv-x="1228" d="M238 496q0 39 26 53q31 16 149.5 73.5t246.5 124t231 127.5q31 18 51 19q49 0 49 -55q0 -47 -39 -66q-29 -14 -163 -72.5t-233 -106.5t-120 -65q-25 -20 -19.5 -40.5t25.5 -34.5q72 -51 247 -136.5t257 -109.5q45 -14 45 -62q0 -23 -14 -39t-41 -16q-29 0 -55 16 l-609 322q-34 19 -34 68z" />
<glyph unicode="=" horiz-adv-x="1228" d="M244 389q0 23 9 41.5t23 20.5h157q146 0 299 2t212 10q16 2 28.5 -19.5t12.5 -48.5q0 -51 -41 -51q-37 0 -140.5 1t-231.5 0t-277 -9q-27 -2 -39 13t-12 40zM246 745q0 23 11 44.5t26 21.5q535 -12 661 10q16 2 28.5 -18.5t12.5 -46.5q0 -55 -45 -56q-61 -2 -277.5 0 t-371.5 -2q-45 0 -45 47z" />
<glyph unicode="&#x3e;" horiz-adv-x="1228" d="M238 145q0 47 45 62q82 25 257 110.5t246 135.5q20 16 24.5 34.5t-17.5 40.5q-20 16 -121 64.5t-234 107t-162 72.5q-39 18 -38 66q0 23 12 39t35 16q20 0 51 -19q102 -61 231 -127.5t248 -124t150 -73.5q27 -16 26 -53q0 -49 -35 -68q-457 -242 -608 -322 q-27 -16 -55 -16q-27 0 -41 16t-14 39z" />
<glyph unicode="?" horiz-adv-x="714" d="M66 1296q0 117 215 117q156 0 238.5 -79t82.5 -183q0 -92 -63.5 -206t-126 -225.5t-62.5 -197.5q0 -33 -34.5 -33t-34.5 37q0 125 62.5 298t62.5 284q0 84 -31 145.5t-94 61.5q-47 0 -90.5 -41t-59.5 -41q-27 0 -46 18t-19 45zM180 104q0 63 38 97.5t99 34.5 q131 0 132 -115q0 -66 -34 -106t-97.5 -40t-100.5 37t-37 92z" />
<glyph unicode="@" horiz-adv-x="1863" d="M88 463q0 152 57.5 301t163 274t275.5 203t377 78q369 0 586.5 -212t217.5 -491q0 -147 -44 -262.5t-113.5 -180t-147.5 -98.5t-153 -34q-164 0 -228 104q-12 20 -37 2q-74 -74 -182 -73q-127 0 -190.5 65.5t-63.5 149.5q0 88 94.5 141t212 80t131.5 39q25 18 25 57 q0 121 -34 170t-103 49q-98 0 -154 -43q-8 -8 -8 -28.5t4 -45t4 -30.5q0 -76 -76 -76q-31 0 -53 27.5t-22 60.5q0 90 120.5 164t239.5 74q115 0 165 -68.5t50 -220.5q0 -33 -4 -135.5t-4 -136.5v-27v-32q0 -7 1 -30.5t4 -32.5t7 -29.5t11.5 -30t17.5 -24t22.5 -20.5t31 -11 t38.5 -5q127 0 234.5 127t107.5 364q0 260 -200.5 438.5t-512.5 178.5q-330 0 -554 -222.5t-224 -547.5q0 -313 206 -519t529 -206q98 0 179.5 20.5t121 45t69.5 45t38 20.5q14 0 28.5 -16.5t14.5 -28.5q0 -45 -143.5 -106.5t-307.5 -61.5q-373 0 -599 232.5t-226 574.5z M756 293q0 -47 34.5 -85t106.5 -38q78 0 122 68.5t44 158.5q0 47 -14 60q-6 6 -23 2q-47 -4 -105.5 -20.5t-111.5 -56.5t-53 -89z" />
<glyph unicode="A" d="M-18 43q0 18 13 30.5t40 10.5h10q81 0 135 129q59 127 420 1012q8 18 -5 45.5t-7 44t39 16.5q47 0 76.5 15.5t62.5 60.5q12 12 28.5 12t20.5 -10q59 -176 245.5 -652t250.5 -591q16 -31 24 -43t38 -28q21 -11 47 -11q10 0 22 2q27 4 41 -9.5t14 -33.5t-14 -35 q-13 -13 -32 -12h-5q-51 6 -208 6t-253 -6h-4q-47 0 -47 41q0 20 13.5 35.5t31.5 13.5q11 -1 21 -1q50 0 72 17q19 16 20 54q0 12 -2 26q-2 29 -105 291q-8 18 -27 23q-113 11 -251 11q-111 0 -238 -7q-55 -2 -76 -45q-39 -86 -94 -244q-10 -31 -10 -54q0 -35 22 -52 q26 -19 88 -19q27 0 62 4q25 2 39 -12.5t14 -34.5t-14 -35q-13 -13 -33 -12h-6q-114 7 -220.5 7t-205.5 -7h-6q-20 0 -33 12q-14 15 -14 35zM467 641q-4 -9 -4 -17q0 -21 33 -28q29 -6 147.5 -6t233.5 10q47 3 46 34q0 9 -3 19q-86 264 -189 486q-13 25 -25 25 q-13 0 -26 -27q-143 -287 -213 -496z" />
<glyph unicode="B" horiz-adv-x="1288" d="M94 43q0 51 59 51h5h17q99 0 106 66q15 275 14 601q0 217 -6 458q0 29 -6.5 44t-21.5 21t-26.5 7t-41 -1t-46.5 -2q-23 0 -35 16.5t-12 36.5q0 49 45 50q59 -1 138 -2q157 0 391 6h14q101 0 192 -27q97 -29 170.5 -107.5t73.5 -197.5q0 -80 -31.5 -145.5t-77.5 -102.5 t-80 -55.5t-56 -24.5q-20 -6 -20.5 -16t20.5 -17q43 -14 88 -39.5t93 -66.5t78.5 -101.5t30.5 -132.5q0 -178 -120.5 -273t-317.5 -95q-61 0 -178 3t-216 3t-196 -6h-4q-17 0 -29 13q-14 16 -14 36zM451 575q-1 -33 -1 -74q0 -124 9 -325q4 -94 200 -94q145 0 224.5 70.5 t79.5 183.5q0 135 -90.5 224t-237.5 89h-119q-31 0 -46 -14t-16 -23.5t-3 -36.5zM451 1227q0 -258 6 -387q2 -61 13 -78t46 -17h107q139 0 226 81t87 210t-81 200t-224 71q-102 0 -141 -18.5t-39 -61.5z" />
<glyph unicode="C" horiz-adv-x="1466" d="M109 705q0 303 217 504.5t563 201.5q188 0 326.5 -47t142.5 -98q14 -106 16 -191q0 -39 -61 -39q-43 0 -47 19q-29 117 -128.5 193.5t-271.5 76.5q-236 0 -390 -169t-154 -427q0 -195 89 -343t222 -219t287 -71q227 0 340 105q10 10 20 10q16 0 30.5 -18.5t14.5 -38.5 q0 -18 -10 -29q-20 -20 -56 -46t-149 -62.5t-248 -36.5q-344 0 -548.5 204t-204.5 521z" />
<glyph unicode="D" horiz-adv-x="1574" d="M90 43q0 23 14.5 37t36.5 12q16 -2 31 -2q92 0 102 80q18 129 20 548v48q0 377 -15 479q-2 20 -11.5 33.5t-27 19t-29.5 7.5t-38 2h-38q-31 0 -31 39q0 45 56 45h456q375 0 609.5 -175.5t234.5 -492.5q0 -362 -222 -540.5t-601 -182.5h-492q-6 -1 -11 -1q-44 0 -44 44z M463 770q2 -330 8 -494q2 -78 43 -119.5t92 -53t133 -11.5q229 0 369.5 155.5t140.5 428.5q0 123 -31.5 227.5t-101 196.5t-199 145t-305.5 53q-80 0 -109.5 -15t-33.5 -64q-7 -95 -7 -325q1 -58 1 -124z" />
<glyph unicode="E" horiz-adv-x="1230" d="M92 43q0 20 14.5 36.5t36.5 14.5q23 -4 42 -4t34 4q31 8 43 28.5t15.5 36t5.5 38.5q11 302 11 622v53q-1 348 -11 394q-11 40 -78 39q-23 0 -53 -5q-23 -4 -36.5 10.5t-13.5 37.5q0 47 46 47h4q135 -10 404 -10.5t435 8.5q10 1 19 0q84 0 84 -51q0 -54 -21 -203 q-6 -51 -53 -52q-41 0 -41 37v11q0 102 -77 135q-81 35 -339 35q-41 0 -62.5 -17.5t-26.5 -36t-7 -51.5q-4 -41 -4 -192.5t2 -200.5q2 -45 37 -45q19 -1 74 -2q28 0 65 1q111 1 139 3q80 8 80 123q0 18 15.5 29.5t35.5 11.5q47 0 47 -49q-6 -81 -5 -166q0 -68 3 -140 q2 -33 -13 -50t-38 -17q-20 0 -36.5 14.5t-14.5 36.5q0 7 1 14q0 81 -67 95q-27 6 -144.5 6t-145.5 -4q-31 -4 -31 -45q-2 -78 -2 -151q0 -146 8 -273q2 -59 32 -82t126 -23q135 0 205 15q137 31 188 213q14 53 55 53q25 0 42 -18q13 -13 13 -29q0 -6 -1 -13 q-43 -154 -58 -280q-4 -39 -61 -39q-115 0 -270.5 5t-383.5 5q-39 0 -117.5 -5t-95.5 -5h-6q-22 0 -35 11q-14 13 -14 36z" />
<glyph unicode="F" horiz-adv-x="1161" d="M90 40.5q0 20.5 14.5 37t36.5 14.5q14 -1 28 -1q29 0 51 6q32 9 44 28.5t15.5 32t5.5 32.5q11 212 10 494q0 253 -8 561q-2 45 -30 54q-17 6 -49 6q-22 0 -50 -2q-23 -2 -37.5 13t-14.5 35.5t14 32.5q11 11 31 11h7q102 -9 319.5 -9.5t550.5 9.5h6q59 0 60 -37 q0 -31 -25 -240q-6 -41 -55 -41q-20 0 -33.5 9.5t-11.5 25.5q2 18 2 34q0 54 -22 85q-28 39 -111.5 56.5t-262.5 17.5q-37 0 -59 -6.5t-31.5 -24t-10.5 -28.5t-3 -38q-6 -418 -6 -446q0 -37 27 -41h4q33 -6 139 -6t129 2q61 2 84.5 30.5t23.5 92.5q0 18 15.5 28.5t36.5 10.5 q47 0 47 -48q-4 -90 -4 -181q0 -61 2 -124q0 -63 -49 -63q-20 0 -37 13t-17 32q0 109 -69 115q-25 3 -105 3h-44q-118 -1 -150 -5q-35 -4 -35 -37q0 -86 12 -394q4 -66 40 -82q23 -11 81 -11q35 0 82 3q23 2 37 -14t14 -38.5t-15 -38.5q-14 -14 -39 -13h-7q-74 6 -251 7h-39 q-149 0 -233 -7h-6q-22 0 -35 11q-14 13 -14 33.5z" />
<glyph unicode="G" horiz-adv-x="1554" d="M113 709q0 313 206.5 507.5t567.5 194.5q166 0 305 -49t147 -100q10 -94 15 -187q2 -23 -21.5 -36t-50.5 -13q-31 0 -33 14q-23 102 -136.5 194.5t-289.5 92.5q-229 0 -364 -171t-135 -413q0 -274 158.5 -467.5t414.5 -193.5q162 0 244 63q23 18 31 41t10 84q0 16 -4 176 q0 41 -37 43q-24 2 -53 2q-44 0 -101 -4q-23 -2 -35 13.5t-12 38.5q0 49 49 49h4q110 -10 223 -10q101 0 205 8h6q58 0 58 -41q0 -18 -13.5 -34.5t-31.5 -14.5q-37 4 -56.5 -3.5t-22.5 -16.5t-5 -30v-292q0 -47 -39 -62q-238 -113 -471 -112q-340 0 -536.5 198.5 t-196.5 530.5z" />
<glyph unicode="H" horiz-adv-x="1736" d="M86 43q0 18 13.5 32.5t35.5 12.5q15 -1 28 -1q116 0 120 81q9 232 8 539v126q-2 386 -12 422q-15 56 -84 56q-14 0 -31 -2q-23 -4 -37 9t-14 34q0 43 46 43h5q103 -6 207 -6l207 6h5q54 0 54 -39q0 -18 -14.5 -34.5t-32.5 -14.5q-24 3 -43 3q-76 0 -76 -53 q-5 -122 -5 -240t5 -233q0 -31 37 -36q51 -7 240 -7h104q281 2 367 13q61 8 61 41q2 66 2 138t-2 150q-4 158 -12 183q-16 49 -92 48q-14 0 -29 -1h-4q-41 0 -41 41q0 18 14 31q11 10 28 11q5 0 11 -1q80 -6 180 -6t219 6h7q61 0 61 -39q0 -18 -15.5 -32.5t-33.5 -12.5 q-18 1 -32 1q-36 0 -52 -7q-23 -10 -31 -45q-6 -27 -7 -508v-85q0 -407 9 -507q9 -67 99 -67q14 0 30 1h5q53 0 53 -47q0 -23 -15 -38q-13 -14 -35 -13h-6q-77 7 -192.5 7t-270.5 -7q-55 0 -55 45q0 20 13.5 34.5t35.5 12.5q20 -2 37 -2q113 0 115 94q4 198 4 308 q0 73 -2 108q-2 31 -13.5 41t-43.5 14q-43 3 -225 4q-45 0 -99 -1q-270 -1 -371 -9q-51 -4 -53 -45q-8 -97 -8 -192q0 -128 14 -254q4 -43 32 -58q18 -9 52 -9q20 0 45 3q27 2 41.5 -10t14.5 -32.5t-16 -37.5q-14 -15 -34 -14h-6q-167 4 -282.5 4t-180.5 -4h-6q-22 0 -36 12 q-15 15 -15 35z" />
<glyph unicode="I" horiz-adv-x="763" d="M84 49q0 20 11 33.5t34 11.5q25 -8 54 -8q17 0 37 3q52 7 61 52q14 84 14 587t-10 536q-8 29 -48 42q-23 8 -48 7q-19 0 -39 -4q-5 -1 -11 -1q-35 0 -35 40q0 20 14 34q12 13 33 13h7q101 -7 208 -7t220 7h6q64 0 63 -43q0 -18 -15 -32.5t-34 -12.5q-25 2 -44 2 q-29 0 -48 -5q-31 -9 -39 -42q-10 -26 -10 -345q0 -80 1 -178q3 -489 17 -596q4 -27 20.5 -38t48.5 -13q11 -1 23 -1q25 0 56 3q27 2 41 -12t14 -34.5t-15 -37.5q-14 -15 -35 -14h-5q-146 8 -268 8t-220 -8h-6q-24 0 -38 14q-15 16 -15 39z" />
<glyph unicode="J" horiz-adv-x="712" d="M-125 -311q0 31 22.5 54.5t55.5 23.5q37 0 95 -41t95 -41q98 0 119 176q13 139 13 450q0 139 -3 312q-8 561 -18 628q-6 39 -34 52q-21 9 -70 9q-16 0 -35 -1q-23 -2 -35 10t-12 30.5t15 31.5q13 12 35 12h7q85 -9 198 -9.5t255 9.5h4q53 0 53 -45q0 -16 -11.5 -29.5 t-25.5 -13.5q-22 1 -40 1q-45 0 -69 -8q-33 -10 -40 -51q-4 -20 -4 -114q0 -63 1 -160q4 -242 9 -501q1 -52 0 -103q0 -204 -13 -394q-10 -156 -132 -275.5t-263 -119.5q-57 0 -114.5 31t-57.5 76z" />
<glyph unicode="K" horiz-adv-x="1427" d="M84 49q0 20 11 33.5t34 11.5q25 -8 54 -8q17 0 37 3q52 7 61 52q14 84 14 587t-10 536q-8 29 -48 42q-23 8 -48 7q-19 0 -39 -4q-5 -1 -11 -1q-35 0 -35 40q0 20 14 34q12 13 33 13h7q101 -7 208 -7t220 7h5q58 0 58 -43q0 -18 -13 -32.5t-30 -12.5q-29 4 -51 3 q-25 0 -41 -4q-31 -9 -39 -44q-10 -26 -10 -345q0 -80 1 -178q3 -489 17 -596q4 -27 20.5 -38t48.5 -13q11 -1 23 -1q25 0 56 3q27 2 41 -12t14 -34.5t-15.5 -37t-39.5 -14.5q-146 8 -268 8t-220 -8q-29 -2 -44 14t-15 39zM561 690q0 25 17 41q29 25 165 189.5t220 285.5 q25 42 25 65q0 11 -6 17q-13 16 -48 16q-10 0 -23 -1q-23 -2 -37 13t-14 36q0 44 47 43h13q72 -6 178 -6t248 6h5q18 0 30 -12q13 -13 14 -31q0 -23 -16.5 -39.5t-43.5 -14.5q-21 3 -39 4q-52 0 -86 -26q-41 -35 -86 -77t-86 -87t-77.5 -87t-71.5 -85t-56.5 -71.5t-44 -58.5 t-24.5 -32q-15 -22 -16 -43q0 -18 12 -35q233 -350 375.5 -496.5t246.5 -146.5q27 0 27 -34q0 -23 -16 -31q-51 -23 -148 -23q-70 0 -116 14.5t-122.5 74t-177 194.5t-239.5 358q-29 49 -29 80z" />
<glyph unicode="L" horiz-adv-x="1177" d="M92 47q0 20 11.5 34.5t33.5 12.5q16 -1 30 -1q104 0 114 67q12 82 13 570v85q0 406 -9 436q-19 60 -94 61q-22 0 -48 -5q-23 -4 -34 8t-11 32.5t14 34.5q12 13 33 13h7q93 -7 209.5 -7t256.5 7h6q62 0 62 -43q0 -18 -15.5 -32.5t-35.5 -12.5q-24 2 -44 2q-104 0 -114 -62 q-16 -41 -17 -513v-37q0 -439 23 -547q10 -47 161 -57q47 -3 86 -3q87 0 136 14q61 14 108.5 99.5t59.5 138.5q12 37 51 37q25 0 41 -15q12 -11 12 -32q0 -8 -1 -17q-31 -193 -58 -280q-12 -37 -47 -37h-4q-33 0 -230 5q-165 4 -315 4h-59q-176 -1 -272 -11q-6 -1 -12 -1 q-20 0 -32 12q-16 15 -16 40z" />
<glyph unicode="M" horiz-adv-x="1978" d="M104 45q0 20 12.5 34.5t35.5 12.5q8 -1 15 -1q118 0 122 188q2 62 2 142q0 282 -23 793q-2 57 -21 79q-14 16 -51 16q-14 0 -32 -2q-20 -2 -32.5 13t-12.5 36q0 40 38 39h11q49 -8 124 -8.5t124 4.5l49 4q47 -2 72.5 -28t29.5 -50q55 -158 225.5 -540t188.5 -427 q6 -16 15.5 -20t17.5 3t14 21q100 199 246.5 548t173.5 431q29 57 90 58h256q74 0 74 -43q0 -18 -12.5 -30.5t-30.5 -10.5q-33 4 -55.5 5t-37 -5.5t-21.5 -10.5t-11 -22.5t-5 -28.5t-1 -41q-4 -260 -4 -473q0 -341 10 -561q2 -18 4 -28.5t16.5 -29t40.5 -19.5h20q22 0 54 1 q27 2 41 -11t14 -35.5t-14 -38t-37 -13.5q-105 12 -225 12t-254 -12q-23 -2 -33 11t-10 34q0 23 11 39t32 14q30 -2 54 -2q56 0 73 13q25 19 26 96q5 114 5 325q0 254 -7 650q0 8 -4 14t-9 4t-7 -14l-496 -1162q-12 -25 -42.5 -24.5t-41.5 24.5q-350 821 -493 1172 q-4 6 -11.5 9t-12.5 -1t-5 -16q8 -686 21 -926q4 -76 41.5 -120t136.5 -44q23 2 36 -15.5t13 -39.5q0 -18 -10.5 -30.5t-30.5 -10.5q-93 9 -204.5 9t-241.5 -9q-20 -2 -33 12t-13 37z" />
<glyph unicode="N" horiz-adv-x="1587" d="M94 45q0 49 48 49h3q15 -1 29 -1q30 0 49 6q29 9 41 39t14.5 46.5t6.5 67.5q4 71 4 274t-4 539q-2 139 -25 186q-20 42 -75 42q-7 0 -15 -1q-25 -2 -38 12.5t-13 34.5q0 23 16.5 38.5t44.5 13.5q83 -2 137 -2t78 2h4q30 0 57 -28q28 -30 72 -103q354 -528 641 -889 q10 -10 26.5 -10.5t18.5 12.5q5 79 6 316v84q-1 308 -10 405q-6 70 -43 100q-35 29 -112 29h-11q-45 0 -45 43q0 20 14 33q12 12 33 12h7q70 -6 163.5 -6t210.5 6h6q64 0 64 -45q0 -16 -13.5 -29.5t-33.5 -13.5q-117 0 -121 -123q-10 -262 -10 -544q0 -309 12 -640 q0 -27 -67 -27q-53 0 -70 23q-537 768 -776 1089q-4 6 -15.5 5.5t-11.5 -13.5q-1 -27 0 -67q0 -121 4 -362q6 -321 11 -396q4 -45 10 -70.5t21.5 -51.5t46.5 -34q18 -5 43 -4q18 0 40 2q35 4 53.5 -12t18.5 -41q0 -20 -13.5 -33.5t-33.5 -11.5q-113 8 -225 8l-226 -8 q-23 -2 -35 12t-12 37z" />
<glyph unicode="O" horiz-adv-x="1642" d="M113 709q0 297 201.5 499.5t506.5 202.5q319 0 515 -194.5t196 -507.5q0 -303 -204 -516t-507 -213q-319 0 -513.5 206t-194.5 523zM330 751.5q0 -282.5 155.5 -477t370.5 -194.5q213 0 336 158.5t123 439t-152.5 459t-374.5 178.5q-211 0 -334.5 -140.5t-123.5 -423z " />
<glyph unicode="P" horiz-adv-x="1175" d="M100 45.5q0 22.5 12.5 37.5t34.5 13q6 0 28 -2t34 -1t28.5 6t24.5 22.5t10 44.5q6 152 6 387v187q-3 366 -12 479q-2 49 -14 68.5t-37 20.5t-63 -3q-20 -2 -30.5 10t-10.5 31q0 23 13 36q12 13 30 13h6q2 0 23.5 -2t71.5 -4.5t120 -2.5q55 0 130 3.5t126 3.5 q78 0 156.5 -23.5t150.5 -70t117 -129.5t45 -189q0 -125 -43 -218t-116 -142.5t-153.5 -73t-171.5 -23.5q-43 0 -43 37v8q4 41 56 41q127 0 199.5 100.5t72.5 233.5q0 66 -14.5 125t-50 121.5t-115.5 95.5q-61 25 -141 25q-25 0 -52 -2q-41 -4 -59 -21.5t-20 -56.5 q-6 -63 -7 -498q0 -430 17 -573q8 -51 61 -64q14 -4 32.5 -4t40 2t32.5 2q27 0 40 -15t13 -35.5t-14 -36.5q-13 -14 -34 -13h-5q-135 7 -252.5 7t-216.5 -7h-7q-22 0 -34 12q-15 15 -15 37.5z" />
<glyph unicode="Q" horiz-adv-x="1636" d="M111 709q0 297 202.5 499.5t505.5 202.5q319 0 513 -194.5t194 -507.5q0 -217 -107.5 -394.5t-290.5 -265.5q-28 -14 -28 -36q0 -10 6 -21q49 -121 157.5 -211t252.5 -90q174 0 282 192q12 20 37 21q20 0 35 -14q10 -9 10 -22q0 -5 -2 -11q-39 -100 -149.5 -187.5 t-272.5 -87.5q-362 0 -526 350q-16 35 -39 42.5t-72 7.5q-317 0 -512.5 206t-195.5 521zM332 751.5q0 -282.5 155.5 -477t370.5 -194.5q213 0 336 158.5t123 439t-152.5 459t-373.5 178.5q-211 0 -335 -140.5t-124 -423z" />
<glyph unicode="R" horiz-adv-x="1355" d="M86 43q0 23 16.5 39t42.5 14q18 -2 33 -2q95 0 101 88q11 174 10 469v102q-2 368 -10 476q-4 47 -29 58q-11 5 -28 5q-22 0 -54 -8q-23 -6 -37 6.5t-14 32.5q0 49 49 53q260 18 405 19q266 0 425 -90.5t159 -276.5q0 -252 -293 -391q-33 -14 -33 -38q0 -17 17 -38 q12 -14 124.5 -172t199.5 -242t163 -84q25 0 25 -38q0 -25 -15 -33q-51 -23 -159 -23q-57 0 -118.5 39t-120 107.5t-104.5 133t-100.5 145.5t-81.5 116q-43 61 -81 70q-29 7 -58 7q-11 0 -22 -1q-8 0 -11 -1l-8 -4q-6 -3 -9 -7.5t-6 -14.5t-3 -24q-1 -12 -1 -32 q0 -49 4 -148q5 -138 9 -171q6 -49 27.5 -70.5t53.5 -19.5t73 4q23 0 37 -15t14 -36q0 -23 -14.5 -38t-38.5 -13q-153 6 -274 6t-210 -6q-27 -2 -41 12.5t-14 34.5zM453 1239q-1 -16 -1 -56q0 -61 2 -181q3 -198 3 -218q2 -61 11 -83.5t44 -22.5h82q156 0 255 93t99 230 q0 311 -368 312q-127 0 -127 -74z" />
<glyph unicode="S" horiz-adv-x="1087" d="M131 1047q0 135 105.5 246.5t308.5 111.5q117 0 227.5 -33t124.5 -57q20 -16 21 -260q0 -20 -16.5 -34.5t-37.5 -14.5q-37 0 -43 38q-16 121 -87.5 199t-198.5 78q-100 0 -163 -60.5t-63 -148.5q0 -80 49.5 -141.5t124 -98t160.5 -82t161 -91.5t124 -126.5t49 -187.5 q0 -61 -28.5 -130t-84 -131.5t-148.5 -102t-210 -39.5q-145 0 -258 52t-113 116q0 115 27 217q10 37 49 36q37 0 37 -30q0 -111 71.5 -202t210.5 -91q121 0 187.5 62.5t66.5 164.5q0 96 -67.5 166t-162.5 116t-191.5 97t-164 142.5t-67.5 218.5z" />
<glyph unicode="T" horiz-adv-x="1310" d="M55 1061q-3 10 -3 47q0 66 9 217q2 25 24 48q20 22 65 22h8q169 -9 409 -9h100q306 2 496 9h4q72 0 80 -70q0 -18 3 -75.5t4 -103.5t1 -73q0 -23 -21.5 -34t-44 -0.5t-26.5 38.5q-10 127 -80 181q-63 49 -183 49h-28q-80 -2 -99 -19.5t-23 -77.5q-6 -92 -6 -307v-178 q3 -358 20 -561q4 -47 29 -63q16 -10 50 -10q18 0 42 3q27 2 40 -11t13 -34q0 -23 -14 -39q-13 -15 -34 -14h-5q-117 6 -230.5 6t-224.5 -6h-6q-24 0 -38 14q-15 16 -15 39q0 20 12 33.5t33 11.5q31 0 61.5 -1t55 15.5t26.5 49.5q8 129 11 314q2 111 2 255q0 96 -1 205 q-2 274 -2 276q0 61 -25.5 78t-105.5 19h-19q-127 0 -195 -51q-73 -54 -87 -187q-2 -33 -35 -34t-47 28z" />
<glyph unicode="U" horiz-adv-x="1523" d="M63 1352q0 20 14 32q11 11 32 11h8q79 -8 186 -8.5t242 8.5h6q62 0 61 -43q0 -20 -16 -34.5t-39 -10.5t-42 3q-73 0 -83 -57q-6 -174 -6 -359q0 -148 4 -302q4 -109 19.5 -185.5t53.5 -149.5t114.5 -110.5t191.5 -37.5q172 0 258 108.5t92 360.5v677q0 35 -30 48 q-16 7 -47 6q-26 0 -62 -4q-25 -2 -39 11t-14 34q0 43 47 43h4q57 -5 141 -5q101 0 240 7h5q60 0 60 -43q0 -18 -14 -33.5t-33 -13.5q-27 4 -48 3q-77 0 -85 -46q-8 -39 -8 -225q0 -56 1 -125q3 -298 3 -337q-2 -133 -26.5 -234t-82 -186t-164 -130t-257.5 -45 q-246 0 -374 142t-132 468q-2 112 -2 278t2 387q0 31 -28 43q-21 9 -70 10q-16 0 -35 -1q-23 -2 -35.5 12.5t-12.5 32.5z" />
<glyph unicode="V" d="M-33 1354q0 18 13 30q11 11 28 11h6q77 -7 217 -7q116 0 275 5q51 0 51 -43q0 -18 -11 -31.5t-28 -11.5q-18 2 -33 2q-36 0 -56 -14q-24 -17 -24 -47q0 -46 115 -358q111 -300 230 -585q10 -20 25.5 -21t23.5 19q86 205 207.5 524.5t144.5 403.5q3 12 3 21q0 32 -31 45 q-27 12 -77 12q-24 0 -53 -2q-27 -2 -44 13t-17 36q0 39 48 39h5q195 -8 221.5 -8.5t225.5 8.5h4q47 0 47 -45q0 -18 -11.5 -31.5t-29.5 -11.5q-17 2 -32 1q-42 0 -63 -13q-30 -17 -53 -58q-80 -156 -491 -1247q-8 -14 -72 -15q-51 0 -53 11q-418 1114 -500 1261 q-14 31 -55 47q-33 13 -72 13h-20q-31 -2 -47.5 12.5t-16.5 34.5z" />
<glyph unicode="W" horiz-adv-x="2129" d="M-20 1354q0 18 11 30.5t29 10.5q78 -8 224 -8q124 0 297 6q45 0 45 -45q0 -18 -9.5 -31.5t-23.5 -11.5q-27 4 -52 4q-37 0 -68 -10q-47 -14 -47 -51q0 -9 1.5 -20t4 -25.5t5.5 -28t8.5 -34.5t10 -37.5t12.5 -44.5t13.5 -48t16 -56l17.5 -60q80 -278 176 -529 q10 -23 24.5 -23t22.5 20q197 457 359 1006q2 18 24.5 30.5t46.5 12.5q37 0 41 -27q20 -74 145.5 -430t225.5 -604q10 -23 21.5 -22.5t17.5 20.5q111 340 238 883q2 10 1 19q0 36 -27 48q-23 11 -64 11q-21 0 -46 -2q-27 -2 -42 13t-15 36q0 39 45 39h4q174 -8 203 -8.5 t211 8.5q23 2 35 -12.5t12 -33t-11.5 -31.5t-29.5 -11q-16 2 -30 1q-93 0 -113 -69q-47 -137 -363 -1243q-6 -20 -69 -21q-37 0 -39 11q-41 113 -125 349t-143.5 400t-100.5 258q-10 27 -25.5 31t-26.5 -6t-18 -25q-182 -471 -360 -997q-6 -20 -70 -21q-39 0 -41 11 q-51 162 -127.5 403.5t-110.5 348t-77 236.5t-64.5 188.5t-33.5 84.5q-29 60 -103 61q-9 0 -18 -1q-27 -2 -41 12.5t-14 34.5z" />
<glyph unicode="X" horiz-adv-x="1525" d="M10 41q0 20 14.5 37.5t32.5 15.5q33 -5 62 -5q88 0 127 48q211 248 395 512q7 11 7 24q0 19 -17 42q-43 61 -101.5 143t-86 122t-77 106.5t-112.5 148.5q-52 74 -126 74h-15q-25 -2 -39.5 10t-14.5 33q0 18 15 31q12 12 32 12h7q90 -7 205.5 -7t256.5 7h6q58 0 58 -41 q0 -20 -15.5 -34.5t-37.5 -12.5q-19 3 -36 2q-37 0 -63 -13q-21 -11 -21 -27q0 -12 11 -28q139 -225 277 -385q8 -8 14 -13t12 -5h11q4 0 11 5t9 7l10 10q8 8 8 10q141 162 275 367q6 10 8 20.5t-4 21.5t-22.5 18.5t-46.5 11.5q-15 2 -34 2t-42 -2t-36.5 12t-13.5 33 q0 41 50 41q139 -5 248 -5t188 5h6q58 0 57 -39q0 -20 -15 -35.5t-36 -13.5q-13 2 -26 1q-83 0 -142 -69q-186 -207 -362 -457q-2 -2 -7.5 -10t-8.5 -11t-6 -12.5t-2 -16.5t4 -16t11 -20q221 -309 435 -551q33 -37 63 -48q18 -7 47 -6q21 0 47 3q27 2 41.5 -12t14.5 -35 q0 -23 -16 -38q-14 -14 -34 -13h-6q-117 9 -252 9t-288 -9h-7q-24 0 -38 14q-16 16 -17 41q0 20 11.5 32.5t31.5 10.5q30 -7 69 -7q19 0 41 2q47 4 47 25q0 8 -7 19q-117 197 -301 416q-27 20 -41 16q-14 -6 -33 -28q-141 -164 -287 -387q-11 -17 -10 -29q0 -29 63 -31 q23 0 52 4q31 2 47 -14.5t16 -38.5q0 -20 -13 -34q-12 -12 -30 -11h-6q-133 7 -242 7t-194 -7h-6q-60 0 -60 45z" />
<glyph unicode="Y" horiz-adv-x="1320" d="M8 1352q0 18 13.5 31.5t35.5 11.5q79 -7 180 -7q115 0 259 9h5q60 0 60 -41q0 -20 -16.5 -36.5t-36.5 -14.5q-15 2 -28 1q-43 0 -62 -21q-13 -14 -13 -32q0 -17 11 -36q6 -12 31.5 -62.5t38 -73t38 -69.5t45 -80t47 -75t56.5 -79q25 -31 51 0q57 74 150.5 218.5 t130.5 215.5q8 16 7 31q0 24 -20 45q-22 24 -64 24q-20 0 -44 -5q-23 -4 -39.5 12t-16.5 37q0 39 45 39q152 -5 258.5 -5t167.5 5h6q54 0 54 -41q0 -18 -14.5 -33.5t-34.5 -13.5h-13q-50 0 -76 -16q-30 -17 -59 -54q-80 -92 -235.5 -323.5t-175.5 -299.5q-8 -23 -9 -110 q0 -129 15 -354q5 -58 95 -58q25 0 56 4q27 2 41.5 -11t14.5 -35.5t-15.5 -39t-40.5 -14.5q-131 9 -250 9q-133 0 -251 -11h-7q-24 0 -38 14q-15 16 -15 41q0 20 11.5 34.5t31.5 12.5q29 -9 66 -8q15 0 32 1q57 5 64 50q12 82 12 273q0 203 -12 229q-72 141 -193.5 339 t-193.5 290q-23 29 -42 37q-10 4 -26 4t-38.5 -4t-36 10.5t-13.5 34.5z" />
<glyph unicode="Z" horiz-adv-x="1253" d="M61 61q0 27 17 45q391 522 770 1119q18 20 8 46.5t-51 31.5q-53 6 -137 5q-67 0 -152 -3q-125 -6 -182.5 -57.5t-73.5 -182.5q-6 -35 -47 -35q-37 0 -41 29q-2 16 -3 126q-1 129 -1 147q0 63 69 63h13q128 -4 343 -4t517 4q29 0 29 -49q0 -29 -15 -46 q-524 -727 -747 -1099q-20 -34 -20 -56q0 -35 51 -41q104 -10 290 -10q160 0 222.5 59.5t111.5 211.5q16 49 68 49q23 0 36 -15q9 -10 9 -26q0 -8 -2 -17q-41 -223 -47 -307q0 -55 -92 -55q-47 0 -199 3t-283 3t-411 -4q-18 0 -34 20t-16 45z" />
<glyph unicode="[" horiz-adv-x="616" d="M188 -211q2 16 5.5 233.5t5.5 589t-2 858.5q0 18 8 27.5t14 10.5t21 1h86q45 0 81.5 -1t66.5 -1h50h19q47 4 47 -45q0 -25 -13.5 -40t-31.5 -11q-25 6 -168 6q-25 0 -25 -41v-1497q4 -41 45 -41q106 0 138 6q20 4 32.5 -8t12.5 -37q0 -29 -11.5 -41t-36.5 -10 q-225 0 -296 -2q-25 0 -38.5 12.5t-9.5 30.5z" />
<glyph unicode="\" horiz-adv-x="727" d="M80 1382q0 23 16.5 35.5t36.5 12.5q47 0 62 -48q113 -362 219 -684.5t158.5 -469t60.5 -160.5q14 -25 14 -50q0 -39 -43 -38.5t-59.5 19.5t-30.5 71q-6 23 -202.5 620.5t-211.5 632.5q-20 51 -20 59z" />
<glyph unicode="]" horiz-adv-x="632" d="M43 1462q0 49 49 45h19h49q31 0 66.5 1t80.5 1h86q16 0 22.5 -1t14.5 -10t8 -28q-4 -487 -3 -864t4 -599t5 -238q4 -18 -8 -30.5t-37 -12.5q-72 2 -297 2q-25 -2 -37 11t-12 40q0 25 13.5 38t33.5 9q25 -6 138 -6q41 0 45 39v1517q0 41 -27 41q-141 0 -166 -6 q-20 -2 -33.5 12t-13.5 39z" />
<glyph unicode="^" horiz-adv-x="950" d="M63 887q0 25 21 57q49 76 166 264.5t141 225.5q20 35 70 34q41 0 55 -26q145 -250 315 -508q18 -31 19 -51q0 -23 -17.5 -35t-41.5 -12q-51 0 -70 38q-168 328 -229 404q-20 23 -42 19.5t-36 -19.5q-109 -152 -230 -397q-18 -41 -67 -41q-54 0 -54 47z" />
<glyph unicode="_" horiz-adv-x="1054" d="M31 -90q0 23 9 41t21 20h222q209 0 424 2t274 11q18 2 30.5 -19.5t12.5 -48.5q0 -51 -43 -51q-33 0 -201 1t-358.5 0t-339.5 -9q-27 -2 -39 13t-12 40z" />
<glyph unicode="`" horiz-adv-x="591" d="M125 1451.5q10 21.5 41 21.5q2 0 37 1t53 1q37 0 51 -39q72 -152 152 -283q16 -27 0.5 -45t-41 -18t-43.5 14q-37 53 -85 113.5t-95.5 117t-55.5 66.5q-24 29 -14 50.5z" />
<glyph unicode="a" horiz-adv-x="966" d="M92 229q0 78 70.5 134.5t154.5 81t172.5 47t106.5 34.5q29 20 29 66q0 139 -40 194.5t-120 55.5q-119 0 -174 -47q-12 -8 -12 -32t6 -52.5t6 -36.5q0 -37 -23.5 -61.5t-66.5 -24.5q-35 0 -61.5 31.5t-26.5 68.5q0 104 140 188.5t277 84.5q131 0 188.5 -79t57.5 -253 q0 -49 -5 -155.5t-5 -166.5v-31q0 -10 1 -28.5t2 -28.5t4 -26.5t7 -24.5t9.5 -19.5t14.5 -16.5t19.5 -9t23.5 -3t30 5q16 8 29.5 -8.5t13.5 -38.5q0 -31 -23 -39q-158 -59 -188 -59q-14 0 -36 22.5t-40 58.5q-10 27 -39 2q-90 -84 -211 -83q-147 0 -219 74.5t-72 174.5z M262 233q0 -53 39 -97t121 -44q92 0 143 78t51 182q0 55 -16 70q-4 4 -13 4q-6 0 -16 -2q-55 -6 -119.5 -25.5t-127 -65t-62.5 -100.5z" />
<glyph unicode="b" horiz-adv-x="1103" d="M8 1421q0 47 37 47q115 0 248 62q4 -2 10 -8t15.5 -27.5t5.5 -50.5q-12 -88 -13 -443q0 -748 19 -841q59 -80 176 -80q143 0 226 111.5t83 263.5q0 111 -24.5 196.5t-94 148t-176.5 62.5q-6 0 -26.5 -2t-34 -3t-26.5 7t-17 27q-3 8 -3 14q0 24 33 38q43 17 125 18 q201 0 319 -118t118 -364q0 -213 -145.5 -356t-375.5 -143q-150 0 -241.5 33.5t-91.5 78.5q9 172 8 511v142q-2 446 -15 568q0 2 -1 12t-1 13t-2 11.5t-4 11.5t-5 9t-8 7t-12.5 5t-15.5 4t-19 -1t-26 -3q-20 -4 -32.5 8.5t-12.5 30.5z" />
<glyph unicode="c" horiz-adv-x="946" d="M94 465q0 209 133 352.5t357 143.5q74 0 138 -18.5t87 -33.5q25 -16 27 -215q0 -12 -13.5 -23.5t-29.5 -11.5q-31 0 -33 33q-8 57 -62.5 112.5t-148.5 55.5q-125 0 -211 -92t-86 -256q0 -160 91 -270.5t235 -110.5q150 0 219 105q14 23 32.5 22.5t30.5 -18.5q7 -11 8 -24 q0 -8 -4 -17q-47 -117 -142 -167t-200 -50q-186 0 -307 143t-121 340z" />
<glyph unicode="d" horiz-adv-x="1157" d="M96 489q0 219 139.5 346.5t352.5 127.5q70 0 168 -17q27 -6 33 3t6 69q0 305 -2 321q-6 33 -20 41q-7 4 -27 4t-54 -4q-23 -4 -35 8.5t-12 30.5q0 45 39 45q74 0 158 32t88 32q36 0 35 -65v-21q-10 -158 -18 -588q-3 -158 -2 -289q0 -223 7 -364q2 -37 28 -61 q14 -13 35 -13q16 0 36 8q16 6 29.5 -9t13.5 -36q0 -29 -25 -43q-106 -57 -170 -67q-1 0 -2 -1q-17 0 -56 53q-31 41 -55 41q-9 0 -16 -5q-111 -88 -256 -88q-172 0 -295 130.5t-123 378.5zM279 506q0 -96 24.5 -183t96 -158t178.5 -71q152 0 200 146q7 91 8 252q0 20 -1 42 q-1 191 -9 216q-25 45 -85 79.5t-154 34.5q-111 0 -184.5 -97t-73.5 -261z" />
<glyph unicode="e" horiz-adv-x="970" d="M96 430q0 215 126 373t331 158q156 0 242 -97.5t86 -220.5q0 -37 -19.5 -64.5t-56.5 -29.5q-41 -4 -231.5 -9t-249.5 -12q-66 -6 -66 -65q0 -156 92 -254t230 -98q131 0 215 98q12 12 24 12q20 0 31.5 -23.5t-4.5 -47.5q-51 -84 -142.5 -126t-189.5 -42 q-205 0 -311.5 127.5t-106.5 320.5zM295 682q-3 -12 -3 -21q0 -34 40 -38q25 -2 64 -2t92 2q108 4 165 14q41 8 41 53q0 14 -4 31q-20 82 -96 123q-35 18 -74 18q-86 0 -147.5 -58.5t-77.5 -121.5z" />
<glyph unicode="f" horiz-adv-x="714" d="M74 43q0 20 13 36.5t34 14.5h46q22 0 37 14.5t17 47.5q4 78 4 655q0 31 -49 31h-41q-35 6 -35 51q0 41 37 45q55 4 73.5 44t22.5 103q55 444 398 445q113 0 187.5 -44t74.5 -102q0 -33 -23.5 -60.5t-58.5 -27.5q-27 0 -46.5 13.5t-43 44t-35.5 41.5q-47 43 -113 43 q-37 0 -66.5 -12.5t-50 -40t-34.5 -51t-22.5 -70.5t-13.5 -72t-7 -81t-2 -72v-68q0 -31 29 -31h22q55 0 184 6h4q51 0 52 -51q0 -20 -12.5 -34.5t-30.5 -14.5h-224q-25 0 -24 -27q4 -602 18 -665q4 -31 43 -52q24 -13 58 -12q20 0 43 4q25 2 38 -12t13 -34.5t-15 -37.5 q-13 -15 -31 -14h-5q-123 4 -226.5 4t-187.5 -4h-6q-20 0 -32 12q-13 15 -13 35z" />
<glyph unicode="g" horiz-adv-x="1028" d="M37 -172q0 137 278 238q14 6 17.5 15t-10.5 17q-14 6 -51.5 20.5t-59 24t-48 24.5t-38.5 31.5t-12 37.5q0 27 84 81t88 62q2 2 2 8q0 8 -9.5 18.5t-29 27t-33.5 30.5q-86 82 -86 199q0 137 104.5 219t270.5 82q37 0 106.5 -15.5t96.5 -17.5q8 -1 19 -1q66 0 222 21 q23 2 33 -10t10 -35q0 -25 -10 -49.5t-23 -30.5q-5 -5 -30 -5q-22 0 -60 4q-80 9 -82 10q-8 0 -13 -6.5t1 -18.5q61 -84 62 -166q0 -125 -105.5 -204t-238.5 -79q-49 0 -97.5 -17t-74 -35.5t-25.5 -26.5q0 -25 51 -41q31 -10 209 -56.5t272 -83.5q61 -25 98.5 -78t37.5 -112 q0 -137 -146.5 -232.5t-353.5 -95.5q-197 0 -311.5 75t-114.5 171zM225 -139q0 -84 72 -139.5t207 -55.5q115 0 196.5 54.5t81.5 129.5q0 90 -90 132q-111 51 -231 51q-94 0 -165 -52t-71 -120zM297 666q0 -90 54.5 -163t152.5 -73q82 0 126 57.5t44 135.5q0 98 -58.5 179 t-146.5 81q-74 0 -123 -58.5t-49 -158.5z" />
<glyph unicode="h" horiz-adv-x="1239" d="M43 49q0 47 43 47q14 -1 26 -1q95 0 97 71q10 311 11 587v76q0 221 -5 352q-6 153 -16 177q-2 6 -5.5 9t-8.5 5t-8 2t-10 -1t-12 -1t-16.5 -2t-19.5 -4q-20 -2 -32.5 15.5t-12.5 39.5q0 41 35 43q59 4 98 13.5t81 27t70 25.5l9 -6q8 -4 11 -8.5t11 -15.5t7 -23.5 t-1 -34.5q-14 -86 -19 -297q-2 -96 -3 -176q0 -96 4 -170q0 -18 9 -23.5t20 6.5q57 70 153 126.5t209 56.5q135 0 204.5 -94.5t69.5 -241.5q0 -80 -3 -190.5t-4 -151.5v-13q0 -40 5 -112q4 -35 26 -53q16 -14 57 -14q14 0 30 1q25 2 39 -12t14 -34.5t-15 -37t-38 -16.5 q-49 0 -124 2t-128 2t-102 -4h-7q-26 0 -40 14q-16 16 -17 41q0 20 11.5 33.5t31.5 11.5q10 -1 18 -1q67 0 72 71q11 150 12 283q0 106 -8 202q-6 94 -57 135t-108 41q-109 0 -217.5 -90t-112.5 -178q-3 -125 -3 -212q0 -132 7 -181q7 -71 87 -71q12 0 26 1h4q47 0 47 -47 q0 -23 -14 -39q-12 -15 -32 -14h-5q-129 4 -227.5 4t-166.5 -4h-5q-23 0 -37 14q-15 16 -15 39z" />
<glyph unicode="i" horiz-adv-x="641" d="M72 49q0 20 12 34.5t33 12.5q18 -5 36.5 -5t35.5 5q36 10 51 58q18 55 18 347t-22 326q-10 25 -35 27h-11q-23 0 -61 -6q-18 -4 -31.5 12.5t-13.5 36.5q0 47 45 47q84 2 112.5 4t66.5 7.5t85 17.5q33 -7 33 -41q0 -32 -4.5 -128t-4.5 -164q0 -59 1 -126q4 -268 14 -356 q6 -37 32 -54q17 -11 52 -10q17 0 39 2q27 2 41 -11t14 -35.5t-15 -39t-40 -14.5q-100 7 -199 7q-113 0 -225 -9h-6q-23 0 -37 14q-16 16 -16 41zM193 1290q0 57 34.5 89t89.5 32q119 0 119 -106q0 -59 -30.5 -95t-88.5 -36q-59 0 -91.5 32.5t-32.5 83.5z" />
<glyph unicode="j" horiz-adv-x="585" d="M-45 -383q0 33 25.5 58.5t72.5 25.5q57 0 83 6t50.5 40t36.5 110q16 121 16 423v106q-3 388 -16 431q-8 31 -75 31q-30 0 -72 -6q-18 -4 -31.5 13t-13.5 40q0 49 45 49q223 6 311 29q38 -7 38 -38q0 -13 -6 -122t-6 -215q0 -74 1 -163q2 -160 1 -271q0 -167 -3 -225 q-14 -168 -155.5 -268.5t-266.5 -100.5q-35 0 -35 47zM166 1290q0 57 35 89t90 32q119 0 119 -106q0 -59 -31 -95t-88 -36q-59 0 -92 32.5t-33 83.5z" />
<glyph unicode="k" horiz-adv-x="1193" d="M43 41q0 23 14.5 40t36.5 15q17 -2 32 -2q81 0 83 68q13 454 13 741q0 310 -15 428q-6 47 -37 52q-9 2 -20 2q-26 0 -60 -9q-20 -2 -33.5 14.5t-13.5 39.5q0 47 47 47q47 2 87 7t57.5 10t59.5 18.5t58 17.5l4 -2q6 -2 8.5 -4t7.5 -6.5t7 -10.5t5 -14t3 -20v-27 q-15 -293 -15 -624q0 -73 1 -148q4 -414 18 -506q12 -75 86 -75q15 0 33 3q27 0 41 -14t14 -35q0 -23 -15 -38t-40 -13q-114 8 -217.5 8t-196.5 -8q-27 -2 -40 11.5t-13 33.5zM461 484q-2 8 -2 16q0 25 20 45q8 8 43 44t61.5 63.5t64.5 70.5t67 82q20 31 6 41q-12 9 -50 8 h-16q-37 0 -37 39q0 23 14.5 38t41.5 13q20 -2 87 -2q51 0 129 1q181 3 195 3q23 0 36.5 -15.5t13.5 -35.5q0 -23 -15.5 -38t-38.5 -7q-32 9 -62 9q-56 0 -108 -32q-121 -78 -262 -252q-14 -15 -14 -32q0 -25 27 -58q315 -408 473 -407q14 0 20 -25q3 -11 3 -18 q0 -11 -5 -17q-14 -18 -72.5 -31.5t-117.5 -13.5q-86 0 -190.5 105.5t-256.5 308.5q-47 63 -55 97z" />
<glyph unicode="l" horiz-adv-x="595" d="M43 41q0 23 14.5 40t36.5 15q17 -2 32 -2q81 0 83 68q13 454 13 741q0 310 -15 428q-6 47 -37 52q-9 2 -20 2q-26 0 -60 -9q-20 -2 -33.5 14.5t-13.5 39.5q0 47 47 47q47 2 87 7t57.5 10t59.5 18.5t58 17.5l4 -2q6 -2 8.5 -4t7.5 -6.5t7 -10.5t5 -14t3 -20v-27 q-14 -298 -14 -643q0 -65 1 -130q3 -419 17 -505q12 -75 86 -75q15 0 33 3q27 0 41 -14t14 -35q0 -23 -15 -38q-14 -14 -34 -13h-6q-114 8 -217.5 8t-196.5 -8h-7q-22 0 -33 11q-13 14 -13 34z" />
<glyph unicode="m" horiz-adv-x="1830" d="M76 39q0 23 13 40t36 15q14 -2 26 -1q84 0 95 73q9 47 9 219v36q-1 204 -15 273q-17 91 -72 91q-13 0 -29 -5q-16 -6 -31.5 10.5t-15.5 36.5q0 31 31 41q16 6 56 26.5t72 35t44 14.5q14 0 38.5 -41t37.5 -94q6 -23 16 -35t19.5 -11t15.5 9q141 190 336 191 q188 0 243 -179q12 -35 33 0q145 178 326 179q137 0 204.5 -82t67.5 -222q0 -55 -5 -235q-3 -100 -3 -169q0 -55 2 -91q4 -69 90 -69q13 0 29 1h4q49 0 49 -45q0 -20 -15.5 -37.5t-37.5 -17.5q-31 0 -93.5 3t-95.5 4h-24q-27 0 -66 -1q-57 -2 -116 -6h-7q-22 0 -33 12 q-13 14 -13.5 37t12 38t34.5 13q13 -2 25 -1q30 0 55 10q35 15 37 59q11 143 11 275q0 119 -9 229q-8 96 -50 137t-93 41q-96 0 -193.5 -88t-99.5 -180q-12 -141 -12 -272q0 -73 4 -142l3 -28q1 -9 9 -24.5t25 -15.5h47h4q49 0 49 -47q0 -20 -14.5 -36.5t-36.5 -16.5 q-47 0 -114.5 3t-119 3t-100.5 -6q-6 -1 -11 -1q-19 0 -30 12q-14 15 -14 38q0 20 13 35.5t36 13.5q11 -2 20 -1q63 0 68 71q11 156 11 290q0 89 -5 169q-14 223 -160 223q-104 0 -191 -100.5t-93 -194.5q-5 -58 -6 -166q0 -18 1 -38q1 -136 9 -181q11 -73 71 -73q9 0 19 1 q23 2 36 -12t13 -36.5t-13 -37.5q-12 -13 -31 -12h-5q-125 8 -220 8t-161 -8q-6 -1 -11 -1q-40 0 -40 44z" />
<glyph unicode="n" horiz-adv-x="1251" d="M78 45.5q0 22.5 13 37.5t36 13q15 -2 28 -1q86 0 93 71q5 37 4 162v93q-2 206 -12 273q-13 91 -72 91q-14 0 -31 -5q-16 -4 -31.5 10.5t-15.5 34.5q0 27 33 41q16 6 57 27.5t74 36t45 14.5q14 0 33.5 -36t34.5 -91q10 -31 26.5 -42t28.5 3q174 186 344 187 q145 0 218 -95.5t73 -242.5q0 -113 -4 -246t-4 -219q0 -35 20 -53q15 -14 56 -14q14 0 30 1q25 2 39 -12t14 -34.5t-15 -38.5q-14 -16 -33 -15h-5q-111 7 -201.5 7t-160.5 -7q-5 -1 -11 -1q-20 0 -32 13q-16 16 -17 41q0 20 12.5 34.5t32.5 12.5q14 -2 26 -1q77 0 79 67 q9 184 9 353q0 56 -1 112q-4 215 -178 215q-104 0 -201.5 -88t-99.5 -191q-7 -174 -7 -276q0 -85 5 -121q11 -71 78 -71q10 0 22 1q25 2 38 -12t13 -36.5t-13 -37t-38 -12.5q-112 6 -206 6t-171 -6q-27 -2 -41 11.5t-14 36z" />
<glyph unicode="o" horiz-adv-x="1120" d="M96 459q0 246 135.5 375t339.5 129q199 0 326 -124t127 -364q0 -231 -131 -363t-340 -132q-199 0 -328 126t-129 353zM281 512q0 -176 85 -304t212 -128q262 0 262 344q0 70 -15.5 141.5t-47.5 143t-93 116.5t-141 45q-121 0 -191.5 -94t-70.5 -264z" />
<glyph unicode="p" horiz-adv-x="1150" d="M47 -352.5q0 22.5 13.5 39t35.5 14.5q31 -2 50.5 0t37 19.5t17.5 52.5q11 364 10 591q0 303 -18 361q-16 53 -31 61.5t-56 -6.5q-18 -8 -32.5 4.5t-14.5 30.5q0 33 37 47q27 12 62 34t60.5 34t43.5 12q23 0 62 -84q6 -13 19 -13q15 0 40 19q115 98 276 99 q158 0 277 -132.5t119 -322.5q0 -135 -44 -251t-147.5 -196.5t-253.5 -80.5q-145 0 -145 61q0 18 12 33.5t33 15.5q16 0 49 -7t53 -7q121 0 187.5 111.5t66.5 275.5q0 156 -70.5 271.5t-203.5 115.5q-90 0 -139.5 -42t-83.5 -114q-8 -78 -9 -528q0 -276 11 -399 q2 -29 9 -41.5t39 -18.5q24 -5 68 -4h31q25 2 37 -12.5t12 -37t-13 -39.5q-12 -16 -31 -16q-2 0 -5 1q-116 8 -227 7q-96 0 -189 -5q-27 -2 -41 11t-14 35.5z" />
<glyph unicode="q" horiz-adv-x="1087" d="M98 461q0 219 139.5 359.5t350.5 140.5q82 0 148.5 -12.5t103.5 -31t61.5 -38t32.5 -32.5t8 -20q-16 -248 -16 -544q0 -233 10 -496q2 -61 16 -76q16 -13 54 -13q17 0 38 3q23 2 36.5 -13.5t13.5 -37.5q0 -49 -50 -49h-4q-90 7 -186 6q-80 0 -164 -4q-20 -2 -31.5 14 t-11.5 39q0 45 41 45q39 -4 59.5 16.5t22.5 69.5q5 112 5 348q0 78 -1 170q-2 369 -10 483q-2 25 -57.5 54.5t-133.5 29.5q-135 0 -211.5 -109.5t-76.5 -254.5q0 -180 65.5 -301t212.5 -121q18 0 60 8q10 1 18 2q31 0 43 -18q6 -10 6 -20q0 -26 -45 -48q-61 -31 -137 -30 q-193 0 -301.5 116.5t-108.5 364.5z" />
<glyph unicode="r" horiz-adv-x="862" d="M68 49q0 20 12 34.5t35 12.5q29 -2 56.5 -4t50 12.5t26.5 49.5q9 50 9 226v37q-1 208 -13 279q-10 66 -31 84q-11 10 -29 10q-16 0 -39 -8q-16 -6 -31.5 8.5t-15.5 34.5q0 29 33 43q18 6 55 26.5t66 35t41 14.5q6 0 20.5 -14.5t30.5 -43t29 -61.5q14 -38 31 -38 q12 0 26 20q43 61 119 107.5t143 46.5q63 0 101 -29t38 -76q0 -57 -46 -84q-27 -16 -57 -16q-21 0 -44 8q-54 18 -99 18q-50 0 -88 -22q-73 -43 -79 -139q-7 -96 -7 -190q0 -140 15 -275q4 -35 39 -54q21 -11 52 -11q21 0 46 5q27 4 42.5 -10t15.5 -37q0 -25 -15 -41 q-13 -15 -33 -14h-6q-111 13 -225 13q-104 0 -211 -11q-31 -2 -47 13t-16 40z" />
<glyph unicode="s" horiz-adv-x="837" d="M106 705q0 119 94.5 191.5t213.5 72.5q96 0 173 -21.5t95 -40.5q16 -16 16 -205q0 -14 -16 -24t-37 -10q-37 0 -39 32q-4 68 -62.5 124.5t-144.5 56.5q-76 0 -113.5 -40t-37.5 -89q0 -53 41 -89t147 -94q184 -96 248 -155.5t64 -169.5q0 -115 -95.5 -189.5t-236.5 -74.5 q-113 0 -200 36.5t-95 69.5q-5 20 -5 72q0 39 3 96q2 23 16.5 35t30.5 12q27 0 33 -22q29 -98 82 -152.5t149 -54.5q68 0 106.5 36.5t38.5 90.5q0 51 -41.5 88t-175.5 112q-137 80 -194.5 145t-57.5 161z" />
<glyph unicode="t" horiz-adv-x="774" d="M41 893q0 20 14.5 36.5t36.5 14.5q10 -1 19 -1q80 0 117 48q42 53 42 123q0 35 52 47q9 1 17 1q37 0 44 -23q0 -23 -3 -83.5t-3 -72.5q-2 -35 29 -39q6 0 32.5 -1t44.5 -1q86 0 152 8q7 1 13 1q44 0 44 -40q0 -27 -20.5 -49t-44.5 -20h-219q-37 0 -37 -35 q-5 -159 -5 -285.5t5 -220.5q6 -96 44 -137t87 -41q106 0 168 84q12 18 30 18q33 0 33 -39q0 -27 -22 -57q-113 -147 -269 -149q-94 0 -150 50t-73.5 121.5t-17.5 174.5q0 94 3 215t3 221q0 29 -2 40t-10.5 24.5t-29 15.5t-56.5 0q-33 -4 -50.5 11t-17.5 40z" />
<glyph unicode="u" horiz-adv-x="1177" d="M45 887q0 20 14.5 36.5t36.5 18.5q164 10 189 16q21 3 36 3q27 0 35 -9q10 -14 14.5 -38.5t4.5 -46t-3 -65.5t-3 -67q-7 -219 -8 -344q0 -50 1 -84q6 -102 46.5 -147t119.5 -45q92 0 174 72.5t93 193.5q4 51 6 122.5t3 145.5q1 84 1 100q0 55 -27 81q-23 23 -73 23 q-11 0 -23 -1q-27 -2 -41 10t-14 32.5t14 35t41 14.5q147 0 219 17q8 3 16 2q11 0 23 -5q20 -8 25 -28q5 -22 4 -83q0 -46 -2 -114q-5 -199 -6 -326q0 -169 10 -208q6 -25 10 -37t16.5 -27.5t29.5 -13.5t48 4q16 4 27.5 -8.5t11.5 -30.5q0 -31 -27 -49q-31 -18 -99 -37.5 t-83 -19.5q-25 0 -51.5 44t-40.5 109q-8 33 -45 -8q-45 -49 -136 -97t-179 -48q-137 0 -193.5 82.5t-62.5 244.5q0 29 3 184.5t3 253.5q0 23 -1 36.5t-6.5 31.5t-16.5 23.5t-30.5 13.5t-48.5 -2q-8 -1 -15 -1q-40 0 -40 40z" />
<glyph unicode="v" horiz-adv-x="1095" d="M6 903q0 20 13 33q11 11 33 10h7q84 -7 177 -7t194 7h5q50 0 50 -39q0 -18 -12 -33.5t-27 -13.5q-16 2 -28 2q-32 0 -43 -11q-16 -15 -8 -52q70 -252 176 -473q10 -20 33.5 -22.5t31.5 15.5q100 195 183 482q10 35 -10 52q-12 11 -45 11q-19 0 -46 -4q-23 -2 -35 10.5 t-12 32.5q0 43 43 43h4q92 -5 179 -5t169 5h6q48 0 48 -35q0 -18 -15.5 -36.5t-34.5 -16.5q-11 1 -21 1q-84 0 -110 -58q-135 -299 -323 -801q-12 -27 -41 -27q-39 0 -55 29q-201 512 -322 801q-22 62 -91 62q-13 0 -28 -3q-23 -2 -34 10.5t-11 30.5z" />
<glyph unicode="w" horiz-adv-x="1714" d="M6 901q0 20 15.5 34.5t41.5 12.5q91 -6 187.5 -6t198.5 6h5q56 0 56 -43q0 -18 -12.5 -32.5t-26.5 -12.5q-27 4 -47 5q-27 0 -44 -8q-30 -13 -20 -48q84 -311 172 -496q14 -25 35 -24.5t29 18.5q35 70 110.5 266.5t118.5 346.5q12 45 74 45q55 0 64 -45 q39 -145 106.5 -356.5t89.5 -258.5q8 -20 33 -21t33 15q94 186 176 483q2 9 2 18q0 25 -24 43q-27 20 -78 20q-9 0 -19 -1q-20 -2 -32.5 12.5t-12.5 32.5q0 41 43 41q68 0 142.5 -3t124.5 -3t112 6h5q48 0 48 -37q0 -20 -13 -36.5t-32 -14.5q-20 3 -36 3q-72 0 -101 -56 q-141 -262 -320 -809q-23 -25 -53 -25q-33 0 -51 27q-166 508 -240 651q-4 10 -14 11.5t-16 -11.5q-23 -55 -62 -141t-84 -203t-110 -309q-18 -25 -50 -25q-37 0 -53 27q-199 532 -321 821q-15 39 -90 40q-7 0 -15 -1h-4q-41 0 -41 41z" />
<glyph unicode="x" horiz-adv-x="1159" d="M41 37q0 23 15.5 41t35.5 16q25 -4 47 -3q79 0 115 46q20 25 39.5 51.5t67 93t100.5 140.5q7 8 7 20q0 20 -19 50q-29 39 -82.5 118.5t-94.5 138t-53 74.5q-30 37 -87 37q-13 0 -28 -2q-23 -2 -36 12.5t-13 35t13.5 32.5t37.5 10q70 -8 124 -10q36 -1 60 -1h21q27 1 77 6 t79 7h6q62 0 62 -41q0 -18 -12.5 -31.5t-30.5 -11.5q-22 3 -37 3q-18 0 -27 -4q-16 -7 -2 -38q23 -70 139 -225q18 -31 39 -4q123 168 156 219q8 14 9 23.5t-15.5 15.5t-57.5 2q-23 -2 -37 12.5t-14 34.5q0 41 47 41q82 -6 162 -5q92 0 180 7h6q56 0 56 -39 q0 -20 -16.5 -37.5t-37.5 -15.5q-22 2 -41 2q-90 0 -122 -39q-14 -20 -89 -116.5t-118 -153.5q-15 -22 -15 -40q0 -12 7 -22q72 -106 164 -217.5t126 -142.5q48 -39 99 -39q13 0 26 2q23 2 35 -12.5t12 -34.5t-13 -35q-12 -13 -32 -12h-6q-68 8 -125 10q-38 1 -64 2 q-13 0 -24 -1q-31 -1 -83 -5t-83 -6h-5q-66 0 -66 51q0 18 11 30.5t28 10.5q27 -2 43 -2t21 6t4 14.5t-7 20.5q-31 66 -160 235q-16 16 -33 0q-106 -145 -157 -225q-18 -29 -4 -39q10 -7 39 -7q12 0 26 1q23 2 37 -12t14 -37q0 -45 -47 -45q-109 3 -187 3q-104 0 -153 -5h-5 q-54 0 -54 41z" />
<glyph unicode="y" horiz-adv-x="1087" d="M6 905q0 20 14 33q12 11 34 11q4 0 7 -1q87 -6 179.5 -6t189.5 6h6q64 0 64 -43q0 -18 -13.5 -32.5t-33.5 -12.5q-19 3 -34 3q-27 0 -36 -10q-14 -15 -4 -54q68 -233 170 -461q14 -29 35.5 -27t29.5 21q92 205 179 475q10 35 -9 49q-11 8 -39 8q-21 0 -51 -4 q-23 -4 -37 9.5t-14 33.5q0 45 51 45q49 -2 105.5 -4t81 -2t62.5 1t87 5h4q47 0 47 -43q0 -18 -12 -32.5t-31 -12.5q-18 3 -34 3q-68 0 -97 -56q-4 -8 -336 -836q-49 -125 -93 -206.5t-83 -119.5t-69.5 -50.5t-67.5 -12.5q-45 0 -72.5 26.5t-27.5 55.5q0 45 42 65.5 t106.5 47t99.5 78.5q68 109 83 168q-23 90 -71.5 216t-134.5 320.5t-113 257.5q-18 46 -97 46q-9 0 -20 -1q-23 -2 -35 11.5t-12 31.5z" />
<glyph unicode="z" horiz-adv-x="1005" d="M78 63.5q0 24.5 14 40.5q295 346 545 695q13 17 13 28q0 19 -36 23q-56 7 -121 7q-81 0 -174 -11q-39 -4 -60 -36t-27.5 -65.5t-17.5 -61.5t-32 -28q-27 0 -41 18.5t-14 37.5q0 23 -1 85t-1 85q0 63 70 63q184 -2 355 -2t329 2q14 0 23 -15.5t9 -37.5q0 -27 -16 -47 q-446 -535 -541 -686q-12 -23 -0.5 -42.5t39.5 -23.5q52 -9 114 -9q21 0 43 1q87 4 128 14q117 20 133 183q2 12 13.5 23t25.5 11q33 0 39 -63q8 -70 8 -131q0 -121 -57 -121h-713q-20 0 -34.5 19.5t-14.5 44z" />
<glyph unicode="{" horiz-adv-x="673" d="M47 653q0 63 37 64q94 -4 133 60.5t39 142.5q0 43 -10 157.5t-10 167.5q0 141 88 212t192 71q35 0 66 -10q8 -2 11 -15.5t-3 -27t-21 -13.5q-57 0 -94 -17.5t-51 -50t-18.5 -60t-4.5 -68.5q0 -74 8.5 -186.5t8.5 -186.5q0 -88 -39 -133t-119 -84q-16 -8 -16 -25.5 t24 -27.5q150 -72 150 -217q0 -76 -10.5 -196t-10.5 -192q0 -88 38 -148t143 -58q8 0 15 -10.5t5 -25t-18 -22.5q-27 -12 -66 -12q-102 0 -191.5 76t-89.5 215q0 49 11.5 176t11.5 172v14q0 37 -3 56.5t-17.5 48t-52.5 45t-99 22.5q-16 2 -26.5 28.5t-10.5 57.5z" />
<glyph unicode="|" horiz-adv-x="475" d="M186 -371q2 14 5.5 278.5t5.5 676t-2 905.5q0 18 6 27.5t12 11.5t18 2q51 0 52 -39q-2 -66 -3 -956.5t1 -903.5q2 -49 -48 -49q-25 0 -38 13.5t-9 33.5z" />
<glyph unicode="}" horiz-adv-x="673" d="M76 -223.5q-2 14.5 5 25t15 10.5q104 -2 142 58t38 148q0 72 -10 192t-10 196q0 145 150 217q25 10 24.5 27.5t-16.5 25.5q-80 39 -119 84t-39 133q0 74 8 186.5t8 186.5q0 41 -4 68.5t-18 60t-51 50t-95 17.5q-14 0 -20 13.5t-3 27t11 15.5q31 10 66 10q102 0 190 -71 t88 -212q0 -45 -9 -160.5t-9 -164.5q0 -78 39 -142.5t133 -60.5q37 0 37 -64q0 -31 -10.5 -57.5t-26.5 -28.5q-61 -6 -99 -22.5t-52.5 -45t-17.5 -47t-3 -57.5v-14q0 -39 11 -166t11 -182q0 -139 -89 -215t-191 -76q-37 0 -66 12q-16 8 -18 22.5z" />
<glyph unicode="~" horiz-adv-x="1200" d="M123 553q0 88 78 163t170 75q78 0 167 -51.5t169.5 -103.5t140.5 -52q94 0 149 129q12 29 37 28q18 0 34.5 -14t16.5 -31q0 -27 -14 -66.5t-46 -87.5t-93.5 -81t-140.5 -33q-68 0 -135.5 34t-114.5 73.5t-106.5 73.5t-108.5 34q-16 0 -29.5 -3t-24 -11t-17.5 -13.5 t-14.5 -20.5t-10.5 -20.5t-10 -25t-9 -23.5q-12 -27 -35 -26q-20 0 -36.5 17.5t-16.5 35.5z" />
<glyph unicode="&#xa1;" horiz-adv-x="561" d="M139 -264q0 2 22.5 62.5t41 127t32 212t9.5 321.5q0 43 43 41q12 0 22 -9.5t10 -17.5q0 -195 13.5 -340t26 -201.5t33 -117t20.5 -62.5q20 -92 -41.5 -139t-132.5 -29q-45 12 -79 53.5t-20 98.5zM150 868q0 66 33.5 106t97 40t100.5 -37t37 -92q0 -63 -38 -97t-99 -34 q-131 -1 -131 114z" />
<glyph unicode="&#xa2;" horiz-adv-x="935" d="M78 455q0 78 17.5 146.5t41 114.5t63.5 87t67.5 62.5t72.5 43t60.5 27.5t45.5 16q20 6 21 37q0 6 -1 54.5t-1 68.5q0 45 49 53q41 4 49 -22v-4q0 -12 -1 -76t-1 -68q0 -25 37 -34t96.5 -21t93.5 -39q16 -12 31 -182q0 -12 -18.5 -20.5t-40 -4.5t-23.5 23q-10 59 -58 99 t-93 50q-16 4 -20.5 -6t-4.5 -20q-4 -14 -8 -263t-2 -419q0 -39 33 -39q135 0 200 112q23 37 48.5 19.5t13.5 -51.5q-20 -66 -70.5 -111t-97.5 -61.5t-84 -37t-37 -44.5q-2 -12 4 -129q2 -27 -21.5 -38t-49 0t-25.5 40q0 23 1 51.5t2 49t1 22.5q0 35 -41 45q-49 12 -99 37.5 t-111.5 77t-100.5 143.5t-39 211zM227 510q0 -109 47.5 -205t106.5 -143q25 -20 44 -27.5t31.5 -1.5t12.5 27q0 4 1 114.5t2 223t0 215t-3 114.5q0 33 -31 27q-61 -14 -136 -105.5t-75 -238.5z" />
<glyph unicode="&#xa3;" horiz-adv-x="1212" d="M76 76q0 90 153 166q47 25 71 92t27 122.5t3 161.5v33q0 20 -8.5 31.5t-25.5 14.5t-32.5 2t-42 -3t-41.5 -2q-29 0 -38 21.5t2.5 44t31.5 22.5q147 -10 148 29q0 80 10 155.5t37.5 158.5t71.5 144.5t118 101.5t170 40q162 0 255 -80t20 -164q-27 -23 -56 -26 q-35 -4 -61.5 12t-46 43t-40 55.5t-54 48t-76.5 19.5q-221 0 -164 -442q4 -29 7 -44.5t14.5 -30t27.5 -14.5q20 0 92 2.5t121 0.5q37 -2 37 -39q2 -41 -39 -52q-6 -2 -14 -2q-16 0 -65.5 2t-90.5 2q-76 0 -76 -32q0 -289 -106 -379q-23 -23 12 -29q55 -8 206.5 -99 t235.5 -91q59 0 79 34.5t13.5 77.5t10 78t67.5 35q37 0 62.5 -32t25.5 -70q0 -90 -89 -151.5t-232 -61.5q-94 0 -258 70.5t-236 70.5q-35 0 -56 -17.5t-17 -42.5q6 -35 -29 -48t-76 -7q-59 11 -59 68z" />
<glyph unicode="&#xa4;" horiz-adv-x="1017" d="M111.5 902q13.5 36 46 48.5t63.5 -6.5l107 -110q31 -27 65 -17q66 18 115 18.5t113 -18.5q25 -10 36 -8t31 22q98 102 111 113q29 23 64.5 6.5t45 -48.5t-15.5 -62q-8 -8 -98 -90q-39 -31 -23 -62q33 -55 33 -115q0 -70 -25 -122q-18 -39 4 -62q25 -23 50.5 -46.5 t42 -37.5t20.5 -18q25 -27 8.5 -62t-49.5 -45t-63 15q-18 14 -99 98q-14 16 -25.5 18t-39.5 -6q-61 -20 -125 -20q-59 0 -127 20q-29 10 -53 -12q-45 -47 -97 -98q-45 -43 -94 3t-12 89q4 4 17.5 16t35 32.5t43.5 39.5q20 20 23.5 30.5t-7.5 24.5q-25 55 -24 131 q0 59 29 127q20 29 -7 55q-29 25 -64.5 59t-39.5 38q-29 26 -15.5 62zM356 563q0 -66 41 -105.5t105 -39.5q70 0 111.5 41t41.5 112q0 55 -43 93t-106.5 38t-106.5 -39t-43 -100z" />
<glyph unicode="&#xa5;" horiz-adv-x="1533" d="M88 1341q-6 39 27 52q10 4 22 2q172 -14 436 2q68 2 68 -41q0 -35 -33 -47q-8 -4 -18 -4q-59 8 -87 -21t-9 -67q127 -238 264 -418q12 -16 33.5 -14.5t29.5 14.5q63 78 151.5 213t119.5 200q20 43 -12.5 79t-110.5 16q-39 -10 -51 30q-12 41 20 54q8 4 20 4 q313 -10 439 0q63 2 63 -39q0 -33 -33 -47q-8 -2 -18 -2q-63 6 -100 -13.5t-70 -56.5q-66 -76 -250 -336q-29 -47 19 -47q96 0 137 4q18 2 31.5 -10t13.5 -35q0 -51 -47 -47t-205 0q-41 0 -59 -35q-6 -12 -19.5 -35.5t-19.5 -33.5q-10 -27 -3 -38.5t35 -11.5h275 q18 0 27.5 -8t10.5 -14t1 -22.5t-11.5 -29t-25.5 -12.5q-39 2 -266 2q-41 0 -53.5 -10t-12.5 -45q0 -160 17 -323q6 -41 41.5 -52.5t111.5 -1.5q37 4 51.5 -22.5t-2 -53t-49.5 -24.5q-276 18 -502 -2q-47 -4 -57 41q-10 43 23 57q8 6 20 4q41 -12 96.5 -7t61.5 50 q18 102 18 336q0 53 -43 53h-268q-27 -2 -38 8.5t-11 36.5q0 25 12 37.5t35 10.5q10 -2 260 -7q33 0 40 10.5t-5 37.5q-6 14 -33 69q-23 37 -94 37q-152 0 -166 -2q-27 -2 -38 8t-11 39q0 49 47 45q25 -4 129 -4q43 0 49 9t-18 44q-90 147 -252 363q-23 29 -41.5 37t-63.5 0 q-39 -7 -49 34z" />
<glyph unicode="&#xa6;" horiz-adv-x="450" d="M176 -371q4 18 7 275.5t1 361.5q0 18 8.5 27.5t14.5 10.5t22 1q43 0 43 -37q-2 -68 -3 -346t1 -291q4 -49 -47 -49q-25 0 -38 13.5t-9 33.5zM176 881q8 49 8 608q0 20 8.5 29.5t14.5 10.5t22 1q43 0 43 -39q-2 -68 -3 -332t1 -276q4 -49 -47 -49q-25 0 -38 13.5t-9 33.5z " />
<glyph unicode="&#xa7;" horiz-adv-x="1173" d="M82 913q0 231 173 365.5t417 134.5q205 0 205 -115q0 -37 -24 -56t-56 -19q-43 0 -120 43t-114 43q-102 0 -184 -77t-82 -140q0 -29 16 -39q782 -442 783 -975q0 -231 -171 -363.5t-417 -132.5q-205 0 -205 117q0 33 25.5 53.5t56.5 20.5q41 0 121 -43t115 -43 q98 0 177 72.5t79 136.5q0 25 -21 36q-94 53 -183 110.5t-202 155t-194.5 199t-138 238.5t-56.5 278zM256 879q0 -135 55.5 -268.5t134 -229.5t169 -175t155 -120t96.5 -53q8 -2 23 -2q37 0 37 78q0 137 -55.5 271t-134.5 230.5t-168 176t-155.5 121.5t-99.5 53q-12 6 -22 6 q-35 0 -35 -88z" />
<glyph unicode="&#xa8;" horiz-adv-x="856" d="M121 1268q0 33 29.5 67.5t91.5 34.5q43 0 75.5 -30.5t32.5 -79.5q0 -45 -31.5 -73t-76.5 -28q-43 0 -82 26t-39 83zM504 1268q0 33 28.5 67.5t94.5 34.5q41 0 72.5 -30.5t31.5 -79.5q0 -45 -29.5 -73t-74.5 -28t-84 25t-39 84z" />
<glyph unicode="&#xa9;" horiz-adv-x="1669" d="M86 696q0 297 217 506t532.5 209t531.5 -209t216 -506t-216 -506.5t-531.5 -209.5t-532.5 209.5t-217 506.5zM174 696q0 -260 192.5 -445t469 -185t467 185t190.5 445t-190.5 444.5t-467 184.5t-469 -184.5t-192.5 -444.5zM442 698q0 166 119 280t299 114q98 0 172 -31 t78 -60q2 -12 8 -122q0 -12 -20.5 -18.5t-40 -3.5t-21.5 11q-39 145 -188 146q-88 0 -161 -86t-73 -215q0 -147 84 -230.5t172 -83.5q131 0 187 47q29 23 45 -6q16 -27 -10 -57q-4 -6 -30 -22.5t-87.5 -36t-132.5 -19.5q-182 0 -291 110.5t-109 282.5z" />
<glyph unicode="&#xaa;" horiz-adv-x="638" d="M102 969q0 47 56.5 77.5t123 46t72.5 21.5q10 10 11 41q10 100 -64 100q-37 0 -54.5 -17t-17.5 -38.5t-11 -39t-40 -17.5q-25 0 -40 15.5t-15 33.5q0 47 69.5 87t141.5 40t106.5 -40t34.5 -105q0 -12 -5 -60.5t-5 -77.5q0 -106 35 -106q8 0 17 2t11 2q16 0 17 -29 q0 -25 -47 -42t-74 -17q-8 0 -24.5 23.5t-26.5 23.5q-2 0 -17.5 -12.5t-45 -23.5t-62.5 -11q-70 0 -108 38t-38 85zM219 965q0 -55 66 -56q74 0 73 111q0 20 -6 27q-2 2 -10 2q-33 0 -78 -21.5t-45 -62.5z" />
<glyph unicode="&#xab;" horiz-adv-x="915" d="M78 481q0 12 9 29.5t36 50.5t54.5 67t84.5 101.5t109 130.5q10 16 37 17q18 0 34.5 -12.5t16.5 -30.5q0 -14 -8 -25q-55 -76 -102.5 -155t-69 -123t-21.5 -54q0 -68 176 -321q8 -14 8 -27q0 -20 -18 -33.5t-38.5 -13.5t-33.5 14q-23 29 -55.5 70t-51 63.5t-43 53 t-37.5 49t-29.5 41t-26 37t-17.5 29t-11 24.5t-3 18zM426 481q0 12 9 29.5t35 51.5t53.5 67t85 100.5t108.5 130.5q14 16 37 17q20 0 36.5 -12.5t16.5 -30.5q0 -14 -8 -25q-55 -76 -102.5 -155t-69 -123t-21.5 -54q0 -12 12.5 -44t55.5 -107.5t106 -169.5q10 -16 11 -29 q0 -18 -18.5 -31.5t-39 -13.5t-33.5 14q-23 29 -55.5 70t-51 63.5t-43 53t-37.5 49t-29.5 41t-25.5 37t-17.5 29t-11.5 24.5t-3 18z" />
<glyph unicode="&#xac;" horiz-adv-x="1091" d="M100.5 623.5q-16.5 33.5 0 67.5t55.5 32q102 -8 365 -6t364 12q41 4 58.5 -20.5t14.5 -65.5q-4 -96 3 -328q2 -37 -32 -50t-68 4.5t-34 56.5q0 113 -2 198q-4 74 -71 76q-455 12 -598 -6q-39 -4 -55.5 29.5z" />
<glyph unicode="&#xad;" horiz-adv-x="833" d="M174 589q14 38 49 40q8 0 76 1t128 2t134 7t115 16t63 -43q25 -59 -18 -88q-18 -12 -47 -12q-260 -2 -445 -20q-37 -6 -53 26.5t-2 70.5z" />
<glyph unicode="&#xae;" horiz-adv-x="1153" d="M88 1065q0 190 140.5 327.5t344.5 137.5q207 0 349.5 -137.5t142.5 -327.5q0 -195 -142.5 -332t-349.5 -137q-205 0 -345 137t-140 332zM164 1065q0 -162 119.5 -277.5t289.5 -115.5q176 0 296 115.5t120 277.5t-119.5 277.5t-296.5 115.5q-170 0 -289.5 -115.5 t-119.5 -277.5zM352 881q2 20 19 18q14 -4 31.5 4t17.5 29q4 61 4 167.5t-4 129.5q0 16 -5 23.5t-10.5 8.5t-19.5 1h-8q-23 0 -24 24.5t22 28.5q78 8 168 8q199 0 198 -111q0 -74 -90 -116q-10 -4 -11 -11.5t3 -11.5l4 -6q14 -18 40 -56t41 -58.5t40 -39t49 -18.5q6 0 10 -8 t2 -18.5t-10 -16.5q-16 -8 -59 -8q-45 0 -88 50t-79 100t-63 50q-20 0 -20 -18q0 -8 2 -44t2 -46q0 -41 53 -37q16 2 21 -18q6 -27 -27 -27q-86 8 -186 0q-27 0 -23 27zM502 1239q0 -2 1 -44t1 -50q0 -33 31 -33q35 0 66.5 24.5t31.5 57.5q0 39 -34 58.5t-71 19.5 q-26 0 -26 -33z" />
<glyph unicode="&#xaf;" horiz-adv-x="835" d="M126 1266.5q9 29.5 28 31.5h119q110 0 224.5 2.5t174.5 10.5q20 2 33.5 -29t6.5 -62.5t-40 -31.5q-39 0 -102.5 1t-155.5 0t-242 -9q-33 -2 -44 27.5t-2 59z" />
<glyph unicode="&#xb0;" horiz-adv-x="694" d="M92 1081q0 104 77 171t181.5 67t178 -65.5t73.5 -159.5q0 -117 -73.5 -182.5t-182.5 -65.5q-113 0 -183.5 63t-70.5 172zM193 1087q0 -72 40.5 -110.5t110.5 -38.5q68 0 111 41t43 115q0 53 -44 93t-106 40q-66 0 -110.5 -40.5t-44.5 -99.5z" />
<glyph unicode="&#xb1;" horiz-adv-x="1228" d="M221 250q0 55 51 59q12 0 163 2t304.5 8.5t202.5 18.5q25 6 45.5 -15.5t20.5 -48.5q0 -53 -68 -53q-494 -4 -659 -22q-27 -6 -43.5 10t-16.5 41zM227 702q0 23 14.5 44.5t28.5 19.5h44q36 0 90.5 -1t93.5 -1q35 2 43 13t8 40q0 166 -2 227q-2 29 16.5 44.5t44.5 15.5 q25 0 41.5 -12.5t12.5 -30.5q-2 -6 -7 -260q0 -10 1 -17.5t2 -11.5t6.5 -6t7.5 -3t11 -1h11q190 0 244 12q29 6 48.5 -11.5t19.5 -41.5q0 -51 -68 -53q-12 0 -102.5 -2t-139.5 0q-27 2 -33 -4.5t-8 -36.5q0 -45 3.5 -104.5t3.5 -69.5q2 -23 -16.5 -37.5t-43.5 -14.5 q-23 0 -39 13.5t-16 38.5q-2 25 0 79t2 76.5t-3 35.5t-11.5 18.5t-19.5 6.5t-23 -1q-12 0 -94.5 -2t-112.5 -5q-58 -2 -58 43z" />
<glyph unicode="&#xb2;" horiz-adv-x="665" d="M52 954q-11 45 5 56q133 86 245 194.5t112 208.5q0 61 -34 98t-97 37q-51 0 -88 -29.5t-54 -64.5q-8 -12 -24.5 -11t-29.5 17.5t-7 32.5q18 49 88 99t172 50q98 0 169 -54t71 -144q0 -51 -20.5 -98.5t-63.5 -92.5t-71 -69.5t-83 -65.5t-59 -43q-16 -16 -4 -26.5t40 -12.5 q72 0 130 4q43 6 61 17.5t37 44.5q4 10 19.5 13t27.5 -3t8 -20q-6 -16 -23.5 -87t-23.5 -92q-6 -16 -59 -4q-20 4 -70 4q-186 6 -332 -2q-31 -2 -42 43z" />
<glyph unicode="&#xb3;" horiz-adv-x="653" d="M55 993q0 25 17.5 43.5t48.5 18.5q39 0 72.5 -41t89.5 -41q59 0 102 32.5t43 88.5q0 76 -68.5 110.5t-175.5 34.5q-29 0 -30.5 32t22.5 34q82 8 138.5 51t56.5 106q0 41 -30 67.5t-87 26.5q-39 0 -70.5 -14t-50 -30.5t-20.5 -16.5q-18 -12 -32.5 9.5t-4.5 39.5 q4 12 28.5 33.5t81 43t123.5 21.5q98 0 162 -43t64 -108q0 -104 -121 -160q-6 -2 -8.5 -5t-3.5 -7t3.5 -7t10.5 -5q115 -33 153 -86q25 -37 25 -84q0 -100 -91 -169t-247 -69q-86 0 -143.5 25.5t-57.5 68.5z" />
<glyph unicode="&#xb4;" horiz-adv-x="591" d="M132 1108q-13 16 1 45q80 131 152 283q14 39 51 39q18 0 53 -1t39 -1q31 0 40 -21.5t-15 -50.5q-8 -10 -55.5 -66.5t-95.5 -117t-85 -113.5q-16 -16 -44 -14t-41 18z" />
<glyph unicode="&#xb5;" horiz-adv-x="1204" d="M59 887q0 20 14.5 36.5t37.5 18.5q164 10 186 16q59 8 72 -6q10 -14 15 -38.5t4 -46t-3 -65.5t-2 -67q-10 -346 -6 -428q6 -102 45 -147t121 -45q92 0 174 72.5t92 193.5q4 51 6 122.5t3 145.5t1 92q2 61 -26.5 89t-98.5 22q-25 -2 -39 10t-14 32.5t14.5 35t38.5 14.5 q150 0 221 17q18 6 39 -2.5t25 -28.5q8 -39 2 -197q0 -31 -3 -128t-4 -136t-1 -104.5t3 -103.5t9 -62.5t10 -36.5t16.5 -27.5t30 -13.5t48.5 4q16 4 27 -8.5t11 -30.5q0 -33 -28 -49q-29 -18 -97.5 -37.5t-82.5 -19.5q-25 0 -51.5 44t-41.5 109q-8 33 -45 -8 q-45 -47 -134 -96t-167 -49q-29 0 -59.5 5t-36.5 5q-16 0 -16 -23q0 -59 5 -170.5t5 -150.5t-29 -43q-2 0 -51 -8.5t-65.5 -12.5t-22.5 9.5t-6 35.5q18 813 12 1118q0 25 -2 36.5t-7 32t-15.5 24.5t-30 12t-47.5 -2q-56 -8 -56 39z" />
<glyph unicode="&#xb6;" horiz-adv-x="1144" d="M82 961q0 203 172 317.5t473 114.5q72 0 287 10q25 0 38 -15.5t13 -38t-14.5 -41t-38.5 -16.5q-80 2 -104.5 -20.5t-28.5 -89.5q-20 -256 -13.5 -694.5t0.5 -497.5q-14 -125 -97 -222.5t-177 -141.5t-172 -44q-35 0 -39 45q-4 59 53 86q23 10 53 11q86 0 132.5 41.5 t58.5 160.5q6 88 6 221.5t-4 223.5l-2 90q0 39 -25.5 58.5t-50.5 19.5q-217 0 -368.5 117t-151.5 305z" />
<glyph unicode="&#xb7;" horiz-adv-x="534" d="M143 584q0 55 35 86.5t90 31.5q121 0 121 -106q0 -57 -31.5 -94t-89 -37t-91.5 34t-34 85z" />
<glyph unicode="&#xb8;" horiz-adv-x="530" d="M150 -150q20 53 83 150q16 23 52 27q20 2 38.5 -4.5t10.5 -20.5q-2 -6 -20.5 -31.5t-22.5 -33.5q-14 -23 -12 -31t20 -12q147 -20 147 -119q0 -57 -67.5 -110.5t-165.5 -61.5q-39 -2 -43 30q-6 29 16 31q135 8 136 76q0 55 -115 55q-35 0 -52 13t-5 42z" />
<glyph unicode="&#xb9;" horiz-adv-x="579" d="M58.5 963.5q7.5 17.5 27.5 17.5q96 -6 124 7t32 56q4 53 4 208t-4 208q-2 20 -23.5 24.5t-128.5 0.5q-18 0 -27.5 16.5t-3 33.5t26.5 17q59 0 107.5 15.5t71 35t40 35t23.5 15.5q80 0 73 -37q-6 -72 -6 -305.5t4 -276.5q6 -39 21 -47q23 -10 117 -4q16 0 25 -18.5t1 -36 t-33 -17.5q-287 10 -446 0q-16 0 -24.5 17.5t-1 35z" />
<glyph unicode="&#xba;" horiz-adv-x="694" d="M92 1081q0 104 77 171t181.5 67t178 -65.5t73.5 -159.5q0 -117 -73.5 -182.5t-182.5 -65.5q-113 0 -183.5 63t-70.5 172zM193 1087q0 -72 40.5 -110.5t110.5 -38.5q68 0 111 41t43 115q0 53 -44 93t-106 40q-66 0 -110.5 -40.5t-44.5 -99.5z" />
<glyph unicode="&#xbb;" horiz-adv-x="915" d="M109 834q0 18 16 30.5t37 12.5q23 0 37 -17q51 -63 108.5 -130.5t85 -100.5t53 -67t34.5 -51t9 -30q0 -8 -3 -18t-11 -24.5t-17 -29t-25.5 -37t-30 -41t-38 -49t-43 -53t-51 -63.5t-55.5 -70q-12 -14 -33 -14q-23 0 -40 13.5t-17 31.5q0 12 10 29q63 94 106.5 169.5 t55.5 107.5t12 44q0 10 -21.5 54t-68.5 123t-102 155q-8 11 -8 25zM457 834q0 18 16 30.5t37 12.5q23 0 37 -17q49 -61 107.5 -131t85 -101.5t53 -65.5t35 -51t8.5 -30q0 -43 -220 -317q-35 -45 -53 -68q-12 -14 -33 -14q-23 0 -40 13.5t-17 31.5q0 12 10 29 q63 94 106.5 169.5t55.5 107.5t12 44q0 10 -21.5 54t-68.5 123t-102 155q-8 11 -8 25z" />
<glyph unicode="&#xbc;" horiz-adv-x="1550" d="M101.5 691.5q-7.5 17.5 0 34.5t25.5 17q98 -6 126 7.5t32 56.5q4 53 4 207.5t-4 208.5q-2 20 -27 23t-127 -1q-16 0 -25.5 16.5t-3 34t24.5 17.5q76 0 131 25.5t81 51t30 25.5q80 0 73 -39q-6 -70 -6 -304t4 -275q6 -39 21 -47q23 -10 117 -5q18 0 26 -18t0 -35.5 t-33 -17.5q-287 10 -446 0q-16 0 -23.5 17.5zM322.5 8.5q-7.5 18.5 1 35.5t22.5 32q12 12 114.5 168.5t295 476t377.5 653.5q27 51 75 29q41 -16 37 -53q-2 -10 -10 -21q-14 -18 -389 -636.5t-385 -639.5q-18 -35 -25.5 -46t-28 -20.5t-49 -3t-36 25zM852 273.5 q2 21.5 4 27.5q84 80 210 223.5t128 165.5q0 31 29 31q23 0 58.5 9t43.5 22q6 10 26.5 4t18.5 -21q0 -4 -2 -50t-3 -99.5t-1 -129t4 -139.5q0 -23 23 -24q10 0 23 1t26 1q18 0 31.5 -8t11.5 -27q-6 -55 -43 -55h-62q-12 0 -12 -15q-6 -88 2 -157q0 -16 -8 -25.5t-25 -7.5 h-92q-35 0 -33 37q2 53 2 149q0 16 -20 19q-123 8 -301 0q-20 0 -30.5 23.5t-8.5 45zM983 332q-27 -35 10 -35q25 -2 97.5 -2t95.5 2q25 2 26 27q4 25 5.5 97.5t-0.5 102.5q0 18 -14.5 21.5t-26.5 -8.5q-89 -80 -193 -205z" />
<glyph unicode="&#xbd;" horiz-adv-x="1538" d="M89 691.5q-7 17.5 0 34.5t26 17q98 -6 125.5 7.5t31.5 56.5q4 53 4 207.5t-4 208.5q-2 20 -26.5 23t-126.5 -1q-16 0 -25.5 16.5t-3.5 34t25 17.5q78 0 133 25.5t80.5 51t29.5 25.5q78 0 72 -39q-4 -80 -4 -310t4 -269q2 -29 6 -36t35 -16.5t94 0.5q18 0 27.5 -18 t1.5 -35.5t-33 -17.5q-291 10 -448 0q-17 0 -24 17.5zM310 8.5q-7 18.5 1 35.5t23 32q12 12 114.5 168.5t295 476t376.5 653.5q27 51 78 29q41 -20 35 -55q-2 -10 -8 -19q-16 -18 -390 -635.5t-386 -640.5q-16 -31 -24.5 -44t-29 -22.5t-49.5 -3t-36 25zM908.5 41 q-11.5 45 4.5 55q78 49 150 105.5t139.5 141.5t67.5 155q0 63 -34 99t-97 36q-51 0 -88 -30t-54 -62q-8 -12 -24.5 -11.5t-29.5 17t-7 33.5q23 51 90.5 100t169.5 49q98 0 169 -54t71 -145q0 -43 -17.5 -86t-39 -73.5t-61.5 -68.5t-63.5 -55.5t-66.5 -48t-49 -36.5 q-16 -16 -4 -26.5t41 -12.5q72 0 129 4q43 6 61 17.5t37 43.5q4 10 19.5 13.5t27.5 -4t8 -21.5q-6 -16 -23.5 -87t-23.5 -89q-2 -8 -21.5 -8t-35.5 4q-25 4 -72 4q-186 6 -332 -2q-30 -2 -41.5 43z" />
<glyph unicode="&#xbe;" horiz-adv-x="1570" d="M92 756q0 25 16.5 43t49.5 18q39 0 72.5 -41t86.5 -41q61 0 103.5 32t42.5 89q0 76 -68.5 110.5t-173.5 34.5q-18 0 -26.5 15.5t-3 32t21.5 18.5q80 8 137.5 52t57.5 106q0 39 -30 65.5t-87 26.5q-41 0 -72 -13.5t-49 -30t-20 -16.5q-20 -12 -35 8.5t-4 39.5 q4 14 28.5 35.5t80.5 43t126 21.5q98 0 160.5 -43t62.5 -109q0 -61 -37.5 -102t-82.5 -59q-18 -6 -9 -17q2 -4 11 -6q178 -47 178 -172q0 -100 -90 -167.5t-246 -67.5q-88 0 -144.5 24.5t-56.5 69.5zM342 8.5q-6 18.5 1 35.5t22 32q12 12 114.5 168.5t296 476t377.5 653.5 q29 53 78 27q43 -20 33 -55q-2 -8 -9 -17q-16 -18 -388.5 -635.5t-385.5 -640.5q-18 -33 -26.5 -45t-28.5 -21.5t-49 -3t-35 25zM872 273.5q2 21.5 5 27.5q86 84 210.5 225.5t126.5 163.5q0 31 27 31q25 0 60.5 9t44.5 22q6 10 26.5 4t18.5 -21q0 -4 -2.5 -50t-3.5 -99.5 t-1 -129t5 -139.5q0 -23 22 -24q8 0 21.5 1t27.5 1q18 0 30.5 -8t10.5 -27q-6 -55 -41 -55h-61q-12 0 -13 -15q-6 -88 3 -157q0 -16 -8.5 -25.5t-24.5 -7.5h-92q-39 0 -35 37q2 53 2 149q0 14 -19 19q-123 8 -303 0q-18 0 -28.5 23.5t-8.5 45zM1004 332q-27 -35 10 -35 q23 -2 96.5 -2t96 2t24.5 27q4 25 5 97.5t-1 102.5q0 18 -13.5 21.5t-25.5 -8.5q-88 -80 -192 -205z" />
<glyph unicode="&#xbf;" horiz-adv-x="708" d="M115 -156q0 74 39 163t87 159t87 157t39 156q0 33 34.5 33t34.5 -37q0 -125 -62.5 -301t-62.5 -287q0 -84 31 -145t94 -61q47 0 90 40.5t60 40.5q27 0 46 -18t19 -45q0 -117 -215 -117q-156 0 -238.5 79t-82.5 183zM268 881q0 63 34 104t97 41q66 0 102 -37t36 -94 q0 -61 -39 -96t-99 -35q-131 0 -131 117z" />
<glyph unicode="&#xc0;" d="M-18 43q0 18 13 30.5t40 10.5q88 -8 145 129q59 127 420 1012q8 18 -5 45.5t-7 44t39 16.5q47 0 76.5 15.5t62.5 60.5q12 12 28.5 12t20.5 -10q59 -176 245.5 -652t250.5 -591q16 -31 24 -43t38 -27.5t69 -9.5q27 4 41 -9.5t14 -33.5t-14.5 -34.5t-36.5 -12.5 q-51 6 -208 6t-253 -6q-51 -2 -51 41q0 20 13.5 35.5t31.5 13.5q68 -4 93.5 16.5t17.5 79.5q-2 29 -105 291q-8 18 -27 23q-203 20 -489 4q-55 -2 -76 -45q-39 -86 -94 -244q-25 -78 12 -105.5t150 -15.5q25 2 39 -12.5t14 -34.5t-14.5 -34.5t-38.5 -12.5q-227 14 -426 0 q-25 -2 -39 12.5t-14 34.5zM465 1766.5q12 25.5 43 25.5q4 0 46 1t54 1q43 0 82 -39q98 -106 213 -213q18 -18 3 -35.5t-46 -17.5q-49 -4 -82 20q-145 115 -295 211q-30 21 -18 46.5zM467 641q-16 -35 29 -45q29 -6 147.5 -6t233.5 10q59 4 43 53q-86 264 -189 486 q-27 51 -51 -2q-143 -287 -213 -496z" />
<glyph unicode="&#xc1;" d="M-18 43q0 18 13 30.5t40 10.5q88 -8 145 129q59 127 420 1012q8 18 -5 45.5t-7 44t39 16.5q47 0 76.5 15.5t62.5 60.5q12 12 28.5 12t20.5 -10q59 -176 245.5 -652t250.5 -591q16 -31 24 -43t38 -27.5t69 -9.5q27 4 41 -9.5t14 -33.5t-14.5 -34.5t-36.5 -12.5 q-51 6 -208 6t-253 -6q-51 -2 -51 41q0 20 13.5 35.5t31.5 13.5q68 -4 93.5 16.5t17.5 79.5q-2 29 -105 291q-8 18 -27 23q-203 20 -489 4q-55 -2 -76 -45q-39 -86 -94 -244q-25 -78 12 -105.5t150 -15.5q25 2 39 -12.5t14 -34.5t-14.5 -34.5t-38.5 -12.5q-227 14 -426 0 q-25 -2 -39 12.5t-14 34.5zM467 641q-16 -35 29 -45q29 -6 147.5 -6t233.5 10q59 4 43 53q-86 264 -189 486q-27 51 -51 -2q-143 -287 -213 -496zM529.5 1506.5q-15.5 17.5 2.5 35.5q80 72 216 213q33 39 79 39q12 0 53.5 -1t45.5 -1q31 0 44 -25.5t-16 -46.5 q-111 -70 -299 -211q-29 -25 -82 -20q-28 0 -43.5 17.5z" />
<glyph unicode="&#xc2;" d="M-18 43q0 18 13 30.5t40 10.5q88 -8 145 129q59 127 420 1012q8 18 -5 45.5t-7 44t39 16.5q47 0 76.5 15.5t62.5 60.5q12 12 28.5 12t20.5 -10q59 -176 245.5 -652t250.5 -591q16 -31 24 -43t38 -27.5t69 -9.5q27 4 41 -9.5t14 -33.5t-14.5 -34.5t-36.5 -12.5 q-51 6 -208 6t-253 -6q-51 -2 -51 41q0 20 13.5 35.5t31.5 13.5q68 -4 93.5 16.5t17.5 79.5q-2 29 -105 291q-8 18 -27 23q-203 20 -489 4q-55 -2 -76 -45q-39 -86 -94 -244q-25 -78 12 -105.5t150 -15.5q25 2 39 -12.5t14 -34.5t-14.5 -34.5t-38.5 -12.5q-227 14 -426 0 q-25 -2 -39 12.5t-14 34.5zM436 1548q49 43 89 84t84 86t65 66q33 29 67.5 27.5t59.5 -27.5q166 -170 237 -234q37 -37 -12 -59q-43 -16 -82 10q-16 14 -158 119q-47 31 -96 0q-31 -23 -86 -62.5t-76 -56.5q-35 -29 -79 -10q-52 24 -13 57zM467 641q-16 -35 29 -45 q29 -6 147.5 -6t233.5 10q59 4 43 53q-86 264 -189 486q-27 51 -51 -2q-143 -287 -213 -496z" />
<glyph unicode="&#xc3;" d="M-18 43q0 18 13 30.5t40 10.5q88 -8 145 129q59 127 420 1012q8 18 -5 45.5t-7 44t39 16.5q47 0 76.5 15.5t62.5 60.5q12 12 28.5 12t20.5 -10q59 -176 245.5 -652t250.5 -591q16 -31 24 -43t38 -27.5t69 -9.5q27 4 41 -9.5t14 -33.5t-14.5 -34.5t-36.5 -12.5 q-51 6 -208 6t-253 -6q-51 -2 -51 41q0 20 13.5 35.5t31.5 13.5q68 -4 93.5 16.5t17.5 79.5q-2 29 -105 291q-8 18 -27 23q-203 20 -489 4q-55 -2 -76 -45q-39 -86 -94 -244q-25 -78 12 -105.5t150 -15.5q25 2 39 -12.5t14 -34.5t-14.5 -34.5t-38.5 -12.5q-227 14 -426 0 q-25 -2 -39 12.5t-14 34.5zM377 1599q2 31 19.5 72t59.5 82t97 43q74 2 180.5 -77t153.5 -79q37 0 58.5 26t41.5 79q12 37 50 26.5t38 -40.5q0 -63 -53 -147.5t-160 -84.5q-61 0 -121.5 41t-110.5 81t-81 40q-8 0 -15.5 -1t-12.5 -3t-10 -7t-9 -7.5t-8.5 -9.5t-6.5 -10 t-7 -13.5t-6 -13.5t-5 -14t-6 -15q-18 -35 -54 -18t-32 50zM467 641q-16 -35 29 -45q29 -6 147.5 -6t233.5 10q59 4 43 53q-86 264 -189 486q-27 51 -51 -2q-143 -287 -213 -496z" />
<glyph unicode="&#xc4;" d="M-18 43q0 18 13 30.5t40 10.5q88 -8 145 129q59 127 420 1012q8 18 -5 45.5t-7 44t39 16.5q47 0 76.5 15.5t62.5 60.5q12 12 28.5 12t20.5 -10q59 -176 245.5 -652t250.5 -591q16 -31 24 -43t38 -27.5t69 -9.5q27 4 41 -9.5t14 -33.5t-14.5 -34.5t-36.5 -12.5 q-51 6 -208 6t-253 -6q-51 -2 -51 41q0 20 13.5 35.5t31.5 13.5q68 -4 93.5 16.5t17.5 79.5q-2 29 -105 291q-8 18 -27 23q-203 20 -489 4q-55 -2 -76 -45q-39 -86 -94 -244q-25 -78 12 -105.5t150 -15.5q25 2 39 -12.5t14 -34.5t-14.5 -34.5t-38.5 -12.5q-227 14 -426 0 q-25 -2 -39 12.5t-14 34.5zM387 1634q0 35 29.5 70t91.5 35q43 0 75.5 -32t32.5 -81q0 -45 -31.5 -72.5t-76.5 -27.5q-43 0 -82 25.5t-39 82.5zM467 641q-16 -35 29 -45q29 -6 147.5 -6t233.5 10q59 4 43 53q-86 264 -189 486q-27 51 -51 -2q-143 -287 -213 -496zM874 1634 q0 35 28 70t91 35q41 0 74 -32t33 -81q0 -45 -31 -72.5t-76 -27.5q-41 0 -80 25.5t-39 82.5z" />
<glyph unicode="&#xc5;" d="M-16 33q-8 39 28 49q10 4 25 2q88 -8 145 129q59 127 420 1012q23 51 -14 78q-72 61 -72 163q0 94 68.5 153.5t165.5 59.5q92 0 157.5 -59t65.5 -143q0 -96 -60 -160q-31 -31 -33.5 -54.5t15.5 -70.5q102 -274 234.5 -605t183.5 -421q16 -31 24.5 -43t38 -27.5t68.5 -9.5 q47 8 53 -33q8 -39 -24 -53q-10 -6 -25 -4q-51 6 -208 6t-253 -6q-35 -2 -46 20.5t2 46t38 23.5q68 -4 93.5 16.5t17.5 79.5q-2 29 -105 291q-8 18 -26 23q-203 20 -490 4q-55 -2 -76 -45q-39 -86 -94 -244q-25 -78 12 -105.5t150 -15.5q33 4 47 -21.5t0 -50t-47 -22.5 q-227 14 -426 0q-43 -4 -53 37zM469 641q-16 -35 29 -45q29 -6 147.5 -6t233.5 10q59 4 43 53q-86 264 -189 486q-27 51 -51 -2q-143 -287 -213 -496zM629 1468q0 -53 31.5 -82.5t83 -29.5t85 31.5t33.5 87.5q0 41 -33.5 71.5t-80.5 30.5q-51 0 -85 -30t-34 -79z" />
<glyph unicode="&#xc6;" horiz-adv-x="1996" d="M-27 43q0 18 14.5 30.5t41.5 10.5q82 -8 180 129q106 141 715 1012q20 31 21 49t-7 24.5t-20 6.5q-23 0 -60 -5q-23 -4 -36 10.5t-13 37.5q0 49 49 47q135 -10 435 -10.5t464 8.5q109 6 105 -56q-8 -104 -23 -198q-6 -51 -53 -52q-39 0 -39 37q4 111 -77 146t-339 35 q-41 0 -63.5 -17.5t-27.5 -36t-7 -51.5q-4 -41 -4 -192.5t2 -200.5q2 -45 39 -45q29 -2 138.5 -1t139.5 3q78 8 78 123q0 18 15.5 29.5t35.5 11.5q49 0 47 -49q-10 -145 -2 -306q2 -33 -13 -50t-38 -17q-20 0 -35.5 14.5t-13.5 36.5q2 53 -13.5 76.5t-52.5 32.5 q-29 6 -146.5 6t-143.5 -4q-33 -4 -33 -45q-6 -233 6 -424q2 -59 33 -82t127 -23q135 0 205 15q135 31 186 213q14 53 57 53q25 0 41.5 -17.5t9.5 -42.5q-49 -190 -57 -280q-4 -39 -61 -39q-115 0 -269.5 5t-384.5 5q-39 0 -116.5 -5t-96.5 -5q-27 -2 -41 11t-14 36 q0 20 14.5 36.5t36.5 14.5q45 -8 76 0t43 28.5t15.5 36t5.5 38.5q8 143 8 229q0 70 -51 72q-244 12 -406 2q-57 -4 -90 -45q-88 -115 -166 -244q-49 -78 -20.5 -105.5t145.5 -15.5q25 2 39 -11t14 -33.5t-15 -36t-40 -13.5q-229 14 -438 0q-25 -2 -40.5 12.5t-15.5 34.5z M627 641q-27 -35 14 -45q86 -18 360 4q61 4 62 53q0 20 1 128t-1 207t-10 151q-6 23 -20.5 25.5t-45.5 -27.5q-229 -285 -360 -496z" />
<glyph unicode="&#xc7;" horiz-adv-x="1468" d="M111 705q0 303 217 504.5t563 201.5q188 0 326.5 -47t142.5 -98q10 -82 16 -189q2 -35 -51 -40t-57 18q-29 117 -128.5 193.5t-271.5 76.5q-236 0 -390 -169t-154 -427q0 -195 89 -343t222 -219t287 -71q35 0 66.5 3t58 7.5t51 10.5t42 12t36 14.5t30 14.5t23.5 15t17 13 t14 11l8 8q14 12 33.5 -1.5t24.5 -36t-9 -42.5q-18 -18 -49 -41t-125 -58.5t-207 -43.5q-45 -2 -70 -45q-14 -23 -12 -31t23 -12q147 -20 147 -119q0 -57 -68.5 -110.5t-167.5 -61.5q-39 -2 -43 30q-6 29 17 31q135 8 135 76q0 55 -115 55q-33 0 -51 13.5t-6 41.5 q12 31 37 72q29 57 -17 64q-295 35 -464.5 232.5t-169.5 486.5z" />
<glyph unicode="&#xc8;" horiz-adv-x="1230" d="M92 43q0 20 14.5 36.5t36.5 14.5q45 -8 76 0t43 28.5t15.5 36t5.5 38.5q12 328 11 676t-11 393q-14 53 -131 34q-23 -4 -36.5 10.5t-13.5 37.5q0 49 50 47q135 -10 404 -10.5t435 8.5q106 6 103 -56q-4 -80 -21 -198q-6 -51 -53 -52q-41 0 -41 37q4 111 -77 146t-339 35 q-41 0 -62.5 -17.5t-26.5 -36t-7 -51.5q-4 -41 -4 -192.5t2 -200.5q2 -45 37 -45q29 -2 139.5 -1t138.5 3q80 8 80 123q0 18 15.5 29.5t35.5 11.5q47 0 47 -49q-10 -145 -2 -306q2 -33 -13 -50t-38 -17q-20 0 -36.5 14.5t-14.5 36.5q6 94 -66 109q-27 6 -144.5 6t-145.5 -4 q-31 -4 -31 -45q-6 -233 6 -424q2 -59 32 -82t126 -23q135 0 205 15q137 31 188 213q14 53 55 53q25 0 42.5 -17.5t11.5 -42.5q-43 -154 -58 -280q-4 -39 -61 -39q-115 0 -270.5 5t-383.5 5q-39 0 -117.5 -5t-95.5 -5q-27 -2 -41 11t-14 36zM368.5 1766.5 q12.5 25.5 43.5 25.5q4 0 46 1t54 1q43 0 82 -39q98 -106 213 -213q18 -18 3 -35.5t-46 -17.5q-49 -4 -82 20q-145 115 -295 211q-31 21 -18.5 46.5z" />
<glyph unicode="&#xc9;" horiz-adv-x="1230" d="M92 43q0 20 14.5 36.5t36.5 14.5q45 -8 76 0t43 28.5t15.5 36t5.5 38.5q12 328 11 676t-11 393q-14 53 -131 34q-23 -4 -36.5 10.5t-13.5 37.5q0 49 50 47q135 -10 404 -10.5t435 8.5q106 6 103 -56q-4 -80 -21 -198q-6 -51 -53 -52q-41 0 -41 37q4 111 -77 146t-339 35 q-41 0 -62.5 -17.5t-26.5 -36t-7 -51.5q-4 -41 -4 -192.5t2 -200.5q2 -45 37 -45q29 -2 139.5 -1t138.5 3q80 8 80 123q0 18 15.5 29.5t35.5 11.5q47 0 47 -49q-10 -145 -2 -306q2 -33 -13 -50t-38 -17q-20 0 -36.5 14.5t-14.5 36.5q6 94 -66 109q-27 6 -144.5 6t-145.5 -4 q-31 -4 -31 -45q-6 -233 6 -424q2 -59 32 -82t126 -23q135 0 205 15q137 31 188 213q14 53 55 53q25 0 42.5 -17.5t11.5 -42.5q-43 -154 -58 -280q-4 -39 -61 -39q-115 0 -270.5 5t-383.5 5q-39 0 -117.5 -5t-95.5 -5q-27 -2 -41 11t-14 36zM433.5 1506.5 q-15.5 17.5 2.5 35.5q80 72 215 213q33 39 80 39q10 0 51 -1t47 -1q31 0 44.5 -25.5t-15.5 -46.5q-111 -70 -299 -211q-29 -25 -82 -20q-28 0 -43.5 17.5z" />
<glyph unicode="&#xca;" horiz-adv-x="1230" d="M92 43q0 20 14.5 36.5t36.5 14.5q45 -8 76 0t43 28.5t15.5 36t5.5 38.5q12 328 11 676t-11 393q-14 53 -131 34q-23 -4 -36.5 10.5t-13.5 37.5q0 49 50 47q135 -10 404 -10.5t435 8.5q106 6 103 -56q-4 -80 -21 -198q-6 -51 -53 -52q-41 0 -41 37q4 111 -77 146t-339 35 q-41 0 -62.5 -17.5t-26.5 -36t-7 -51.5q-4 -41 -4 -192.5t2 -200.5q2 -45 37 -45q29 -2 139.5 -1t138.5 3q80 8 80 123q0 18 15.5 29.5t35.5 11.5q47 0 47 -49q-10 -145 -2 -306q2 -33 -13 -50t-38 -17q-20 0 -36.5 14.5t-14.5 36.5q6 94 -66 109q-27 6 -144.5 6t-145.5 -4 q-31 -4 -31 -45q-6 -233 6 -424q2 -59 32 -82t126 -23q135 0 205 15q137 31 188 213q14 53 55 53q25 0 42.5 -17.5t11.5 -42.5q-43 -154 -58 -280q-4 -39 -61 -39q-115 0 -270.5 5t-383.5 5q-39 0 -117.5 -5t-95.5 -5q-27 -2 -41 11t-14 36zM342 1548q49 43 89 84t84 86 t65 66q33 29 67.5 27.5t59.5 -27.5q166 -170 237 -234q37 -37 -12 -59q-43 -16 -82 10q-16 14 -158 119q-47 31 -96 0q-31 -23 -86 -62.5t-76 -56.5q-35 -29 -80 -10q-51 24 -12 57z" />
<glyph unicode="&#xcb;" horiz-adv-x="1230" d="M92 43q0 20 14.5 36.5t36.5 14.5q45 -8 76 0t43 28.5t15.5 36t5.5 38.5q12 328 11 676t-11 393q-14 53 -131 34q-23 -4 -36.5 10.5t-13.5 37.5q0 49 50 47q135 -10 404 -10.5t435 8.5q106 6 103 -56q-4 -80 -21 -198q-6 -51 -53 -52q-41 0 -41 37q4 111 -77 146t-339 35 q-41 0 -62.5 -17.5t-26.5 -36t-7 -51.5q-4 -41 -4 -192.5t2 -200.5q2 -45 37 -45q29 -2 139.5 -1t138.5 3q80 8 80 123q0 18 15.5 29.5t35.5 11.5q47 0 47 -49q-10 -145 -2 -306q2 -33 -13 -50t-38 -17q-20 0 -36.5 14.5t-14.5 36.5q6 94 -66 109q-27 6 -144.5 6t-145.5 -4 q-31 -4 -31 -45q-6 -233 6 -424q2 -59 32 -82t126 -23q135 0 205 15q137 31 188 213q14 53 55 53q25 0 42.5 -17.5t11.5 -42.5q-43 -154 -58 -280q-4 -39 -61 -39q-115 0 -270.5 5t-383.5 5q-39 0 -117.5 -5t-95.5 -5q-27 -2 -41 11t-14 36zM291 1634q0 35 29.5 70t91.5 35 q43 0 75.5 -32t32.5 -81q0 -45 -31.5 -72.5t-76.5 -27.5q-43 0 -82 25.5t-39 82.5zM778 1634q0 35 28 70t91 35q41 0 74 -32t33 -81q0 -45 -31 -72.5t-76 -27.5q-41 0 -80 25.5t-39 82.5z" />
<glyph unicode="&#xcc;" horiz-adv-x="763" d="M84 49q0 20 11 33.5t34 11.5q39 -12 91 -5t61 52q14 84 14 587t-10 536q-8 29 -48 42t-87 3q-45 -6 -46 39q0 20 13.5 34.5t40.5 12.5q203 -14 428 0q70 2 69 -43q0 -18 -15 -32.5t-34 -12.5q-61 6 -92 -3.5t-39 -41.5q-12 -33 -9 -522.5t17 -596.5q4 -27 20.5 -38 t48.5 -13t79 2q27 2 41 -12t14 -34.5t-15.5 -37t-39.5 -14.5q-293 16 -488 0q-29 -2 -44 14t-15 39zM106.5 1766.5q12.5 25.5 43.5 25.5q4 0 46 1t54 1q43 0 82 -39q98 -106 213 -213q18 -18 2.5 -35.5t-45.5 -17.5q-49 -4 -82 20q-145 115 -295 211q-31 21 -18.5 46.5z" />
<glyph unicode="&#xcd;" horiz-adv-x="763" d="M84 49q0 20 11 33.5t34 11.5q39 -12 91 -5t61 52q14 84 14 587t-10 536q-8 29 -48 42t-87 3q-45 -6 -46 39q0 20 13.5 34.5t40.5 12.5q203 -14 428 0q70 2 69 -43q0 -18 -15 -32.5t-34 -12.5q-61 6 -92 -3.5t-39 -41.5q-12 -33 -9 -522.5t17 -596.5q4 -27 20.5 -38 t48.5 -13t79 2q27 2 41 -12t14 -34.5t-15.5 -37t-39.5 -14.5q-293 16 -488 0q-29 -2 -44 14t-15 39zM171 1506.5q-15 17.5 3 35.5q80 72 215 213q33 39 80 39q10 0 51 -1t47 -1q31 0 44.5 -25.5t-15.5 -46.5q-111 -70 -299 -211q-29 -25 -82 -20q-29 0 -44 17.5z" />
<glyph unicode="&#xce;" horiz-adv-x="763" d="M80 1548q49 43 89 84t84 86t64 66q33 29 68 27.5t59 -27.5q166 -170 238 -234q37 -37 -12 -59q-43 -16 -82 10q-16 14 -158 119q-47 31 -96 0q-31 -23 -86 -62.5t-76 -56.5q-35 -29 -80 -10q-51 24 -12 57zM84 49q0 20 11 33.5t34 11.5q39 -12 91 -5t61 52q14 84 14 587 t-10 536q-8 29 -48 42t-87 3q-45 -6 -46 39q0 20 13.5 34.5t40.5 12.5q203 -14 428 0q70 2 69 -43q0 -18 -15 -32.5t-34 -12.5q-61 6 -92 -3.5t-39 -41.5q-12 -33 -9 -522.5t17 -596.5q4 -27 20.5 -38t48.5 -13t79 2q27 2 41 -12t14 -34.5t-15.5 -37t-39.5 -14.5 q-293 16 -488 0q-29 -2 -44 14t-15 39z" />
<glyph unicode="&#xcf;" horiz-adv-x="763" d="M29 1634q0 35 29.5 70t91.5 35q43 0 75.5 -32t32.5 -81q0 -45 -31.5 -72.5t-76.5 -27.5q-43 0 -82 25.5t-39 82.5zM84 49q0 20 11 33.5t34 11.5q39 -12 91 -5t61 52q14 84 14 587t-10 536q-8 29 -48 42t-87 3q-45 -6 -46 39q0 20 13.5 34.5t40.5 12.5q203 -14 428 0 q70 2 69 -43q0 -18 -15 -32.5t-34 -12.5q-61 6 -92 -3.5t-39 -41.5q-12 -33 -9 -522.5t17 -596.5q4 -27 20.5 -38t48.5 -13t79 2q27 2 41 -12t14 -34.5t-15.5 -37t-39.5 -14.5q-293 16 -488 0q-29 -2 -44 14t-15 39zM516 1634q0 35 27.5 70t91.5 35q41 0 73.5 -32t32.5 -81 q0 -45 -30.5 -72.5t-75.5 -27.5q-41 0 -80 25.5t-39 82.5z" />
<glyph unicode="&#xd0;" horiz-adv-x="1570" d="M88 37q-4 41 31 53q10 4 20 2q121 -14 133 78q20 119 21 434q0 18 -7 26.5t-12.5 9.5t-19.5 1l-86 -4q-33 -2 -44 21.5t-2 47t28 25.5h104q39 0 39 45q0 358 -17 469q-2 20 -11 33.5t-26.5 19t-29.5 7.5t-38 2h-38q-25 0 -29 30q-6 41 35 52q8 2 19 2h456 q375 0 609.5 -175.5t234.5 -492.5q0 -330 -204.5 -527.5t-618.5 -195.5h-492q-49 -6 -55 37zM461 610q2 -154 8 -334q2 -78 43 -119.5t92 -53t133 -11.5q229 0 369.5 155.5t140.5 428.5q0 123 -31.5 227.5t-101.5 196.5t-199 145t-305 53q-80 0 -109.5 -15t-33.5 -64 q-10 -94 -6 -437q0 -35 10 -43t29 -8q197 0 286 12q20 2 35 -22.5t6.5 -50t-41.5 -25.5q-43 -2 -134 0t-148 2q-43 0 -43 -37z" />
<glyph unicode="&#xd1;" horiz-adv-x="1587" d="M94 45q0 51 51 49q49 -4 78 5.5t41 39t14.5 46t6.5 67.5q8 141 0 813q-2 139 -24.5 186t-90.5 41q-25 -2 -38 12.5t-13 34.5q0 23 16.5 38.5t44.5 13.5q166 -4 215 0q33 2 60.5 -28t72.5 -103q354 -528 641 -889q10 -10 26.5 -10.5t18.5 12.5q6 92 5.5 400t-9.5 405 q-6 70 -43 100.5t-123 28.5q-45 0 -45 43q0 20 13.5 33.5t40.5 11.5q139 -12 374 0q70 2 70 -45q0 -16 -13.5 -29.5t-33.5 -13.5q-117 0 -121 -123q-20 -551 2 -1184q0 -27 -67 -27q-53 0 -70 23q-537 768 -776 1089q-4 6 -15.5 5.5t-11.5 -13.5q-2 -109 4 -429t11 -396 q4 -45 10 -70.5t21.5 -51.5t47 -34t82.5 -2q35 4 53.5 -12t18.5 -41q0 -20 -13.5 -33.5t-33.5 -11.5q-225 16 -451 0q-23 -2 -35 12t-12 37zM420 1599q2 31 19.5 72t59.5 82t97 43q74 2 180.5 -77t153.5 -79q37 0 58.5 26t41.5 79q12 37 50 26.5t38 -40.5q0 -63 -53 -147.5 t-160 -84.5q-61 0 -121.5 41t-110.5 81t-81 40q-8 0 -15.5 -1t-12.5 -3t-10 -7t-9 -7.5t-8.5 -9.5t-6.5 -10t-7 -13.5t-6 -13.5t-5 -14t-6 -15q-18 -35 -54 -18t-32 50z" />
<glyph unicode="&#xd2;" horiz-adv-x="1642" d="M113 709q0 297 201.5 499.5t506.5 202.5q319 0 515 -194.5t196 -507.5q0 -303 -204 -516t-507 -213q-319 0 -513.5 206t-194.5 523zM330 751.5q0 -282.5 155.5 -477t370.5 -194.5q213 0 336 158.5t123 439t-152.5 459t-374.5 178.5q-211 0 -334.5 -140.5t-123.5 -423z M555 1766.5q12 25.5 43 25.5q4 0 46 1t54 1q43 0 82 -39q98 -106 213 -213q18 -18 3 -35.5t-46 -17.5q-49 -4 -82 20q-145 115 -295 211q-30 21 -18 46.5z" />
<glyph unicode="&#xd3;" horiz-adv-x="1642" d="M113 709q0 297 201.5 499.5t506.5 202.5q319 0 515 -194.5t196 -507.5q0 -303 -204 -516t-507 -213q-319 0 -513.5 206t-194.5 523zM330 751.5q0 -282.5 155.5 -477t370.5 -194.5q213 0 336 158.5t123 439t-152.5 459t-374.5 178.5q-211 0 -334.5 -140.5t-123.5 -423z M619.5 1506.5q-15.5 17.5 3.5 35.5q80 72 215 213q33 39 80 39q12 0 53 -1t45 -1q31 0 44 -25.5t-16 -46.5q-111 -70 -299 -211q-29 -25 -81 -20q-29 0 -44.5 17.5z" />
<glyph unicode="&#xd4;" horiz-adv-x="1642" d="M113 709q0 297 201.5 499.5t506.5 202.5q319 0 515 -194.5t196 -507.5q0 -303 -204 -516t-507 -213q-319 0 -513.5 206t-194.5 523zM330 751.5q0 -282.5 155.5 -477t370.5 -194.5q213 0 336 158.5t123 439t-152.5 459t-374.5 178.5q-211 0 -334.5 -140.5t-123.5 -423z M526 1548q49 43 89 84t84 86t65 66q33 29 67.5 27.5t59.5 -27.5q166 -170 237 -234q37 -37 -12 -59q-43 -16 -82 10q-16 14 -157 119q-47 31 -97 0q-31 -23 -86 -62.5t-76 -56.5q-35 -29 -79 -10q-52 24 -13 57z" />
<glyph unicode="&#xd5;" horiz-adv-x="1642" d="M113 709q0 297 201.5 499.5t506.5 202.5q319 0 515 -194.5t196 -507.5q0 -303 -204 -516t-507 -213q-319 0 -513.5 206t-194.5 523zM330 751.5q0 -282.5 155.5 -477t370.5 -194.5q213 0 336 158.5t123 439t-152.5 459t-374.5 178.5q-211 0 -334.5 -140.5t-123.5 -423z M467 1599q2 31 19.5 72t59.5 82t97 43q74 2 180.5 -77t153.5 -79q37 0 58.5 26t41.5 79q12 37 50 26.5t38 -40.5q0 -63 -53 -147.5t-160 -84.5q-61 0 -121.5 41t-110.5 81t-81 40q-8 0 -15.5 -1t-12.5 -3t-10 -7t-9 -7.5t-8 -9.5t-6.5 -10t-7.5 -13.5t-6 -13.5t-5 -14 t-6 -15q-18 -35 -54 -18t-32 50z" />
<glyph unicode="&#xd6;" horiz-adv-x="1642" d="M113 709q0 297 201.5 499.5t506.5 202.5q319 0 515 -194.5t196 -507.5q0 -303 -204 -516t-507 -213q-319 0 -513.5 206t-194.5 523zM330 751.5q0 -282.5 155.5 -477t370.5 -194.5q213 0 336 158.5t123 439t-152.5 459t-374.5 178.5q-211 0 -334.5 -140.5t-123.5 -423z M477 1634q0 35 30 70t91 35q43 0 76 -32t33 -81q0 -45 -32 -72.5t-77 -27.5q-43 0 -82 25.5t-39 82.5zM965 1634q0 35 27.5 70t90.5 35q41 0 74 -32t33 -81q0 -45 -31 -72.5t-76 -27.5q-41 0 -79.5 25.5t-38.5 82.5z" />
<glyph unicode="&#xd7;" horiz-adv-x="1228" d="M309 811q0 20 19.5 33.5t44.5 13.5q20 0 37 -12q135 -135 157 -156q33 -23 44.5 -21.5t31.5 21.5q59 61 166 164q16 18 40.5 18t44 -19t19.5 -40q0 -18 -14 -27q-2 0 -194 -180q-8 -8 -12.5 -14t-5.5 -9t0 -8.5t3 -6.5t7 -7t8 -8q125 -117 180 -160q33 -20 33 -53 q0 -20 -14.5 -34.5t-35.5 -14.5q-31 0 -59 26q-164 156 -174 166q-18 20 -26.5 19.5t-33.5 -21.5q-96 -96 -163 -170q-14 -14 -33 -14q-23 0 -42.5 18.5t-19.5 40.5q0 18 15 35q16 18 78.5 75.5t78.5 74.5q23 20 27 35.5t-2 23.5t-25 25q-127 121 -147 137q-33 26 -33 49z " />
<glyph unicode="&#xd8;" horiz-adv-x="1642" d="M113 709q0 297 201.5 499.5t506.5 202.5q143 0 238 -35q47 -14 64.5 -8t37.5 41l13 23q31 55 83 36q43 -14 35 -51q-2 -8 -6 -16l-29 -43q-23 -37 -18.5 -51.5t55.5 -55.5q238 -195 238 -542q0 -303 -204 -516t-507 -213q-133 0 -264 45q-45 16 -60.5 15t-31.5 -30 q-12 -25 -19.5 -36t-21.5 -27.5t-26.5 -12t-35.5 8.5q-57 27 5 110q18 25 18 40.5t-6 23.5t-39 39q-227 211 -227 553zM330 752q0 -242 108 -418q23 -35 42.5 -42t38 9t44.5 55q184 285 463 803q20 41 13 64.5t-46 44.5q-98 47 -205 47q-211 0 -334.5 -140t-123.5 -423z M590 191.5q4 -27.5 55 -56.5q98 -55 211 -55q213 0 336 158.5t123 439.5q0 248 -117 412q-23 31 -38 44t-28.5 8t-23.5 -17.5t-25 -39.5q-207 -358 -460 -802q-37 -64 -33 -91.5z" />
<glyph unicode="&#xd9;" horiz-adv-x="1523" d="M63 1352q0 20 13.5 32.5t40.5 10.5q158 -16 428 0q68 2 67 -43q0 -20 -16 -34.5t-39 -10.5q-113 18 -125 -54q-10 -313 -2 -661q4 -109 19.5 -185.5t53.5 -149.5t114.5 -110.5t191.5 -37.5q172 0 258 108.5t92 360.5v677q0 35 -29.5 47.5t-109.5 2.5q-25 -2 -39 11 t-14 34q0 45 51 43q125 -10 381 2q66 2 65 -43q0 -18 -14 -33.5t-33 -13.5q-123 16 -133 -43q-10 -51 -7 -349.5t3 -337.5q-2 -133 -26.5 -234t-82 -186t-164 -130t-257.5 -45q-246 0 -374 142t-132 468q-4 223 0 665q0 31 -28 43.5t-105 8.5q-23 -2 -35.5 12.5t-12.5 32.5z M514 1766.5q12 25.5 43 25.5q4 0 46 1t54 1q43 0 82 -39q98 -106 213 -213q18 -18 3 -35.5t-46 -17.5q-49 -4 -82 20q-145 115 -295 211q-30 21 -18 46.5z" />
<glyph unicode="&#xda;" horiz-adv-x="1523" d="M63 1352q0 20 13.5 32.5t40.5 10.5q158 -16 428 0q68 2 67 -43q0 -20 -16 -34.5t-39 -10.5q-113 18 -125 -54q-10 -313 -2 -661q4 -109 19.5 -185.5t53.5 -149.5t114.5 -110.5t191.5 -37.5q172 0 258 108.5t92 360.5v677q0 35 -29.5 47.5t-109.5 2.5q-25 -2 -39 11 t-14 34q0 45 51 43q125 -10 381 2q66 2 65 -43q0 -18 -14 -33.5t-33 -13.5q-123 16 -133 -43q-10 -51 -7 -349.5t3 -337.5q-2 -133 -26.5 -234t-82 -186t-164 -130t-257.5 -45q-246 0 -374 142t-132 468q-4 223 0 665q0 31 -28 43.5t-105 8.5q-23 -2 -35.5 12.5t-12.5 32.5z M578.5 1506.5q-15.5 17.5 3.5 35.5q80 72 215 213q33 39 80 39q12 0 53 -1t45 -1q31 0 44 -25.5t-15 -46.5q-111 -70 -299 -211q-29 -25 -82 -20q-29 0 -44.5 17.5z" />
<glyph unicode="&#xdb;" horiz-adv-x="1523" d="M63 1352q0 20 13.5 32.5t40.5 10.5q158 -16 428 0q68 2 67 -43q0 -20 -16 -34.5t-39 -10.5q-113 18 -125 -54q-10 -313 -2 -661q4 -109 19.5 -185.5t53.5 -149.5t114.5 -110.5t191.5 -37.5q172 0 258 108.5t92 360.5v677q0 35 -29.5 47.5t-109.5 2.5q-25 -2 -39 11 t-14 34q0 45 51 43q125 -10 381 2q66 2 65 -43q0 -18 -14 -33.5t-33 -13.5q-123 16 -133 -43q-10 -51 -7 -349.5t3 -337.5q-2 -133 -26.5 -234t-82 -186t-164 -130t-257.5 -45q-246 0 -374 142t-132 468q-4 223 0 665q0 31 -28 43.5t-105 8.5q-23 -2 -35.5 12.5t-12.5 32.5z M487 1548q49 43 89 84t84.5 86t64.5 66q33 29 67.5 27.5t59.5 -27.5q166 -170 238 -234q37 -37 -13 -59q-43 -16 -82 10q-16 14 -157 119q-47 31 -97 0q-29 -23 -85 -62.5t-76 -56.5q-35 -29 -80 -10q-52 24 -13 57z" />
<glyph unicode="&#xdc;" horiz-adv-x="1523" d="M63 1352q0 20 13.5 32.5t40.5 10.5q158 -16 428 0q68 2 67 -43q0 -20 -16 -34.5t-39 -10.5q-113 18 -125 -54q-10 -313 -2 -661q4 -109 19.5 -185.5t53.5 -149.5t114.5 -110.5t191.5 -37.5q172 0 258 108.5t92 360.5v677q0 35 -29.5 47.5t-109.5 2.5q-25 -2 -39 11 t-14 34q0 45 51 43q125 -10 381 2q66 2 65 -43q0 -18 -14 -33.5t-33 -13.5q-123 16 -133 -43q-10 -51 -7 -349.5t3 -337.5q-2 -133 -26.5 -234t-82 -186t-164 -130t-257.5 -45q-246 0 -374 142t-132 468q-4 223 0 665q0 31 -28 43.5t-105 8.5q-23 -2 -35.5 12.5t-12.5 32.5z M436 1634q0 35 30 70t91 35q43 0 76 -32t33 -81q0 -45 -32 -72.5t-77 -27.5q-43 0 -82 25.5t-39 82.5zM924 1634q0 35 27.5 70t90.5 35q41 0 74 -32t33 -81q0 -45 -31 -72.5t-76 -27.5q-41 0 -79.5 25.5t-38.5 82.5z" />
<glyph unicode="&#xdd;" horiz-adv-x="1320" d="M8 1352q0 18 13.5 31.5t35.5 11.5q170 -14 439 2q66 2 65 -41q0 -20 -16.5 -36.5t-36.5 -14.5q-66 8 -90.5 -20t-1.5 -68q6 -12 31.5 -62.5t38 -73t38 -69.5t45 -80t47 -75t56.5 -79q25 -31 51 0q57 74 150.5 218.5t130.5 215.5q20 41 -13 76t-108 19q-23 -4 -39.5 12 t-16.5 37q0 39 45 39q303 -10 426 0q59 2 60 -41q0 -18 -14.5 -33.5t-34.5 -13.5q-59 2 -89 -15.5t-59 -54.5q-80 -92 -235.5 -323.5t-175.5 -299.5q-8 -23 -9 -110q0 -129 15 -354q6 -74 151 -54q27 2 41.5 -11t14.5 -35.5t-15.5 -39t-40.5 -14.5q-276 18 -501 -2 q-29 -2 -44.5 14.5t-15.5 40.5q0 20 11.5 34.5t31.5 12.5q41 -12 98.5 -7t63.5 50q12 82 12 273q0 203 -12 229q-72 141 -193.5 339t-193.5 290q-23 29 -42.5 37t-64.5 0q-23 -4 -36 10.5t-13 34.5zM478.5 1506.5q-15.5 17.5 2.5 35.5q80 72 215 213q33 39 80 39q10 0 51 -1 t47 -1q31 0 44.5 -25.5t-15.5 -46.5q-111 -70 -299 -211q-29 -25 -82 -20q-28 0 -43.5 17.5z" />
<glyph unicode="&#xde;" horiz-adv-x="1200" d="M84 49q0 20 11 33.5t34 11.5q39 -12 91 -5t61 52q14 84 14 587t-10 536q-8 29 -48 42t-87 3q-45 -6 -46 39q0 20 13.5 34.5t40.5 12.5q203 -14 428 0q70 2 69 -43q0 -18 -15 -32.5t-34 -12.5q-61 6 -92 -3.5t-39 -41.5q-4 -12 -4 -48q0 -70 55 -69q27 0 67 1t60 1 q78 0 157 -23.5t150.5 -70.5t116.5 -130t45 -188q0 -125 -43 -218t-115.5 -142t-154.5 -72.5t-172 -23.5q-41 0 -41 45q4 41 55 41q125 0 199 100t74 231q0 51 -7.5 98.5t-33 102.5t-65.5 93t-111.5 59.5t-167.5 13.5q-74 -6 -74 -88q0 -696 18 -832q4 -27 20.5 -38 t48.5 -13t79 2q27 2 41 -12t14 -34.5t-15.5 -37t-39.5 -14.5q-293 16 -488 0q-29 -2 -44 14t-15 39z" />
<glyph unicode="&#xdf;" horiz-adv-x="1216" d="M68 907q0 23 14 39.5t39 16.5q55 0 93 50t69.5 144t35.5 100q57 115 165 194t255 79q152 0 235 -77t83 -191q0 -70 -47 -142.5t-104.5 -122t-104.5 -103.5t-47 -93q0 -14 4 -27.5t12 -28t16.5 -26.5t24.5 -27.5t26.5 -27t32 -29t31.5 -25.5t35 -27.5t35 -27.5 q190 -145 190 -299q0 -119 -102.5 -197.5t-227.5 -78.5q-92 0 -149 32.5t-57 100t71 67.5q27 0 49.5 -27.5t50 -54t70.5 -26.5q53 0 92 32.5t39 92.5q0 31 -9 57.5t-29.5 54t-36 44t-49 48t-46.5 43.5q-27 25 -70.5 67t-60 58.5t-42 44t-35 44t-16.5 39t-7 46.5 q0 47 28.5 93.5t70.5 86.5t84 83t71 97t29 114q0 213 -203 213q-137 0 -199.5 -145.5t-75.5 -418.5q-18 -434 9 -727q2 -20 3 -25t11 -13.5t30 -8.5h62q41 0 41 -43q0 -20 -14.5 -36.5t-36.5 -16.5q-31 0 -89.5 4t-90.5 4q-27 0 -87.5 -4t-99.5 -4q-25 -2 -39 13.5t-14 35.5 q0 18 11.5 31.5t31.5 15.5q72 0 92.5 12.5t22.5 51.5q18 379 4 635q-2 70 -72 69q-10 0 -27.5 -1t-25.5 -1q-55 0 -55 49z" />
<glyph unicode="&#xe0;" horiz-adv-x="966" d="M92 229q0 78 70.5 134.5t154.5 81t172.5 47t106.5 34.5q29 20 29 66q0 139 -40 194.5t-120 55.5q-119 0 -174 -47q-12 -8 -12 -32t6 -52.5t6 -36.5q0 -37 -23.5 -61.5t-66.5 -24.5q-35 0 -61.5 31.5t-26.5 68.5q0 104 140 188.5t277 84.5q131 0 188.5 -79t57.5 -253 q0 -49 -5 -155.5t-5 -166.5v-31q0 -10 1 -28.5t2 -28.5t4 -26.5t7 -24.5t9.5 -19.5t14.5 -16.5t19.5 -9t23.5 -3t30 5q16 8 29.5 -8.5t13.5 -38.5q0 -31 -23 -39q-158 -59 -188 -59q-14 0 -36 22.5t-40 58.5q-10 27 -39 2q-90 -84 -211 -83q-147 0 -219 74.5t-72 174.5z M262 233q0 -53 39 -97t121 -44q92 0 143 78t51 182q0 55 -16 70q-6 6 -29 2q-55 -6 -119.5 -25.5t-127 -65t-62.5 -100.5zM289 1451.5q10 21.5 41 21.5q2 0 36.5 1t53.5 1q37 0 51 -39q72 -152 152 -283q16 -27 0.5 -45t-41 -18t-43.5 14q-37 53 -85 113.5t-95.5 117 t-55.5 66.5q-24 29 -14 50.5z" />
<glyph unicode="&#xe1;" horiz-adv-x="966" d="M92 229q0 78 70.5 134.5t154.5 81t172.5 47t106.5 34.5q29 20 29 66q0 139 -40 194.5t-120 55.5q-119 0 -174 -47q-12 -8 -12 -32t6 -52.5t6 -36.5q0 -37 -23.5 -61.5t-66.5 -24.5q-35 0 -61.5 31.5t-26.5 68.5q0 104 140 188.5t277 84.5q131 0 188.5 -79t57.5 -253 q0 -49 -5 -155.5t-5 -166.5v-31q0 -10 1 -28.5t2 -28.5t4 -26.5t7 -24.5t9.5 -19.5t14.5 -16.5t19.5 -9t23.5 -3t30 5q16 8 29.5 -8.5t13.5 -38.5q0 -31 -23 -39q-158 -59 -188 -59q-14 0 -36 22.5t-40 58.5q-10 27 -39 2q-90 -84 -211 -83q-147 0 -219 74.5t-72 174.5z M262 233q0 -53 39 -97t121 -44q92 0 143 78t51 182q0 55 -16 70q-6 6 -29 2q-55 -6 -119.5 -25.5t-127 -65t-62.5 -100.5zM335 1108q-13 16 1 45q80 131 151 283q14 39 52 39q18 0 53 -1t39 -1q31 0 40 -21.5t-16 -50.5q-8 -10 -55 -66.5t-95 -117t-85 -113.5 q-16 -16 -44 -14t-41 18z" />
<glyph unicode="&#xe2;" horiz-adv-x="966" d="M92 229q0 78 70.5 134.5t154.5 81t172.5 47t106.5 34.5q29 20 29 66q0 139 -40 194.5t-120 55.5q-119 0 -174 -47q-12 -8 -12 -32t6 -52.5t6 -36.5q0 -37 -23.5 -61.5t-66.5 -24.5q-35 0 -61.5 31.5t-26.5 68.5q0 104 140 188.5t277 84.5q131 0 188.5 -79t57.5 -253 q0 -49 -5 -155.5t-5 -166.5v-31q0 -10 1 -28.5t2 -28.5t4 -26.5t7 -24.5t9.5 -19.5t14.5 -16.5t19.5 -9t23.5 -3t30 5q16 8 29.5 -8.5t13.5 -38.5q0 -31 -23 -39q-158 -59 -188 -59q-14 0 -36 22.5t-40 58.5q-10 27 -39 2q-90 -84 -211 -83q-147 0 -219 74.5t-72 174.5z M237.5 1115.5q-12.5 17.5 2.5 43.5q139 190 192 293q16 27 54 28t51 -26q96 -178 192 -295q16 -25 1 -44t-41.5 -19t-43.5 14q-76 90 -141 158q-23 20 -39 0q-4 -4 -141 -158q-16 -16 -45 -14t-41.5 19.5zM262 233q0 -53 39 -97t121 -44q92 0 143 78t51 182q0 55 -16 70 q-6 6 -29 2q-55 -6 -119.5 -25.5t-127 -65t-62.5 -100.5z" />
<glyph unicode="&#xe3;" horiz-adv-x="966" d="M92 229q0 78 70.5 134.5t154.5 81t172.5 47t106.5 34.5q29 20 29 66q0 139 -40 194.5t-120 55.5q-119 0 -174 -47q-12 -8 -12 -32t6 -52.5t6 -36.5q0 -37 -23.5 -61.5t-66.5 -24.5q-35 0 -61.5 31.5t-26.5 68.5q0 104 140 188.5t277 84.5q131 0 188.5 -79t57.5 -253 q0 -49 -5 -155.5t-5 -166.5v-31q0 -10 1 -28.5t2 -28.5t4 -26.5t7 -24.5t9.5 -19.5t14.5 -16.5t19.5 -9t23.5 -3t30 5q16 8 29.5 -8.5t13.5 -38.5q0 -31 -23 -39q-158 -59 -188 -59q-14 0 -36 22.5t-40 58.5q-10 27 -39 2q-90 -84 -211 -83q-147 0 -219 74.5t-72 174.5z M158 1225q0 55 43 128.5t116 76.5q53 2 108.5 -38t106 -80t86.5 -40q33 0 53.5 25.5t39.5 78.5q10 39 45 29t35 -43q0 -35 -15.5 -85t-63.5 -99.5t-116 -49.5q-55 0 -110.5 41t-99.5 82t-73 41q-31 0 -44 -17.5t-25 -60.5q-2 -8 -4 -12q-12 -37 -47 -23.5t-35 46.5zM262 233 q0 -53 39 -97t121 -44q92 0 143 78t51 182q0 55 -16 70q-6 6 -29 2q-55 -6 -119.5 -25.5t-127 -65t-62.5 -100.5z" />
<glyph unicode="&#xe4;" horiz-adv-x="966" d="M92 229q0 78 70.5 134.5t154.5 81t172.5 47t106.5 34.5q29 20 29 66q0 139 -40 194.5t-120 55.5q-119 0 -174 -47q-12 -8 -12 -32t6 -52.5t6 -36.5q0 -37 -23.5 -61.5t-66.5 -24.5q-35 0 -61.5 31.5t-26.5 68.5q0 104 140 188.5t277 84.5q131 0 188.5 -79t57.5 -253 q0 -49 -5 -155.5t-5 -166.5v-31q0 -10 1 -28.5t2 -28.5t4 -26.5t7 -24.5t9.5 -19.5t14.5 -16.5t19.5 -9t23.5 -3t30 5q16 8 29.5 -8.5t13.5 -38.5q0 -31 -23 -39q-158 -59 -188 -59q-14 0 -36 22.5t-40 58.5q-10 27 -39 2q-90 -84 -211 -83q-147 0 -219 74.5t-72 174.5z M190 1268q0 33 30 67.5t91 34.5q43 0 76 -30.5t33 -79.5q0 -45 -32 -73t-77 -28q-43 0 -82 26t-39 83zM262 233q0 -53 39 -97t121 -44q92 0 143 78t51 182q0 55 -16 70q-6 6 -29 2q-55 -6 -119.5 -25.5t-127 -65t-62.5 -100.5zM573 1268q0 33 29 67.5t94 34.5q41 0 73 -30.5 t32 -79.5q0 -45 -30 -73t-75 -28t-84 25t-39 84z" />
<glyph unicode="&#xe5;" horiz-adv-x="966" d="M92 229q0 78 70.5 134.5t154.5 81t172.5 47t106.5 34.5q29 20 29 66q0 139 -40 194.5t-120 55.5q-119 0 -174 -47q-12 -8 -12 -32t6 -52.5t6 -36.5q0 -37 -23.5 -61.5t-66.5 -24.5q-35 0 -61.5 31.5t-26.5 68.5q0 104 140 188.5t277 84.5q131 0 188.5 -79t57.5 -253 q0 -49 -5 -155.5t-5 -166.5v-31q0 -10 1 -28.5t2 -28.5t4 -26.5t7 -24.5t9.5 -19.5t14.5 -16.5t19.5 -9t23.5 -3t30 5q16 8 29.5 -8.5t13.5 -38.5q0 -31 -23 -39q-158 -59 -188 -59q-14 0 -36 22.5t-40 58.5q-10 27 -39 2q-90 -84 -211 -83q-147 0 -219 74.5t-72 174.5z M262 233q0 -53 39 -97t121 -44q92 0 143 78t51 182q0 55 -16 70q-6 6 -29 2q-55 -6 -119.5 -25.5t-127 -65t-62.5 -100.5zM285 1288q0 86 62.5 139.5t150.5 53.5q84 0 144 -54.5t60 -130.5q0 -96 -60 -149t-148 -53q-92 0 -150.5 52t-58.5 142zM389 1290q0 -47 27.5 -74.5 t72.5 -27.5q47 0 77 27.5t30 78.5q0 39 -29.5 65.5t-70.5 26.5q-45 0 -76 -26.5t-31 -69.5z" />
<glyph unicode="&#xe6;" horiz-adv-x="1484" d="M98 274q14 61 89 108.5t158 71t162 43t91 29.5q29 23 29 66q0 139 -40 194.5t-120 55.5q-119 0 -174 -47q-12 -8 -12 -32t6 -52.5t6 -36.5q0 -37 -23.5 -61.5t-66.5 -24.5q-35 0 -61.5 31.5t-26.5 68.5q0 104 140 188.5t277 84.5q150 0 199 -97q12 -20 18.5 -23t26.5 7 q150 113 291 113q156 0 242 -97.5t86 -220.5q0 -37 -19.5 -64.5t-56.5 -29.5q-41 -4 -231.5 -9t-249.5 -12q-66 -6 -66 -65q0 -156 92 -254t230 -98q131 0 215 98q27 29 49 -2q23 -27 2 -57q-49 -84 -140.5 -126t-191.5 -42q-190 0 -307 116q-35 37 -84 -2 q-131 -117 -252 -116q-166 0 -238 95t-49 199zM268 262q-16 -53 27 -115.5t147 -54.5q78 4 121 63.5t53 155.5q12 88 -14 111q-6 6 -29 2q-74 -8 -182.5 -52t-122.5 -110zM809 682q-14 -53 37 -59q49 -4 157.5 0t163.5 14q53 10 37 84q-20 82 -96 123q-35 18 -74 18 q-86 0 -147.5 -58.5t-77.5 -121.5z" />
<glyph unicode="&#xe7;" horiz-adv-x="946" d="M94 465q0 209 133 352.5t357 143.5q72 0 137 -18.5t88 -33.5q25 -16 27 -215q0 -14 -16.5 -26.5t-36 -7t-23.5 31.5q-12 53 -65.5 110.5t-145.5 57.5q-125 0 -211 -92t-86 -256q0 -160 91 -270.5t235 -110.5q150 0 219 105q20 37 51 17t16 -54q-57 -143 -202 -195 q-8 -4 -28 -10t-27 -9t-20.5 -9.5t-18.5 -10.5t-12 -12t-11 -16q-12 -25 -10 -33t20 -10q145 -20 145 -119q0 -57 -67.5 -110.5t-165.5 -61.5q-39 -2 -43 30q-6 29 16 31q135 8 135 76q0 55 -114 55q-33 0 -51.5 13.5t-6.5 41.5q4 16 43 89q23 39 -53 65q-135 47 -217 174 t-82 287z" />
<glyph unicode="&#xe8;" horiz-adv-x="970" d="M96 430q0 215 126 373t331 158q156 0 242 -97.5t86 -220.5q0 -37 -19.5 -64.5t-56.5 -29.5q-41 -4 -231.5 -9t-249.5 -12q-66 -6 -66 -65q0 -156 92 -254t230 -98q131 0 215 98q12 12 24 12q20 0 31.5 -23.5t-4.5 -47.5q-51 -84 -142.5 -126t-189.5 -42 q-205 0 -311.5 127.5t-106.5 320.5zM295 682q-14 -53 37 -59q49 -4 156.5 0t164.5 14q53 10 37 84q-20 82 -96 123q-35 18 -74 18q-86 0 -147.5 -58.5t-77.5 -121.5zM342 1451.5q10 21.5 41 21.5q2 0 37 1t53 1q37 0 51 -39q72 -152 152 -283q16 -27 1 -45t-41 -18t-44 14 q-37 53 -85 113.5t-95 117t-56 66.5q-24 29 -14 50.5z" />
<glyph unicode="&#xe9;" horiz-adv-x="970" d="M96 430q0 215 126 373t331 158q156 0 242 -97.5t86 -220.5q0 -37 -19.5 -64.5t-56.5 -29.5q-41 -4 -231.5 -9t-249.5 -12q-66 -6 -66 -65q0 -156 92 -254t230 -98q131 0 215 98q12 12 24 12q20 0 31.5 -23.5t-4.5 -47.5q-51 -84 -142.5 -126t-189.5 -42 q-205 0 -311.5 127.5t-106.5 320.5zM295 682q-14 -53 37 -59q49 -4 156.5 0t164.5 14q53 10 37 84q-20 82 -96 123q-35 18 -74 18q-86 0 -147.5 -58.5t-77.5 -121.5zM384 1108q-13 16 1 45q80 131 152 283q14 39 51 39q18 0 53 -1t39 -1q31 0 40 -21.5t-15 -50.5 q-8 -10 -55.5 -66.5t-95.5 -117t-85 -113.5q-16 -16 -44 -14t-41 18z" />
<glyph unicode="&#xea;" horiz-adv-x="970" d="M96 430q0 215 126 373t331 158q156 0 242 -97.5t86 -220.5q0 -37 -19.5 -64.5t-56.5 -29.5q-41 -4 -231.5 -9t-249.5 -12q-66 -6 -66 -65q0 -156 92 -254t230 -98q131 0 215 98q12 12 24 12q20 0 31.5 -23.5t-4.5 -47.5q-51 -84 -142.5 -126t-189.5 -42 q-205 0 -311.5 127.5t-106.5 320.5zM288.5 1115.5q-12.5 17.5 2.5 43.5q139 190 192 293q16 27 54 28t51 -26q96 -178 192 -295q16 -25 1 -44t-41.5 -19t-43.5 14q-78 90 -141 158q-23 20 -39 0q-4 -4 -141 -158q-16 -16 -45 -14t-41.5 19.5zM295 682q-14 -53 37 -59 q49 -4 156.5 0t164.5 14q53 10 37 84q-20 82 -96 123q-35 18 -74 18q-86 0 -147.5 -58.5t-77.5 -121.5z" />
<glyph unicode="&#xeb;" horiz-adv-x="970" d="M96 430q0 215 126 373t331 158q156 0 242 -97.5t86 -220.5q0 -37 -19.5 -64.5t-56.5 -29.5q-41 -4 -231.5 -9t-249.5 -12q-66 -6 -66 -65q0 -156 92 -254t230 -98q131 0 215 98q12 12 24 12q20 0 31.5 -23.5t-4.5 -47.5q-51 -84 -142.5 -126t-189.5 -42 q-205 0 -311.5 127.5t-106.5 320.5zM233 1268q0 33 30 67.5t91 34.5q43 0 76 -30.5t33 -79.5q0 -45 -32 -73t-77 -28q-43 0 -82 26t-39 83zM295 682q-14 -53 37 -59q49 -4 156.5 0t164.5 14q53 10 37 84q-20 82 -96 123q-35 18 -74 18q-86 0 -147.5 -58.5t-77.5 -121.5z M616 1268q0 33 29 67.5t94 34.5q41 0 73 -30.5t32 -79.5q0 -45 -30 -73t-75 -28t-84 25t-39 84z" />
<glyph unicode="&#xec;" horiz-adv-x="641" d="M74 39q-8 43 24 55q8 2 19 2q37 -10 72.5 0t50.5 58q18 55 18 347t-22 326q-10 25 -35 27t-72 -6q-31 -6 -43 33q-12 43 23 59q10 4 20 4q84 2 112.5 4t66.5 7.5t85 17.5q37 -8 33 -49q-12 -141 -8 -409.5t14 -356.5q6 -37 31.5 -53.5t91.5 -8.5q35 4 49 -22.5t-1 -53 t-48 -24.5q-215 14 -424 -2q-49 -4 -57 45zM110.5 1451.5q10.5 21.5 41.5 21.5q2 0 36.5 1t53.5 1q37 0 51 -39q72 -152 151 -283q16 -27 1 -45t-40.5 -18t-44.5 14q-37 53 -85 113.5t-95 117t-55 66.5q-25 29 -14.5 50.5z" />
<glyph unicode="&#xed;" horiz-adv-x="641" d="M74 39q-8 43 24 55q8 2 19 2q37 -10 72.5 0t50.5 58q18 55 18 347t-22 326q-10 25 -35 27t-72 -6q-31 -6 -43 33q-12 43 23 59q10 4 20 4q84 2 112.5 4t66.5 7.5t85 17.5q37 -8 33 -49q-12 -141 -8 -409.5t14 -356.5q6 -37 31.5 -53.5t91.5 -8.5q35 4 49 -22.5t-1 -53 t-48 -24.5q-215 14 -424 -2q-49 -4 -57 45zM154.5 1108q-13.5 16 1.5 45q80 131 151 283q14 39 51 39q18 0 53 -1t40 -1q31 0 40 -21.5t-16 -50.5q-8 -10 -55 -66.5t-95.5 -117t-84.5 -113.5q-16 -16 -44 -14t-41.5 18z" />
<glyph unicode="&#xee;" horiz-adv-x="641" d="M57.5 1115.5q-12.5 17.5 1.5 43.5q139 190 193 293q16 27 54 28t50 -26q96 -178 193 -295q16 -25 1 -44t-42 -19t-43 14q-76 90 -141 158q-23 20 -39 0q-4 -4 -142 -158q-16 -16 -44.5 -14t-41 19.5zM74 39q-8 43 24 55q8 2 19 2q37 -10 72.5 0t50.5 58q18 55 18 347 t-22 326q-10 25 -35 27t-72 -6q-31 -6 -43 33q-12 43 23 59q10 4 20 4q84 2 112.5 4t66.5 7.5t85 17.5q37 -8 33 -49q-12 -141 -8 -409.5t14 -356.5q6 -37 31.5 -53.5t91.5 -8.5q35 4 49 -22.5t-1 -53t-48 -24.5q-215 14 -424 -2q-49 -4 -57 45z" />
<glyph unicode="&#xef;" horiz-adv-x="641" d="M4 1268q0 33 29.5 67.5t91.5 34.5q43 0 75.5 -30.5t32.5 -79.5q0 -45 -31.5 -73t-76.5 -28q-43 0 -82 26t-39 83zM74 39q-8 43 24 55q8 2 19 2q37 -10 72.5 0t50.5 58q18 55 18 347t-22 326q-10 25 -35 27t-72 -6q-31 -6 -43 33q-12 43 23 59q10 4 20 4q84 2 112.5 4 t66.5 7.5t85 17.5q37 -8 33 -49q-12 -141 -8 -409.5t14 -356.5q6 -37 31.5 -53.5t91.5 -8.5q35 4 49 -22.5t-1 -53t-48 -24.5q-215 14 -424 -2q-49 -4 -57 45zM387 1268q0 33 28.5 67.5t94.5 34.5q41 0 72.5 -30.5t31.5 -79.5q0 -45 -29.5 -73t-74.5 -28t-84 25t-39 84z" />
<glyph unicode="&#xf0;" horiz-adv-x="1138" d="M96 487q0 205 124 338t282 133q84 0 133 -26q53 -27 57 -83t-41 -69q-47 -14 -104.5 24t-89.5 38q-182 0 -183 -291q0 -201 73 -330t228 -129q92 0 155 64.5t87.5 155.5t24.5 202q0 410 -219 711q-27 35 -64 12q-41 -20 -84 -47t-53 -31q-47 -23 -74 17q-27 37 12 63 q6 4 15 8q45 18 104 53q39 27 8 54q-33 23 -155 90q-14 12 -12 33.5t22 38t43 6.5q82 -33 217 -109q39 -20 82 -2l127 70q41 27 77 -10t3 -68q-10 -8 -23 -14q-102 -45 -114 -54q-37 -20 -6 -47q279 -283 278 -698q0 -252 -136 -431t-360 -179q-193 0 -313.5 144t-120.5 363 z" />
<glyph unicode="&#xf1;" horiz-adv-x="1251" d="M78 45.5q0 22.5 13 37.5t36 13q113 -12 121 70q6 49 4 255t-12 273q-16 113 -103 86q-16 -4 -31.5 10.5t-15.5 34.5q0 27 33 41q16 6 57 27.5t74 36t45 14.5q14 0 33.5 -36t34.5 -91q10 -31 26.5 -42t28.5 3q174 186 344 187q145 0 218 -95.5t73 -242.5q0 -113 -4 -246 t-4 -219q0 -35 20.5 -53.5t85.5 -12.5q25 2 39 -12t14 -34.5t-15 -38t-38 -15.5q-221 14 -362 0q-27 -4 -43.5 12.5t-16.5 40.5q0 20 12.5 34.5t32.5 12.5q102 -12 105 66q12 246 8 465q-4 215 -178 215q-104 0 -201.5 -88t-99.5 -191q-12 -319 -2 -397q12 -82 100 -70 q25 2 38 -12t13 -36.5t-13 -37t-38 -12.5q-223 12 -377 0q-27 -2 -41 11.5t-14 36zM324 1225q0 55 43 128.5t116 76.5q53 2 108.5 -38t106 -80t86.5 -40q33 0 53.5 25.5t39.5 78.5q10 39 44.5 29t34.5 -43q0 -35 -15 -85t-63.5 -99.5t-115.5 -49.5q-55 0 -110.5 41t-99.5 82 t-73 41q-31 0 -44 -17.5t-25 -60.5q-2 -8 -4 -12q-12 -37 -47 -23.5t-35 46.5z" />
<glyph unicode="&#xf2;" horiz-adv-x="1120" d="M96 459q0 246 135.5 375t339.5 129q199 0 326 -124t127 -364q0 -231 -131 -363t-340 -132q-199 0 -328 126t-129 353zM281 512q0 -176 85 -304t212 -128q262 0 262 344q0 70 -15.5 141.5t-47.5 143t-93 116.5t-141 45q-121 0 -191.5 -94t-70.5 -264zM368.5 1451.5 q10.5 21.5 41.5 21.5q2 0 36.5 1t53.5 1q37 0 51 -39q72 -152 151 -283q16 -27 1 -45t-40.5 -18t-44.5 14q-37 53 -85 113.5t-95 117t-55 66.5q-25 29 -14.5 50.5z" />
<glyph unicode="&#xf3;" horiz-adv-x="1120" d="M96 459q0 246 135.5 375t339.5 129q199 0 326 -124t127 -364q0 -231 -131 -363t-340 -132q-199 0 -328 126t-129 353zM281 512q0 -176 85 -304t212 -128q262 0 262 344q0 70 -15.5 141.5t-47.5 143t-93 116.5t-141 45q-121 0 -191.5 -94t-70.5 -264zM412.5 1108 q-13.5 16 1.5 45q80 131 151 283q14 39 51 39q18 0 53.5 -1t39.5 -1q31 0 40 -21.5t-16 -50.5q-8 -10 -55 -66.5t-95 -117t-85 -113.5q-16 -16 -44 -14t-41.5 18z" />
<glyph unicode="&#xf4;" horiz-adv-x="1120" d="M96 459q0 246 135.5 375t339.5 129q199 0 326 -124t127 -364q0 -231 -131 -363t-340 -132q-199 0 -328 126t-129 353zM281 512q0 -176 85 -304t212 -128q262 0 262 344q0 70 -15.5 141.5t-47.5 143t-93 116.5t-141 45q-121 0 -191.5 -94t-70.5 -264zM315.5 1115.5 q-12.5 17.5 1.5 43.5q139 190 193 293q16 27 54 28t50 -26q96 -178 193 -295q16 -25 1 -44t-42 -19t-43 14q-76 90 -141 158q-23 20 -39 0q-4 -4 -142 -158q-16 -16 -44.5 -14t-41 19.5z" />
<glyph unicode="&#xf5;" horiz-adv-x="1120" d="M96 459q0 246 135.5 375t339.5 129q199 0 326 -124t127 -364q0 -231 -131 -363t-340 -132q-199 0 -328 126t-129 353zM229 1225q0 55 43 128.5t117 76.5q53 2 108.5 -38t105.5 -80t87 -40q33 0 53.5 25.5t38.5 78.5q10 39 45 29t35 -43q0 -35 -15.5 -85t-63.5 -99.5 t-115 -49.5q-55 0 -110.5 41t-99.5 82t-73 41q-31 0 -44 -17.5t-26 -60.5q-2 -8 -4 -12q-12 -37 -47 -23.5t-35 46.5zM281 512q0 -176 85 -304t212 -128q262 0 262 344q0 70 -15.5 141.5t-47.5 143t-93 116.5t-141 45q-121 0 -191.5 -94t-70.5 -264z" />
<glyph unicode="&#xf6;" horiz-adv-x="1120" d="M96 459q0 246 135.5 375t339.5 129q199 0 326 -124t127 -364q0 -231 -131 -363t-340 -132q-199 0 -328 126t-129 353zM262 1268q0 33 30 67.5t91 34.5q43 0 76 -30.5t33 -79.5q0 -45 -32 -73t-77 -28q-43 0 -82 26t-39 83zM281 512q0 -176 85 -304t212 -128 q262 0 262 344q0 70 -15.5 141.5t-47.5 143t-93 116.5t-141 45q-121 0 -191.5 -94t-70.5 -264zM645 1268q0 33 28.5 67.5t94.5 34.5q41 0 72.5 -30.5t31.5 -79.5q0 -45 -29.5 -73t-74.5 -28t-84 25t-39 84z" />
<glyph unicode="&#xf7;" horiz-adv-x="1228" d="M220 591q13 34 46 36q8 0 110.5 1t209 3t215 8t145.5 14q39 10 60 -41q23 -55 -19 -80q-16 -10 -43 -10q-504 -6 -670 -22q-35 -6 -51 25.5t-3 65.5zM498 293q0 33 28.5 67.5t89.5 34.5q43 0 76 -30.5t33 -79.5q0 -45 -31.5 -74t-77.5 -29q-41 0 -79.5 26t-38.5 85z M498 860q0 35 28.5 69t89.5 34q43 0 76 -31t33 -80q0 -45 -31.5 -72.5t-77.5 -27.5q-43 0 -80.5 24.5t-37.5 83.5z" />
<glyph unicode="&#xf8;" horiz-adv-x="1120" d="M96 459q0 246 135.5 375t339.5 129q47 0 93 -7q27 -8 41 -1.5t32 46.5l11 25q25 57 75 45q41 -8 39 -45q0 -12 -6 -25l-27 -47q-12 -27 -7 -43t34 -37q168 -125 168 -399q0 -231 -131 -363t-340 -132q-37 0 -111 12q-41 6 -55 1t-25 -30q-14 -35 -24 -51t-30.5 -27.5 t-49.5 -5.5q-55 12 6 109q33 55 -12 92q-156 131 -156 379zM281 481q6 -143 61 -235q29 -45 53 -2q129 244 236 512q35 86 -13 102q-37 12 -75 12q-125 0 -197.5 -102.5t-64.5 -286.5zM465 182q-27 -59 18 -82q47 -20 95 -20q150 0 209 105.5t53 265.5q-6 170 -68 266 q-12 31 -27.5 29.5t-37.5 -44.5q-181 -375 -242 -520z" />
<glyph unicode="&#xf9;" horiz-adv-x="1177" d="M45 887q0 20 14.5 36.5t36.5 18.5q164 10 189 16q57 8 71 -6q10 -14 14.5 -38.5t4.5 -46t-3 -65.5t-3 -67q-10 -307 -7 -428q6 -102 46.5 -147t119.5 -45q92 0 174 72.5t93 193.5q4 51 6 122.5t3 145.5t1 92q2 61 -26.5 89t-96.5 22q-27 -2 -41 10t-14 32.5t14 35 t41 14.5q147 0 219 17q18 6 39 -2.5t25 -28.5q8 -39 2 -197q-12 -465 4 -534q6 -25 10 -37t16.5 -27.5t29.5 -13.5t48 4q16 4 27.5 -8.5t11.5 -30.5q0 -31 -27 -49q-31 -18 -99 -37.5t-83 -19.5q-25 0 -51.5 44t-40.5 109q-8 33 -45 -8q-45 -49 -136 -97t-179 -48 q-137 0 -193.5 82.5t-62.5 244.5q0 29 3 184.5t3 253.5q0 23 -1 36.5t-6.5 31.5t-16.5 23.5t-30.5 13.5t-48.5 -2q-55 -8 -55 39zM379 1451.5q10 21.5 41 21.5q2 0 37 1t53 1q37 0 51 -39q72 -152 152 -283q16 -27 0.5 -45t-41 -18t-43.5 14q-37 53 -85 113.5t-95.5 117 t-55.5 66.5q-24 29 -14 50.5z" />
<glyph unicode="&#xfa;" horiz-adv-x="1177" d="M45 887q0 20 14.5 36.5t36.5 18.5q164 10 189 16q57 8 71 -6q10 -14 14.5 -38.5t4.5 -46t-3 -65.5t-3 -67q-10 -307 -7 -428q6 -102 46.5 -147t119.5 -45q92 0 174 72.5t93 193.5q4 51 6 122.5t3 145.5t1 92q2 61 -26.5 89t-96.5 22q-27 -2 -41 10t-14 32.5t14 35 t41 14.5q147 0 219 17q18 6 39 -2.5t25 -28.5q8 -39 2 -197q-12 -465 4 -534q6 -25 10 -37t16.5 -27.5t29.5 -13.5t48 4q16 4 27.5 -8.5t11.5 -30.5q0 -31 -27 -49q-31 -18 -99 -37.5t-83 -19.5q-25 0 -51.5 44t-40.5 109q-8 33 -45 -8q-45 -49 -136 -97t-179 -48 q-137 0 -193.5 82.5t-62.5 244.5q0 29 3 184.5t3 253.5q0 23 -1 36.5t-6.5 31.5t-16.5 23.5t-30.5 13.5t-48.5 -2q-55 -8 -55 39zM423 1108q-13 16 1 45q80 131 151 283q14 39 52 39q18 0 53 -1t39 -1q31 0 40 -21.5t-16 -50.5q-8 -10 -55 -66.5t-95 -117t-85 -113.5 q-16 -16 -44 -14t-41 18z" />
<glyph unicode="&#xfb;" horiz-adv-x="1177" d="M45 887q0 20 14.5 36.5t36.5 18.5q164 10 189 16q57 8 71 -6q10 -14 14.5 -38.5t4.5 -46t-3 -65.5t-3 -67q-10 -307 -7 -428q6 -102 46.5 -147t119.5 -45q92 0 174 72.5t93 193.5q4 51 6 122.5t3 145.5t1 92q2 61 -26.5 89t-96.5 22q-27 -2 -41 10t-14 32.5t14 35 t41 14.5q147 0 219 17q18 6 39 -2.5t25 -28.5q8 -39 2 -197q-12 -465 4 -534q6 -25 10 -37t16.5 -27.5t29.5 -13.5t48 4q16 4 27.5 -8.5t11.5 -30.5q0 -31 -27 -49q-31 -18 -99 -37.5t-83 -19.5q-25 0 -51.5 44t-40.5 109q-8 33 -45 -8q-45 -49 -136 -97t-179 -48 q-137 0 -193.5 82.5t-62.5 244.5q0 29 3 184.5t3 253.5q0 23 -1 36.5t-6.5 31.5t-16.5 23.5t-30.5 13.5t-48.5 -2q-55 -8 -55 39zM325.5 1115.5q-12.5 17.5 2.5 43.5q139 190 192 293q16 27 54 28t51 -26q96 -178 192 -295q16 -25 1 -44t-41.5 -19t-43.5 14q-78 90 -141 158 q-23 20 -39 0q-4 -4 -141 -158q-16 -16 -45 -14t-41.5 19.5z" />
<glyph unicode="&#xfc;" horiz-adv-x="1177" d="M45 887q0 20 14.5 36.5t36.5 18.5q164 10 189 16q57 8 71 -6q10 -14 14.5 -38.5t4.5 -46t-3 -65.5t-3 -67q-10 -307 -7 -428q6 -102 46.5 -147t119.5 -45q92 0 174 72.5t93 193.5q4 51 6 122.5t3 145.5t1 92q2 61 -26.5 89t-96.5 22q-27 -2 -41 10t-14 32.5t14 35 t41 14.5q147 0 219 17q18 6 39 -2.5t25 -28.5q8 -39 2 -197q-12 -465 4 -534q6 -25 10 -37t16.5 -27.5t29.5 -13.5t48 4q16 4 27.5 -8.5t11.5 -30.5q0 -31 -27 -49q-31 -18 -99 -37.5t-83 -19.5q-25 0 -51.5 44t-40.5 109q-8 33 -45 -8q-45 -49 -136 -97t-179 -48 q-137 0 -193.5 82.5t-62.5 244.5q0 29 3 184.5t3 253.5q0 23 -1 36.5t-6.5 31.5t-16.5 23.5t-30.5 13.5t-48.5 -2q-55 -8 -55 39zM272 1268q0 33 30 67.5t91 34.5q43 0 76 -30.5t33 -79.5q0 -45 -32 -73t-77 -28q-43 0 -82 26t-39 83zM655 1268q0 33 29 67.5t94 34.5 q41 0 73 -30.5t32 -79.5q0 -45 -30 -73t-75 -28t-84 25t-39 84z" />
<glyph unicode="&#xfd;" horiz-adv-x="1087" d="M6 905q0 20 14.5 32.5t40.5 10.5q174 -12 369 0q70 2 70 -43q0 -18 -13.5 -32.5t-33.5 -12.5q-55 8 -69.5 -7t-4.5 -54q68 -233 170 -461q14 -29 35.5 -27t29.5 21q92 205 179 475q10 35 -8.5 49t-90.5 4q-23 -4 -37 9.5t-14 33.5q0 45 51 45q49 -2 105.5 -4t81 -2 t62.5 1t87 5q51 2 51 -43q0 -18 -12 -32.5t-31 -12.5q-96 16 -131 -53q-4 -8 -336 -836q-49 -125 -93 -206.5t-83 -119.5t-69.5 -50.5t-67.5 -12.5q-45 0 -72.5 26.5t-27.5 55.5q0 45 42 65.5t106.5 47t99.5 78.5q68 109 83 168q-23 90 -71.5 216t-134.5 320.5t-113 257.5 q-20 51 -117 45q-23 -2 -35 11.5t-12 31.5zM414.5 1108q-13.5 16 1.5 45q80 131 151 283q14 39 51 39q18 0 53.5 -1t39.5 -1q31 0 40 -21.5t-16 -50.5q-8 -10 -55 -66.5t-95 -117t-85 -113.5q-16 -16 -44 -14t-41.5 18z" />
<glyph unicode="&#xfe;" horiz-adv-x="1114" d="M-9 1449q9 28 42 28q47 2 88 8t57.5 9t61.5 17.5t55 18.5l8 -2q6 -4 8 -6l10 -10q7 -7 8 -15t4 -21.5t-1 -29.5q-12 -307 -13 -508q0 -39 12.5 -54.5t35.5 1.5q125 78 254 78q156 0 275.5 -133.5t119.5 -321.5q0 -100 -26.5 -191.5t-78 -168t-140.5 -122.5t-202 -46 q-78 0 -116.5 22.5t-24.5 58.5q18 37 64 25q41 -10 79 -10q121 0 187.5 110.5t66.5 276.5q0 158 -69.5 272.5t-202.5 114.5q-154 0 -223 -156q-10 -86 -11 -528q0 -252 13 -399q2 -29 9 -41.5t39 -18.5t99 -4q33 2 45.5 -24.5t-2 -54t-43.5 -25.5q-215 14 -416 2 q-49 -6 -55 41q-4 41 27 55q8 6 20 4q31 -2 51.5 0t38 19.5t17.5 52.5q12 420 7 933t-17 625q-6 47 -38 52.5t-81 -7.5q-25 -4 -38 20.5t-4 52.5z" />
<glyph unicode="&#xff;" horiz-adv-x="1087" d="M6 905q0 20 14.5 32.5t40.5 10.5q174 -12 369 0q70 2 70 -43q0 -18 -13.5 -32.5t-33.5 -12.5q-55 8 -69.5 -7t-4.5 -54q68 -233 170 -461q14 -29 35.5 -27t29.5 21q92 205 179 475q10 35 -8.5 49t-90.5 4q-23 -4 -37 9.5t-14 33.5q0 45 51 45q49 -2 105.5 -4t81 -2 t62.5 1t87 5q51 2 51 -43q0 -18 -12 -32.5t-31 -12.5q-96 16 -131 -53q-4 -8 -336 -836q-49 -125 -93 -206.5t-83 -119.5t-69.5 -50.5t-67.5 -12.5q-45 0 -72.5 26.5t-27.5 55.5q0 45 42 65.5t106.5 47t99.5 78.5q68 109 83 168q-23 90 -71.5 216t-134.5 320.5t-113 257.5 q-20 51 -117 45q-23 -2 -35 11.5t-12 31.5zM264 1268q0 33 30 67.5t91 34.5q43 0 76 -30.5t33 -79.5q0 -45 -32 -73t-77 -28q-43 0 -82 26t-39 83zM647 1268q0 33 29 67.5t94 34.5q41 0 72.5 -30.5t31.5 -79.5q0 -45 -29.5 -73t-74.5 -28t-84 25t-39 84z" />
<glyph unicode="&#x152;" horiz-adv-x="2009" d="M113 709q0 297 201.5 499.5t506.5 202.5q80 0 184.5 -14.5t127.5 -16.5q162 -14 639 13q109 6 104 -56q-8 -104 -23 -198q-6 -49 -51 -49q-39 -2 -43 28v6q4 111 -75.5 146t-337.5 35q-41 0 -63.5 -17.5t-28 -36t-7.5 -51.5q-4 -41 -4 -192.5t2 -200.5q2 -45 39 -45 q29 -2 138.5 -1t138.5 3q80 8 79 123q0 25 26 36t50.5 -0.5t22.5 -43.5q-10 -145 -2 -306q2 -61 -45 -65q-41 -6 -56 31q-2 8 -2 18q2 53 -12 76.5t-53 32.5q-27 6 -144.5 6t-144.5 -4q-33 -4 -33 -45q-6 -233 6 -424q2 -59 33 -82t127 -23q131 0 203 15q135 31 186 213 q16 61 68 51q37 -6 41 -41q2 -8 0 -17q-49 -190 -58 -280q-4 -39 -61 -39q-115 0 -269.5 5t-381.5 5q-53 0 -157.5 -13t-162.5 -13q-319 0 -513.5 206t-194.5 523zM330 751.5q0 -278.5 148.5 -475t338.5 -196.5q117 0 176.5 53t69.5 193q10 129 12 396t-4 322 q-20 270 -317 271q-188 0 -306 -142.5t-118 -421z" />
<glyph unicode="&#x153;" horiz-adv-x="1718" d="M96 459q0 246 135.5 375t339.5 129q213 0 328 -150q41 -53 78 -4q119 152 321 152q158 0 243 -97.5t85 -220.5q0 -88 -74 -94q-41 -4 -231.5 -9t-249.5 -12q-66 -6 -65 -65q0 -156 92 -254t229 -98q127 0 215 98q25 29 49 -2q20 -27 2 -57q-51 -84 -142 -126t-189 -42 q-201 0 -312 131q-33 39 -76 -7q-121 -127 -321 -126q-199 0 -328 126t-129 353zM281 481q6 -166 92 -283.5t205 -117.5q150 0 209 105.5t53 265.5q-6 176 -85 297.5t-212 121.5q-125 0 -197.5 -102.5t-64.5 -286.5zM1040 682q-14 -53 39 -59q49 -4 156.5 0t165.5 14 q53 10 35 84q-18 82 -95 123q-35 18 -73 18q-86 0 -148 -58.5t-80 -121.5z" />
<glyph unicode="&#x178;" horiz-adv-x="1320" d="M8 1352q0 18 13.5 31.5t35.5 11.5q170 -14 439 2q66 2 65 -41q0 -20 -16.5 -36.5t-36.5 -14.5q-66 8 -90.5 -20t-1.5 -68q6 -12 31.5 -62.5t38 -73t38 -69.5t45 -80t47 -75t56.5 -79q25 -31 51 0q57 74 150.5 218.5t130.5 215.5q20 41 -13 76t-108 19q-23 -4 -39.5 12 t-16.5 37q0 39 45 39q303 -10 426 0q59 2 60 -41q0 -18 -14.5 -33.5t-34.5 -13.5q-59 2 -89 -15.5t-59 -54.5q-80 -92 -235.5 -323.5t-175.5 -299.5q-8 -23 -9 -110q0 -129 15 -354q6 -74 151 -54q27 2 41.5 -11t14.5 -35.5t-15.5 -39t-40.5 -14.5q-276 18 -501 -2 q-29 -2 -44.5 14.5t-15.5 40.5q0 20 11.5 34.5t31.5 12.5q41 -12 98.5 -7t63.5 50q12 82 12 273q0 203 -12 229q-72 141 -193.5 339t-193.5 290q-23 29 -42.5 37t-64.5 0q-23 -4 -36 10.5t-13 34.5zM336 1634q0 35 29.5 70t91.5 35q43 0 75.5 -32t32.5 -81 q0 -45 -31.5 -72.5t-76.5 -27.5q-43 0 -82 25.5t-39 82.5zM823 1634q0 35 28 70t91 35q41 0 74 -32t33 -81q0 -45 -31 -72.5t-76 -27.5q-41 0 -80 25.5t-39 82.5z" />
<glyph unicode="&#x2c6;" horiz-adv-x="755" d="M133 1115.5q-12 17.5 2 43.5q139 190 193 293q16 27 54 28t50 -26q96 -178 193 -295q16 -25 0.5 -44t-42 -19t-42.5 14q-78 90 -142 158q-23 20 -39 0q-4 -4 -141 -158q-16 -16 -45 -14t-41 19.5z" />
<glyph unicode="&#x2dc;" horiz-adv-x="874" d="M121 1225q0 55 43 128.5t117 76.5q53 2 108 -38t105.5 -80t87.5 -40q33 0 53 25.5t39 78.5q10 39 45 29t35 -43q0 -35 -15.5 -85t-63.5 -99.5t-116 -49.5q-55 0 -110.5 41t-99.5 82t-73 41q-31 0 -44 -17.5t-25 -60.5q-2 -8 -4 -12q-12 -37 -47 -23.5t-35 46.5z" />
<glyph unicode="&#x2013;" horiz-adv-x="1372" d="M123 575q0 29 13.5 50.5t35.5 23.5q8 0 251 -4t483.5 -3t287.5 13q25 8 44 -17.5t19 -59.5q0 -63 -61 -64q-68 0 -318.5 1t-459.5 1t-242 -4q-25 -6 -39 13t-14 50z" />
<glyph unicode="&#x2014;" horiz-adv-x="1957" d="M125 575q0 29 13.5 50.5t35.5 23.5q6 0 395 -4t776.5 -3t434.5 13q25 8 44 -17.5t19 -59.5q0 -63 -61 -64q-66 0 -463 1t-752.5 1t-388.5 -4q-25 -6 -39 13t-14 50z" />
<glyph unicode="&#x2018;" horiz-adv-x="516" d="M90 1133q0 88 54.5 163.5t150.5 112.5q4 2 14 2q20 0 34.5 -16.5t14.5 -36.5q0 -35 -30 -43q-61 -16 -98 -63.5t-37 -96.5q0 -25 12 -49.5t33 -24.5q8 0 35.5 10.5t45.5 10.5q51 0 77 -40t26 -83q0 -55 -37 -81t-86 -26q-98 0 -153.5 88.5t-55.5 172.5z" />
<glyph unicode="&#x2019;" horiz-adv-x="514" d="M90 1300q0 55 37 82t86 27q98 0 154.5 -89t56.5 -171q0 -90 -54.5 -165t-152.5 -112q-4 -2 -14 -2q-20 0 -34.5 16.5t-14.5 37.5q0 35 30 41q61 16 98 64t37 97q0 25 -12 49.5t-33 24.5q-8 0 -35.5 -11t-45.5 -11q-51 0 -77 39.5t-26 82.5z" />
<glyph unicode="&#x201a;" horiz-adv-x="552" d="M129 102q0 55 37 82t84 27q98 0 154.5 -89t56.5 -171q0 -90 -54.5 -165t-152.5 -112q-4 -2 -14 -2q-18 0 -34 17.5t-16 36.5q0 33 33 43q59 14 97 62t38 97q0 25 -13 49.5t-34 24.5q-8 0 -34.5 -11t-45.5 -11q-51 0 -76.5 39.5t-25.5 82.5z" />
<glyph unicode="&#x201c;" horiz-adv-x="935" d="M90 1133q0 88 54.5 163.5t150.5 112.5q4 2 14 2q20 0 34.5 -16.5t14.5 -36.5q0 -35 -30 -43q-61 -16 -98 -63.5t-37 -96.5q0 -25 12 -49.5t33 -24.5q8 0 35.5 10.5t45.5 10.5q51 0 77 -40t26 -83q0 -55 -37 -81t-86 -26q-98 0 -153.5 88.5t-55.5 172.5zM508 1133 q0 88 54 163.5t153 112.5q4 2 14 2q20 0 34.5 -16.5t14.5 -36.5q0 -33 -30 -43q-61 -16 -98.5 -63.5t-37.5 -96.5q0 -25 12.5 -49.5t32.5 -24.5q8 0 36 10.5t46 10.5q51 0 77 -40t26 -83q0 -55 -37 -81t-86 -26q-98 0 -154.5 88.5t-56.5 172.5z" />
<glyph unicode="&#x201d;" horiz-adv-x="929" d="M90 1305q0 55 37 81.5t84 26.5q98 0 154.5 -89t56.5 -171q0 -90 -54.5 -165t-152.5 -111q-4 -2 -14 -3q-20 0 -34.5 16.5t-14.5 37.5q0 31 30 41q61 16 98 64t37 97q0 25 -12 49.5t-33 24.5q-8 0 -35.5 -11t-46.5 -11q-51 0 -75.5 39t-24.5 84zM508 1305q0 55 37 81.5 t84 26.5q98 0 155.5 -89t57.5 -171q0 -90 -55.5 -165t-151.5 -111q-6 -2 -14 -3q-20 0 -35 16.5t-15 37.5q0 31 31 41q61 16 98 64t37 97q0 25 -12 49.5t-33 24.5q-8 0 -35.5 -11t-46.5 -11q-51 0 -76.5 40t-25.5 83z" />
<glyph unicode="&#x201e;" horiz-adv-x="974" d="M129 102q0 55 37 82t84 27q98 0 154.5 -89t56.5 -171q0 -90 -54.5 -165t-152.5 -112q-4 -2 -14 -2q-18 0 -34 17.5t-16 36.5q0 33 33 43q59 14 97 62t38 97q0 25 -13 49.5t-34 24.5q-8 0 -34.5 -11t-45.5 -11q-51 0 -76.5 39.5t-25.5 82.5zM549 102q0 55 37 82t84 27 q98 0 155.5 -89t57.5 -171q0 -90 -55.5 -165t-151.5 -112q-6 -2 -17 -2q-20 0 -33.5 16.5t-13.5 37.5q0 33 29 43q61 14 98 62t37 97q0 25 -12 49.5t-33 24.5q-8 0 -35.5 -11t-46.5 -11q-51 0 -75.5 38.5t-24.5 83.5z" />
<glyph unicode="&#x2022;" horiz-adv-x="677" d="M125 573q0 94 60.5 148.5t156.5 54.5q100 0 155.5 -47t55.5 -131q0 -100 -56.5 -164.5t-154.5 -64.5t-157.5 58t-59.5 146z" />
<glyph unicode="&#x2026;" horiz-adv-x="1441" d="M125 100q0 57 36 90t91 33q119 0 119 -108q0 -135 -119 -135q-59 0 -93 34.5t-34 85.5zM596 100q0 57 36 90t91 33q119 0 119 -108q0 -135 -119 -135q-59 0 -93 34.5t-34 85.5zM1067 100q0 57 36 90t91 33q119 0 119 -108q0 -135 -119 -135q-59 0 -93 34.5t-34 85.5z" />
<glyph unicode="&#x2039;" horiz-adv-x="569" d="M78 481q0 12 9 29.5t36 50.5t54.5 67t84.5 101.5t109 130.5q10 16 37 17q18 0 34.5 -12.5t16.5 -30.5q0 -14 -8 -25q-55 -76 -102.5 -155t-69 -123t-21.5 -54q0 -68 176 -321q8 -14 8 -27q0 -20 -18 -33.5t-38.5 -13.5t-33.5 14q-23 29 -55.5 70t-51 63.5t-43 53 t-37.5 49t-29.5 41t-26 37t-17.5 29t-11 24.5t-3 18z" />
<glyph unicode="&#x203a;" horiz-adv-x="569" d="M109 834q0 18 16 30.5t37 12.5q23 0 37 -17q51 -63 108.5 -130.5t85 -100.5t53 -67t34.5 -51t9 -30q0 -8 -3 -18t-11 -24.5t-17 -29t-25.5 -37t-30 -41t-38 -49t-43 -53t-51 -63.5t-55.5 -70q-12 -14 -32.5 -14t-39 14.5t-18.5 32.5q0 10 10 27q63 94 106.5 169.5 t55.5 107.5t12 44q0 10 -21.5 54t-68.5 123t-102 155q-8 11 -8 25z" />
<glyph unicode="&#x20ac;" horiz-adv-x="1337" d="M74 573q0 25 12 38.5t29 9.5q8 -4 78 -5q25 0 30.5 8.5t5.5 26.5q0 10 -1 43t-1 41q0 31 -26 31h-86q-41 0 -41 47q0 23 12 36t29 9q66 -4 86 -4q37 -2 49 47q43 227 203.5 368.5t388.5 141.5q164 0 281.5 -47t123.5 -98q2 -20 -8 -54t-23.5 -59t-34 -62.5t-24.5 -48.5 q-12 -18 -28.5 -16t-30 19.5t-8.5 33.5q35 117 -37 186.5t-228 69.5q-145 0 -253.5 -124t-147.5 -324q-4 -25 6 -31t37 -6q324 -4 567 0q18 0 26.5 -8t9.5 -14.5t1 -20.5q0 -43 -35 -43q-53 2 -596 2q-31 0 -30 -39q0 -51 4 -72q6 -45 43 -45q375 0 473 2q16 0 24.5 -8 t9.5 -14t1 -23q0 -41 -33 -41q-47 2 -455 2q-18 0 -26.5 -14t-1.5 -37q63 -193 175.5 -294t245.5 -101q188 0 297 108q20 20 39 -16q16 -29 4 -49q-145 -145 -387 -145q-215 0 -366.5 136t-206.5 363q-12 49 -53 49h-82q-41 -4 -41 45z" />
<glyph unicode="&#x2122;" horiz-adv-x="1294" d="M82 1178v125q4 14 37 6q231 -14 573 2q27 2 35 -25q78 -231 121 -229q12 2 24 26q16 33 45 111t37 96q2 16 35 19h168q33 0 25 -41q-8 -25 -19 -25q-33 2 -45 -2t-12 -24q-6 -139 4 -287q2 -20 45 -21q12 0 17.5 -14t1 -27.5t-14.5 -13.5q-100 10 -205 0q-10 0 -17 13.5 t-3 25.5t20 12q23 -2 33 3t12 13.5t5 28.5l6 211q0 23 -6.5 28t-13.5 -3t-13 -23l-127 -305q-2 -8 -19.5 -8t-19.5 8q-92 207 -131 305q-8 14 -15.5 22.5t-13.5 3.5t-6 -28q2 -150 2 -225q0 -25 10.5 -29t51.5 -4q10 0 15 -12t2 -24.5t-13 -12.5h-191q-10 0 -14 12.5t0 24.5 t14 12q31 0 42 6t14 29q4 106 -5 268q-2 35 -29.5 42t-123.5 3q-41 -2 -45 -51q0 -252 2 -264q6 -31 53 -31q20 0 19.5 -25.5t-19.5 -25.5q-125 14 -209 0q-18 0 -19 25.5t13 27.5q6 2 21.5 2t24.5 3t11 12q4 18 4 280q0 45 -34 45h-37q-41 0 -52.5 -18.5t-12.5 -41 t-15 -26.5q-41 -5 -43 15z" />
<glyph unicode="&#xe000;" horiz-adv-x="950" d="M0 950h950v-950h-950v950z" />
<glyph unicode="&#xfb01;" horiz-adv-x="1310" d="M80 19.5q-12 25.5 1 50t40 24.5h46q22 0 37 14.5t17 47.5q4 78 4 655q0 31 -49 31h-41q-35 6 -35 49t37 47q49 4 68.5 35t23.5 84q16 227 143.5 350t334.5 123q139 0 235 -66.5t96 -144.5q0 -37 -24.5 -62.5t-61.5 -25.5q-72 0 -100 61q-23 49 -74 94.5t-127 45.5 q-96 0 -176 -57.5t-96 -192.5q-4 -27 -4 -62t2 -77t2 -62q0 -33 31 -33q461 -29 655 25q37 -8 33 -49q-12 -141 -8 -409.5t14 -356.5q6 -37 31.5 -53.5t91.5 -8.5q35 4 49 -22.5t-1 -53t-48 -24.5q-215 14 -424 -2q-49 -4 -58 45q-8 43 25 55q8 2 18 2q37 -10 73 0t50 58 q18 55 17.5 346t-21.5 327q-16 29 -251.5 30t-254.5 -11q-25 0 -24 -27q4 -602 18 -665q4 -31 43 -51.5t101 -8.5q33 2 46 -23.5t-1.5 -50t-44.5 -24.5q-246 8 -414 0q-33 -2 -45 23.5z" />
<glyph unicode="&#xfb02;" horiz-adv-x="1296" d="M80 19.5q-12 25.5 1 50t40 24.5h46q22 0 37 14.5t17 47.5q4 78 4 655q0 31 -49 31h-41q-35 6 -35 49t37 47q88 6 107 147q25 190 167 317.5t332 127.5q68 0 164.5 -23.5t149.5 -17.5q37 0 33 -84q-16 -348 -14.5 -750.5t14.5 -486.5q14 -90 118 -72q35 0 49.5 -25.5 t-1 -51t-48.5 -23.5q-227 16 -413 0q-37 -4 -49.5 22.5t2 53t45.5 24.5q113 -14 114 66q27 946 2 1120q-6 49 -68.5 86t-166.5 37q-297 0 -297 -434q0 -31 29 -31q45 -2 206 6q49 2 56 -45q2 -41 -29 -53q-6 -2 -14 -2h-224q-25 0 -24 -27q4 -602 18 -665q4 -31 43 -51.5 t101 -8.5q33 2 46 -23.5t-1.5 -50t-44.5 -24.5q-246 8 -414 0q-33 -2 -45 23.5z" />
<glyph unicode="&#xfb03;" horiz-adv-x="2070" d="M1502 49q0 20 12 34.5t33 12.5q18 -5 36.5 -5t35.5 5q36 10 51 58q18 55 18 347t-22 326q-10 25 -35 27h-11q-23 0 -61 -6q-18 -4 -31.5 12.5t-13.5 36.5q0 47 45 47q84 2 112.5 4t66.5 7.5t85 17.5q33 -7 33 -41q0 -32 -4.5 -128t-4.5 -164q0 -59 1 -126q4 -268 14 -356 q6 -37 32 -54q17 -11 52 -10q17 0 39 2q27 2 41 -11t14 -35.5t-15 -39t-40 -14.5q-100 7 -199 7q-113 0 -225 -9h-6q-23 0 -37 14q-16 16 -16 41zM1623 1290q0 57 34.5 89t89.5 32q119 0 119 -106q0 -59 -30.5 -95t-88.5 -36q-59 0 -91.5 32.5t-32.5 83.5zM789 43 q0 20 13 36.5t34 14.5h46q22 0 37 14.5t17 47.5q4 78 4 655q0 31 -49 31h-41q-35 6 -35 51q0 41 37 45q55 4 73.5 44t22.5 103q55 444 398 445q113 0 187.5 -44t74.5 -102q0 -33 -23.5 -60.5t-58.5 -27.5q-27 0 -46.5 13.5t-43 44t-35.5 41.5q-47 43 -113 43 q-37 0 -66.5 -12.5t-50 -40t-34.5 -51t-22.5 -70.5t-13.5 -72t-7 -81t-2 -72v-68q0 -31 29 -31h22q55 0 184 6h4q51 0 52 -51q0 -20 -12.5 -34.5t-30.5 -14.5h-224q-25 0 -24 -27q4 -602 18 -665q4 -31 43 -52q24 -13 58 -12q20 0 43 4q25 2 38 -12t13 -34.5t-15 -37.5 q-13 -15 -31 -14h-5q-123 4 -226.5 4t-187.5 -4h-6q-20 0 -32 12q-13 15 -13 35zM74 43q0 20 13 36.5t34 14.5h46q22 0 37 14.5t17 47.5q4 78 4 655q0 31 -49 31h-41q-35 6 -35 51q0 41 37 45q55 4 73.5 44t22.5 103q55 444 398 445q113 0 187.5 -44t74.5 -102 q0 -33 -23.5 -60.5t-58.5 -27.5q-27 0 -46.5 13.5t-43 44t-35.5 41.5q-47 43 -113 43q-37 0 -66.5 -12.5t-50 -40t-34.5 -51t-22.5 -70.5t-13.5 -72t-7 -81t-2 -72v-68q0 -31 29 -31h22q55 0 184 6h4q51 0 52 -51q0 -20 -12.5 -34.5t-30.5 -14.5h-224q-25 0 -24 -27 q4 -602 18 -665q4 -31 43 -52q24 -13 58 -12q20 0 43 4q25 2 38 -12t13 -34.5t-15 -37.5q-13 -15 -31 -14h-5q-123 4 -226.5 4t-187.5 -4h-6q-20 0 -32 12q-13 15 -13 35z" />
<glyph unicode="&#xfb04;" horiz-adv-x="2025" d="M1473 41q0 23 14.5 40t36.5 15q17 -2 32 -2q81 0 83 68q13 454 13 741q0 310 -15 428q-6 47 -37 52q-9 2 -20 2q-26 0 -60 -9q-20 -2 -33.5 14.5t-13.5 39.5q0 47 47 47q47 2 87 7t57.5 10t59.5 18.5t58 17.5l4 -2q6 -2 8.5 -4t7.5 -6.5t7 -10.5t5 -14t3 -20v-27 q-14 -298 -14 -643q0 -65 1 -130q3 -419 17 -505q12 -75 86 -75q15 0 33 3q27 0 41 -14t14 -35q0 -23 -15 -38q-14 -14 -34 -13h-6q-114 8 -217.5 8t-196.5 -8h-7q-22 0 -33 11q-13 14 -13 34zM789 43q0 20 13 36.5t34 14.5h46q22 0 37 14.5t17 47.5q4 78 4 655q0 31 -49 31 h-41q-35 6 -35 51q0 41 37 45q55 4 73.5 44t22.5 103q55 444 398 445q113 0 187.5 -44t74.5 -102q0 -33 -23.5 -60.5t-58.5 -27.5q-27 0 -46.5 13.5t-43 44t-35.5 41.5q-47 43 -113 43q-37 0 -66.5 -12.5t-50 -40t-34.5 -51t-22.5 -70.5t-13.5 -72t-7 -81t-2 -72v-68 q0 -31 29 -31h22q55 0 184 6h4q51 0 52 -51q0 -20 -12.5 -34.5t-30.5 -14.5h-224q-25 0 -24 -27q4 -602 18 -665q4 -31 43 -52q24 -13 58 -12q20 0 43 4q25 2 38 -12t13 -34.5t-15 -37.5q-13 -15 -31 -14h-5q-123 4 -226.5 4t-187.5 -4h-6q-20 0 -32 12q-13 15 -13 35z M74 43q0 20 13 36.5t34 14.5h46q22 0 37 14.5t17 47.5q4 78 4 655q0 31 -49 31h-41q-35 6 -35 51q0 41 37 45q55 4 73.5 44t22.5 103q55 444 398 445q113 0 187.5 -44t74.5 -102q0 -33 -23.5 -60.5t-58.5 -27.5q-27 0 -46.5 13.5t-43 44t-35.5 41.5q-47 43 -113 43 q-37 0 -66.5 -12.5t-50 -40t-34.5 -51t-22.5 -70.5t-13.5 -72t-7 -81t-2 -72v-68q0 -31 29 -31h22q55 0 184 6h4q51 0 52 -51q0 -20 -12.5 -34.5t-30.5 -14.5h-224q-25 0 -24 -27q4 -602 18 -665q4 -31 43 -52q24 -13 58 -12q20 0 43 4q25 2 38 -12t13 -34.5t-15 -37.5 q-13 -15 -31 -14h-5q-123 4 -226.5 4t-187.5 -4h-6q-20 0 -32 12q-13 15 -13 35z" />
<glyph horiz-adv-x="0" />
</font>
</defs>
</svg>
