<?xml version="1.0" standalone="no"?>
<!DOCTYPE svg PUBLIC "-//W3C//DTD SVG 1.1//EN" "http://www.w3.org/Graphics/SVG/1.1/DTD/svg11.dtd" >
<svg xmlns="http://www.w3.org/2000/svg">
<metadata>
This is a custom SVG webfont generated by Font Squirrel.
Copyright   : Copyright c 2008 by Jan SchmoegerParagraph All rights reserved
</metadata>
<defs>
<font id="MentoneRegular" horiz-adv-x="1208" >
<font-face units-per-em="2048" ascent="1536" descent="-512" />
<missing-glyph horiz-adv-x="518" />
<glyph unicode=" "  horiz-adv-x="518" />
<glyph unicode="&#x09;" horiz-adv-x="518" />
<glyph unicode="&#xa0;" horiz-adv-x="518" />
<glyph unicode="!" horiz-adv-x="630" d="M193 102q0 51 35.5 87t86.5 36t87 -35.5t36 -87.5q0 -51 -35.5 -86.5t-87.5 -35.5q-51 0 -86.5 35.5t-35.5 86.5zM213 430v840q0 57 10 102q4 23 10 41q6 20 21 21h164q20 0 20 -21q0 -6 -10 -44t-10 -99v-819q0 -20 -21 -21l-164 -20q-20 0 -20 20z" />
<glyph unicode="&#x22;" horiz-adv-x="792" d="M113 1393q0 16 20 20q37 4 68 10q27 4 49 7.5t26 3.5q20 0 21 -21l-21 -489q0 -18 -20 -23q-25 -6 -47 -10q-18 -4 -34.5 -7t-20.5 -3q-20 0 -21 20zM502 1393q0 16 20 20q37 4 68 10q27 4 49.5 7.5t26.5 3.5q20 0 20 -21l-20 -489q0 -18 -21 -23q-25 -6 -47 -10 q-18 -4 -34.5 -7t-20.5 -3q-20 0 -21 20z" />
<glyph unicode="#" horiz-adv-x="1427" d="M82 430q0 4 3 22.5t7 41.5q4 25 10 59q4 20 21 20h250l35 287h-244q-20 0 -21 21q0 4 3.5 22.5t7.5 40.5q4 25 10 60q4 20 20 20h242l45 369q0 16 21 20q39 4 71 10q27 4 49.5 7.5t24.5 3.5q20 0 20 -21l-45 -389h285l45 369q0 16 21 20q39 4 69 10q27 4 49.5 7.5 t24.5 3.5q20 0 20 -21l-45 -389h250q20 0 21 -20q0 -4 -3 -23.5t-8 -42.5q-6 -27 -10 -57q-4 -20 -20 -21h-250l-33 -287h242q20 0 20 -20q0 -4 -3 -23.5t-7 -42.5q-6 -27 -10 -57q-4 -20 -21 -20h-241l-45 -390q0 -20 -21 -20h-143q-20 0 -21 20l45 390h-284l-45 -390 q0 -20 -21 -20h-145q-20 0 -21 20l45 390h-250q-20 0 -20 20zM559 573h285l35 287h-287z" />
<glyph unicode="$" horiz-adv-x="1157" d="M96 1065q0 78 18.5 145.5t65.5 117.5t126 82t200 40v168q0 16 20 20q33 4 60 11q23 4 42 7t21 3q20 0 21 -21v-186q76 -4 127 -14.5t82 -20.5q37 -12 57 -24q16 -6 20 -21q4 -35 11 -59q4 -23 7 -41.5t3 -22.5q0 -20 -21 -20q-33 14 -73 24q-37 10 -89.5 19.5 t-123.5 13.5v-502q76 -25 148.5 -56.5t131 -77.5t94 -114.5t35.5 -166.5q0 -78 -18.5 -145.5t-65.5 -118t-125.5 -82t-199.5 -39.5v-189q0 -20 -21 -20h-123q-20 0 -20 20v187q-88 4 -153.5 17t-108.5 28q-51 16 -86 34q-16 6 -21 21q-6 31 -10 57q-4 23 -7 42.5t-3 23.5 q0 10 7 15t13 5q2 0 29 -10t75 -24.5t114.5 -26.5t150.5 -19v502q-76 25 -149.5 56.5t-131 78.5t-93.5 115t-36 168zM301 1065q0 -88 58.5 -138t146.5 -85v444q-72 -10 -112 -32.5t-61.5 -53.5t-26.5 -66.5t-5 -68.5zM670 147q70 8 110.5 31t62 53.5t26.5 66.5t5 71 q0 88 -58 137t-146 84v-443z" />
<glyph unicode="%" horiz-adv-x="1933" d="M74 1044q0 215 99 312.5t269 97.5q84 0 153 -23.5t117 -73.5t73.5 -128t25.5 -185q0 -109 -25.5 -185.5t-73.5 -126.5t-117 -73.5t-153 -23.5q-170 0 -269 97t-99 312zM258 1044q0 -61 8 -110t29.5 -84t57.5 -53.5t89 -18.5q106 0 145.5 72t39.5 194q0 123 -39 195 t-146 72q-53 0 -89 -18.5t-57.5 -53.5t-29.5 -84.5t-8 -110.5zM410 20q0 2 37.5 62.5t100 159t142.5 224.5t164 255l446 692q12 20 31 21h144q20 0 20 -21q0 -2 -38 -63.5t-101.5 -159.5t-143 -223t-163.5 -254q-197 -305 -445 -693q-8 -12 -16 -16t-15 -4h-143 q-20 0 -20 20zM1098 389q0 215 99 312.5t269 97.5q84 0 153 -23.5t117 -74t73.5 -128t25.5 -184.5q0 -109 -25.5 -185.5t-73.5 -126.5t-117 -73.5t-153 -23.5q-170 0 -269 97t-99 312zM1282 389q0 -61 8 -110.5t29.5 -84t57.5 -53t89 -18.5q106 0 145.5 71.5t39.5 194.5 t-39 194.5t-146 71.5q-53 0 -89 -18.5t-57.5 -53t-29.5 -84t-8 -110.5z" />
<glyph unicode="&#x26;" horiz-adv-x="1396" d="M98 410q0 84 20.5 146t55.5 109.5t81 80t99 57.5l-51 57q-45 47 -73.5 105.5t-28.5 119.5q0 80 23.5 147.5t75.5 117t134 77t197 27.5t196.5 -27.5t134 -77t76 -117t23.5 -147.5q0 -84 -35 -140t-92 -94t-130 -63.5t-147 -48.5q61 -66 119 -127q49 -53 104.5 -111.5 t96.5 -101.5q31 68 51.5 145t32.5 152q4 20 20 21h152q20 0 20 -21q-8 -98 -46 -212.5t-105 -217.5q47 -51 88 -96t71.5 -78t48.5 -52l17 -20q0 -20 -20 -20h-205q-8 0 -17.5 6t-15.5 14l-92 99q-72 -63 -157 -101t-189 -38q-154 0 -256.5 33.5t-163.5 92t-87 136.5t-26 168 zM303 410q0 -53 11.5 -101.5t45 -85.5t98 -58.5t173.5 -21.5q74 0 132 26t105 71l-391 428q-76 -39 -125 -98.5t-49 -159.5zM406 1085q0 -31 17 -72.5t44 -70.5l22 -22q10 -10 22.5 -24.5t27.5 -29.5q63 20 120.5 38t101.5 40.5t69.5 56t25.5 84.5q0 39 -9 76t-34 65.5 t-69 46t-113 17.5q-70 0 -114 -14t-68.5 -42t-33.5 -66t-9 -83z" />
<glyph unicode="'" horiz-adv-x="405" d="M113 1393q0 16 20 20q37 4 68 10q27 4 49 7.5t26 3.5q20 0 21 -21l-21 -491q0 -16 -20 -21q-25 -6 -47 -10q-18 -4 -34.5 -7t-20.5 -3q-20 0 -21 20z" />
<glyph unicode="(" horiz-adv-x="655" d="M98 655q0 201 51.5 358.5t112.5 270.5q72 129 164 232q10 20 31 20h133q20 0 20 -20q0 -4 -48 -63.5t-105.5 -170.5t-105.5 -269.5t-48 -357.5q0 -201 48 -358.5t105.5 -268t105.5 -170t48 -63.5q0 -20 -20 -20h-133q-20 0 -31 20q-92 98 -164 230q-61 111 -112.5 270 t-51.5 360z" />
<glyph unicode=")" horiz-adv-x="655" d="M45 -205q0 4 48 63.5t105.5 170t105.5 268.5t48 358q0 199 -48 357.5t-105.5 269.5t-105.5 170t-48 64q0 20 21 20h133q20 0 30 -20q92 -102 164 -232q61 -113 112.5 -270.5t51.5 -358.5t-51 -360.5t-113 -269.5q-72 -131 -164 -230q-10 -20 -30 -20h-133q-21 0 -21 20z " />
<glyph unicode="*" horiz-adv-x="946" d="M63 1077q0 2 1.5 3t1.5 3l40 136q2 14 19 14q4 0 37 -12.5t74 -28.5q47 -18 106 -39l80 -61l-31 96q-4 59 -6 108q-2 41 -3 77t-1 40q0 20 20 21h144q20 0 20 -21q0 -4 -2 -40t-4 -77q-2 -49 -4 -108l-33 -96l82 61l33 12q33 12 72 27.5t72.5 28t37.5 12.5q18 0 21 -14 q16 -49 24 -77t12.5 -42.5t5.5 -18.5l1 -4q0 -16 -13 -20q-4 -2 -37.5 -11.5t-74.5 -19.5q-47 -12 -105 -29h-98l80 -57q37 -49 67 -86q27 -33 48.5 -59.5t25.5 -30.5q4 -8 4 -12q0 -10 -8 -17l-117 -84q-4 -4 -12 -4q-10 0 -16 8q-4 4 -22.5 33t-41.5 64q-27 39 -59 92 l-31 96l-31 -96q-33 -53 -59 -92q-23 -35 -42 -64t-22 -33q-6 -8 -16 -8q-8 0 -12 4l-117 84q-8 6 -8 17q0 4 4 12q2 4 24.5 30.5t49.5 59.5q31 37 67 86l78 57h-96q-57 16 -105 29q-41 10 -73.5 19.5t-36.5 11.5q-15 4 -15 20z" />
<glyph unicode="+" horiz-adv-x="1138" d="M47 512q0 4 3 22.5t7 40.5q4 25 11 60q4 20 20 20h389v389q0 16 21 21q37 4 67 10q27 4 49.5 7t26.5 3q20 0 21 -20v-410h409q20 0 21 -20q0 -4 -3.5 -23.5t-7.5 -42.5q-6 -27 -10 -57q-4 -20 -20 -20h-389v-390q0 -16 -21 -20q-39 -6 -70 -10q-27 -4 -48 -7.5t-25 -3.5 q-20 0 -21 21v410h-409q-21 0 -21 20z" />
<glyph unicode="," horiz-adv-x="520" d="M41 -266q0 2 5 22.5t14.5 54t19.5 76.5t22 86q27 102 62 232q4 20 20 20h185q20 0 20 -20q0 -2 -7 -24l-18 -55q-11 -34 -26.5 -76t-30.5 -85q-37 -102 -82 -231q-6 -20 -20 -21h-150q-10 0 -12 6.5t-2 14.5z" />
<glyph unicode="-" horiz-adv-x="915" d="M172 512q0 4 3 22.5t7 40.5q4 25 11 60q4 20 20 20h512q20 0 20 -20q0 -4 -3 -23.5t-7 -42.5q-6 -27 -10 -57q-4 -20 -20 -20h-512q-21 0 -21 20z" />
<glyph unicode="." horiz-adv-x="483" d="M119 102q0 51 35.5 87t87.5 36q51 0 87 -35.5t36 -87.5q0 -51 -36 -86.5t-87 -35.5t-87 35.5t-36 86.5z" />
<glyph unicode="/" horiz-adv-x="729" d="M70 20q0 2 18 62.5t48 159t69 224.5t80 255q94 305 215 692q6 20 20 21h144q20 0 20 -21q0 -2 -18.5 -63.5t-49 -159.5t-69.5 -223t-78 -254q-96 -305 -215 -693q-6 -20 -21 -20h-143q-20 0 -20 20z" />
<glyph unicode="0" horiz-adv-x="1347" d="M121 717q0 154 20.5 288t80 233t168 157.5t284.5 58.5t284.5 -58.5t168 -157.5t80 -233.5t20.5 -287.5q0 -154 -20.5 -288t-80 -233.5t-168 -157.5t-284.5 -58t-284.5 58t-168 157.5t-80 233.5t-20.5 288zM326 717q0 -119 11 -223.5t48 -182.5t105.5 -123t183.5 -45 t183.5 45t105 123t48 182.5t11.5 223.5t-11.5 223t-48 182t-105.5 123t-183 45q-115 0 -183.5 -45t-105.5 -123t-48 -182t-11 -223z" />
<glyph unicode="1" horiz-adv-x="770" d="M31 1180q0 10 8 14l360 219q43 4 80 10q31 4 56.5 7.5t27.5 3.5q20 0 21 -21v-1393q0 -20 -21 -20h-164q-20 0 -20 20v1250l-41 -92l-238 -140q-8 -4 -12 -4q-12 0 -16 10l-21 66q-8 25 -14 45.5t-6 24.5z" />
<glyph unicode="2" horiz-adv-x="1132" d="M117 20v226q0 117 51 200.5t129 146t168 112t168 98.5t129 106.5t51 134.5q0 53 -11 98.5t-45 78t-99.5 51t-172.5 18.5q-70 0 -131 -9t-108 -21.5t-76 -21.5t-33 -9q-20 0 -20 20q0 4 3 22.5t7 41.5q4 25 10 59q4 14 21 21q41 16 94 30q45 10 104.5 20.5t128.5 10.5 q168 0 272.5 -29.5t163 -83t78 -129t19.5 -168.5q0 -113 -51.5 -191.5t-129 -138t-167.5 -107.5t-168 -99t-129 -113.5t-51 -148.5v-82h675q20 0 21 -21q0 -4 -3 -23.5t-7 -41.5q-6 -27 -11 -58q-4 -20 -20 -20h-840q-20 0 -20 20z" />
<glyph unicode="3" horiz-adv-x="1144" d="M92 41q0 4 3 22.5t7 40.5q4 25 11 60q4 20 20 20q2 0 32 -6t77 -14t108.5 -14.5t130.5 -6.5q106 0 172 21.5t99.5 58.5t45 85t11.5 102q0 104 -94 174.5t-295 70.5h-144q-20 0 -20 21v102q0 16 20 21l195 20q170 18 254 67.5t84 157.5q0 53 -11.5 98.5t-45 78t-99 51 t-172.5 18.5q-70 0 -131 -9t-108 -21.5t-76 -21.5t-33 -9q-20 0 -20 20q0 4 3 22.5t7 41.5q4 25 10 59q4 14 21 21q41 16 94 30q45 10 104.5 20.5t128.5 10.5q168 0 272.5 -29.5t163 -83t78 -129t19.5 -168.5q0 -96 -62.5 -176t-206.5 -127q143 -41 206 -122.5t63 -208.5 q0 -92 -19.5 -171t-78 -136.5t-163 -90t-272.5 -32.5q-78 0 -145.5 6t-116.5 14q-59 8 -106 20q-21 5 -21 21z" />
<glyph unicode="4" horiz-adv-x="1212" d="M51 430v143l553 820q10 16 31 20l174 21h102q20 0 21 -21v-840h205q20 0 20 -20q0 -4 -3 -23.5t-7 -42.5q-6 -27 -10 -57q-4 -20 -21 -20h-184v-390q0 -20 -21 -20h-163q-20 0 -21 20v390h-655q-21 0 -21 20zM215 573h512v738l-31 -103l-399 -604z" />
<glyph unicode="5" horiz-adv-x="1169" d="M129 184q0 20 21 21q4 0 32.5 -9.5t73.5 -21.5t102.5 -21.5t118.5 -9.5q106 0 181 13.5t121 46.5t66.5 88t20.5 139q0 137 -102 191.5t-287 54.5h-307q-16 0 -20 20v697q0 16 20 20l184 21h615q16 0 20 -21q4 -35 10 -59q4 -23 7.5 -41.5t3.5 -22.5q0 -20 -21 -20h-635 v-430h123q162 0 274.5 -20.5t183.5 -69t103.5 -127t32.5 -193.5t-29.5 -200t-98.5 -140t-183.5 -82.5t-282.5 -27.5q-61 0 -117.5 9t-97.5 21q-51 12 -92 31q-16 6 -20 20q-6 31 -11 58q-4 23 -7 42t-3 23z" />
<glyph unicode="6" horiz-adv-x="1206" d="M125 717q0 154 17.5 288t72.5 233t160.5 157.5t281.5 58.5q70 0 133.5 -10t110.5 -21q55 -14 105 -30q16 -6 20 -21q4 -35 10 -59q4 -23 7.5 -41.5t3.5 -22.5q0 -20 -21 -20q-4 0 -36 9t-83 21.5t-115.5 21.5t-134.5 9q-106 0 -169.5 -38t-98.5 -105.5t-46 -158.5 t-13 -195q41 23 92 43q41 16 97 30.5t118 14.5q137 0 228 -37t145.5 -99.5t76 -144.5t21.5 -170q0 -90 -21.5 -171t-76 -143.5t-145.5 -99t-228 -36.5q-176 0 -278.5 58t-154.5 157.5t-65.5 233.5t-13.5 288zM330 635q0 -123 13 -215t47 -153.5t94.5 -92.5t152.5 -31 q76 0 127 23.5t82 63.5t44 92.5t13 107.5t-13 106.5t-44 91.5t-82 64.5t-127 24.5q-78 0 -135.5 -12.5t-95.5 -28.5q-45 -18 -76 -41z" />
<glyph unicode="7" horiz-adv-x="1017" d="M41 1290v103q0 16 20 20l185 21h717q20 0 20 -21v-143q0 -6 -3 -14.5t-20.5 -44t-52.5 -110.5t-97 -212t-157.5 -348t-232.5 -521q-6 -20 -21 -20h-174q-20 0 -20 20l23 54q24 53 64 139t90 195.5t103 224.5l283 606l92 31h-799q-20 0 -20 20z" />
<glyph unicode="8" horiz-adv-x="1286" d="M111 369q0 68 24.5 120t67.5 94t99 73.5t120 58.5q-55 25 -104.5 55.5t-86 72.5t-58 96t-21.5 126q0 84 24.5 155.5t82.5 124t151.5 81t232.5 28.5q137 0 231.5 -28.5t152.5 -81t83 -124t25 -155.5q0 -61 -21.5 -110.5t-58.5 -89.5t-87 -71.5t-106 -58.5 q63 -25 119.5 -56.5t99.5 -74.5t69 -100.5t26 -134.5q0 -84 -29 -156t-92.5 -124t-165 -80.5t-246.5 -28.5t-246.5 28.5t-165 80.5t-92 124t-28.5 156zM315 369q0 -39 13.5 -79t50.5 -73t100.5 -53.5t163.5 -20.5t163.5 20.5t100.5 53.5t50.5 73t13.5 79q0 57 -29 99 t-76 72.5t-109.5 54t-129.5 46.5q-63 -25 -119.5 -51.5t-99.5 -58t-68 -71.5t-25 -91zM356 1065q0 -53 23.5 -93t64.5 -70t95.5 -52.5t115.5 -42.5q55 23 105.5 48.5t88.5 56t59.5 68.5t21.5 85q0 39 -10.5 79t-41 72.5t-87 53t-148.5 20.5t-148.5 -20.5t-87 -53t-41 -72.5 t-10.5 -79z" />
<glyph unicode="9" d="M100 1004q0 88 21.5 169.5t76 144t144.5 99.5t229 37q176 0 278.5 -58.5t155 -157.5t65.5 -233.5t13 -287.5q0 -154 -17 -288t-72.5 -233.5t-161 -157.5t-281.5 -58q-70 0 -133.5 9t-110.5 21q-55 12 -104 31q-16 6 -21 20q-6 31 -10 58q-4 23 -7 42t-3 23q0 20 20 21 q4 0 36 -9.5t83 -21.5t115.5 -21.5t134.5 -9.5q106 0 169.5 38t98.5 105.5t46.5 159t13.5 195.5q-43 -25 -93 -45q-43 -16 -98 -29.5t-117 -13.5q-139 0 -229 37t-144.5 99.5t-76 143.5t-21.5 171zM305 1004q0 -55 12.5 -107.5t43 -92.5t82 -63.5t128.5 -23.5q78 0 134.5 12 t95.5 29q45 18 78 41q0 123 -13.5 215t-47.5 153.5t-94 92t-153 30.5q-78 0 -129 -24.5t-81.5 -64.5t-43 -91t-12.5 -106z" />
<glyph unicode=":" horiz-adv-x="573" d="M164 102q0 51 36 87t87 36t87 -35.5t36 -87.5q0 -51 -36 -86.5t-87 -35.5t-87 35.5t-36 86.5zM164 922q0 51 36 86.5t87 35.5t87 -35.5t36 -86.5t-36 -87t-87 -36t-87 36t-36 87z" />
<glyph unicode=";" horiz-adv-x="589" d="M63 -266q0 2 5.5 22.5t14.5 54t19.5 76.5t22.5 86q27 102 61 232q4 20 21 20h184q20 0 21 -20q0 -2 -8 -24l-18 -55q-11 -34 -26.5 -76t-29.5 -85q-37 -102 -82 -231q-6 -20 -21 -21h-149q-10 0 -12.5 6.5t-2.5 14.5zM186 922q0 51 36 86.5t87 35.5t87 -35.5t36 -86.5 t-36 -87t-87 -36t-87 36t-36 87z" />
<glyph unicode="&#x3c;" horiz-adv-x="1153" d="M53 430v164q0 12 21 20q266 119 477 215q90 39 176 78t154.5 70t110.5 49t44 18q20 0 21 -20v-147q0 -14 -21 -21l-737 -324l-123 -20l123 -20l737 -324q20 -6 21 -21v-147q0 -20 -21 -20q-2 0 -44 18t-110.5 48t-154.5 69t-176 80q-211 94 -477 215q-21 8 -21 20z" />
<glyph unicode="=" horiz-adv-x="1398" d="M178 307q0 4 3 22.5t7 41.5q4 25 11 59q4 20 20 21h983q20 0 21 -21q0 -4 -3 -23.5t-8 -41.5q-6 -27 -10 -58q-4 -20 -20 -20h-983q-21 0 -21 20zM178 717q0 4 3 22.5t7 40.5q4 25 11 60q4 20 20 20h983q20 0 21 -20q0 -4 -3 -23.5t-8 -42.5q-6 -27 -10 -57 q-4 -20 -20 -21h-983q-21 1 -21 21z" />
<glyph unicode="&#x3e;" horiz-adv-x="1153" d="M96 0v147q0 14 21 21l737 324l123 20l-123 20l-737 324q-20 6 -21 21v147q0 20 21 20q2 0 44 -18t109.5 -49t153.5 -70t176 -78q211 -96 479 -215q20 -8 21 -20v-164q0 -12 -21 -20q-268 -121 -479 -215q-90 -41 -176 -80t-153.5 -69t-109.5 -48t-44 -18q-21 0 -21 20z " />
<glyph unicode="?" horiz-adv-x="1028" d="M49 1249q0 4 3 22.5t7 41.5q4 25 11 59q4 14 20 21q45 16 100 30q47 10 115 20.5t154 10.5q154 0 250 -32.5t149 -88t72.5 -130.5t19.5 -159q0 -78 -28.5 -133t-71.5 -98t-94 -81t-94.5 -78t-72 -89t-28.5 -114q0 -20 -20 -21l-164 -20q-20 0 -21 20q0 92 29 160.5 t72 122t94 94.5t94 79t71.5 74.5t28.5 83.5q0 53 -10 98.5t-40.5 78t-87 51t-148.5 18.5q-84 0 -155 -9t-121 -21.5t-79.5 -21.5t-33.5 -9q-21 0 -21 20zM336 102q0 51 36 87t87 36t87 -35.5t36 -87.5q0 -51 -36 -86.5t-87 -35.5t-87 35.5t-36 86.5z" />
<glyph unicode="@" horiz-adv-x="1683" d="M109 717q0 154 31.5 288t114.5 233t225.5 157.5t365.5 58.5q154 0 268.5 -26.5t196.5 -73.5t134 -109.5t83 -133.5t43 -145.5t12 -146.5q0 -231 -114.5 -361t-315.5 -130h-287q-115 0 -190.5 28.5t-119.5 80.5t-61.5 124t-17.5 156t17.5 155.5t61.5 124t120 81t190 28.5 h103l164 -21q20 -4 20 -20v-594q8 0 47 5t83 38t80 103.5t36 201.5q0 92 -23.5 180t-85 158t-169 112t-275.5 42q-170 0 -277.5 -47t-169 -127t-84 -188.5t-22.5 -231.5t32.5 -231.5t105.5 -188.5t189.5 -127t286.5 -47q137 0 239.5 9t171 21.5t103.5 21.5t39 9q20 0 21 -20 q0 -4 -3 -20.5t-8 -34.5q-6 -23 -10 -48q-4 -14 -20 -20q-53 -18 -129 -31q-66 -12 -165 -21t-239 -9q-231 0 -384.5 58t-246 157.5t-130 233.5t-37.5 288zM662 717q0 -51 9 -95t31.5 -78t62.5 -53.5t101 -19.5h103v492h-103q-61 0 -101 -19.5t-62.5 -53.5t-31.5 -78t-9 -95 z" />
<glyph unicode="A" horiz-adv-x="1337" d="M12 20q0 2 22.5 61.5t59.5 156t84 219.5t96 252l263 684q6 16 20 20l154 21h59q12 0 21 -21q150 -389 266 -694q49 -131 97 -256t86 -222.5t60.5 -157.5t22.5 -63q0 -20 -20 -20h-175q-14 0 -20 20l-154 410h-575l-152 -410q-6 -20 -20 -20h-174q-21 0 -21 20zM440 594 h453l-205 553l-20 143l-21 -143z" />
<glyph unicode="B" horiz-adv-x="1304" d="M184 20v1373q0 16 21 20l184 21h225q176 0 281.5 -31t161 -83t73 -124t17.5 -152q0 -225 -205 -307q109 -39 177.5 -122t68.5 -205q0 -80 -17.5 -155t-77 -131t-173 -90t-306.5 -34h-409q-21 0 -21 20zM389 164h225q131 0 205 20.5t111 55t45 78.5t8 92q0 47 -11 91 t-50 78.5t-112 55t-196 20.5h-225v-491zM389 819h225q115 0 180.5 17.5t98.5 48t41 71.5t8 88t-8 88.5t-41 72t-98.5 48t-180.5 17.5h-225v-451z" />
<glyph unicode="C" horiz-adv-x="1282" d="M117 717q0 74 7 156.5t31.5 164.5t68.5 158t120 133t185.5 91t263.5 34q70 0 133 -10t110 -21q55 -14 105 -30q16 -6 20 -21q4 -35 10 -59q4 -23 7.5 -41.5t3.5 -22.5q0 -20 -21 -20q-4 0 -35.5 9t-83 21.5t-116 21.5t-133.5 9q-154 0 -245 -59.5t-139.5 -146.5 t-62.5 -187t-14 -180t14 -180.5t62.5 -187.5t139.5 -146.5t245 -59.5q70 0 131 6.5t108 14.5t76 14t33 6q16 0 20 -20q4 -35 10 -60q4 -23 7.5 -41t3.5 -22q0 -16 -21 -21q-51 -12 -108 -20q-51 -8 -117 -14t-143 -6q-154 0 -263.5 33.5t-185.5 91t-120 133t-68.5 157.5 t-31.5 165t-7 157z" />
<glyph unicode="D" horiz-adv-x="1445" d="M184 20v1373q0 16 21 20l184 21h266q154 0 263.5 -33t185.5 -88.5t120 -127t68.5 -151.5t31.5 -161.5t7 -155.5t-7 -156t-31.5 -162t-68.5 -151.5t-120 -126.5t-185.5 -88t-263.5 -33h-450q-21 0 -21 20zM389 164h266q154 0 245 56t140.5 139t63.5 180.5t14 177.5 t-14 177t-63.5 180t-140.5 139.5t-245 56.5h-266v-1106z" />
<glyph unicode="E" d="M184 20v1373q0 16 21 20l184 21h655q16 0 21 -21q4 -35 10 -59q4 -23 7 -41.5t3 -22.5q0 -20 -20 -20h-676v-451h615q20 0 20 -20v-123q0 -20 -20 -21h-615v-491h676q20 0 20 -21q0 -4 -3 -23.5t-7 -41.5q-6 -27 -10 -58q-4 -20 -21 -20h-839q-21 0 -21 20z" />
<glyph unicode="F" horiz-adv-x="1157" d="M184 20v1373q0 16 21 20l184 21h655q16 0 21 -21q4 -35 10 -59q4 -23 7 -41.5t3 -22.5q0 -20 -20 -20h-676v-451h615q20 0 20 -20v-123q0 -20 -20 -21h-615v-635q0 -20 -20 -20h-164q-21 0 -21 20z" />
<glyph unicode="G" horiz-adv-x="1411" d="M117 717q0 74 7 156.5t31.5 164.5t68.5 158t120 133t185.5 91t263.5 34q78 0 143 -10t117 -21q57 -14 108 -30q16 -6 21 -21q4 -35 10 -59q4 -23 7 -41.5t3 -22.5q0 -20 -20 -20q-4 0 -34 9t-80 21.5t-120.5 21.5t-154.5 9q-154 0 -245 -59.5t-139.5 -146.5t-62.5 -187 t-14 -180t14 -180.5t62.5 -187.5t139.5 -146.5t245 -59.5q70 0 123 3.5t90 7.5q43 4 73 10v491h-348q-20 0 -20 21q0 4 3 22.5t7 40.5q4 25 10 60q4 20 21 20h512q20 0 20 -20v-738q0 -16 -20 -20q-57 -18 -129 -31q-61 -12 -147.5 -21t-194.5 -9q-154 0 -263.5 33.5 t-185.5 91t-120 133t-68.5 157.5t-31.5 165t-7 157z" />
<glyph unicode="H" horiz-adv-x="1476" d="M184 20v1373q0 16 21 20q41 4 78 10q29 4 55.5 7.5t30.5 3.5q20 0 20 -21v-594h696v574q0 20 21 20l164 21q20 0 20 -21v-1393q0 -20 -20 -20h-164q-20 0 -21 20v635h-696v-635q0 -20 -20 -20h-164q-21 0 -21 20z" />
<glyph unicode="I" horiz-adv-x="575" d="M184 20v1373q0 16 21 20q43 4 80 10q31 4 56.5 7.5t27.5 3.5q20 0 20 -21v-1393q0 -20 -20 -20h-164q-21 0 -21 20z" />
<glyph unicode="J" horiz-adv-x="759" d="M12 25q0 4 3 23.5t8 41.5q4 25 10 57q4 16 20 17q8 0 52.5 -10.5t91.5 -10.5q35 0 68.5 12.5t59 39t41 69.5t15.5 105v1024q0 20 20 20l164 21q20 0 21 -21v-1044q0 -84 -27 -156t-76 -124t-121.5 -80.5t-164.5 -28.5q-61 0 -113 10q-27 4 -51 10q-21 7 -21 25z" />
<glyph unicode="K" horiz-adv-x="1314" d="M184 20v1373q0 20 21 20l164 21q20 0 20 -21v-635l615 635q25 20 40 21h205q20 0 21 -21q0 -8 -6 -14q-27 -25 -70 -67t-94 -93t-107.5 -108.5t-111.5 -112.5q-129 -131 -277 -281q197 -195 352 -350q66 -66 129.5 -130t113.5 -115.5t81 -84t31 -37.5q0 -20 -21 -20h-215 q-16 0 -25.5 6t-15.5 14l-645 674v-674q0 -20 -20 -20h-164q-21 0 -21 20z" />
<glyph unicode="L" horiz-adv-x="1095" d="M184 20v1373q0 20 21 20l164 21q20 0 20 -21v-1249h676q20 0 20 -21q0 -4 -3 -23.5t-7 -41.5q-6 -27 -10 -58q-4 -20 -21 -20h-839q-21 0 -21 20z" />
<glyph unicode="M" horiz-adv-x="1886" d="M184 20v1373q0 20 21 20l164 21h143q14 0 20 -21l390 -1126l20 -144l21 144l389 1106q6 16 20 20l154 21h153q20 0 21 -21v-1393q0 -20 -21 -20h-163q-20 0 -21 20v1270l-41 -184l-389 -1086q-6 -20 -21 -20h-204q-14 0 -21 20l-389 1086l-41 184v-1270q0 -20 -20 -20 h-164q-21 0 -21 20z" />
<glyph unicode="N" horiz-adv-x="1476" d="M184 20v1373q0 16 21 20l164 21h127q10 0 20 -21l528 -1126l41 -144v1250q0 16 21 20l164 21q20 0 20 -21v-1393q0 -20 -20 -20h-291q-10 0 -21 20l-528 1127l-41 143v-1270q0 -20 -20 -20h-164q-21 0 -21 20z" />
<glyph unicode="O" horiz-adv-x="1536" d="M113 717q0 154 31.5 288t107.5 233t202 157.5t314 58.5t314 -58.5t202 -157.5t107.5 -233.5t31.5 -287.5q0 -154 -31.5 -288t-107.5 -233.5t-202 -157.5t-314 -58t-314 58t-202 157.5t-107.5 233.5t-31.5 288zM328 717q0 -119 19.5 -223.5t69.5 -182.5t135 -123t216 -45 t216 45t135 123t69.5 182.5t19.5 223.5t-19.5 223t-69.5 182t-135 123t-216 45t-216 -45t-135 -123t-69.5 -182t-19.5 -223z" />
<glyph unicode="P" horiz-adv-x="1212" d="M184 20v1373q0 16 21 20l164 21h245q176 0 281.5 -39t161 -100.5t73 -138.5t17.5 -152q0 -78 -17.5 -155t-73 -138.5t-160.5 -99.5t-282 -38h-225v-553q0 -20 -20 -20h-164q-21 0 -21 20zM389 737h225q115 0 180.5 24.5t98.5 62.5t41 85t8 95q0 45 -8 93t-41 86 t-98.5 62.5t-180.5 24.5h-225v-533z" />
<glyph unicode="Q" horiz-adv-x="1536" d="M113 717q0 154 31.5 288t107.5 233t202 157.5t314 58.5t314 -58.5t202 -157.5t107.5 -233.5t31.5 -287.5q0 -111 -16 -211t-53 -186.5t-96.5 -155t-145.5 -113.5q25 -29 68 -78t83 -97t69.5 -84t29.5 -38q0 -20 -21 -20h-184q-16 0 -25.5 6t-15.5 14l-192 238 q-74 -12 -156 -12q-188 0 -314 58t-202 157.5t-107.5 233.5t-31.5 288zM328 717q0 -119 19.5 -223.5t69.5 -182.5t135 -123t216 -45t216 45t135 123t69.5 182.5t19.5 223.5t-19.5 223t-69.5 182t-135 123t-216 45t-216 -45t-135 -123t-69.5 -182t-19.5 -223z" />
<glyph unicode="R" horiz-adv-x="1296" d="M184 20v1373q0 16 21 20l184 21h225q176 0 281.5 -31t161 -83t73 -124t17.5 -152q0 -66 -9.5 -124t-39 -106t-87 -84t-151.5 -54q55 -49 88 -103.5t56 -101.5q2 -6 18 -42t39.5 -86t49.5 -105.5t47.5 -103.5t35.5 -79.5t14 -34.5q0 -20 -20 -20h-184q-10 0 -21 20 l-192 451q-10 23 -30 54.5t-48.5 60t-68.5 49t-91 20.5h-164v-635q0 -20 -20 -20h-164q-21 0 -21 20zM389 819h225q115 0 180.5 17.5t98.5 48t41 71.5t8 88t-8 88.5t-41 72t-98.5 48t-180.5 17.5h-225v-451z" />
<glyph unicode="S" horiz-adv-x="1212" d="M106 1065q0 84 26 155.5t85 124t157.5 81t243.5 28.5q100 0 170 -10t115 -21q53 -14 84 -30q16 -6 21 -21q4 -35 10 -59q4 -23 7 -41.5t3 -22.5q0 -20 -20 -20q-45 16 -103 31q-51 10 -122.5 20t-164.5 10q-100 0 -160.5 -20.5t-93 -53t-43 -72.5t-10.5 -79 q0 -82 60.5 -128t151.5 -80t197.5 -63.5t198 -79.5t151.5 -131t60 -214q0 -84 -25.5 -156t-84.5 -124t-157.5 -80.5t-244.5 -28.5q-109 0 -192.5 12t-140.5 28q-68 18 -117 41q-16 6 -21 21q-6 31 -10 57q-4 23 -7 42.5t-3 23.5q0 10 7 15t13 5q2 0 39 -13t99.5 -28.5 t147.5 -28t185 -12.5t161 20.5t93.5 53.5t43 73t10.5 79q0 82 -60.5 128t-151.5 79.5t-197.5 63.5t-198 80t-152 131t-60.5 214z" />
<glyph unicode="T" horiz-adv-x="1138" d="M23 1270v123q0 16 20 20l164 21h901q20 0 20 -21q0 -2 -3 -24.5t-7 -49.5q-6 -31 -10 -69q-4 -20 -21 -21h-409v-1229q0 -20 -21 -20h-163q-20 0 -21 20v1229h-430q-20 1 -20 21z" />
<glyph unicode="U" horiz-adv-x="1447" d="M170 532v861q0 20 20 20l164 21q20 0 21 -21v-860q0 -102 14 -179t52 -128t105.5 -77t176.5 -26q106 0 175 26t106.5 77t52 128t14.5 179v840q0 20 21 20l163 21q20 0 21 -21v-881q0 -154 -38 -259t-108.5 -170.5t-173 -94t-233.5 -28.5t-233.5 28.5t-173 94 t-108.5 170.5t-38 259z" />
<glyph unicode="V" horiz-adv-x="1318" d="M20 1393q0 16 21 20q43 4 78 10q29 4 55.5 7.5t30.5 3.5q14 0 20 -21l410 -1126l20 -144l21 144l420 1126q6 20 20 21h174q20 0 21 -21q0 -2 -22.5 -62.5t-60.5 -158.5t-86 -224t-98 -255q-117 -307 -266 -693q-6 -20 -20 -20h-205q-14 0 -21 20q-143 381 -256 682 q-49 129 -95 252t-82 219.5t-57.5 157t-21.5 62.5z" />
<glyph unicode="W" horiz-adv-x="2220" d="M31 1393q0 16 20 20q43 4 78 10q29 4 55.5 7.5t30.5 3.5q14 0 21 -21l348 -1126l20 -144l21 144l360 1106q6 16 21 20l153 21h60q12 0 20 -21l348 -1126l21 -144l20 144l359 1126q6 20 20 21h174q20 0 21 -21q0 -2 -20.5 -62.5t-53.5 -158.5t-76 -224t-86 -255 q-104 -307 -235 -693q-6 -20 -21 -20h-205q-14 0 -20 20l-348 1127l-21 143l-20 -143l-369 -1127q-6 -20 -20 -20h-205q-14 0 -21 20q-127 381 -225 682q-43 129 -83 252t-71.5 219.5t-51 157t-19.5 62.5z" />
<glyph unicode="X" horiz-adv-x="1282" d="M45 20l42 63q42 62 109.5 162.5t153.5 229.5t176 262q-96 143 -177 263t-139 206t-91 135.5t-33 51.5q0 16 20 20q43 4 78 10q29 4 55.5 7.5t30.5 3.5q8 0 17.5 -6.5t13.5 -14.5l303 -450l35 -123l35 123l303 450q14 20 31 21h184q20 0 20 -21q0 -2 -34.5 -52t-96 -139 t-145.5 -212t-184 -273q88 -133 175 -261t154.5 -229.5t109.5 -163.5l42 -63q0 -20 -21 -20h-184q-8 0 -17.5 6t-13.5 14l-325 502l-33 113l-33 -113l-325 -502q-6 -8 -14.5 -14t-16.5 -6h-184q-21 0 -21 20z" />
<glyph unicode="Y" horiz-adv-x="1193" d="M12 1393q0 16 21 20q43 4 78 10q29 4 55.5 7.5t30.5 3.5q10 0 18 -6.5t12 -14.5l334 -553l35 -123l35 123l327 553q14 20 31 21h180q20 0 21 -21l-27 -45q-27 -45 -69.5 -114.5t-96 -158.5t-107.5 -178.5t-105.5 -172t-86.5 -140.5v-584q0 -20 -20 -20h-164q-20 0 -20 20 v584q-135 219 -242 391q-45 74 -88 144.5t-77 126t-54.5 90.5t-20.5 37z" />
<glyph unicode="Z" horiz-adv-x="1198" d="M88 20v123q0 6 3 10.5l7 10.5l727 1075l82 31h-778q-20 0 -20 20v103q0 16 20 20l184 21h758q20 0 21 -21v-123q0 -10 -5 -14l-733 -1081l-82 -31h820q20 0 20 -21l-20 -123q-4 -20 -21 -20h-962q-21 0 -21 20z" />
<glyph unicode="[" horiz-adv-x="638" d="M156 -205v1700q0 16 20 21l164 20h205q16 0 20 -20q4 -27 10 -50q4 -18 7.5 -33.5t3.5 -19.5q0 -20 -21 -20h-225v-1475h225q20 0 21 -20q0 -4 -3 -20.5t-8 -35.5q-6 -23 -10 -47q-4 -20 -20 -20h-369q-20 0 -20 20z" />
<glyph unicode="\" horiz-adv-x="727" d="M45 1413q0 20 21 21h143q14 0 20 -21q119 -387 215 -692q39 -129 78 -255t70 -224.5t49 -158.5t18 -63q0 -20 -20 -20h-143q-14 0 -21 20q-121 387 -215 693q-41 129 -80 254t-68.5 223t-48 159.5t-18.5 63.5z" />
<glyph unicode="]" horiz-adv-x="636" d="M53 -102q0 20 21 20h225v1475h-225q-20 0 -21 20q0 4 3 19.5t7 33.5q4 23 11 50q4 20 20 20h369q20 0 20 -20v-1700q0 -16 -20 -21l-164 -20h-205q-16 0 -20 20q-6 25 -11 47q-4 18 -7 35t-3 21z" />
<glyph unicode="^" horiz-adv-x="1114" d="M66 614q0 2 16 37t44 92.5t62.5 129t71.5 145.5q84 174 195 395q10 20 30 21h144q20 0 30 -21q109 -221 195 -395q37 -74 72 -145.5t62.5 -129t44 -92.5t16.5 -37q0 -20 -21 -20h-143q-20 0 -31 20l-276 594l-21 103l-20 -103l-277 -594q-10 -20 -31 -20h-143 q-20 0 -20 20z" />
<glyph unicode="_" horiz-adv-x="1114" d="M45 -164h1024v-143h-1024v143z" />
<glyph unicode="`" horiz-adv-x="1116" d="M315 1454q0 20 21 21h143q27 0 41 -21l103 -139q39 -53 70.5 -98.5t31.5 -49.5q0 -20 -20 -20h-103q-25 0 -41 20l-123 140q-23 27 -45 52t-39.5 45.5t-28 34t-10.5 15.5z" />
<glyph unicode="a" horiz-adv-x="1124" d="M80 307q0 154 114.5 230.5t315.5 76.5q29 0 75 -3t89 -7q51 -6 102 -10v123q0 78 -61.5 121t-184.5 43q-51 0 -114.5 -13.5t-119.5 -29t-94 -27.5t-40 -12q-20 0 -21 20q0 2 3 21.5t8 42.5q4 27 10 59q4 14 20 21q51 23 109 41q49 16 111.5 28t127.5 12 q100 0 183.5 -22.5t142.5 -64.5t92 -103t33 -137v-553q0 -61 10 -99t10 -45q0 -20 -20 -20h-164q-14 0 -20 20l-21 103q-20 -41 -63 -72q-37 -29 -100.5 -50t-163.5 -21q-47 0 -110 13t-121 50t-98 100.5t-40 163.5zM285 307q0 -53 17 -86t42 -50t53.5 -22.5t51.5 -5.5 q59 0 118.5 6.5t105.5 32t74.5 74.5t28.5 135v60h-266q-92 0 -158.5 -34t-66.5 -110z" />
<glyph unicode="b" horiz-adv-x="1239" d="M135 20q0 6 10.5 44t10.5 100v1331q0 16 20 21q43 4 78 10q29 4 55.5 7t30.5 3q20 0 20 -20v-615q31 39 76 72q39 27 96.5 49t135.5 22q154 0 247 -41.5t142 -113.5t65.5 -169t16.5 -208t-16.5 -208t-65.5 -169t-142.5 -113.5t-246.5 -41.5q-70 0 -126.5 21.5t-97.5 49.5 q-47 31 -84 72l-20 -103q-6 -20 -21 -20h-163q-21 0 -21 20zM360 512q2 -86 16.5 -154.5t48.5 -115.5t92 -73t151 -26q84 0 136 28t80.5 77t39 116.5t10.5 147.5t-10.5 147.5t-39 116.5t-80.5 77t-136 28q-92 0 -151.5 -28t-94.5 -77t-48.5 -116.5t-13.5 -147.5z" />
<glyph unicode="c" horiz-adv-x="1052" d="M98 512q0 111 19.5 208t78 169t162 113.5t273.5 41.5q61 0 113.5 -10t91.5 -20q45 -14 82 -31q16 -6 20 -20q4 -35 10 -60q4 -23 7 -41t3 -22q0 -20 -20 -21q-4 0 -29.5 9.5t-66.5 21.5t-95.5 21.5t-115.5 9.5q-109 0 -173.5 -28t-98 -77t-45 -116.5t-11.5 -147.5 t13.5 -147.5t50 -116.5t100 -77t164.5 -28q61 0 112.5 6.5t89 14.5t59 14t26.5 6q16 0 20 -20q4 -35 10 -60q4 -23 7 -41t3 -22q0 -16 -20 -21q-43 -12 -92 -20q-43 -8 -98.5 -14t-116.5 -6q-170 0 -273.5 41.5t-162 113.5t-78 169t-19.5 208z" />
<glyph unicode="d" horiz-adv-x="1239" d="M100 512q0 111 16.5 208t65.5 169t142.5 113.5t246.5 41.5q78 0 134.5 -22.5t95.5 -48.5q45 -33 78 -72v615q0 20 20 20l164 -20q20 0 20 -21v-1331q0 -61 10.5 -99t10.5 -45q0 -20 -21 -20h-163q-14 0 -21 20l-20 103q-37 -41 -84 -72q-41 -29 -97.5 -50t-126.5 -21 q-154 0 -247 41.5t-142 113.5t-65.5 169t-16.5 208zM305 512q0 -80 10.5 -147.5t39 -116.5t80.5 -77t136 -28q92 0 150.5 26t92.5 73t48.5 115.5t16.5 154.5q0 80 -13.5 147.5t-48.5 116.5t-94 77t-152 28q-84 0 -136 -28t-80.5 -77t-39 -116.5t-10.5 -147.5z" />
<glyph unicode="e" horiz-adv-x="1142" d="M96 512q0 111 20.5 208t78 169t157 113.5t256.5 41.5q215 0 333 -128t118 -404v-61q0 -20 -21 -21h-735q4 -66 22.5 -118t56.5 -90t98.5 -58.5t148.5 -20.5q70 0 131 6.5t108 14.5t76 14t33 6q20 0 20 -20q0 -4 -3 -22.5t-7 -41.5q-6 -27 -10 -59q-4 -18 -21 -21 q-39 -12 -88 -20q-43 -8 -102 -14t-137 -6q-166 0 -269.5 41.5t-162 113.5t-80 169t-21.5 208zM303 594h551q0 59 -12.5 111.5t-41 91.5t-75.5 61.5t-117 22.5q-88 0 -145 -20.5t-91 -58.5t-49.5 -91.5t-19.5 -116.5z" />
<glyph unicode="f" horiz-adv-x="739" d="M18 881q0 4 3.5 22.5t7.5 40.5q4 25 10 60q4 20 20 20h205v123q0 84 16.5 158.5t55.5 130t101.5 88t154.5 32.5q31 0 53.5 -3t38.5 -7l31 -10q20 -6 20 -25q0 -4 -3 -23.5t-7 -41.5q-6 -25 -10 -57q-4 -16 -21 -17q-8 0 -31.5 10.5t-70.5 10.5q-72 0 -97.5 -61.5 t-25.5 -184.5v-123h225q20 0 21 -20q0 -4 -3 -22.5t-7 -41.5q-6 -27 -11 -59q-4 -20 -20 -21h-205v-696q0 -31 -3 -57.5t-7 -45.5q-6 -23 -10 -41q-6 -20 -21 -20h-164q-20 0 -20 20q0 6 10 44t10 100v696h-225q-21 1 -21 21z" />
<glyph unicode="g" horiz-adv-x="1239" d="M100 512q0 111 16.5 208t65.5 169t142.5 113.5t246.5 41.5q70 0 126.5 -22.5t97.5 -48.5q47 -33 84 -72l20 103q6 20 21 20h163q20 0 21 -20q0 -6 -10.5 -44t-10.5 -100v-860q0 -109 -19.5 -196t-74.5 -148.5t-155.5 -94t-262.5 -32.5q-78 0 -141 9t-111 22 q-53 12 -96 30q-16 6 -20 21q-6 33 -10 59q-4 23 -7.5 42.5t-3.5 21.5q0 20 21 20q2 0 33.5 -9t83 -21.5t117 -21.5t134.5 -9q106 0 168 27.5t92.5 71.5t39 99.5t8.5 108.5v123q-33 -41 -78 -72q-39 -29 -95.5 -50t-134.5 -21q-154 0 -247 41.5t-142 113.5t-65.5 169 t-16.5 208zM305 512q0 -80 12.5 -147.5t43 -116.5t82 -77t128.5 -28q92 0 151.5 28t94.5 77t48.5 116.5t13.5 147.5q-2 86 -16.5 154.5t-48.5 115.5t-92 73t-151 26q-80 0 -132 -28t-81.5 -77t-41 -116.5t-11.5 -147.5z" />
<glyph unicode="h" horiz-adv-x="1218" d="M135 20q0 6 10.5 44t10.5 100v1331q0 20 20 21l164 20q20 0 20 -20v-635q27 45 70 82q37 31 94.5 56t143.5 25q154 0 236.5 -41.5t121.5 -113.5t45 -169t6 -208v-492q0 -20 -20 -20h-164q-20 0 -21 20v492q0 80 -3 147.5t-22.5 116.5t-61.5 77t-117 28q-152 0 -230 -70 t-78 -217v-430q0 -31 -3 -57.5t-7 -45.5q-6 -23 -10 -41q-6 -20 -21 -20h-163q-21 0 -21 20z" />
<glyph unicode="i" horiz-adv-x="509" d="M129 1331q0 51 36 87t87 36t87 -36t36 -87t-36 -87t-87 -36t-87 36t-36 87zM150 164v819q0 20 20 21l164 20q20 0 20 -20v-840q0 -61 10.5 -99t10.5 -45q0 -20 -21 -20h-164q-14 0 -20 20q-6 18 -10 41q-10 42 -10 103z" />
<glyph unicode="j" horiz-adv-x="509" d="M-115 -406q0 4 3 24t8 42q4 25 10 57q4 16 20 17q8 0 32 -10.5t71 -10.5q72 0 97.5 61.5t25.5 184.5v1024q0 20 20 21l164 20q20 0 20 -20v-1045q0 -84 -16 -158.5t-55 -130t-101.5 -88.5t-154.5 -33q-57 0 -92 11q-18 4 -31 10q-21 6 -21 24zM131 1331q0 51 36 87t87 36 t87 -36t36 -87t-36 -87t-87 -36t-87 36t-36 87z" />
<glyph unicode="k" horiz-adv-x="1114" d="M135 20q0 6 10.5 44t10.5 100v1331q0 20 20 21l164 20q20 0 20 -20v-924l443 412q25 20 41 20h213q20 0 20 -20q0 -4 -21.5 -25t-55 -51.5t-78.5 -69.5l-91 -78q-109 -92 -245 -207q137 -150 245 -268q45 -51 90.5 -100t79 -89t55 -65.5t21.5 -30.5q0 -20 -20 -20h-193 q-16 0 -25.5 6t-15.5 14l-463 529v-385q0 -31 -3 -57.5t-7 -45.5q-6 -23 -10 -41q-6 -20 -21 -20h-163q-21 0 -21 20z" />
<glyph unicode="l" horiz-adv-x="514" d="M154 164v1331q0 20 20 21l164 20q20 0 20 -20v-1352q0 -61 10.5 -99t10.5 -45q0 -20 -21 -20h-163q-14 0 -21 20q-6 18 -10 41q-10 42 -10 103z" />
<glyph unicode="m" horiz-adv-x="1935" d="M135 1004q0 20 21 20h163q14 0 21 -20l20 -123q27 45 70 82q37 31 94.5 56t143.5 25q164 0 247.5 -47t118.5 -127q14 20 42 50t71 58t101.5 47t135.5 19q154 0 237 -41.5t122 -113.5t45 -169t6 -208v-492q0 -20 -20 -20h-164q-20 0 -21 20v492q0 80 -3 147.5t-22.5 116.5 t-61.5 77t-118 28q-152 0 -229.5 -73t-77.5 -220v-568q0 -20 -20 -20h-164q-20 0 -21 20v492q0 80 -3 147.5t-22.5 116.5t-61.5 77t-117 28q-152 0 -230 -73t-78 -220v-568q0 -20 -20 -20h-164q-20 0 -20 20v840q0 61 -10.5 99.5t-10.5 44.5z" />
<glyph unicode="n" horiz-adv-x="1218" d="M135 1004q0 20 21 20h163q14 0 21 -20l20 -123q27 45 70 82q37 31 94.5 56t143.5 25q154 0 236.5 -41.5t121.5 -113.5t45 -169t6 -208v-492q0 -20 -20 -20h-164q-20 0 -21 20v492q0 80 -3 147.5t-22.5 116.5t-61.5 77t-117 28q-152 0 -230 -73t-78 -220v-568 q0 -20 -20 -20h-164q-20 0 -20 20v840q0 61 -10.5 99.5t-10.5 44.5z" />
<glyph unicode="o" d="M92 512q0 137 37 238.5t104.5 166t161.5 96t209 31.5t209 -31.5t161.5 -96t104.5 -166t37 -238.5q0 -139 -37 -239.5t-104.5 -165t-161.5 -96t-209 -31.5t-209 31.5t-161.5 96t-104.5 165t-37 239.5zM297 512q0 -76 13.5 -143.5t48 -117.5t94 -79t151.5 -29t151.5 29 t94.5 79t48 117.5t13 143.5t-13 143.5t-48 117.5t-94.5 79t-151.5 29t-151.5 -29t-94 -79t-48 -117.5t-13.5 -143.5z" />
<glyph unicode="p" horiz-adv-x="1239" d="M135 1004q0 20 21 20h163q14 0 21 -20l20 -103q37 39 84 72q41 27 97.5 49t126.5 22q154 0 247 -41.5t142 -113.5t65.5 -169t16.5 -208t-16.5 -208t-65.5 -169t-142.5 -113.5t-246.5 -41.5q-78 0 -135.5 21.5t-96.5 49.5q-45 31 -76 72v-574q0 -20 -20 -20l-164 20 q-20 0 -20 21v1290q0 61 -10.5 99.5t-10.5 44.5zM360 512q0 -80 13.5 -147.5t48.5 -116.5t94 -77t152 -28q76 0 127 28t81.5 77t44 116.5t13.5 147.5t-13.5 147.5t-44 116.5t-82 77t-126.5 28q-84 0 -142.5 -26t-94.5 -73t-52.5 -115.5t-18.5 -154.5z" />
<glyph unicode="q" horiz-adv-x="1239" d="M100 512q0 111 16.5 208t65.5 169t142.5 113.5t246.5 41.5q70 0 126.5 -22.5t97.5 -48.5q47 -33 84 -72l20 103q6 20 21 20h163q20 0 21 -20q0 -6 -10.5 -44t-10.5 -100v-1290q0 -20 -20 -21l-164 -20q-20 0 -20 20v574q-33 -41 -78 -72q-39 -29 -95.5 -50t-134.5 -21 q-154 0 -247 41.5t-142 113.5t-65.5 169t-16.5 208zM305 512q0 -80 12.5 -147.5t43 -116.5t82 -77t128.5 -28q92 0 151.5 28t94.5 77t48.5 116.5t13.5 147.5q-4 172 -72 270.5t-236 98.5q-78 0 -129 -28t-81.5 -77t-43 -116.5t-12.5 -147.5z" />
<glyph unicode="r" horiz-adv-x="870" d="M135 1004q0 20 21 20h163q14 0 21 -20l20 -123q27 45 70 82q37 31 94.5 56t143.5 25q23 0 47 -3t47 -7q25 -6 49 -10q6 -2 11 -8t9 -12q4 -35 11 -60q4 -23 7 -41t3 -22q0 -20 -21 -21q-4 0 -21 3t-41 7t-51.5 7.5t-49.5 3.5q-152 0 -230 -73t-78 -220v-568 q0 -20 -20 -20h-164q-20 0 -20 20v840q0 61 -10.5 99.5t-10.5 44.5z" />
<glyph unicode="s" horiz-adv-x="976" d="M100 184q0 20 21 21q61 -18 129 -31q57 -12 125.5 -21.5t134.5 -9.5q86 0 135 34t49 89q0 47 -44 77t-109.5 52.5t-143.5 47t-143.5 62.5t-109.5 98.5t-44 154.5q0 129 88 207.5t281 78.5q72 0 133.5 -6t104.5 -14q51 -8 90 -20q16 -6 20 -21q4 -35 10 -59 q4 -23 7.5 -41.5t3.5 -22.5q0 -20 -21 -20q-51 12 -108 20q-49 8 -111.5 14.5t-128.5 6.5q-86 0 -125 -34t-39 -89q0 -43 44 -71t109.5 -51.5t143.5 -48t143.5 -64.5t109.5 -101.5t44 -155.5q0 -129 -98.5 -207.5t-290.5 -78.5q-74 0 -140.5 9t-117.5 21q-59 12 -111 31 q-16 6 -20 20q-6 31 -10 58q-4 23 -7.5 42t-3.5 23z" />
<glyph unicode="t" horiz-adv-x="786" d="M0 1004q0 20 20 20h226v369q0 20 20 20l164 21q20 0 21 -21v-389h225q16 0 20 -20q4 -33 11 -60q4 -23 7 -42t3 -21q0 -20 -21 -21h-245v-471q0 -123 25.5 -184.5t96.5 -61.5q47 0 81 10.5t42 10.5q16 0 21 -17q4 -33 10 -57q4 -23 7 -42t3 -23q0 -18 -20 -25 q-18 -6 -41 -10q-45 -10 -103 -10q-92 0 -154.5 32.5t-101 88t-55 130t-16.5 158.5v471h-205q-16 0 -21 21q-6 31 -10 57q-4 23 -7 42.5t-3 23.5z" />
<glyph unicode="u" horiz-adv-x="1214" d="M137 512v471q0 20 21 21l164 20q20 0 20 -20v-492q0 -80 3 -147.5t22.5 -116.5t60.5 -77t119 -28q152 0 229.5 73t77.5 220v547q0 20 20 21l164 20q20 0 21 -20v-840q0 -61 10 -99t10 -45q0 -20 -20 -20h-164q-14 0 -21 20l-20 123q-27 -45 -70 -82q-37 -31 -94 -56 t-143 -25q-154 0 -237 41.5t-121.5 113.5t-45 169t-6.5 208z" />
<glyph unicode="v" horiz-adv-x="1028" d="M31 983q0 16 20 21q43 4 78 10q29 4 55.5 7t30.5 3q14 0 21 -20l256 -717l20 -144l20 144l256 717q6 20 21 20h174q20 0 21 -20q0 -2 -15.5 -45.5t-42 -113t-59.5 -157.5t-68 -180q-82 -217 -184 -488q-6 -20 -21 -20h-204q-14 0 -21 20q-100 266 -180 478 q-35 90 -66.5 176t-56.5 154.5t-40 110.5t-15 44z" />
<glyph unicode="w" horiz-adv-x="1738" d="M37 983q0 16 20 21q43 4 78 10q29 4 55.5 7t30.5 3q14 0 21 -20l235 -717l21 -144l20 144l217 696q6 16 21 21l153 20h60q12 0 20 -20l225 -717l21 -144l20 144l236 717q6 20 20 20h175q20 0 20 -20q0 -2 -15.5 -45.5t-40 -113t-55 -157.5t-63.5 -180q-78 -217 -174 -488 q-6 -20 -21 -20h-204q-14 0 -21 20l-215 697q-8 43 -14 78q-6 29 -10.5 55.5t-6.5 30.5q-2 -4 -7 -31t-9 -55q-8 -35 -14 -78l-215 -697q-6 -20 -21 -20h-205q-14 0 -20 20q-96 266 -170 478q-31 90 -61.5 176t-54 154.5t-38 110.5t-14.5 44z" />
<glyph unicode="x" horiz-adv-x="1042" d="M43 20q0 2 30.5 46.5t81 116t114 161.5t128.5 182q-63 88 -120.5 170t-100.5 144.5t-67.5 100.5t-24.5 42q0 16 20 21q47 4 84 10q33 4 59.5 7t31.5 3q8 0 17 -6t13 -14l185 -287l30 -103l31 103l195 287q14 20 30 20h185q20 0 20 -20q0 -2 -28.5 -44t-75.5 -109 t-107.5 -152t-124.5 -173q66 -92 130.5 -182t114.5 -161.5t81 -115.5t31 -47q0 -20 -21 -20h-184q-8 0 -16.5 6t-14.5 14l-215 308l-31 102l-30 -102l-215 -308q-6 -8 -14.5 -14t-16.5 -6h-185q-20 0 -20 20z" />
<glyph unicode="y" horiz-adv-x="1028" d="M29 983q0 16 20 21q41 4 74 10q29 4 53.5 7t28.5 3q10 0 18 -6t13 -14l256 -717l20 -144l20 144l256 717q6 20 21 20h174q20 0 21 -20q0 -2 -15.5 -45.5t-42 -113t-59.5 -157.5t-68 -180q-82 -217 -184 -488q-31 -84 -68 -167.5t-86 -151.5t-116.5 -110t-159.5 -42 q-57 0 -92 11q-18 4 -31 10q-20 6 -21 24q0 4 3.5 24t7.5 42q4 25 10 57q4 16 20 17q8 0 32 -10.5t71 -10.5q27 0 58.5 19.5t60 53.5t53 79t39.5 94q-111 283 -195 508q-37 94 -70.5 186t-61.5 165t-44 118t-16 47z" />
<glyph unicode="z" horiz-adv-x="1030" d="M86 20v123q0 6 3 10.5l7 10.5l543 655l82 41h-594q-20 0 -21 21v102q0 16 21 21l184 20h594q20 0 21 -20v-123q0 -10 -4 -15l-549 -661l-82 -41h635q20 0 20 -21l-20 -123q-4 -20 -21 -20h-799q-20 0 -20 20z" />
<glyph unicode="{" horiz-adv-x="737" d="M70 594v123q0 20 20 20q31 0 63.5 10.5t59.5 33t44 57t17 84.5v389q0 63 25 106t61.5 69.5t79.5 38t80 11.5h123q16 0 21 -20q4 -27 10 -50q4 -18 7 -33.5t3 -19.5q0 -20 -20 -20h-93q-63 0 -87.5 -32t-24.5 -89v-371q0 -96 -41 -148.5t-84 -74.5l-101 -23l101 -22 q43 -23 84 -75t41 -148v-371q0 -57 24.5 -89t87.5 -32h93q20 0 20 -20q0 -4 -3 -20.5t-7 -35.5q-6 -23 -10 -47q-4 -20 -21 -20h-123q-37 0 -80 11t-79.5 37.5t-61.5 70t-25 106.5v389q0 49 -17 84t-44 57.5t-59.5 32.5t-63.5 10q-20 1 -20 21z" />
<glyph unicode="|" horiz-adv-x="542" d="M180 -20v1515q0 16 21 21q39 4 69 10q27 4 49.5 7t24.5 3q20 0 21 -20v-1516q0 -16 -21 -20q-39 -6 -70 -11q-27 -4 -49 -7t-24 -3q-21 1 -21 21z" />
<glyph unicode="}" horiz-adv-x="739" d="M55 -102q0 20 21 20h92q63 0 88 32t25 89v371q0 96 40.5 148t84.5 75l100 22l-100 23q-43 23 -84 75t-41 148v371q0 57 -25 89t-88 32h-92q-20 0 -21 20q0 4 3 19.5t8 33.5q4 23 10 50q4 20 20 20h123q37 0 80 -11.5t80 -38t61.5 -69.5t24.5 -106v-389q0 -49 17.5 -84 t44 -57.5t59 -33t63.5 -10.5q20 0 21 -20v-123q0 -20 -21 -21q-31 0 -63.5 -10t-59 -32.5t-44 -57.5t-17.5 -84v-389q0 -63 -24.5 -106.5t-61.5 -70t-80 -37.5t-80 -11h-123q-16 0 -20 20q-6 25 -10 47q-4 18 -7.5 35t-3.5 21z" />
<glyph unicode="~" horiz-adv-x="1263" d="M123 512q0 53 13.5 105.5t46 92.5t88 64.5t139.5 24.5t147.5 -32t115.5 -71t96 -70.5t91 -31.5q39 0 65.5 12t44 30.5t26 40t8.5 40.5q0 20 20 20h102q20 0 21 -20q0 -53 -13.5 -105.5t-46 -92.5t-88 -64.5t-139.5 -24.5t-147.5 32t-115.5 70.5t-97 70.5t-90 32 q-39 0 -66 -12.5t-44 -31t-25.5 -40t-8.5 -39.5q0 -20 -20 -20h-103q-20 0 -20 20z" />
<glyph unicode="&#xa1;" horiz-adv-x="518" d="M139 -389q0 6 10.5 44t10.5 99v819q0 20 20 21l164 20q20 0 21 -20v-840q0 -31 -3.5 -57.5t-7.5 -44.5q-6 -23 -10 -41q-6 -20 -20 -21h-164q-21 1 -21 21zM139 922q0 51 36 86.5t87 35.5t87 -35.5t36 -86.5t-36 -87t-87 -36t-87 36t-36 87z" />
<glyph unicode="&#xa2;" horiz-adv-x="1054" d="M98 512q0 100 16.5 190.5t63.5 161t131 116.5t219 58v170q0 16 21 21q33 4 59 10q23 4 42.5 7t21.5 3q20 0 20 -20v-189q49 -4 90 -13t72 -19q35 -10 64 -25q16 -6 20 -20q4 -35 10 -60q4 -23 7 -41t3 -22q0 -20 -20 -21q-4 0 -24.5 7.5t-52.5 16.5t-76 19t-93 15v-732 q98 6 158.5 22.5t67.5 16.5q16 0 20 -20q4 -35 10 -60q4 -23 7 -41t3 -22q0 -16 -20 -21q-33 -8 -72 -16q-35 -6 -79 -12t-95 -10v-187q0 -20 -20 -20h-123q-20 0 -21 20v191q-135 12 -219 57t-131 115.5t-63.5 161t-16.5 192.5zM303 512q0 -70 10.5 -129t35 -106.5 t68.5 -79t111 -45.5v720q-74 -12 -117.5 -43.5t-67.5 -79t-32 -107.5t-8 -130z" />
<glyph unicode="&#xa3;" horiz-adv-x="1146" d="M102 676q0 4 3.5 22.5t7.5 40.5q4 25 10 60q4 20 20 20h164q0 119 14.5 233.5t61.5 204t135 143.5t240 54q61 0 110.5 -6t83.5 -14q39 -8 72 -21q20 -4 20 -20q0 -4 -3 -23.5t-7 -42.5q-6 -27 -10 -57q-4 -20 -20 -21q-6 0 -64.5 20.5t-181.5 20.5q-90 0 -139.5 -43 t-73 -110.5t-28.5 -151.5t-5 -166h348q20 0 21 -20q0 -4 -3.5 -23.5t-7.5 -42.5q-6 -27 -10 -57q-4 -20 -20 -21h-330q-2 -72 -6 -146.5t-15.5 -138t-30 -108.5t-48.5 -57l-103 -41h717q20 0 20 -21q0 -4 -3 -23.5t-7 -41.5q-6 -27 -10 -58q-4 -20 -20 -20h-861 q-20 0 -20 20v123q0 20 20 21q49 0 79 48t48.5 121t25.5 159t9 163h-182q-21 1 -21 21z" />
<glyph unicode="&#xa4;" horiz-adv-x="1390" d="M184 311q0 8 9 15l98 98q-31 55 -47.5 127t-16.5 166q0 180 64 291l-84 86q-8 8 -8 12t8 16l33 49q12 18 23 34t16 18q8 8 14 8t14 -8l92 -93q59 41 136 59.5t163 18.5t162 -18.5t135 -59.5l80 78q6 6 12 6t17 -6l49 -32q18 -12 33.5 -24.5t17.5 -14.5q8 -8 8 -15 q0 -6 -8 -14l-98 -100q63 -111 63 -291q0 -94 -16 -166t-47 -127l84 -84q6 -6 6 -12q0 -8 -6 -17l-33 -49q-12 -18 -24.5 -33.5t-14.5 -17.5q-6 -8 -14 -8t-14 8l-95 92q-59 -41 -135 -59.5t-162 -18.5t-162.5 18.5t-136.5 59.5l-77 -78q-8 -8 -13 -8q-4 0 -16 8l-49 33 q-18 12 -33.5 23.5t-17.5 15.5q-9 6 -9 14zM412 717q0 -76 16 -140.5t50 -110.5t88.5 -71.5t131.5 -25.5q76 0 131.5 25.5t89 71.5t50 110.5t16.5 140.5t-16.5 140.5t-50 110.5t-89 71.5t-131.5 25.5q-78 0 -132 -25.5t-88 -71.5t-50 -110.5t-16 -140.5z" />
<glyph unicode="&#xa5;" horiz-adv-x="1273" d="M51 1393q0 16 21 20q43 4 78 10q29 4 55 7.5t31 3.5q10 0 18 -6.5t12 -14.5l334 -553l35 -123l35 123l327 553q14 20 31 21h180q20 0 21 -21q0 -2 -34 -58.5t-86 -142.5t-116.5 -190t-124.5 -203h197q20 0 20 -20q0 -4 -3 -23.5t-7 -42.5q-6 -27 -10 -57q-4 -20 -21 -21 h-276l-31 -51v-194h328q20 0 20 -21q0 -4 -3 -23.5t-7 -41.5q-6 -27 -10 -58q-4 -20 -21 -20h-307v-226q0 -20 -20 -20h-164q-20 0 -21 20v226h-327q-20 0 -21 20q0 4 3 22.5t8 41.5q4 25 10 59q4 20 20 21h307v194q-2 4 -8 12q-4 6 -10 16.5t-14 22.5h-295q-20 0 -21 21 q0 4 3 22.5t8 40.5q4 25 10 60q4 20 20 20h174q-53 86 -114.5 185.5t-113.5 184.5t-86 142.5t-34 61.5z" />
<glyph unicode="&#xa6;" horiz-adv-x="636" d="M227 -20v573q0 16 21 20q39 4 69 11q27 4 49.5 7t24.5 3q20 0 21 -21v-573q0 -16 -21 -20q-39 -6 -69 -11q-27 -4 -49.5 -7t-24.5 -3q-21 1 -21 21zM227 922v573q0 16 21 21q39 4 69 10q27 4 49.5 7t24.5 3q20 0 21 -20v-574q0 -16 -21 -20q-39 -6 -69 -11 q-27 -4 -49.5 -7t-24.5 -3q-21 1 -21 21z" />
<glyph unicode="&#xa7;" horiz-adv-x="1085" d="M113 696q0 80 43 144.5t120 101.5q-59 35 -101 86t-42 139q0 129 98.5 208t290.5 79q72 0 136.5 -6t111.5 -14q55 -8 100 -21q16 -6 21 -20q4 -35 10 -60q4 -23 7 -41t3 -22q0 -20 -20 -21q-57 12 -119 21q-53 8 -118.5 14t-131.5 6q-86 0 -135 -33.5t-49 -89.5 q0 -51 47 -80.5t117.5 -53t152.5 -46t153 -60.5t118 -97.5t47 -153.5q0 -82 -44 -145.5t-120 -100.5q59 -35 101 -87t42 -138q0 -129 -98 -208t-291 -79q-74 0 -137.5 6t-110.5 15q-55 8 -100 20q-16 6 -20 21q-6 31 -11 57q-4 23 -7 42t-3 23q0 20 21 21q57 -12 118 -21 q53 -8 119 -14t131 -6q86 0 135.5 34t49.5 89q0 51 -47.5 80.5t-118 53t-152.5 46.5t-152.5 60.5t-117.5 97t-47 153.5zM317 696q0 -47 25 -75.5t64.5 -47t92 -33t105.5 -28.5q92 0 128 51t36 113q0 45 -24.5 74.5t-64.5 48t-92 32t-106 29.5q-92 0 -128 -51.5t-36 -112.5z " />
<glyph unicode="&#xa8;" horiz-adv-x="1114" d="M229 1331q0 51 36 87t87 36t87 -36t36 -87t-36 -87t-87 -36t-87 36t-36 87zM639 1331q0 51 36 87t87 36t87 -36t36 -87t-36 -87t-87 -36t-87 36t-36 87z" />
<glyph unicode="&#xa9;" horiz-adv-x="1687" d="M106 717q0 154 38 288t124 233t227.5 157.5t348.5 58.5t348 -58.5t227 -157.5t124 -233.5t38 -287.5q0 -154 -38 -288t-124 -233.5t-227 -157.5t-348 -58t-348.5 58t-227.5 157.5t-124 233.5t-38 288zM291 717q0 -115 25.5 -218.5t89 -182t170 -126t268.5 -47.5 t268.5 47.5t170 126t89 182t25.5 218.5t-25.5 218t-89 182t-170 126t-268.5 47t-268.5 -47t-170 -126t-89 -182t-25.5 -218zM455 717q0 90 17 169t63.5 137t126 91t202.5 33q51 0 95.5 -10.5t78.5 -20.5q39 -14 72 -31q18 -6 20 -20q4 -23 11 -43q4 -16 7 -30.5t3 -18.5 q0 -20 -21 -21q-4 0 -26.5 11.5t-59 24.5t-83 24.5t-97.5 11.5q-78 0 -125 -23.5t-74.5 -64.5t-37 -97.5t-9.5 -121.5q0 -66 12.5 -122t41 -97t76 -64.5t116.5 -23.5q102 0 166 20.5t72 20.5t12 -1t8 -12q4 -25 11 -43q4 -16 7 -29.5t3 -17.5q0 -16 -21 -20q-37 -12 -78 -21 q-35 -8 -82 -14t-98 -6q-123 0 -202.5 32.5t-126 91t-63.5 137.5t-17 169z" />
<glyph unicode="&#xaa;" horiz-adv-x="833" d="M88 952q0 104 75 159.5t212 55.5q20 0 52 -3t60 -7q35 -6 72 -10v82q0 102 -164 102q-39 0 -81 -6t-76.5 -14t-59 -14.5t-28.5 -6.5q-20 0 -21 21l4 37q2 16 6 34q2 14 21 21q35 14 73 24q35 10 76 18.5t86 8.5q137 0 222 -60.5t85 -164.5v-369q0 -41 10.5 -69.5 t10.5 -32.5q0 -20 -21 -21h-116q-12 0 -17 21l-10 61q-16 -27 -45 -47q-25 -16 -69 -30.5t-111 -14.5q-31 0 -74 9t-81 35t-64.5 69.5t-26.5 111.5zM231 952q0 -35 10.5 -55t26 -30.5t32.5 -13.5t34 -3q41 0 81 2t72.5 16.5t52 46t19.5 89.5v40h-184q-63 0 -103.5 -19.5 t-40.5 -72.5z" />
<glyph unicode="&#xab;" horiz-adv-x="1048" d="M59 573q0 8 9 21l264 410q12 20 30 20h164q20 0 21 -20q0 -2 -12.5 -21.5t-33 -50.5t-46 -70t-52.5 -78q-63 -94 -143 -211l143 -213q27 -41 52.5 -78.5t46.5 -68.5l33 -49q12 -18 12 -21q0 -20 -21 -20h-164q-18 0 -30 20l-264 410q-9 8 -9 20zM469 573q0 8 8 21 l264 410q12 20 31 20h164q20 0 20 -20q0 -2 -12 -21.5t-32.5 -50.5t-46 -70t-52.5 -78q-63 -94 -143 -211l143 -213q27 -41 52.5 -78.5t45.5 -68.5l33 -49q12 -18 12 -21q0 -20 -20 -20h-164q-18 0 -31 20l-264 410q-8 8 -8 20z" />
<glyph unicode="&#xac;" horiz-adv-x="1280" d="M88 717q0 4 3 22.5t7 40.5q4 25 11 60q4 20 20 20h983q20 0 21 -20v-574q0 -20 -21 -20h-143q-20 0 -21 20v430h-839q-21 1 -21 21z" />
<glyph unicode="&#xad;" horiz-adv-x="915" d="M172 512q0 4 3 22.5t7 40.5q4 25 11 60q4 20 20 20h512q20 0 20 -20q0 -4 -3 -23.5t-7 -42.5q-6 -27 -10 -57q-4 -20 -20 -20h-512q-21 0 -21 20z" />
<glyph unicode="&#xae;" horiz-adv-x="1318" d="M127 922q0 111 27.5 207t90 168.5t164 114.5t250.5 42q150 0 252.5 -42t165 -114.5t89 -169t26.5 -206.5q0 -111 -26.5 -207.5t-89 -169t-165 -114.5t-252.5 -42t-251 42t-163.5 114.5t-90 169t-27.5 207.5zM270 922q0 -82 17.5 -157t61.5 -131t119 -89t191 -33 q117 0 192 33t119 89t61.5 131t17.5 157t-17.5 156.5t-61.5 131t-119 89t-192 32.5t-191.5 -32.5t-118.5 -89t-61.5 -131t-17.5 -156.5zM465 635v584q0 20 20 20l82 10h72q76 0 124 -15t75.5 -41t37 -58.5t9.5 -69.5q0 -57 -33 -102t-111 -62q23 -8 43.5 -35.5t28.5 -46.5 l41 -90q16 -35 28.5 -63.5t12.5 -30.5q0 -20 -21 -21h-71q-14 0 -21 21l-77 184q-8 18 -27 40t-66 22h-45v-246q0 -20 -20 -21h-64q-18 1 -18 21zM567 963h72q45 0 73.5 8t44 22.5t20.5 32.5t5 39q0 20 -5 38.5t-20.5 33t-44 22.5t-73.5 8h-72v-204z" />
<glyph unicode="&#xaf;" horiz-adv-x="1116" d="M274 1229q0 4 3.5 19.5t7.5 33.5q4 23 10 49q4 20 20 21h512q20 0 21 -21q0 -4 -3 -20.5t-7 -34.5q-6 -23 -11 -47q-4 -20 -20 -21h-512q-21 1 -21 21z" />
<glyph unicode="&#xb0;" horiz-adv-x="815" d="M80 1147q0 63 19.5 119.5t59.5 97.5t102.5 65.5t146.5 24.5t146 -24.5t102 -65.5t59.5 -97.5t19.5 -119.5t-19.5 -119.5t-59.5 -97.5t-102 -65.5t-146 -24.5t-146.5 24.5t-102.5 65.5t-59.5 97.5t-19.5 119.5zM264 1147q0 -31 8.5 -59.5t25.5 -52t44 -38t66 -14.5 t65.5 14.5t44 38t25.5 52t8 59.5t-8 59.5t-25.5 52t-44.5 38t-65 14.5q-39 0 -66 -14.5t-44 -38t-25.5 -52t-8.5 -59.5z" />
<glyph unicode="&#xb1;" horiz-adv-x="1273" d="M115 20q0 4 3 22.5t7 41.5q4 25 10 59q4 20 21 21h983q20 0 20 -21q0 -4 -3 -23.5t-7 -41.5q-6 -27 -10 -58q-4 -20 -21 -20h-983q-20 0 -20 20zM115 651q0 4 3 22.5t7 41.5q4 25 10 59q4 20 21 21h389v311q0 16 20 20q37 4 68 11q27 4 49.5 7t26.5 3q20 0 20 -21v-331 h410q20 0 20 -21q0 -4 -3 -23.5t-7 -41.5q-6 -27 -10 -58q-4 -20 -21 -20h-389v-303q0 -16 -20 -21q-39 -6 -70 -10q-27 -4 -48.5 -7t-25.5 -3q-20 0 -20 20v324h-410q-20 0 -20 20z" />
<glyph unicode="&#xb2;" horiz-adv-x="831" d="M125 594v143q0 72 30.5 122t75.5 87t98.5 65.5t98.5 56.5t76 60.5t31 79.5t-38 75t-116 28q-39 0 -80 -6.5t-74.5 -14.5t-56.5 -14t-25 -6q-20 0 -20 20q0 4 3 19.5t7 33.5q4 23 10 50q4 14 21 20q31 12 65 21q29 8 68 14t82 6q96 0 160.5 -17.5t104.5 -49t56.5 -77.5 t16.5 -102q0 -72 -32 -121t-80 -84.5t-103 -64.5t-103.5 -58.5t-80 -66.5t-31.5 -88v-8h409q20 0 21 -21q0 -4 -3 -20.5t-7 -34.5q-6 -23 -11 -47q-4 -20 -20 -21h-533q-20 1 -20 21z" />
<glyph unicode="&#xb3;" horiz-adv-x="811" d="M113 594q0 4 3 19.5t7 33.5q4 23 10 49q4 20 21 21q2 0 22.5 -3t51 -7.5t65.5 -7.5t65 -3q78 0 121 26t43 87q0 70 -51 101.5t-174 31.5h-72q-20 0 -20 21v81q0 16 20 21l113 20q45 8 80 17.5t58.5 24t34.5 36t11 56.5q0 53 -43 72.5t-121 19.5q-39 0 -77.5 -6.5 t-70.5 -14.5t-53.5 -14t-23.5 -6q-20 0 -20 20q0 4 3 19.5t7 33.5q4 23 10 50q4 14 21 20q27 12 59 21q29 8 65.5 14t79.5 6q100 0 167 -16.5t107 -47t57.5 -74.5t17.5 -97q0 -61 -48.5 -113.5t-136.5 -81.5q88 -25 136.5 -81t48.5 -134q0 -57 -17.5 -104.5t-57.5 -81 t-106.5 -52t-167.5 -18.5q-47 0 -88 3t-71 7q-37 4 -66 10q-20 5 -20 21z" />
<glyph unicode="&#xb4;" horiz-adv-x="1116" d="M391 1167q0 4 32 49.5t71 98.5l102 139q14 20 41 21h143q20 0 21 -21q0 -2 -10.5 -15.5t-28 -34t-40 -46t-44.5 -51.5l-123 -140q-16 -20 -41 -20h-102q-21 0 -21 20z" />
<glyph unicode="&#xb5;" horiz-adv-x="1247" d="M154 -205v1188q0 20 20 21l164 20q20 0 20 -20v-492q0 -80 3.5 -147.5t22.5 -116.5t60 -77t119 -28q152 0 229.5 73t77.5 220v547q0 20 21 21l164 20q20 0 20 -20v-840q0 -61 10.5 -99t10.5 -45q0 -20 -21 -20h-164q-14 0 -20 20l-21 123q-27 -45 -69 -82 q-37 -31 -94.5 -56t-143.5 -25q-66 0 -115 7t-90 21v-213q0 -61 10.5 -99t10.5 -44q0 -20 -21 -21h-163q-14 0 -21 21q-6 18 -10 41q-10 41 -10 102z" />
<glyph unicode="&#x3bc;" horiz-adv-x="1247" d="M154 -205v1188q0 20 20 21l164 20q20 0 20 -20v-492q0 -80 3.5 -147.5t22.5 -116.5t60 -77t119 -28q152 0 229.5 73t77.5 220v547q0 20 21 21l164 20q20 0 20 -20v-840q0 -61 10.5 -99t10.5 -45q0 -20 -21 -20h-164q-14 0 -20 20l-21 123q-27 -45 -69 -82 q-37 -31 -94.5 -56t-143.5 -25q-66 0 -115 7t-90 21v-213q0 -61 10.5 -99t10.5 -44q0 -20 -21 -21h-163q-14 0 -21 21q-6 18 -10 41q-10 41 -10 102z" />
<glyph unicode="&#xb6;" horiz-adv-x="1206" d="M61 1024q0 76 20.5 149.5t80 132t168 93.5t284.5 35h246l164 -21q20 -4 20 -20v-1536q0 -20 -20 -21h-143q-20 0 -21 21v1413h-184v-1413q0 -20 -21 -21h-143q-20 0 -20 21v761q-135 12 -219.5 51.5t-131.5 94.5t-63.5 122.5t-16.5 137.5zM266 1024q0 -39 8.5 -77 t33 -70.5t68.5 -56t116 -34.5v476q-72 -12 -116 -36t-68.5 -56.5t-33 -69.5t-8.5 -76z" />
<glyph unicode="&#xb7;" horiz-adv-x="520" d="M137 614q0 51 36 87t87 36t87 -35.5t36 -87.5q0 -51 -36 -86.5t-87 -35.5t-87 35.5t-36 86.5z" />
<glyph unicode="&#xb8;" horiz-adv-x="1118" d="M324 -420q0 8 14 41q6 16 14 35q6 16 23 16q4 0 20.5 -6t42 -14t59 -14.5t72.5 -6.5q31 0 56.5 17.5t25.5 64.5t-25.5 64.5t-56.5 17.5h-133q-20 0 -20 21q0 4 10 34.5t25 65.5l36 94h154l-31 -71l-82 -21h62q43 0 80 -14.5t64.5 -42t44 -65.5t16.5 -83 q0 -92 -66.5 -148.5t-159.5 -56.5q-47 0 -88 7.5t-71 17.5q-37 10 -66 27q-20 8 -20 20z" />
<glyph unicode="&#xb9;" horiz-adv-x="581" d="M37 1249q0 10 8 17l238 147q39 4 69 10q27 4 49.5 7.5t24.5 3.5q20 0 20 -21v-819q0 -20 -20 -21h-133q-20 0 -21 21v696l-41 -82q-49 -27 -75.5 -42t-40.5 -22l-19 -9q-4 -2 -8 -2q-14 0 -20 14q-8 25 -17 47q-6 18 -10 34.5t-4 20.5z" />
<glyph unicode="&#xba;" horiz-adv-x="866" d="M86 1085q0 193 94 281t254 88t253 -88t93 -281t-93 -280.5t-253 -87.5t-254 89t-94 279zM227 1085q0 -53 8.5 -97t32 -77.5t63.5 -52t103 -18.5t103.5 18.5t63 52t30.5 77.5t8 97t-8 98.5t-30.5 78t-62.5 51t-104 18.5q-63 0 -103 -18.5t-63.5 -51t-32 -78t-8.5 -98.5z " />
<glyph unicode="&#xbb;" horiz-adv-x="1048" d="M92 143q0 2 12 21l33 49q20 31 46 68.5t53 78.5l143 213q-80 117 -143 211q-27 39 -52.5 78t-46 70t-33 50t-12.5 22q0 20 21 20h163q18 0 31 -20l264 -410q8 -12 9 -21q0 -12 -9 -20l-264 -410q-12 -20 -31 -20h-163q-21 0 -21 20zM502 143q0 2 12 21l33 49 q20 31 45.5 68.5t52.5 78.5l143 213q-80 117 -143 211q-27 39 -52.5 78t-46 70t-32.5 50t-12 22q0 20 20 20h164q18 0 31 -20l264 -410q8 -12 8 -21q0 -12 -8 -20l-264 -410q-12 -20 -31 -20h-164q-20 0 -20 20z" />
<glyph unicode="&#xbc;" horiz-adv-x="1656" d="M45 1249q0 14 10 21l236 143q39 4 69 10q27 4 49.5 7.5t24.5 3.5q20 0 21 -21v-819q0 -20 -21 -21h-131q-20 0 -20 21v696l-41 -82q-49 -27 -76 -42t-41 -24t-18.5 -12.5t-8.5 -3.5q-12 0 -20 21q-8 25 -17 47q-6 18 -11 34.5t-5 20.5zM229 20q0 2 38 62.5t101.5 159 t143.5 224.5t164 255l446 692q12 20 29 21h143q20 0 21 -21q0 -2 -38 -63.5t-101.5 -159.5t-143.5 -223t-162 -254q-197 -305 -444 -693q-8 -12 -17.5 -16t-15.5 -4h-143q-21 0 -21 20zM864 266v113l299 461q10 18 29 20l184 21h41q20 0 21 -21v-471h123q20 0 20 -20 q0 -4 -3 -20.5t-7 -35.5q-6 -23 -10 -47q-4 -20 -21 -20h-102v-226q0 -20 -21 -20h-123q-20 0 -20 20v226h-389q-21 0 -21 20zM1008 389h266v389l-21 -82l-184 -286z" />
<glyph unicode="&#xbd;" horiz-adv-x="1751" d="M45 1249q0 10 8 17l238 147q39 4 69 10q27 4 49.5 7.5t24.5 3.5q20 0 21 -21v-819q0 -20 -21 -21h-133q-20 0 -20 21v696l-41 -82q-49 -27 -76 -42t-41 -22l-19 -9q-4 -2 -8 -2q-14 0 -20 14q-8 25 -17 47q-6 18 -10 34.5t-4 20.5zM229 20q0 2 38 62.5t100.5 159 t142.5 224.5t164 255l446 692q12 20 31 21h143q20 0 21 -21q0 -2 -38 -63.5t-101.5 -159.5t-143.5 -223t-164 -254q-197 -305 -444 -693q-8 -12 -16.5 -16t-14.5 -4h-143q-21 0 -21 20zM1049 20v144q0 72 30.5 122t75.5 87t98.5 65.5t98.5 56t75.5 60.5t30.5 80t-38 74.5 t-115 27.5q-39 0 -80 -6t-75 -14t-56.5 -14.5t-24.5 -6.5q-20 0 -20 21q0 4 3 19.5t7 33.5q4 23 10 49q4 14 21 21q31 12 65 20q29 8 68 14.5t82 6.5q96 0 160.5 -17.5t104.5 -49.5t56 -78t16 -101q0 -72 -31.5 -121t-79.5 -85t-103.5 -64.5t-103.5 -58.5t-80 -66.5 t-32 -87.5v-9h410q20 0 20 -20q0 -4 -3 -20.5t-7 -34.5q-6 -23 -10 -48q-4 -20 -20 -20h-533q-20 0 -20 20z" />
<glyph unicode="&#xbe;" horiz-adv-x="1814" d="M100 594q0 4 3 19.5t8 33.5q4 23 10 49q4 20 20 21q2 0 22.5 -3t51.5 -7.5t65.5 -7.5t65.5 -3q78 0 121 26t43 87q0 70 -51 101.5t-174 31.5h-72q-20 0 -20 21v81q0 16 20 21l113 20q45 8 79.5 17.5t58 24t35 36t11.5 56.5q0 53 -43 72.5t-121 19.5q-39 0 -78 -6.5 t-70.5 -14.5t-53 -14t-23.5 -6q-20 0 -21 20q0 4 3 19.5t8 33.5q4 23 10 50q4 14 20 20q27 12 60 21q29 8 65.5 14t79.5 6q100 0 167 -16.5t106.5 -47t57 -74.5t17.5 -97q0 -61 -48 -113.5t-136 -81.5q88 -25 136 -81t48 -134q0 -57 -17.5 -104.5t-57 -81t-106.5 -52 t-167 -18.5q-47 0 -88 3t-72 7q-37 4 -65 10q-21 5 -21 21zM387 20q0 2 38 62.5t100.5 159t142.5 224.5t163 255l447 692q12 20 31 21h143q20 0 21 -21q0 -2 -38 -63.5t-101.5 -159.5t-143.5 -223t-164 -254q-197 -305 -444 -693q-8 -12 -16.5 -16t-14.5 -4h-143 q-21 0 -21 20zM1022 266v113l297 461q10 16 31 20l184 21h41q20 0 20 -21v-471h123q20 0 21 -20q0 -4 -3 -20.5t-7 -35.5q-6 -23 -11 -47q-4 -20 -20 -20h-103v-226q0 -20 -20 -20h-123q-20 0 -20 20v226h-390q-20 0 -20 20zM1165 389h267v389l-21 -82l-184 -286z" />
<glyph unicode="&#xbf;" horiz-adv-x="991" d="M45 -20q0 76 28.5 132t71.5 99t94.5 81t94.5 78t71.5 88t28.5 115q0 20 21 21l163 20q20 0 21 -20q0 -92 -28.5 -160.5t-71.5 -122t-94.5 -94.5t-94.5 -79t-71.5 -75.5t-28.5 -82.5q0 -53 10 -98.5t41 -78t87 -51t149 -18.5q84 0 154.5 9t120.5 21.5t80 21.5t34 9 q20 0 20 -20q0 -4 -3 -23.5t-7 -42.5q-6 -27 -10 -57q-4 -14 -21 -21q-45 -18 -100 -30q-47 -12 -114.5 -21.5t-153.5 -9.5q-154 0 -250.5 32.5t-149.5 88t-72.5 130.5t-19.5 159zM414 922q0 51 35.5 86.5t87.5 35.5q51 0 86.5 -35.5t35.5 -86.5t-35.5 -87t-86.5 -36t-87 36 t-36 87z" />
<glyph unicode="&#xc0;" horiz-adv-x="1337" d="M12 20q0 2 22.5 61.5t59.5 156t84 219.5t96 252l263 684q6 16 20 20l154 21h59q12 0 21 -21q150 -389 266 -694q49 -131 97 -256t86 -222.5t60.5 -157.5t22.5 -63q0 -20 -20 -20h-175q-14 0 -20 20l-154 410h-575l-152 -410q-6 -20 -20 -20h-174q-21 0 -21 20zM340 1864 q0 20 20 20h144q27 0 41 -20l102 -140q39 -53 71 -98t32 -49q0 -20 -21 -21h-102q-25 0 -41 21l-123 139q-23 27 -45.5 52.5t-40 46t-27.5 34t-10 15.5zM440 594h453l-205 553l-20 143l-21 -143z" />
<glyph unicode="&#xc1;" horiz-adv-x="1337" d="M12 20q0 2 22.5 61.5t59.5 156t84 219.5t96 252l263 684q6 16 20 20l154 21h59q12 0 21 -21q150 -389 266 -694q49 -131 97 -256t86 -222.5t60.5 -157.5t22.5 -63q0 -20 -20 -20h-175q-14 0 -20 20l-154 410h-575l-152 -410q-6 -20 -20 -20h-174q-21 0 -21 20zM440 594 h453l-205 553l-20 143l-21 -143zM586 1577q0 4 31.5 49t70.5 98l103 140q14 20 40 20h144q20 0 20 -20q0 -2 -10 -15.5t-27.5 -34t-40 -46t-45.5 -52.5l-122 -139q-16 -20 -41 -21h-103q-20 1 -20 21z" />
<glyph unicode="&#xc2;" horiz-adv-x="1337" d="M12 20q0 2 22.5 61.5t59.5 156t84 219.5t96 252l263 684q6 16 20 20l154 21h59q12 0 21 -21q150 -389 266 -694q49 -131 97 -256t86 -222.5t60.5 -157.5t22.5 -63q0 -20 -20 -20h-175q-14 0 -20 20l-154 410h-575l-152 -410q-6 -20 -20 -20h-174q-21 0 -21 20zM381 1577 q0 4 31.5 49t70.5 98l103 140q16 20 41 20h82q25 0 41 -20l102 -140q39 -53 70.5 -98t31.5 -49q0 -20 -20 -21h-123q-27 0 -41 21l-82 123l-20 102l-21 -102l-82 -123q-14 -20 -41 -21h-123q-20 1 -20 21zM440 594h453l-205 553l-20 143l-21 -143z" />
<glyph unicode="&#xc3;" horiz-adv-x="1337" d="M12 20q0 2 22.5 61.5t59.5 156t84 219.5t96 252l263 684q6 16 20 20l154 21h59q12 0 21 -21q150 -389 266 -694q49 -131 97 -256t86 -222.5t60.5 -157.5t22.5 -63q0 -20 -20 -20h-175q-14 0 -20 20l-154 410h-575l-152 -410q-6 -20 -20 -20h-174q-21 0 -21 20zM319 1597 q0 109 56.5 167.5t148.5 58.5q39 0 77 -16.5t75 -35t70.5 -35t64.5 -16.5t56.5 21.5t25.5 60.5q0 20 20 21h82q20 0 21 -21q0 -109 -56.5 -167t-148.5 -58q-39 0 -77 16.5t-74.5 35t-70.5 34.5t-65 16t-56.5 -21.5t-25.5 -60.5q0 -20 -20 -20h-82q-21 0 -21 20zM440 594h453 l-205 553l-20 143l-21 -143z" />
<glyph unicode="&#xc4;" horiz-adv-x="1337" d="M12 20q0 2 22.5 61.5t59.5 156t84 219.5t96 252l263 684q6 16 20 20l154 21h59q12 0 21 -21q150 -389 266 -694q49 -131 97 -256t86 -222.5t60.5 -157.5t22.5 -63q0 -20 -20 -20h-175q-14 0 -20 20l-154 410h-575l-152 -410q-6 -20 -20 -20h-174q-21 0 -21 20zM340 1700 q0 51 36 87t87 36t87 -36t36 -87t-36 -87t-87 -36t-87 36t-36 87zM440 594h453l-205 553l-20 143l-21 -143zM750 1700q0 51 35.5 87t86.5 36t87 -36t36 -87t-35.5 -87t-87.5 -36q-51 0 -86.5 36t-35.5 87z" />
<glyph unicode="&#xc5;" horiz-adv-x="1337" d="M12 20q0 2 22.5 61.5t59.5 156t84 219.5t96 252l263 684q6 16 20 20l154 21h59q12 0 21 -21q150 -389 266 -694q49 -131 97 -256t86 -222.5t60.5 -157.5t22.5 -63q0 -20 -20 -20h-175q-14 0 -20 20l-154 410h-575l-152 -410q-6 -20 -20 -20h-174q-21 0 -21 20zM440 594 h453l-205 553l-20 143l-21 -143zM442 1741q0 43 12.5 80t39 64.5t69.5 44t105 16.5q123 0 174 -56.5t51 -148.5t-51 -148.5t-174 -56.5q-61 0 -104.5 16.5t-70 44t-39 64.5t-12.5 80zM565 1741q0 -47 24.5 -75t78.5 -28q53 0 77.5 28t24.5 75t-24.5 74.5t-77.5 27.5 t-78 -27.5t-25 -74.5z" />
<glyph unicode="&#xc6;" horiz-adv-x="1751" d="M12 20q0 2 22.5 61.5t59.5 156t84 219.5t96 252l263 684q6 16 20 20l154 21h878q16 0 21 -21q4 -35 10 -59q4 -23 7 -41.5t3 -22.5q0 -20 -20 -20h-746l90 -451h594q20 0 21 -20v-123q0 -20 -21 -21h-561l98 -491h525q20 0 20 -21q0 -4 -3 -23.5t-7 -41.5q-6 -27 -10 -58 q-4 -20 -21 -20h-655q-14 0 -21 20l-82 410h-452l-152 -410q-6 -20 -20 -20h-174q-21 0 -21 20zM440 594h359l-111 553l-20 143l-21 -143z" />
<glyph unicode="&#xc7;" horiz-adv-x="1282" d="M117 717q0 74 7 156.5t31.5 164.5t68.5 158t120 133t185.5 91t263.5 34q70 0 133 -10t110 -21q55 -14 105 -30q16 -6 20 -21q4 -35 10 -59q4 -23 7.5 -41.5t3.5 -22.5q0 -20 -21 -20q-4 0 -35.5 9t-83 21.5t-116 21.5t-133.5 9q-154 0 -245 -59.5t-139.5 -146.5 t-62.5 -187t-14 -180t14 -180.5t62.5 -187.5t139.5 -146.5t245 -59.5q70 0 131 6.5t108 14.5t76 14t33 6q16 0 20 -20q4 -35 10 -60q4 -23 7.5 -41t3.5 -22q0 -16 -21 -21q-41 -8 -90 -16q-41 -6 -97 -13t-122 -9l-18 -43l-82 -21h61q43 0 80 -14.5t64.5 -42t44 -65.5 t16.5 -83q0 -92 -66.5 -148.5t-158.5 -56.5q-47 0 -88 7.5t-72 17.5q-37 10 -66 27q-20 8 -20 20q0 8 14 41q6 16 14 35q6 16 23 16q4 0 20.5 -6t42 -14t59.5 -14.5t73 -6.5q31 0 56 17.5t25 64.5t-25.5 64.5t-55.5 17.5h-134q-20 0 -20 21q0 2 7 21.5t16.5 45t19.5 53 t18 48.5q-131 10 -226 49t-159.5 97t-103.5 131t-60.5 150.5t-27.5 156.5t-6 149z" />
<glyph unicode="&#xc8;" d="M184 20v1373q0 16 21 20l184 21h655q16 0 21 -21q4 -35 10 -59q4 -23 7 -41.5t3 -22.5q0 -20 -20 -20h-676v-451h615q20 0 20 -20v-123q0 -20 -20 -21h-615v-491h676q20 0 20 -21q0 -4 -3 -23.5t-7 -41.5q-6 -27 -10 -58q-4 -20 -21 -20h-839q-21 0 -21 20zM328 1864 q0 20 20 20h144q27 0 40 -20l103 -140q39 -53 70.5 -98t31.5 -49q0 -20 -20 -21h-103q-25 0 -41 21l-122 139q-23 27 -45.5 52.5t-40 46t-27.5 34t-10 15.5z" />
<glyph unicode="&#xc9;" d="M184 20v1373q0 16 21 20l184 21h655q16 0 21 -21q4 -35 10 -59q4 -23 7 -41.5t3 -22.5q0 -20 -20 -20h-676v-451h615q20 0 20 -20v-123q0 -20 -20 -21h-615v-491h676q20 0 20 -21q0 -4 -3 -23.5t-7 -41.5q-6 -27 -10 -58q-4 -20 -21 -20h-839q-21 0 -21 20zM532 1577 q0 4 32 49t71 98l102 140q14 20 41 20h144q20 0 20 -20q0 -2 -10 -15.5t-27.5 -34t-40 -46t-45.5 -52.5l-123 -139q-16 -20 -41 -21h-102q-21 1 -21 21z" />
<glyph unicode="&#xca;" d="M184 20v1373q0 16 21 20l184 21h655q16 0 21 -21q4 -35 10 -59q4 -23 7 -41.5t3 -22.5q0 -20 -20 -20h-676v-451h615q20 0 20 -20v-123q0 -20 -20 -21h-615v-491h676q20 0 20 -21q0 -4 -3 -23.5t-7 -41.5q-6 -27 -10 -58q-4 -20 -21 -20h-839q-21 0 -21 20zM348 1577 q0 4 32 49t71 98l102 140q16 20 41 20h82q25 0 41 -20l102 -140q39 -53 71 -98t32 -49q0 -20 -21 -21h-123q-27 0 -41 21l-82 123l-20 102l-21 -102l-82 -123q-14 -20 -40 -21h-123q-21 1 -21 21z" />
<glyph unicode="&#xcb;" d="M184 20v1373q0 16 21 20l184 21h655q16 0 21 -21q4 -35 10 -59q4 -23 7 -41.5t3 -22.5q0 -20 -20 -20h-676v-451h615q20 0 20 -20v-123q0 -20 -20 -21h-615v-491h676q20 0 20 -21q0 -4 -3 -23.5t-7 -41.5q-6 -27 -10 -58q-4 -20 -21 -20h-839q-21 0 -21 20zM307 1700 q0 51 36 87t87 36t87 -36t36 -87t-36 -87t-87 -36t-87 36t-36 87zM717 1700q0 51 35.5 87t87.5 36q51 0 87 -36t36 -87t-36 -87t-87 -36t-87 36t-36 87z" />
<glyph unicode="&#xcc;" horiz-adv-x="575" d="M-20 1864q0 20 20 20h143q27 0 41 -20l103 -140q39 -53 70.5 -98t31.5 -49q0 -20 -20 -21h-103q-25 0 -41 21l-123 139q-23 27 -45 52.5t-39.5 46t-27.5 34t-10 15.5zM184 20v1373q0 16 21 20q43 4 80 10q31 4 56.5 7.5t27.5 3.5q20 0 20 -21v-1393q0 -20 -20 -20h-164 q-21 0 -21 20z" />
<glyph unicode="&#xcd;" horiz-adv-x="575" d="M184 20v1373q0 16 21 20q43 4 80 10q31 4 56.5 7.5t27.5 3.5q20 0 20 -21v-1393q0 -20 -20 -20h-164q-21 0 -21 20zM184 1577q0 4 32 49t71 98l102 140q14 20 41 20h143q20 0 21 -20q0 -2 -10.5 -15.5t-27.5 -34t-39.5 -46t-45.5 -52.5l-123 -139q-16 -20 -41 -21h-102 q-21 1 -21 21z" />
<glyph unicode="&#xce;" horiz-adv-x="575" d="M0 1577q0 4 31.5 49t70.5 98l103 140q16 20 41 20h82q25 0 41 -20l102 -140q39 -53 70.5 -98t31.5 -49q0 -20 -20 -21h-123q-27 0 -41 21l-82 123l-20 102l-21 -102l-82 -123q-14 -20 -41 -21h-123q-20 1 -20 21zM184 20v1373q0 16 21 20q43 4 80 10q31 4 56.5 7.5 t27.5 3.5q20 0 20 -21v-1393q0 -20 -20 -20h-164q-21 0 -21 20z" />
<glyph unicode="&#xcf;" horiz-adv-x="575" d="M-41 1700q0 51 36 87t87 36t87 -36t36 -87t-36 -87t-87 -36t-87 36t-36 87zM184 20v1373q0 16 21 20q43 4 80 10q31 4 56.5 7.5t27.5 3.5q20 0 20 -21v-1393q0 -20 -20 -20h-164q-21 0 -21 20zM369 1700q0 51 35.5 87t87.5 36q51 0 86.5 -36t35.5 -87t-35.5 -87 t-86.5 -36t-87 36t-36 87z" />
<glyph unicode="&#xd0;" horiz-adv-x="1501" d="M55 676q0 4 3 22.5t8 40.5q4 25 10 60q4 20 20 20h144v574q0 16 20 20l184 21h267q154 0 263 -33t185 -88.5t120 -127t68.5 -151.5t31.5 -161.5t7 -155.5t-7 -156t-31.5 -162t-68.5 -151.5t-120 -126.5t-185.5 -88t-262.5 -33h-451q-20 0 -20 20v635h-164q-21 1 -21 21z M444 164h267q154 0 245 56t139 139t62 180.5t14 177.5t-14 177t-62 180t-139.5 139.5t-244.5 56.5h-267v-451h164q20 0 21 -20q0 -4 -3 -23.5t-8 -42.5q-6 -27 -10 -57q-4 -20 -20 -21h-144v-491z" />
<glyph unicode="&#xd1;" horiz-adv-x="1476" d="M184 20v1373q0 16 21 20l164 21h127q10 0 20 -21l528 -1126l41 -144v1250q0 16 21 20l164 21q20 0 20 -21v-1393q0 -20 -20 -20h-291q-10 0 -21 20l-528 1127l-41 143v-1270q0 -20 -20 -20h-164q-21 0 -21 20zM369 1597q0 109 56 167.5t148 58.5q39 0 77 -16.5t75 -35 t70.5 -35t64.5 -16.5t56.5 21.5t25.5 60.5q0 20 21 21h81q20 0 21 -21q0 -109 -56.5 -167t-148.5 -58q-39 0 -77 16.5t-74.5 35t-70.5 34.5t-65 16t-56 -21.5t-25 -60.5q0 -20 -21 -20h-82q-20 0 -20 20z" />
<glyph unicode="&#xd2;" horiz-adv-x="1536" d="M113 717q0 154 31.5 288t107.5 233t202 157.5t314 58.5t314 -58.5t202 -157.5t107.5 -233.5t31.5 -287.5q0 -154 -31.5 -288t-107.5 -233.5t-202 -157.5t-314 -58t-314 58t-202 157.5t-107.5 233.5t-31.5 288zM328 717q0 -119 19.5 -223.5t69.5 -182.5t135 -123t216 -45 t216 45t135 123t69.5 182.5t19.5 223.5t-19.5 223t-69.5 182t-135 123t-216 45t-216 -45t-135 -123t-69.5 -182t-19.5 -223zM461 1864q0 20 20 20h144q27 0 41 -20l102 -140q39 -53 70.5 -98t31.5 -49q0 -20 -20 -21h-102q-25 0 -41 21l-123 139q-23 27 -45.5 52.5t-40 46 t-27.5 34t-10 15.5z" />
<glyph unicode="&#xd3;" horiz-adv-x="1536" d="M113 717q0 154 31.5 288t107.5 233t202 157.5t314 58.5t314 -58.5t202 -157.5t107.5 -233.5t31.5 -287.5q0 -154 -31.5 -288t-107.5 -233.5t-202 -157.5t-314 -58t-314 58t-202 157.5t-107.5 233.5t-31.5 288zM328 717q0 -119 19.5 -223.5t69.5 -182.5t135 -123t216 -45 t216 45t135 123t69.5 182.5t19.5 223.5t-19.5 223t-69.5 182t-135 123t-216 45t-216 -45t-135 -123t-69.5 -182t-19.5 -223zM666 1577q0 4 31.5 49t70.5 98l102 140q14 20 41 20h144q20 0 20 -20q0 -2 -10 -15.5t-27.5 -34t-40 -46t-45.5 -52.5l-123 -139q-16 -20 -41 -21 h-102q-20 1 -20 21z" />
<glyph unicode="&#xd4;" horiz-adv-x="1536" d="M113 717q0 154 31.5 288t107.5 233t202 157.5t314 58.5t314 -58.5t202 -157.5t107.5 -233.5t31.5 -287.5q0 -154 -31.5 -288t-107.5 -233.5t-202 -157.5t-314 -58t-314 58t-202 157.5t-107.5 233.5t-31.5 288zM328 717q0 -119 19.5 -223.5t69.5 -182.5t135 -123t216 -45 t216 45t135 123t69.5 182.5t19.5 223.5t-19.5 223t-69.5 182t-135 123t-216 45t-216 -45t-135 -123t-69.5 -182t-19.5 -223zM481 1577q0 4 32 49t71 98l102 140q16 20 41 20h82q25 0 41 -20l102 -140q39 -53 71 -98t32 -49q0 -20 -21 -21h-123q-27 0 -41 21l-82 123l-20 102 l-20 -102l-82 -123q-14 -20 -41 -21h-123q-21 1 -21 21z" />
<glyph unicode="&#xd5;" horiz-adv-x="1536" d="M113 717q0 154 31.5 288t107.5 233t202 157.5t314 58.5t314 -58.5t202 -157.5t107.5 -233.5t31.5 -287.5q0 -154 -31.5 -288t-107.5 -233.5t-202 -157.5t-314 -58t-314 58t-202 157.5t-107.5 233.5t-31.5 288zM328 717q0 -119 19.5 -223.5t69.5 -182.5t135 -123t216 -45 t216 45t135 123t69.5 182.5t19.5 223.5t-19.5 223t-69.5 182t-135 123t-216 45t-216 -45t-135 -123t-69.5 -182t-19.5 -223zM420 1597q0 109 56 167.5t149 58.5q39 0 76.5 -16.5t74.5 -35t71 -35t64 -16.5q31 0 56.5 21.5t25.5 60.5q0 20 21 21h82q20 0 20 -21 q0 -109 -56 -167t-149 -58q-39 0 -76.5 16.5t-74.5 35t-71 34.5t-64 16q-31 0 -56.5 -21.5t-25.5 -60.5q0 -20 -21 -20h-82q-20 0 -20 20z" />
<glyph unicode="&#xd6;" horiz-adv-x="1536" d="M113 717q0 154 31.5 288t107.5 233t202 157.5t314 58.5t314 -58.5t202 -157.5t107.5 -233.5t31.5 -287.5q0 -154 -31.5 -288t-107.5 -233.5t-202 -157.5t-314 -58t-314 58t-202 157.5t-107.5 233.5t-31.5 288zM328 717q0 -119 19.5 -223.5t69.5 -182.5t135 -123t216 -45 t216 45t135 123t69.5 182.5t19.5 223.5t-19.5 223t-69.5 182t-135 123t-216 45t-216 -45t-135 -123t-69.5 -182t-19.5 -223zM440 1700q0 51 36 87t87 36t87 -36t36 -87t-36 -87t-87 -36t-87 36t-36 87zM850 1700q0 51 36 87t87 36t87 -36t36 -87t-36 -87t-87 -36t-87 36 t-36 87z" />
<glyph unicode="&#xd7;" horiz-adv-x="1148" d="M84 197q0 8 8 14l363 362l-363 363q-8 6 -8 14t8 15l86 86q8 8 15 8q6 0 14 -8l362 -363l363 363q8 8 14 8t15 -8l86 -86q8 -8 8 -15q0 -6 -8 -14l-363 -363l363 -362q8 -8 8 -14t-8 -15l-86 -86q-6 -8 -15 -8q-8 0 -14 8l-363 363l-362 -363q-6 -8 -14 -8t-15 8l-86 86 q-8 7 -8 15z" />
<glyph unicode="&#xd8;" horiz-adv-x="1572" d="M111 20q0 2 41 52.5t108 134.5q-72 100 -100.5 230t-28.5 280q0 154 32 288t107.5 233t201.5 157.5t314 58.5q135 0 235.5 -30.5t174.5 -84.5q12 16 23.5 29.5t19.5 24.5q8 10 18 20q10 12 23.5 16.5t17.5 4.5h144q20 0 20 -21q0 -2 -41 -53t-110 -135 q72 -98 101.5 -229.5t29.5 -278.5q0 -154 -32 -288t-107.5 -233.5t-201.5 -157.5t-315 -58q-135 0 -235 29.5t-176 82.5q-14 -16 -24.5 -28.5t-18.5 -22.5l-17 -21q-14 -20 -41 -20h-143q-20 0 -20 20zM346 717q0 -96 12.5 -182t40.5 -158l676 817q-49 47 -119.5 71.5 t-169.5 24.5q-131 0 -216 -45t-135 -123t-69.5 -182t-19.5 -223zM496 238q51 -45 121.5 -70t168.5 -25q131 0 216 45t135.5 123t70 182.5t19.5 223.5q0 96 -12.5 182t-43.5 158q-80 -98 -170 -207t-179 -218.5t-173.5 -210.5t-152.5 -183z" />
<glyph unicode="&#xd9;" horiz-adv-x="1447" d="M170 532v861q0 20 20 20l164 21q20 0 21 -21v-860q0 -102 14 -179t52 -128t105.5 -77t176.5 -26q106 0 175 26t106.5 77t52 128t14.5 179v840q0 20 21 20l163 21q20 0 21 -21v-881q0 -154 -38 -259t-108.5 -170.5t-173 -94t-233.5 -28.5t-233.5 28.5t-173 94 t-108.5 170.5t-38 259zM416 1864q0 20 20 20h144q27 0 41 -20l102 -140q39 -53 70.5 -98t31.5 -49q0 -20 -20 -21h-103q-25 0 -40 21l-123 139q-23 27 -45.5 52.5t-40 46t-27.5 34t-10 15.5z" />
<glyph unicode="&#xda;" horiz-adv-x="1447" d="M170 532v861q0 20 20 20l164 21q20 0 21 -21v-860q0 -102 14 -179t52 -128t105.5 -77t176.5 -26q106 0 175 26t106.5 77t52 128t14.5 179v840q0 20 21 20l163 21q20 0 21 -21v-881q0 -154 -38 -259t-108.5 -170.5t-173 -94t-233.5 -28.5t-233.5 28.5t-173 94 t-108.5 170.5t-38 259zM618 1577q0 4 32 49t71 98l102 140q14 20 41 20h144q20 0 20 -20q0 -2 -10 -15.5t-27.5 -34t-40 -46t-45.5 -52.5l-123 -139q-16 -20 -41 -21h-102q-21 1 -21 21z" />
<glyph unicode="&#xdb;" horiz-adv-x="1447" d="M170 532v861q0 20 20 20l164 21q20 0 21 -21v-860q0 -102 14 -179t52 -128t105.5 -77t176.5 -26q106 0 175 26t106.5 77t52 128t14.5 179v840q0 20 21 20l163 21q20 0 21 -21v-881q0 -154 -38 -259t-108.5 -170.5t-173 -94t-233.5 -28.5t-233.5 28.5t-173 94 t-108.5 170.5t-38 259zM436 1577q0 4 32 49t71 98l102 140q16 20 41 20h82q25 0 41 -20l102 -140q39 -53 71 -98t32 -49q0 -20 -21 -21h-123q-27 0 -41 21l-82 123l-20 102l-21 -102l-81 -123q-14 -20 -41 -21h-123q-21 1 -21 21z" />
<glyph unicode="&#xdc;" horiz-adv-x="1447" d="M170 532v861q0 20 20 20l164 21q20 0 21 -21v-860q0 -102 14 -179t52 -128t105.5 -77t176.5 -26q106 0 175 26t106.5 77t52 128t14.5 179v840q0 20 21 20l163 21q20 0 21 -21v-881q0 -154 -38 -259t-108.5 -170.5t-173 -94t-233.5 -28.5t-233.5 28.5t-173 94 t-108.5 170.5t-38 259zM395 1700q0 51 36 87t87 36t87 -36t36 -87t-36 -87t-87 -36t-87 36t-36 87zM805 1700q0 51 36 87t87 36t87 -36t36 -87t-36 -87t-87 -36t-87 36t-36 87z" />
<glyph unicode="&#xdd;" horiz-adv-x="1193" d="M12 1393q0 16 21 20q43 4 78 10q29 4 55.5 7.5t30.5 3.5q10 0 18 -6.5t12 -14.5l334 -553l35 -123l35 123l327 553q14 20 31 21h180q20 0 21 -21l-27 -45q-27 -45 -69.5 -114.5t-96 -158.5t-107.5 -178.5t-105.5 -172t-86.5 -140.5v-584q0 -20 -20 -20h-164q-20 0 -20 20 v584q-135 219 -242 391q-45 74 -88 144.5t-77 126t-54.5 90.5t-20.5 37zM508 1577q0 4 31.5 49t70.5 98l103 140q14 20 41 20h143q20 0 21 -20q0 -2 -10.5 -15.5t-28 -34t-40 -46t-44.5 -52.5l-123 -139q-16 -20 -41 -21h-103q-20 1 -20 21z" />
<glyph unicode="&#xde;" horiz-adv-x="1216" d="M184 20v1373q0 16 21 20q43 4 80 10q31 4 56.5 7.5t27.5 3.5q20 0 20 -21v-246h225q176 0 281.5 -38.5t161 -100t73 -138.5t17.5 -153q0 -78 -17.5 -154.5t-73 -138t-160.5 -99.5t-282 -38h-225v-287q0 -20 -20 -20h-164q-21 0 -21 20zM389 471h225q115 0 180.5 24.5 t98.5 62.5t41 85t8 94q0 45 -8 93.5t-41 86t-98.5 62.5t-180.5 25h-225v-533z" />
<glyph unicode="&#xdf;" horiz-adv-x="1206" d="M135 20q0 6 10.5 44t10.5 100v942q0 92 18.5 171t70.5 136t144 90t238 33q123 0 201.5 -33t124.5 -88t64.5 -130t18.5 -159q0 -47 -3 -88t-7 -71q-6 -37 -10 -66h-82q-184 0 -184 -123q0 -41 28.5 -71.5t71.5 -59.5t94 -58.5t94 -68.5t72 -90t29 -123 q0 -154 -104.5 -240.5t-305.5 -86.5q-47 0 -88 3t-72 7q-37 4 -65 10q-20 4 -21 20q0 4 3 22.5t8 41.5q4 25 10 59q4 20 20 21q2 0 23.5 -3t51.5 -7t64.5 -7.5t65.5 -3.5q61 0 101 14.5t62.5 37t32 52t9.5 60.5q0 47 -28.5 80t-71.5 60.5t-94.5 56t-94.5 65.5t-71.5 87.5 t-28.5 121.5q0 123 73.5 194.5t212.5 71.5v82q0 53 -9 98.5t-31.5 78t-62.5 51t-101 18.5q-84 0 -136.5 -21.5t-81 -58.5t-39 -85t-10.5 -101v-942q0 -31 -3 -57.5t-7 -45.5q-6 -23 -10 -41q-6 -20 -21 -20h-163q-21 0 -21 20z" />
<glyph unicode="&#xe0;" horiz-adv-x="1124" d="M80 307q0 154 114.5 230.5t315.5 76.5q29 0 75 -3t89 -7q51 -6 102 -10v123q0 78 -61.5 121t-184.5 43q-51 0 -114.5 -13.5t-119.5 -29t-94 -27.5t-40 -12q-20 0 -21 20q0 2 3 21.5t8 42.5q4 27 10 59q4 14 20 21q51 23 109 41q49 16 111.5 28t127.5 12 q100 0 183.5 -22.5t142.5 -64.5t92 -103t33 -137v-553q0 -61 10 -99t10 -45q0 -20 -20 -20h-164q-14 0 -20 20l-21 103q-20 -41 -63 -72q-37 -29 -100.5 -50t-163.5 -21q-47 0 -110 13t-121 50t-98 100.5t-40 163.5zM264 1454q0 20 21 21h143q27 0 41 -21l102 -139 q39 -53 71 -98.5t32 -49.5q0 -20 -21 -20h-102q-25 0 -41 20l-123 140q-23 27 -45.5 52t-39.5 45.5t-27.5 34t-10.5 15.5zM285 307q0 -53 17 -86t42 -50t53.5 -22.5t51.5 -5.5q59 0 118.5 6.5t105.5 32t74.5 74.5t28.5 135v60h-266q-92 0 -158.5 -34t-66.5 -110z" />
<glyph unicode="&#xe1;" horiz-adv-x="1124" d="M80 307q0 154 114.5 230.5t315.5 76.5q29 0 75 -3t89 -7q51 -6 102 -10v123q0 78 -61.5 121t-184.5 43q-51 0 -114.5 -13.5t-119.5 -29t-94 -27.5t-40 -12q-20 0 -21 20q0 2 3 21.5t8 42.5q4 27 10 59q4 14 20 21q51 23 109 41q49 16 111.5 28t127.5 12 q100 0 183.5 -22.5t142.5 -64.5t92 -103t33 -137v-553q0 -61 10 -99t10 -45q0 -20 -20 -20h-164q-14 0 -20 20l-21 103q-20 -41 -63 -72q-37 -29 -100.5 -50t-163.5 -21q-47 0 -110 13t-121 50t-98 100.5t-40 163.5zM285 307q0 -53 17 -86t42 -50t53.5 -22.5t51.5 -5.5 q59 0 118.5 6.5t105.5 32t74.5 74.5t28.5 135v60h-266q-92 0 -158.5 -34t-66.5 -110zM449 1167q0 4 31.5 49.5t70.5 98.5l102 139q14 20 41 21h144q20 0 20 -21q0 -2 -10 -15.5t-27.5 -34t-40 -46t-45.5 -51.5l-123 -140q-16 -20 -41 -20h-102q-20 0 -20 20z" />
<glyph unicode="&#xe2;" horiz-adv-x="1124" d="M80 307q0 154 114.5 230.5t315.5 76.5q29 0 75 -3t89 -7q51 -6 102 -10v123q0 78 -61.5 121t-184.5 43q-51 0 -114.5 -13.5t-119.5 -29t-94 -27.5t-40 -12q-20 0 -21 20q0 2 3 21.5t8 42.5q4 27 10 59q4 14 20 21q51 23 109 41q49 16 111.5 28t127.5 12 q100 0 183.5 -22.5t142.5 -64.5t92 -103t33 -137v-553q0 -61 10 -99t10 -45q0 -20 -20 -20h-164q-14 0 -20 20l-21 103q-20 -41 -63 -72q-37 -29 -100.5 -50t-163.5 -21q-47 0 -110 13t-121 50t-98 100.5t-40 163.5zM254 1167q0 4 31.5 49.5t70.5 98.5l103 139q16 20 41 21 h82q25 0 41 -21l102 -139q39 -53 70.5 -98.5t31.5 -49.5q0 -20 -20 -20h-123q-27 0 -41 20l-82 123l-20 103l-21 -103l-82 -123q-14 -20 -41 -20h-123q-20 0 -20 20zM285 307q0 -53 17 -86t42 -50t53.5 -22.5t51.5 -5.5q59 0 118.5 6.5t105.5 32t74.5 74.5t28.5 135v60h-266 q-92 0 -158.5 -34t-66.5 -110z" />
<glyph unicode="&#xe3;" horiz-adv-x="1124" d="M80 307q0 154 114.5 230.5t315.5 76.5q29 0 75 -3t89 -7q51 -6 102 -10v123q0 78 -61.5 121t-184.5 43q-51 0 -114.5 -13.5t-119.5 -29t-94 -27.5t-40 -12q-20 0 -21 20q0 2 3 21.5t8 42.5q4 27 10 59q4 14 20 21q51 23 109 41q49 16 111.5 28t127.5 12 q100 0 183.5 -22.5t142.5 -64.5t92 -103t33 -137v-553q0 -61 10 -99t10 -45q0 -20 -20 -20h-164q-14 0 -20 20l-21 103q-20 -41 -63 -72q-37 -29 -100.5 -50t-163.5 -21q-47 0 -110 13t-121 50t-98 100.5t-40 163.5zM203 1208q0 109 56 167.5t149 58.5q39 0 76.5 -16.5 t74.5 -35t71 -35t64 -16.5q31 0 56.5 21.5t25.5 60.5q0 20 21 21h82q20 0 20 -21q0 -109 -56.5 -167t-148.5 -58q-39 0 -76.5 16.5t-74.5 34.5t-71 34.5t-64 16.5q-31 0 -56.5 -21.5t-25.5 -60.5q0 -20 -21 -20h-82q-20 0 -20 20zM285 307q0 -53 17 -86t42 -50t53.5 -22.5 t51.5 -5.5q59 0 118.5 6.5t105.5 32t74.5 74.5t28.5 135v60h-266q-92 0 -158.5 -34t-66.5 -110z" />
<glyph unicode="&#xe4;" horiz-adv-x="1124" d="M80 307q0 154 114.5 230.5t315.5 76.5q29 0 75 -3t89 -7q51 -6 102 -10v123q0 78 -61.5 121t-184.5 43q-51 0 -114.5 -13.5t-119.5 -29t-94 -27.5t-40 -12q-20 0 -21 20q0 2 3 21.5t8 42.5q4 27 10 59q4 14 20 21q51 23 109 41q49 16 111.5 28t127.5 12 q100 0 183.5 -22.5t142.5 -64.5t92 -103t33 -137v-553q0 -61 10 -99t10 -45q0 -20 -20 -20h-164q-14 0 -20 20l-21 103q-20 -41 -63 -72q-37 -29 -100.5 -50t-163.5 -21q-47 0 -110 13t-121 50t-98 100.5t-40 163.5zM223 1331q0 51 36 87t87 36t87 -36t36 -87t-36 -87 t-87 -36t-87 36t-36 87zM285 307q0 -53 17 -86t42 -50t53.5 -22.5t51.5 -5.5q59 0 118.5 6.5t105.5 32t74.5 74.5t28.5 135v60h-266q-92 0 -158.5 -34t-66.5 -110zM633 1331q0 51 36 87t87 36t87 -36t36 -87t-36 -87t-87 -36t-87 36t-36 87z" />
<glyph unicode="&#xe5;" horiz-adv-x="1124" d="M80 307q0 154 114.5 230.5t315.5 76.5q29 0 75 -3t89 -7q51 -6 102 -10v123q0 78 -61.5 121t-184.5 43q-51 0 -114.5 -13.5t-119.5 -29t-94 -27.5t-40 -12q-20 0 -21 20q0 2 3 21.5t8 42.5q4 27 10 59q4 14 20 21q51 23 109 41q49 16 111.5 28t127.5 12 q100 0 183.5 -22.5t142.5 -64.5t92 -103t33 -137v-553q0 -61 10 -99t10 -45q0 -20 -20 -20h-164q-14 0 -20 20l-21 103q-20 -41 -63 -72q-37 -29 -100.5 -50t-163.5 -21q-47 0 -110 13t-121 50t-98 100.5t-40 163.5zM285 307q0 -53 17 -86t42 -50t53.5 -22.5t51.5 -5.5 q59 0 118.5 6.5t105.5 32t74.5 74.5t28.5 135v60h-266q-92 0 -158.5 -34t-66.5 -110zM326 1352q0 43 12 79.5t38.5 64.5t69.5 44t105 16q123 0 174 -56t51 -148t-51 -148.5t-174 -56.5q-61 0 -104.5 16.5t-70 44t-38.5 64.5t-12 80zM449 1352q0 -47 24.5 -75t77.5 -28 t77.5 28t24.5 75t-24.5 74.5t-77.5 27.5t-77.5 -27.5t-24.5 -74.5z" />
<glyph unicode="&#xe6;" horiz-adv-x="1822" d="M80 307q0 154 114.5 230.5t315.5 76.5q29 0 75 -3t89 -7q51 -6 102 -10v123q0 78 -61.5 121t-184.5 43q-51 0 -114.5 -13.5t-119.5 -29t-94 -27.5t-40 -12q-20 0 -21 20q0 2 3 21.5t8 42.5q4 27 10 59q4 14 20 21q51 23 109 41q49 16 111.5 28t127.5 12 q121 0 214.5 -30.5t154.5 -91.5q61 61 154.5 91.5t234.5 30.5q215 0 333 -128t118 -404v-61q0 -20 -21 -21h-735q4 -66 22.5 -118t56.5 -90t98.5 -58.5t148.5 -20.5q70 0 131 6.5t108 14.5t76 14t33 6q20 0 20 -20q0 -4 -3 -22.5t-7 -41.5q-6 -27 -10 -59q-4 -18 -21 -21 q-39 -12 -88 -20q-43 -8 -102.5 -14t-136.5 -6q-166 0 -268.5 40.5t-161.5 112.5q-59 -72 -162 -112.5t-268 -40.5q-47 0 -110 13t-121 50t-98 100.5t-40 163.5zM285 307q0 -53 17 -86t42 -50t53.5 -22.5t51.5 -5.5q59 0 118.5 6.5t105.5 32t74.5 74.5t28.5 135v60h-266 q-92 0 -158.5 -34t-66.5 -110zM983 594h551q0 59 -12.5 111.5t-41 91.5t-75.5 61.5t-117 22.5q-88 0 -145.5 -20.5t-91 -58.5t-49 -91.5t-19.5 -116.5z" />
<glyph unicode="&#xe7;" horiz-adv-x="1052" d="M98 512q0 111 19.5 208t78 169t162 113.5t273.5 41.5q61 0 113.5 -10t91.5 -20q45 -14 82 -31q16 -6 20 -20q4 -35 10 -60q4 -23 7 -41t3 -22q0 -20 -20 -21q-4 0 -29.5 9.5t-66.5 21.5t-95.5 21.5t-115.5 9.5q-109 0 -173.5 -28t-98 -77t-45 -116.5t-11.5 -147.5 t13.5 -147.5t50 -116.5t100 -77t164.5 -28q61 0 112.5 6.5t89 14.5t59 14t26.5 6q16 0 20 -20q4 -35 10 -60q4 -23 7 -41t3 -22q0 -16 -20 -21q-33 -8 -72 -16q-35 -6 -80 -12t-96 -10l-18 -43l-82 -21h61q43 0 80 -14.5t64.5 -42t44 -65.5t16.5 -83q0 -92 -66.5 -148.5 t-158.5 -56.5q-47 0 -88 7.5t-72 17.5q-37 10 -65 27q-20 8 -21 20q0 8 14 41q6 16 15 35q6 16 22 16q4 0 20.5 -6t42 -14t59.5 -14.5t73 -6.5q31 0 56.5 17.5t25.5 64.5t-25.5 64.5t-56.5 17.5h-133q-20 0 -21 21q0 2 7.5 21.5t16.5 46t19 54t19 46.5q-139 12 -225.5 57 t-134.5 115.5t-64.5 162t-16.5 193.5z" />
<glyph unicode="&#xe8;" horiz-adv-x="1142" d="M96 512q0 111 20.5 208t78 169t157 113.5t256.5 41.5q215 0 333 -128t118 -404v-61q0 -20 -21 -21h-735q4 -66 22.5 -118t56.5 -90t98.5 -58.5t148.5 -20.5q70 0 131 6.5t108 14.5t76 14t33 6q20 0 20 -20q0 -4 -3 -22.5t-7 -41.5q-6 -27 -10 -59q-4 -18 -21 -21 q-39 -12 -88 -20q-43 -8 -102 -14t-137 -6q-166 0 -269.5 41.5t-162 113.5t-80 169t-21.5 208zM270 1454q0 20 21 21h143q27 0 41 -21l103 -139q39 -53 70.5 -98.5t31.5 -49.5q0 -20 -21 -20h-102q-25 0 -41 20l-123 140q-23 27 -45 52t-39.5 45.5t-28 34t-10.5 15.5z M303 594h551q0 59 -12.5 111.5t-41 91.5t-75.5 61.5t-117 22.5q-88 0 -145 -20.5t-91 -58.5t-49.5 -91.5t-19.5 -116.5z" />
<glyph unicode="&#xe9;" horiz-adv-x="1142" d="M96 512q0 111 20.5 208t78 169t157 113.5t256.5 41.5q215 0 333 -128t118 -404v-61q0 -20 -21 -21h-735q4 -66 22.5 -118t56.5 -90t98.5 -58.5t148.5 -20.5q70 0 131 6.5t108 14.5t76 14t33 6q20 0 20 -20q0 -4 -3 -22.5t-7 -41.5q-6 -27 -10 -59q-4 -18 -21 -21 q-39 -12 -88 -20q-43 -8 -102 -14t-137 -6q-166 0 -269.5 41.5t-162 113.5t-80 169t-21.5 208zM303 594h551q0 59 -12.5 111.5t-41 91.5t-75.5 61.5t-117 22.5q-88 0 -145 -20.5t-91 -58.5t-49.5 -91.5t-19.5 -116.5zM475 1167q0 4 32 49.5t71 98.5l102 139q14 20 41 21h143 q20 0 21 -21q0 -2 -10.5 -15.5t-28 -34t-40 -46t-44.5 -51.5l-123 -140q-16 -20 -41 -20h-102q-21 0 -21 20z" />
<glyph unicode="&#xea;" horiz-adv-x="1142" d="M96 512q0 111 20.5 208t78 169t157 113.5t256.5 41.5q215 0 333 -128t118 -404v-61q0 -20 -21 -21h-735q4 -66 22.5 -118t56.5 -90t98.5 -58.5t148.5 -20.5q70 0 131 6.5t108 14.5t76 14t33 6q20 0 20 -20q0 -4 -3 -22.5t-7 -41.5q-6 -27 -10 -59q-4 -18 -21 -21 q-39 -12 -88 -20q-43 -8 -102 -14t-137 -6q-166 0 -269.5 41.5t-162 113.5t-80 169t-21.5 208zM291 1167q0 4 31.5 49.5t70.5 98.5l103 139q16 20 41 21h81q25 0 41 -21l103 -139q39 -53 70.5 -98.5t31.5 -49.5q0 -20 -20 -20h-123q-27 0 -41 20l-82 123l-20 103l-21 -103 l-82 -123q-14 -20 -41 -20h-123q-20 0 -20 20zM303 594h551q0 59 -12.5 111.5t-41 91.5t-75.5 61.5t-117 22.5q-88 0 -145 -20.5t-91 -58.5t-49.5 -91.5t-19.5 -116.5z" />
<glyph unicode="&#xeb;" horiz-adv-x="1142" d="M96 512q0 111 20.5 208t78 169t157 113.5t256.5 41.5q215 0 333 -128t118 -404v-61q0 -20 -21 -21h-735q4 -66 22.5 -118t56.5 -90t98.5 -58.5t148.5 -20.5q70 0 131 6.5t108 14.5t76 14t33 6q20 0 20 -20q0 -4 -3 -22.5t-7 -41.5q-6 -27 -10 -59q-4 -18 -21 -21 q-39 -12 -88 -20q-43 -8 -102 -14t-137 -6q-166 0 -269.5 41.5t-162 113.5t-80 169t-21.5 208zM250 1331q0 51 36 87t87 36t87 -36t36 -87t-36 -87t-87 -36t-87 36t-36 87zM303 594h551q0 59 -12.5 111.5t-41 91.5t-75.5 61.5t-117 22.5q-88 0 -145 -20.5t-91 -58.5 t-49.5 -91.5t-19.5 -116.5zM659 1331q0 51 36 87t87 36t87 -36t36 -87t-35.5 -87t-87.5 -36q-51 0 -87 36t-36 87z" />
<glyph unicode="&#xec;" horiz-adv-x="509" d="M-55 1454q0 20 20 21h144q27 0 41 -21l102 -139q39 -53 70.5 -98.5t31.5 -49.5q0 -20 -20 -20h-103q-25 0 -41 20l-122 140q-23 27 -45.5 52t-40 45.5t-27.5 34t-10 15.5zM150 164v819q0 20 20 21l164 20q20 0 20 -20v-840q0 -61 10.5 -99t10.5 -45q0 -20 -21 -20h-164 q-14 0 -20 20q-6 18 -10 41q-10 42 -10 103z" />
<glyph unicode="&#xed;" horiz-adv-x="509" d="M150 164v819q0 20 20 21l164 20q20 0 20 -20v-840q0 -61 10.5 -99t10.5 -45q0 -20 -21 -20h-164q-14 0 -20 20q-6 18 -10 41q-10 42 -10 103zM150 1167q0 4 31.5 49.5t70.5 98.5l102 139q14 20 41 21h144q20 0 20 -21q0 -2 -10 -15.5t-27.5 -34t-40 -46t-45.5 -51.5 l-123 -140q-16 -20 -41 -20h-102q-20 0 -20 20z" />
<glyph unicode="&#xee;" horiz-adv-x="509" d="M-35 1167q0 4 32 49.5t71 98.5l102 139q16 20 41 21h82q25 0 41 -21l102 -139q39 -53 71 -98.5t32 -49.5q0 -20 -21 -20h-123q-27 0 -41 20l-82 123l-20 103l-21 -103l-81 -123q-14 -20 -41 -20h-123q-21 0 -21 20zM150 164v819q0 20 20 21l164 20q20 0 20 -20v-840 q0 -61 10.5 -99t10.5 -45q0 -20 -21 -20h-164q-14 0 -20 20q-6 18 -10 41q-10 42 -10 103z" />
<glyph unicode="&#xef;" horiz-adv-x="509" d="M-35 1331q0 51 36 87t87 36t87 -36t36 -87t-36 -87t-87 -36t-87 36t-36 87zM150 164v819q0 20 20 21l164 20q20 0 20 -20v-840q0 -61 10.5 -99t10.5 -45q0 -20 -21 -20h-164q-14 0 -20 20q-6 18 -10 41q-10 42 -10 103zM293 1331q0 51 36 87t87 36t87 -36t36 -87t-36 -87 t-87 -36t-87 36t-36 87z" />
<glyph unicode="&#xf0;" horiz-adv-x="1202" d="M98 451q0 88 21.5 169.5t76 144t144.5 99.5t229 37q61 0 116.5 -14.5t98.5 -30.5q49 -20 93 -43q-2 80 -8.5 142.5t-24.5 121.5q-84 -35 -146.5 -59.5t-66.5 -24.5q-16 0 -21 19v104q0 10 5.5 18.5t15.5 12.5q18 8 41 16q20 8 46.5 19.5t57.5 23.5q-37 41 -92 62.5 t-135 21.5q-70 0 -134.5 -9t-115.5 -21.5t-83 -21.5t-36 -9q-20 0 -20 20q0 4 3 22.5t7 41.5q4 25 10 59q4 14 21 21q49 16 104 30q47 10 110.5 20.5t133.5 10.5q156 0 255 -46t159 -126q39 16 74.5 30.5t63 26t44 17.5t18.5 6q20 0 21 -21v-102q0 -8 -5 -17.5t-16 -13.5 q-16 -8 -39 -16q-18 -8 -42.5 -18.5t-53.5 -20.5q33 -92 43 -202.5t10 -233.5q0 -154 -13 -288t-65.5 -233.5t-155 -157.5t-278.5 -58q-139 0 -229 39.5t-144.5 106.5t-76 151t-21.5 174zM303 451q0 -55 12.5 -110.5t43 -98.5t82 -71t128.5 -28q92 0 152.5 34t94.5 99.5 t47.5 160.5t13.5 218q-33 23 -78 41q-39 16 -95.5 28.5t-134.5 12.5t-129 -24.5t-81.5 -64.5t-43 -91t-12.5 -106z" />
<glyph unicode="&#xf1;" horiz-adv-x="1218" d="M135 1004q0 20 21 20h163q14 0 21 -20l20 -123q27 45 70 82q37 31 94.5 56t143.5 25q154 0 236.5 -41.5t121.5 -113.5t45 -169t6 -208v-492q0 -20 -20 -20h-164q-20 0 -21 20v492q0 80 -3 147.5t-22.5 116.5t-61.5 77t-117 28q-152 0 -230 -73t-78 -220v-568 q0 -20 -20 -20h-164q-20 0 -20 20v840q0 61 -10.5 99.5t-10.5 44.5zM268 1208q0 109 56.5 167.5t148.5 58.5q39 0 77 -16.5t75 -35t70.5 -35t64.5 -16.5t56.5 21.5t25.5 60.5q0 20 20 21h82q20 0 21 -21q0 -109 -56.5 -167t-148.5 -58q-39 0 -77 16.5t-75 34.5t-70.5 34.5 t-64.5 16.5t-56.5 -21.5t-25.5 -60.5q0 -20 -20 -20h-82q-21 0 -21 20z" />
<glyph unicode="&#xf2;" d="M92 512q0 137 37 238.5t104.5 166t161.5 96t209 31.5t209 -31.5t161.5 -96t104.5 -166t37 -238.5q0 -139 -37 -239.5t-104.5 -165t-161.5 -96t-209 -31.5t-209 31.5t-161.5 96t-104.5 165t-37 239.5zM295 1454q0 20 20 21h144q27 0 41 -21l102 -139q39 -53 71 -98.5 t32 -49.5q0 -20 -21 -20h-102q-25 0 -41 20l-123 140q-23 27 -45.5 52t-40 45.5t-27.5 34t-10 15.5zM297 512q0 -76 13.5 -143.5t48 -117.5t94 -79t151.5 -29t151.5 29t94.5 79t48 117.5t13 143.5t-13 143.5t-48 117.5t-94.5 79t-151.5 29t-151.5 -29t-94 -79t-48 -117.5 t-13.5 -143.5z" />
<glyph unicode="&#xf3;" d="M92 512q0 137 37 238.5t104.5 166t161.5 96t209 31.5t209 -31.5t161.5 -96t104.5 -166t37 -238.5q0 -139 -37 -239.5t-104.5 -165t-161.5 -96t-209 -31.5t-209 31.5t-161.5 96t-104.5 165t-37 239.5zM297 512q0 -76 13.5 -143.5t48 -117.5t94 -79t151.5 -29t151.5 29 t94.5 79t48 117.5t13 143.5t-13 143.5t-48 117.5t-94.5 79t-151.5 29t-151.5 -29t-94 -79t-48 -117.5t-13.5 -143.5zM502 1167q0 4 31.5 49.5t70.5 98.5l103 139q14 20 41 21h143q20 0 20 -21q0 -2 -10 -15.5t-27.5 -34t-40 -46t-45.5 -51.5l-122 -140q-16 -20 -41 -20h-103 q-20 0 -20 20z" />
<glyph unicode="&#xf4;" d="M92 512q0 137 37 238.5t104.5 166t161.5 96t209 31.5t209 -31.5t161.5 -96t104.5 -166t37 -238.5q0 -139 -37 -239.5t-104.5 -165t-161.5 -96t-209 -31.5t-209 31.5t-161.5 96t-104.5 165t-37 239.5zM297 512q0 -76 13.5 -143.5t48 -117.5t94 -79t151.5 -29t151.5 29 t94.5 79t48 117.5t13 143.5t-13 143.5t-48 117.5t-94.5 79t-151.5 29t-151.5 -29t-94 -79t-48 -117.5t-13.5 -143.5zM317 1167q0 4 32 49.5t71 98.5l102 139q16 20 41 21h82q25 0 41 -21l102 -139q39 -53 71 -98.5t32 -49.5q0 -20 -21 -20h-122q-27 0 -41 20l-82 123 l-21 103l-20 -103l-82 -123q-14 -20 -41 -20h-123q-21 0 -21 20z" />
<glyph unicode="&#xf5;" d="M92 512q0 137 37 238.5t104.5 166t161.5 96t209 31.5t209 -31.5t161.5 -96t104.5 -166t37 -238.5q0 -139 -37 -239.5t-104.5 -165t-161.5 -96t-209 -31.5t-209 31.5t-161.5 96t-104.5 165t-37 239.5zM256 1208q0 109 56.5 167.5t148.5 58.5q39 0 76.5 -16.5t74.5 -35 t71 -35t65 -16.5t56 21.5t25 60.5q0 20 21 21h82q20 0 20 -21q0 -109 -56 -167t-148 -58q-39 0 -77 16.5t-75 34.5t-70.5 34.5t-64.5 16.5t-56.5 -21.5t-25.5 -60.5q0 -20 -21 -20h-82q-20 0 -20 20zM297 512q0 -76 13.5 -143.5t48 -117.5t94 -79t151.5 -29t151.5 29 t94.5 79t48 117.5t13 143.5t-13 143.5t-48 117.5t-94.5 79t-151.5 29t-151.5 -29t-94 -79t-48 -117.5t-13.5 -143.5z" />
<glyph unicode="&#xf6;" d="M92 512q0 137 37 238.5t104.5 166t161.5 96t209 31.5t209 -31.5t161.5 -96t104.5 -166t37 -238.5q0 -139 -37 -239.5t-104.5 -165t-161.5 -96t-209 -31.5t-209 31.5t-161.5 96t-104.5 165t-37 239.5zM276 1331q0 51 36 87t87 36t87 -36t36 -87t-35.5 -87t-87.5 -36 q-51 0 -87 36t-36 87zM297 512q0 -76 13.5 -143.5t48 -117.5t94 -79t151.5 -29t151.5 29t94.5 79t48 117.5t13 143.5t-13 143.5t-48 117.5t-94.5 79t-151.5 29t-151.5 -29t-94 -79t-48 -117.5t-13.5 -143.5zM686 1331q0 51 36 87t87 36t87 -36t36 -87t-36 -87t-87 -36 t-87 36t-36 87z" />
<glyph unicode="&#xf7;" horiz-adv-x="1220" d="M88 512q0 4 3 22.5t7 40.5q4 25 11 60q4 20 20 20h983q20 0 21 -20q0 -4 -3.5 -23.5t-7.5 -42.5q-6 -27 -10 -57q-4 -20 -20 -20h-983q-21 0 -21 20zM487 225q0 51 36 87t87 36t87 -36t36 -87t-35.5 -87t-87.5 -36q-51 0 -87 36t-36 87zM487 922q0 51 36 86.5t87 35.5 t87 -35.5t36 -86.5t-35.5 -87t-87.5 -36q-51 0 -87 36t-36 87z" />
<glyph unicode="&#xf8;" horiz-adv-x="1245" d="M90 20q0 2 32 40t85 98q-47 66 -71.5 152.5t-24.5 201.5q0 137 36.5 238.5t104 166t162 96t209.5 31.5q176 0 299 -73q6 8 11 14t9 10q4 6 8 9q10 12 23.5 16t17.5 4h144q20 0 20 -20q0 -2 -31.5 -41t-85.5 -99q47 -63 72 -151t25 -201q0 -139 -37 -239.5t-104.5 -165 t-162 -96t-208.5 -31.5q-88 0 -164 17t-135 54q-16 -16 -21 -22q-4 -6 -8 -9q-14 -20 -41 -20h-143q-21 0 -21 20zM315 512q0 -55 6.5 -104.5t22.5 -92.5q55 63 115.5 133t121 137.5t117 132t103.5 118.5q-68 45 -178 45q-92 0 -151.5 -29t-94.5 -79t-48.5 -117.5 t-13.5 -143.5zM442 186q35 -20 79 -31.5t102 -11.5q92 0 151.5 29t94 79t48 117.5t13.5 143.5q0 53 -6 103.5t-23 93.5z" />
<glyph unicode="&#xf9;" horiz-adv-x="1214" d="M137 512v471q0 20 21 21l164 20q20 0 20 -20v-492q0 -80 3 -147.5t22.5 -116.5t60.5 -77t119 -28q152 0 229.5 73t77.5 220v547q0 20 20 21l164 20q20 0 21 -20v-840q0 -61 10 -99t10 -45q0 -20 -20 -20h-164q-14 0 -21 20l-20 123q-27 -45 -70 -82q-37 -31 -94 -56 t-143 -25q-154 0 -237 41.5t-121.5 113.5t-45 169t-6.5 208zM291 1454q0 20 20 21h144q27 0 41 -21l102 -139q39 -53 70.5 -98.5t31.5 -49.5q0 -20 -20 -20h-102q-25 0 -41 20l-123 140q-23 27 -45.5 52t-40 45.5t-27.5 34t-10 15.5z" />
<glyph unicode="&#xfa;" horiz-adv-x="1214" d="M137 512v471q0 20 21 21l164 20q20 0 20 -20v-492q0 -80 3 -147.5t22.5 -116.5t60.5 -77t119 -28q152 0 229.5 73t77.5 220v547q0 20 20 21l164 20q20 0 21 -20v-840q0 -61 10 -99t10 -45q0 -20 -20 -20h-164q-14 0 -21 20l-20 123q-27 -45 -70 -82q-37 -31 -94 -56 t-143 -25q-154 0 -237 41.5t-121.5 113.5t-45 169t-6.5 208zM496 1167q0 4 31.5 49.5t70.5 98.5l102 139q14 20 41 21h144q20 0 20 -21q0 -2 -10 -15.5t-27.5 -34t-40 -46t-45.5 -51.5l-123 -140q-16 -20 -41 -20h-102q-20 0 -20 20z" />
<glyph unicode="&#xfb;" horiz-adv-x="1214" d="M137 512v471q0 20 21 21l164 20q20 0 20 -20v-492q0 -80 3 -147.5t22.5 -116.5t60.5 -77t119 -28q152 0 229.5 73t77.5 220v547q0 20 20 21l164 20q20 0 21 -20v-840q0 -61 10 -99t10 -45q0 -20 -20 -20h-164q-14 0 -21 20l-20 123q-27 -45 -70 -82q-37 -31 -94 -56 t-143 -25q-154 0 -237 41.5t-121.5 113.5t-45 169t-6.5 208zM311 1167q0 4 32 49.5t71 98.5l102 139q16 20 41 21h82q25 0 41 -21l102 -139q39 -53 71 -98.5t32 -49.5q0 -20 -21 -20h-123q-27 0 -41 20l-82 123l-20 103l-20 -103l-82 -123q-14 -20 -41 -20h-123 q-21 0 -21 20z" />
<glyph unicode="&#xfc;" horiz-adv-x="1214" d="M137 512v471q0 20 21 21l164 20q20 0 20 -20v-492q0 -80 3 -147.5t22.5 -116.5t60.5 -77t119 -28q152 0 229.5 73t77.5 220v547q0 20 20 21l164 20q20 0 21 -20v-840q0 -61 10 -99t10 -45q0 -20 -20 -20h-164q-14 0 -21 20l-20 123q-27 -45 -70 -82q-37 -31 -94 -56 t-143 -25q-154 0 -237 41.5t-121.5 113.5t-45 169t-6.5 208zM270 1331q0 51 36 87t87 36t87 -36t36 -87t-36 -87t-87 -36t-87 36t-36 87zM680 1331q0 51 36 87t87 36t87 -36t36 -87t-36 -87t-87 -36t-87 36t-36 87z" />
<glyph unicode="&#xfd;" horiz-adv-x="1028" d="M29 983q0 16 20 21q41 4 74 10q29 4 53.5 7t28.5 3q10 0 18 -6t13 -14l256 -717l20 -144l20 144l256 717q6 20 21 20h174q20 0 21 -20q0 -2 -15.5 -45.5t-42 -113t-59.5 -157.5t-68 -180q-82 -217 -184 -488q-31 -84 -68 -167.5t-86 -151.5t-116.5 -110t-159.5 -42 q-57 0 -92 11q-18 4 -31 10q-20 6 -21 24q0 4 3.5 24t7.5 42q4 25 10 57q4 16 20 17q8 0 32 -10.5t71 -10.5q27 0 58.5 19.5t60 53.5t53 79t39.5 94q-111 283 -195 508q-37 94 -70.5 186t-61.5 165t-44 118t-16 47zM416 1167q0 4 31.5 49.5t70.5 98.5l103 139q14 20 41 21 h143q20 0 20 -21q0 -2 -10 -15.5t-27.5 -34t-40 -46t-45.5 -51.5l-122 -140q-16 -20 -41 -20h-103q-20 0 -20 20z" />
<glyph unicode="&#xfe;" horiz-adv-x="1236" d="M154 -451v1946q0 16 20 21q43 4 80 10q31 4 56.5 7t27.5 3q20 0 20 -20v-615q37 39 84 72q41 27 97.5 49t126.5 22q154 0 247 -41.5t142 -113.5t65.5 -169t16.5 -208t-16.5 -208t-65.5 -169t-142.5 -113.5t-246.5 -41.5q-78 0 -135.5 21.5t-96.5 49.5q-45 31 -76 72v-553 q0 -16 -20 -21q-43 -6 -80 -10q-31 -4 -56.5 -7t-27.5 -3q-20 0 -20 20zM358 512q0 -80 13.5 -147.5t48.5 -116.5t94 -77t152 -28q76 0 127 28t81.5 77t44 116.5t13.5 147.5t-13.5 147.5t-44 116.5t-82 77t-126.5 28q-84 0 -142.5 -26t-94.5 -73t-52.5 -115.5t-18.5 -154.5z " />
<glyph unicode="&#xff;" horiz-adv-x="1028" d="M29 983q0 16 20 21q41 4 74 10q29 4 53.5 7t28.5 3q10 0 18 -6t13 -14l256 -717l20 -144l20 144l256 717q6 20 21 20h174q20 0 21 -20q0 -2 -15.5 -45.5t-42 -113t-59.5 -157.5t-68 -180q-82 -217 -184 -488q-31 -84 -68 -167.5t-86 -151.5t-116.5 -110t-159.5 -42 q-57 0 -92 11q-18 4 -31 10q-20 6 -21 24q0 4 3.5 24t7.5 42q4 25 10 57q4 16 20 17q8 0 32 -10.5t71 -10.5q27 0 58.5 19.5t60 53.5t53 79t39.5 94q-111 283 -195 508q-37 94 -70.5 186t-61.5 165t-44 118t-16 47zM188 1331q0 51 36 87t87 36t87 -36t36 -87t-36 -87 t-87 -36t-87 36t-36 87zM598 1331q0 51 36 87t87 36t87 -36t36 -87t-36 -87t-87 -36t-87 36t-36 87z" />
<glyph unicode="&#x152;" horiz-adv-x="2744" d="M1720 20v1373q0 16 21 20l184 21h655q16 0 21 -21q4 -35 10 -59q4 -23 7 -41.5t3 -22.5q0 -20 -20 -20h-676v-451h615q20 0 20 -20v-123q0 -20 -20 -21h-615v-491h676q20 0 20 -21q0 -4 -3 -23.5t-7 -41.5q-6 -27 -10 -58q-4 -20 -21 -20h-839q-21 0 -21 20zM113 717 q0 154 31.5 288t107.5 233t202 157.5t314 58.5t314 -58.5t202 -157.5t107.5 -233.5t31.5 -287.5q0 -154 -31.5 -288t-107.5 -233.5t-202 -157.5t-314 -58t-314 58t-202 157.5t-107.5 233.5t-31.5 288zM328 717q0 -119 19.5 -223.5t69.5 -182.5t135 -123t216 -45t216 45 t135 123t69.5 182.5t19.5 223.5t-19.5 223t-69.5 182t-135 123t-216 45t-216 -45t-135 -123t-69.5 -182t-19.5 -223z" />
<glyph unicode="&#x153;" horiz-adv-x="2351" d="M1304 512q0 111 20.5 208t78 169t157 113.5t256.5 41.5q215 0 333 -128t118 -404v-61q0 -20 -21 -21h-735q4 -66 22.5 -118t56.5 -90t98.5 -58.5t148.5 -20.5q70 0 131 6.5t108 14.5t76 14t33 6q20 0 20 -20q0 -4 -3 -22.5t-7 -41.5q-6 -27 -10 -59q-4 -18 -21 -21 q-39 -12 -88 -20q-43 -8 -102 -14t-137 -6q-166 0 -269.5 41.5t-162 113.5t-80 169t-21.5 208zM1511 594h551q0 59 -12.5 111.5t-41 91.5t-75.5 61.5t-117 22.5q-88 0 -145 -20.5t-91 -58.5t-49.5 -91.5t-19.5 -116.5zM92 512q0 137 37 238.5t104.5 166t161.5 96t209 31.5 t209 -31.5t161.5 -96t104.5 -166t37 -238.5q0 -139 -37 -239.5t-104.5 -165t-161.5 -96t-209 -31.5t-209 31.5t-161.5 96t-104.5 165t-37 239.5zM297 512q0 -76 13.5 -143.5t48 -117.5t94 -79t151.5 -29t151.5 29t94.5 79t48 117.5t13 143.5t-13 143.5t-48 117.5t-94.5 79 t-151.5 29t-151.5 -29t-94 -79t-48 -117.5t-13.5 -143.5z" />
<glyph unicode="&#x178;" horiz-adv-x="1193" d="M356 1700q0 51 36 87t87 36t87 -36t36 -87t-36 -87t-87 -36t-87 36t-36 87zM766 1700q0 51 36 87t87 36t87 -36t36 -87t-36 -87t-87 -36t-87 36t-36 87zM12 1393q0 16 21 20q43 4 78 10q29 4 55.5 7.5t30.5 3.5q10 0 18 -6.5t12 -14.5l334 -553l35 -123l35 123l327 553 q14 20 31 21h180q20 0 21 -21l-27 -45q-27 -45 -69.5 -114.5t-96 -158.5t-107.5 -178.5t-105.5 -172t-86.5 -140.5v-584q0 -20 -20 -20h-164q-20 0 -20 20v584q-135 219 -242 391q-45 74 -88 144.5t-77 126t-54.5 90.5t-20.5 37z" />
<glyph unicode="&#x2c6;" horiz-adv-x="1114" d="M66 614q0 2 16 37t44 92.5t62.5 129t71.5 145.5q84 174 195 395q10 20 30 21h144q20 0 30 -21q109 -221 195 -395q37 -74 72 -145.5t62.5 -129t44 -92.5t16.5 -37q0 -20 -21 -20h-143q-20 0 -31 20l-276 594l-21 103l-20 -103l-277 -594q-10 -20 -31 -20h-143 q-20 0 -20 20z" />
<glyph unicode="&#x2dc;" horiz-adv-x="1116" d="M221 1208q0 109 56.5 167.5t148.5 58.5q39 0 77 -16.5t74.5 -35t70.5 -35t65 -16.5t56.5 21.5t25.5 60.5q0 20 20 21h82q20 0 21 -21q0 -109 -56.5 -167t-148.5 -58q-39 0 -77 16.5t-75 34.5t-70.5 34.5t-64.5 16.5t-56.5 -21.5t-25.5 -60.5q0 -20 -20 -20h-82 q-21 0 -21 20z" />
<glyph unicode="&#x2000;" horiz-adv-x="972" />
<glyph unicode="&#x2001;" horiz-adv-x="1945" />
<glyph unicode="&#x2002;" horiz-adv-x="972" />
<glyph unicode="&#x2003;" horiz-adv-x="1945" />
<glyph unicode="&#x2004;" horiz-adv-x="647" />
<glyph unicode="&#x2005;" horiz-adv-x="485" />
<glyph unicode="&#x2006;" horiz-adv-x="323" />
<glyph unicode="&#x2007;" horiz-adv-x="323" />
<glyph unicode="&#x2008;" horiz-adv-x="241" />
<glyph unicode="&#x2009;" horiz-adv-x="389" />
<glyph unicode="&#x200a;" horiz-adv-x="106" />
<glyph unicode="&#x2010;" horiz-adv-x="915" d="M172 512q0 4 3 22.5t7 40.5q4 25 11 60q4 20 20 20h512q20 0 20 -20q0 -4 -3 -23.5t-7 -42.5q-6 -27 -10 -57q-4 -20 -20 -20h-512q-21 0 -21 20z" />
<glyph unicode="&#x2011;" horiz-adv-x="915" d="M172 512q0 4 3 22.5t7 40.5q4 25 11 60q4 20 20 20h512q20 0 20 -20q0 -4 -3 -23.5t-7 -42.5q-6 -27 -10 -57q-4 -20 -20 -20h-512q-21 0 -21 20z" />
<glyph unicode="&#x2012;" horiz-adv-x="915" d="M172 512q0 4 3 22.5t7 40.5q4 25 11 60q4 20 20 20h512q20 0 20 -20q0 -4 -3 -23.5t-7 -42.5q-6 -27 -10 -57q-4 -20 -20 -20h-512q-21 0 -21 20z" />
<glyph unicode="&#x2013;" horiz-adv-x="1202" d="M172 512q0 4 3 22.5t7 40.5q4 25 11 60q4 20 20 20h799q20 0 20 -20q0 -4 -3 -23.5t-7 -42.5q-6 -27 -10 -57q-4 -20 -21 -20h-798q-21 0 -21 20z" />
<glyph unicode="&#x2014;" horiz-adv-x="2226" d="M172 512q0 4 3 22.5t7 40.5q4 25 11 60q4 20 20 20h1823q20 0 20 -20q0 -4 -3 -23.5t-7 -42.5q-6 -27 -10 -57q-4 -20 -21 -20h-1822q-21 0 -21 20z" />
<glyph unicode="&#x2018;" horiz-adv-x="499" d="M86 942q0 2 7 22.5t19 54.5l25 77q14 43 31 86q37 102 82 231q6 20 20 21h150q10 0 12 -6.5t2 -14.5q0 -2 -5 -23.5t-14 -55.5t-19.5 -75.5t-22.5 -84.5q-27 -102 -62 -232q-4 -20 -20 -20h-185q-20 0 -20 20z" />
<glyph unicode="&#x2019;" horiz-adv-x="491" d="M92 942q0 2 5 22.5t14.5 54.5t19.5 77t23 86q27 102 61 231q4 20 21 21h184q20 0 20 -21q0 -2 -7 -23l-18 -56q-11 -34 -26.5 -75.5t-30.5 -84.5q-37 -102 -82 -232q-6 -20 -20 -20h-150q-10 0 -12 6t-2 14z" />
<glyph unicode="&#x201c;" horiz-adv-x="909" d="M86 942q0 2 7 22.5t19 54.5l25 77q14 43 31 86q37 102 82 231q6 20 20 21h150q10 0 12 -6.5t2 -14.5q0 -2 -5 -23.5t-14 -55.5t-19.5 -75.5t-22.5 -84.5q-27 -102 -62 -232q-4 -20 -20 -20h-185q-20 0 -20 20zM496 942q0 2 7 22.5t18 54.5l26 77q14 43 31 86 q37 102 81 231q6 20 21 21h149q10 0 12.5 -6.5t2.5 -14.5q0 -2 -5 -23.5t-14.5 -55.5t-19.5 -75.5t-23 -84.5q-27 -102 -61 -232q-4 -20 -21 -20h-184q-20 0 -20 20z" />
<glyph unicode="&#x201d;" horiz-adv-x="901" d="M92 942q0 2 5 22.5t14.5 54.5t19.5 77t23 86q27 102 61 231q4 20 21 21h184q20 0 20 -21q0 -2 -7 -23l-18 -56q-11 -34 -26.5 -75.5t-30.5 -84.5q-37 -102 -82 -232q-6 -20 -20 -20h-150q-10 0 -12 6t-2 14zM502 942q0 2 5 22.5t14 54.5t19.5 77t22.5 86q27 102 62 231 q4 20 20 21h184q20 0 21 -21q0 -2 -7 -23l-19 -56q-11 -34 -26.5 -75.5t-29.5 -84.5q-37 -102 -82 -232q-6 -20 -20 -20h-150q-10 0 -12 6t-2 14z" />
<glyph unicode="&#x201e;" horiz-adv-x="929" d="M43 -246q0 2 5 22.5t14.5 54.5t19.5 77t22 86q27 102 62 231q4 20 20 21h185q20 0 20 -21q0 -2 -7 -23l-18 -56q-11 -34 -26.5 -75.5t-30.5 -84.5q-37 -102 -82 -232q-6 -20 -20 -20h-150q-10 0 -12 6t-2 14zM453 -246q0 2 5 22.5t14 54.5t19.5 77t22.5 86q27 102 61 231 q4 20 21 21h184q20 0 21 -21q0 -2 -7 -23l-19 -56q-11 -34 -26.5 -75.5t-29.5 -84.5q-37 -102 -82 -232q-6 -20 -21 -20h-149q-10 0 -12 6t-2 14z" />
<glyph unicode="&#x2022;" horiz-adv-x="712" d="M111 655q0 51 12 95.5t41 78t76 53t116 19.5q70 0 117 -19.5t76 -53t41 -77.5t12 -96q0 -51 -12 -95t-41 -77.5t-76 -53t-117 -19.5t-116.5 19.5t-75.5 53t-41 77.5t-12 95z" />
<glyph unicode="&#x2026;" horiz-adv-x="1794" d="M119 102q0 51 35.5 87t87.5 36q51 0 87 -35.5t36 -87.5q0 -51 -36 -86.5t-87 -35.5t-87 35.5t-36 86.5zM774 102q0 51 36 87t87 36t87 -35.5t36 -87.5q0 -51 -36 -86.5t-87 -35.5t-87 35.5t-36 86.5zM1430 102q0 51 35.5 87t86.5 36t87 -35.5t36 -87.5q0 -51 -35.5 -86.5 t-87.5 -35.5q-51 0 -86.5 35.5t-35.5 86.5z" />
<glyph unicode="&#x202f;" horiz-adv-x="389" />
<glyph unicode="&#x2039;" horiz-adv-x="638" d="M59 573q0 8 9 21l264 410q12 20 30 20h164q20 0 21 -20q0 -2 -12.5 -21.5t-33 -50.5t-46 -70t-52.5 -78q-63 -94 -143 -211l143 -213q27 -41 52.5 -78.5t46.5 -68.5l33 -49q12 -18 12 -21q0 -20 -21 -20h-164q-18 0 -30 20l-264 410q-9 8 -9 20z" />
<glyph unicode="&#x203a;" horiz-adv-x="638" d="M92 143q0 2 12 21l33 49q20 31 46 68.5t53 78.5l143 213q-80 117 -143 211q-27 39 -52.5 78t-46 70t-33 50t-12.5 22q0 20 21 20h163q18 0 31 -20l264 -410q8 -12 9 -21q0 -12 -9 -20l-264 -410q-12 -20 -31 -20h-163q-21 0 -21 20z" />
<glyph unicode="&#x205f;" horiz-adv-x="485" />
<glyph unicode="&#x20ac;" horiz-adv-x="1417" d="M72 451q0 4 3 22.5t7 40.5q4 25 10 59q4 20 21 21h168q-2 25 -2 47q-2 20 -3 40v36v35q0 20 3 41q0 23 2 47h-189q-20 0 -20 20q0 4 3 22.5t7 41.5q4 25 10 59q4 20 21 21h192q20 86 63.5 167.5t119 144t189.5 100.5t275 38q70 0 133.5 -10t110.5 -21q55 -14 104 -30 q16 -6 21 -21q4 -35 10 -59q4 -23 7 -41.5t3 -22.5q0 -20 -20 -20q-4 0 -36 9t-83 21.5t-115.5 21.5t-134.5 9q-94 0 -163.5 -23.5t-120 -62.5t-83 -91t-53.5 -109h564q20 0 20 -21q0 -4 -3 -23.5t-7 -41.5q-6 -27 -10 -58q-4 -20 -21 -20h-577q-4 -35 -5 -65t-1 -58 q0 -29 1 -59.5t5 -63.5h598q20 0 20 -21q0 -4 -3 -23.5t-7 -41.5q-6 -27 -10 -57q-4 -20 -21 -21h-543q20 -57 53 -109.5t83.5 -91.5t120 -62.5t163.5 -23.5q70 0 131.5 6.5t108.5 14.5t75.5 14t32.5 6q16 0 21 -20q4 -35 10 -60q4 -23 7 -41t3 -22q0 -16 -20 -21 q-51 -12 -109 -20q-51 -8 -116.5 -14t-143.5 -6q-162 0 -275.5 37.5t-189 100t-118.5 143.5t-64 169h-213q-20 1 -20 21z" />
<glyph unicode="&#x2122;" horiz-adv-x="1925" d="M29 1311v82q0 16 20 20l164 21h492q20 0 20 -21q0 -2 -3 -18.5t-7 -34.5q-6 -23 -10 -49q-4 -20 -21 -21h-225v-696q0 -20 -21 -21h-123q-20 0 -20 21v696h-246q-20 1 -20 21zM827 594v799q0 20 21 20l123 21h110q14 0 21 -21l184 -553l21 -143l20 143l184 533 q6 16 21 20l123 21h114q20 0 21 -21v-819q0 -20 -21 -21h-122q-20 0 -21 21v696l-41 -184l-184 -512q-6 -20 -21 -21h-143q-14 0 -20 21l-185 512l-41 184v-696q0 -20 -20 -21h-123q-21 1 -21 21z" />
<glyph unicode="&#xe000;" horiz-adv-x="1025" d="M0 1025h1025v-1025h-1025v1025z" />
<glyph unicode="&#xfb01;" horiz-adv-x="1249" d="M868 1331q0 51 36 87t87 36t87 -36t36 -87t-36 -87t-87 -36t-87 36t-36 87zM889 164v819q0 20 20 21l164 20q20 0 20 -20v-840q0 -61 10.5 -99t10.5 -45q0 -20 -21 -20h-164q-14 0 -20 20q-6 18 -10 41q-10 42 -10 103zM18 881q0 4 3.5 22.5t7.5 40.5q4 25 10 60 q4 20 20 20h205v123q0 84 16.5 158.5t55.5 130t101.5 88t154.5 32.5q31 0 53.5 -3t38.5 -7l31 -10q20 -6 20 -25q0 -4 -3 -23.5t-7 -41.5q-6 -25 -10 -57q-4 -16 -21 -17q-8 0 -31.5 10.5t-70.5 10.5q-72 0 -97.5 -61.5t-25.5 -184.5v-123h225q20 0 21 -20q0 -4 -3 -22.5 t-7 -41.5q-6 -27 -11 -59q-4 -20 -20 -21h-205v-696q0 -31 -3 -57.5t-7 -45.5q-6 -23 -10 -41q-6 -20 -21 -20h-164q-20 0 -20 20q0 6 10 44t10 100v696h-225q-21 1 -21 21z" />
<glyph unicode="&#xfb02;" horiz-adv-x="1253" d="M893 164v1331q0 20 20 21l164 20q20 0 20 -20v-1352q0 -61 10.5 -99t10.5 -45q0 -20 -21 -20h-163q-14 0 -21 20q-6 18 -10 41q-10 42 -10 103zM18 881q0 4 3.5 22.5t7.5 40.5q4 25 10 60q4 20 20 20h205v123q0 84 16.5 158.5t55.5 130t101.5 88t154.5 32.5q31 0 53.5 -3 t38.5 -7l31 -10q20 -6 20 -25q0 -4 -3 -23.5t-7 -41.5q-6 -25 -10 -57q-4 -16 -21 -17q-8 0 -31.5 10.5t-70.5 10.5q-72 0 -97.5 -61.5t-25.5 -184.5v-123h225q20 0 21 -20q0 -4 -3 -22.5t-7 -41.5q-6 -27 -11 -59q-4 -20 -20 -21h-205v-696q0 -31 -3 -57.5t-7 -45.5 q-6 -23 -10 -41q-6 -20 -21 -20h-164q-20 0 -20 20q0 6 10 44t10 100v696h-225q-21 1 -21 21z" />
<glyph unicode="&#xfb03;" horiz-adv-x="1988" d="M1608 1331q0 51 36 87t87 36t87 -36t36 -87t-36 -87t-87 -36t-87 36t-36 87zM1629 164v819q0 20 20 21l164 20q20 0 20 -20v-840q0 -61 10.5 -99t10.5 -45q0 -20 -21 -20h-164q-14 0 -20 20q-6 18 -10 41q-10 42 -10 103zM757 881q0 4 3.5 22.5t7.5 40.5q4 25 10 60 q4 20 20 20h205v123q0 84 16.5 158.5t55.5 130t101.5 88t154.5 32.5q31 0 53.5 -3t38.5 -7l31 -10q20 -6 20 -25q0 -4 -3 -23.5t-7 -41.5q-6 -25 -10 -57q-4 -16 -21 -17q-8 0 -31.5 10.5t-70.5 10.5q-72 0 -97.5 -61.5t-25.5 -184.5v-123h225q20 0 21 -20q0 -4 -3 -22.5 t-7 -41.5q-6 -27 -11 -59q-4 -20 -20 -21h-205v-696q0 -31 -3 -57.5t-7 -45.5q-6 -23 -10 -41q-6 -20 -21 -20h-164q-20 0 -20 20q0 6 10 44t10 100v696h-225q-21 1 -21 21zM18 881q0 4 3.5 22.5t7.5 40.5q4 25 10 60q4 20 20 20h205v123q0 84 16.5 158.5t55.5 130t101.5 88 t154.5 32.5q31 0 53.5 -3t38.5 -7l31 -10q20 -6 20 -25q0 -4 -3 -23.5t-7 -41.5q-6 -25 -10 -57q-4 -16 -21 -17q-8 0 -31.5 10.5t-70.5 10.5q-72 0 -97.5 -61.5t-25.5 -184.5v-123h225q20 0 21 -20q0 -4 -3 -22.5t-7 -41.5q-6 -27 -11 -59q-4 -20 -20 -21h-205v-696 q0 -31 -3 -57.5t-7 -45.5q-6 -23 -10 -41q-6 -20 -21 -20h-164q-20 0 -20 20q0 6 10 44t10 100v696h-225q-21 1 -21 21z" />
<glyph unicode="&#xfb04;" horiz-adv-x="1992" d="M1633 164v1331q0 20 20 21l164 20q20 0 20 -20v-1352q0 -61 10.5 -99t10.5 -45q0 -20 -21 -20h-163q-14 0 -21 20q-6 18 -10 41q-10 42 -10 103zM757 881q0 4 3.5 22.5t7.5 40.5q4 25 10 60q4 20 20 20h205v123q0 84 16.5 158.5t55.5 130t101.5 88t154.5 32.5 q31 0 53.5 -3t38.5 -7l31 -10q20 -6 20 -25q0 -4 -3 -23.5t-7 -41.5q-6 -25 -10 -57q-4 -16 -21 -17q-8 0 -31.5 10.5t-70.5 10.5q-72 0 -97.5 -61.5t-25.5 -184.5v-123h225q20 0 21 -20q0 -4 -3 -22.5t-7 -41.5q-6 -27 -11 -59q-4 -20 -20 -21h-205v-696q0 -31 -3 -57.5 t-7 -45.5q-6 -23 -10 -41q-6 -20 -21 -20h-164q-20 0 -20 20q0 6 10 44t10 100v696h-225q-21 1 -21 21zM18 881q0 4 3.5 22.5t7.5 40.5q4 25 10 60q4 20 20 20h205v123q0 84 16.5 158.5t55.5 130t101.5 88t154.5 32.5q31 0 53.5 -3t38.5 -7l31 -10q20 -6 20 -25 q0 -4 -3 -23.5t-7 -41.5q-6 -25 -10 -57q-4 -16 -21 -17q-8 0 -31.5 10.5t-70.5 10.5q-72 0 -97.5 -61.5t-25.5 -184.5v-123h225q20 0 21 -20q0 -4 -3 -22.5t-7 -41.5q-6 -27 -11 -59q-4 -20 -20 -21h-205v-696q0 -31 -3 -57.5t-7 -45.5q-6 -23 -10 -41q-6 -20 -21 -20h-164 q-20 0 -20 20q0 6 10 44t10 100v696h-225q-21 1 -21 21z" />
</font>
</defs>
</svg>
