<?xml version="1.0" standalone="no"?>
<!DOCTYPE svg PUBLIC "-//W3C//DTD SVG 1.1//EN" "http://www.w3.org/Graphics/SVG/1.1/DTD/svg11.dtd" >
<svg xmlns="http://www.w3.org/2000/svg">
<metadata>
This is a custom SVG webfont generated by Font Squirrel.
Copyright   : Copyright c 2008 by Jan SchmoegerParagraph All rights reserved
</metadata>
<defs>
<font id="MentoneBold" horiz-adv-x="1202" >
<font-face units-per-em="2048" ascent="1536" descent="-512" />
<missing-glyph horiz-adv-x="501" />
<glyph unicode=" "  horiz-adv-x="501" />
<glyph unicode="&#x09;" horiz-adv-x="501" />
<glyph unicode="&#xa0;" horiz-adv-x="501" />
<glyph unicode="!" horiz-adv-x="651" d="M162 143q0 68 48 116t116 48t115.5 -48t47.5 -116t-48 -115.5t-115 -47.5q-68 0 -116 47.5t-48 115.5zM182 430v840q0 57 11 102q4 23 10 41q6 20 20 21h246q20 0 20 -21q0 -6 -10 -44t-10 -99v-819q0 -20 -20 -21l-246 -20q-21 0 -21 20z" />
<glyph unicode="&#x22;" horiz-adv-x="860" d="M104 1393q0 16 21 20q59 4 108 10q41 4 77 7.5t40 3.5q20 0 21 -21l-21 -489q0 -18 -20 -23q-49 -6 -88 -10q-35 -4 -63.5 -7t-33.5 -3q-20 0 -20 20zM494 1393q0 16 20 20q59 4 109 10q41 4 76.5 7.5t39.5 3.5q20 0 21 -21l-21 -489q0 -18 -20 -23q-49 -6 -88 -10 q-35 -4 -63.5 -7t-32.5 -3q-20 0 -21 20z" />
<glyph unicode="#" horiz-adv-x="1464" d="M80 410q0 4 3 31.5t7 62.5q4 39 10 90q4 20 21 20h235l23 205h-217q-20 0 -21 21q0 4 3 31.5t8 62.5q4 39 10 90q4 20 20 20h226l41 349q0 16 20 20q61 4 111 10q41 4 76.5 7.5t37.5 3.5q20 0 21 -21l-45 -369h209l41 349q0 16 20 20q61 4 111 10q41 4 76.5 7.5t37.5 3.5 q20 0 21 -21l-45 -369h229q20 0 21 -20q0 -4 -3.5 -32.5t-7.5 -63.5q-6 -39 -10 -88q-4 -20 -20 -21h-236l-22 -205h217q20 0 20 -20q0 -4 -3 -33t-7 -63q-6 -39 -10 -88q-4 -20 -21 -21h-223l-43 -369q0 -20 -21 -20h-225q-20 0 -20 20l43 369h-205l-43 -369q0 -20 -21 -20 h-225q-20 0 -20 20l43 369h-228q-20 1 -20 21zM621 614h206l23 205h-207z" />
<glyph unicode="$" horiz-adv-x="1187" d="M94 1044q0 80 17.5 148t61.5 120t116.5 87t183.5 47v172q0 16 21 20q61 4 110 11q41 4 77 7t38 3q20 0 20 -21v-190q57 -6 102.5 -15.5t73.5 -19.5q35 -10 60 -20q18 -6 20 -21q4 -57 11 -100q4 -39 7 -70t3 -35q0 -20 -21 -20q-8 0 -37.5 12t-80 27.5t-119 29 t-152.5 13.5q-74 0 -118 -19.5t-67.5 -47t-31.5 -59.5t-8 -59q0 -33 20.5 -61.5t54 -52t78 -43t93.5 -33.5q84 -27 172 -62.5t158.5 -90t115.5 -130t45 -182.5q0 -80 -17.5 -148.5t-61.5 -120.5t-116.5 -86t-183.5 -46v-193q0 -20 -20 -20h-225q-20 0 -21 20v191 q-72 6 -129 18t-98 24.5t-64.5 21.5t-25.5 11q-18 10 -21 21q-6 53 -10 98q-4 37 -7 70t-3 37q0 10 7 15t13 5q8 0 53 -16.5t113 -34.5t147.5 -34.5t157.5 -16.5q74 0 118 19.5t67.5 47t31.5 59t8 58.5q0 33 -20 61.5t-54 52t-78 42t-93 35.5q-84 27 -172 62.5t-159 89.5 t-116 130t-45 182z" />
<glyph unicode="%" horiz-adv-x="1923" d="M70 1044q0 215 99 312.5t269 97.5q84 0 152.5 -23.5t117 -73.5t74 -128t25.5 -185q0 -109 -25.5 -185.5t-74 -126.5t-117 -73.5t-152.5 -23.5q-170 0 -269 97t-99 312zM336 1044q0 -92 20.5 -138t81.5 -46t82 46t21 138t-20.5 138.5t-82.5 46.5q-61 0 -81.5 -46.5 t-20.5 -138.5zM356 20q0 2 38 62.5t100.5 159t142.5 224.5t164 255l446 692q12 20 31 21h235q20 0 21 -21q0 -2 -38 -63.5t-101.5 -159.5t-143.5 -223t-164 -254q-197 -305 -444 -693q-8 -12 -16.5 -16t-14.5 -4h-235q-21 0 -21 20zM1094 389q0 215 99 312.5t269 97.5 q84 0 152.5 -23.5t117 -74t74 -128t25.5 -184.5q0 -109 -25.5 -185.5t-74 -126.5t-117 -73.5t-152.5 -23.5q-170 0 -269 97t-99 312zM1360 389q0 -92 20.5 -138t81.5 -46t82 46t21 138t-20.5 138t-82.5 46q-61 0 -81.5 -46t-20.5 -138z" />
<glyph unicode="&#x26;" horiz-adv-x="1413" d="M90 410q0 135 56.5 228t168.5 159l-6 8q-63 72 -89.5 147.5t-26.5 132.5q0 78 23.5 145.5t74.5 117t133 78t199 28.5q115 0 196.5 -28.5t134 -78t76 -117t23.5 -145.5q0 -76 -28 -132t-74 -98t-104.5 -72.5t-117.5 -55.5l197 -219q27 82 33 121t12 67q4 20 20 21h234 q20 0 20 -21q-2 -43 -12 -93t-27.5 -102t-40 -105.5t-51.5 -98.5q51 -59 95 -109.5t79 -87.5q39 -43 72 -80q0 -20 -21 -20h-303q-8 0 -17 6t-15 14l-66 74l-6 -6q-76 -55 -144.5 -81.5t-164.5 -26.5q-154 0 -256.5 32.5t-164 91t-87 137.5t-25.5 169zM377 410q0 -37 9 -74 t37 -65.5t75 -47t125 -18.5q39 0 68.5 9t51.5 22q25 12 43 30l-309 348q-100 -77 -100 -204zM479 1085q0 -57 28 -100t62 -82q90 31 143.5 73t53.5 109q0 23 -5 48.5t-20.5 47t-44 35t-73.5 13.5q-47 0 -75 -11.5t-43.5 -32t-20.5 -46t-5 -54.5z" />
<glyph unicode="'" horiz-adv-x="471" d="M104 1393q0 16 21 20q59 4 108 10q41 4 77 7.5t40 3.5q20 0 21 -21l-21 -489q0 -18 -20 -23q-49 -6 -88 -10q-35 -4 -63.5 -7t-33.5 -3q-20 0 -20 20z" />
<glyph unicode="(" horiz-adv-x="720" d="M90 655q0 201 51.5 358.5t112.5 270.5q72 129 164 232q16 20 31 20h215q20 0 20 -20q0 -4 -48 -63.5t-105.5 -170.5t-105.5 -269.5t-48 -357.5q0 -201 48 -358.5t105.5 -268t105.5 -170t48 -63.5q0 -20 -20 -20h-215q-16 0 -31 20q-92 98 -164 230q-61 111 -112.5 270 t-51.5 360z" />
<glyph unicode=")" horiz-adv-x="720" d="M37 -205q0 4 48 63.5t105.5 170t105.5 268.5t48 358q0 199 -48 357.5t-105.5 269.5t-105.5 170t-48 64q0 20 20 20h215q16 0 31 -20q92 -102 164 -232q61 -113 112.5 -270.5t51.5 -358.5t-51.5 -360.5t-112.5 -269.5q-72 -131 -164 -230q-14 -20 -31 -20h-215 q-20 0 -20 20z" />
<glyph unicode="*" horiz-adv-x="954" d="M51 1032q0 6 2 10l70 215q6 14 20 15q2 0 30 -10.5t59.5 -22.5t59 -22.5t27.5 -12.5l68 -57l-33 82q-4 49 -6 88q-2 35 -3 63.5t-1 32.5q0 20 21 21h225q20 0 20 -21q0 -4 -2 -32.5t-4 -63.5q-2 -39 -4 -88l-33 -82l68 57q0 2 26.5 12.5t59.5 22.5t60.5 22.5t29.5 10.5 q14 0 20 -15l70 -215q2 -4 2 -10q0 -10 -14 -14q-4 -2 -32 -9.5t-60 -15.5q-37 -10 -86 -22l-88 6l73 -47l115 -142q6 -6 6 -14t-8 -14l-182 -133q-4 -4 -15 -4q-8 0 -14 8q-4 4 -19.5 27.5t-33.5 52.5q-23 33 -47 75l-21 84l-20 -84q-25 -43 -47 -75q-18 -29 -35 -52.5 t-19 -27.5q-6 -8 -14 -8q-10 0 -14 4l-183 133q-8 6 -8 14t6 14l115 142l74 47l-88 -6q-49 12 -86 22q-33 8 -60.5 15.5t-31.5 9.5q-15 4 -15 14z" />
<glyph unicode="+" horiz-adv-x="1136" d="M47 492q0 4 3 31.5t7 62.5q4 39 11 90q4 20 20 20h348v369q0 16 21 20q59 4 108 11q41 4 77 7t40 3q20 0 20 -21v-389h369q20 0 21 -20q0 -4 -3.5 -33t-7.5 -63q-6 -39 -10 -88q-4 -20 -20 -21h-349v-369q0 -16 -20 -20q-61 -6 -111 -10q-41 -4 -75.5 -7.5t-38.5 -3.5 q-20 0 -21 21v389h-368q-21 1 -21 21z" />
<glyph unicode="," horiz-adv-x="585" d="M33 -266q0 2 5 22.5t14 54t19.5 76.5t22.5 86q27 102 62 232q4 20 20 20h266q20 0 21 -20q0 -2 -7 -24l-19 -55q-11 -34 -26.5 -76t-29.5 -85q-37 -102 -82 -231q-6 -20 -20 -21h-232q-10 0 -12 6.5t-2 14.5z" />
<glyph unicode="-" horiz-adv-x="874" d="M152 492q0 4 3 31.5t7 62.5q4 39 10 90q4 20 21 20h512q20 0 20 -20q0 -4 -3 -33t-7 -63q-6 -39 -10 -88q-4 -20 -21 -21h-512q-20 1 -20 21z" />
<glyph unicode="." horiz-adv-x="534" d="M104 143q0 68 47.5 116t116.5 48q68 0 116 -48t48 -116q0 -70 -48 -116.5t-116 -46.5q-70 0 -117 46.5t-47 116.5z" />
<glyph unicode="/" horiz-adv-x="804" d="M61 20q0 2 18.5 62.5t48.5 159t69 224.5t79 255q94 305 216 692q6 20 20 21h236q20 0 20 -21q0 -2 -18.5 -63.5t-49 -159.5t-69.5 -223t-78 -254q-96 -305 -215 -693q-6 -20 -21 -20h-235q-21 0 -21 20z" />
<glyph unicode="0" horiz-adv-x="1331" d="M113 717q0 154 20.5 288t79.5 233t167.5 157.5t285.5 58.5q176 0 284.5 -58.5t168 -157.5t80 -233.5t20.5 -287.5q0 -154 -20.5 -288t-80 -233.5t-168 -157.5t-284.5 -58t-285 58t-168 157.5t-79.5 233.5t-20.5 288zM399 717q0 -96 10.5 -188.5t39 -164t81 -115.5 t136.5 -44t136 44t80.5 115.5t39 164t10.5 188.5t-10.5 188t-39 164t-80.5 116t-136 44t-136.5 -44t-81 -116t-39 -164t-10.5 -188z" />
<glyph unicode="1" horiz-adv-x="847" d="M35 1178q0 10 8 14l360 221q68 4 121 10q47 4 85 7.5t40 3.5q20 0 21 -21v-1393q0 -20 -21 -20h-246q-20 0 -20 20v1188l-41 -123l-238 -149q-8 -4 -12 -4q-12 0 -16 10l-21 115q-8 43 -14 80t-6 41z" />
<glyph unicode="2" horiz-adv-x="1130" d="M117 20v205q0 145 45 244.5t113.5 168.5t148.5 116t148.5 90t113.5 88t45 112q0 37 -9 70t-37 58.5t-76 41t-124 15.5q-61 0 -120.5 -13.5t-107.5 -29t-80 -27.5t-40 -12q-20 0 -20 20q0 4 3 35t7 70q4 43 10 100q4 14 21 21q43 16 96 30q45 10 104.5 20.5t126.5 10.5 q168 0 271.5 -28.5t162 -81t79 -129t20.5 -171.5q0 -115 -45 -191.5t-113.5 -133.5t-148.5 -103.5t-148.5 -98.5t-114 -120.5t-45.5 -171.5h594q20 0 21 -20q0 -4 -3 -33t-7 -63q-6 -39 -11 -89q-4 -20 -20 -20h-840q-20 0 -20 20z" />
<glyph unicode="3" horiz-adv-x="1136" d="M92 41q0 4 3 34.5t7 69.5q4 43 11 101q4 20 20 20q8 0 46 -9t90.5 -21.5t108.5 -21.5t103 -9q76 0 124 18.5t76 47t37 65.5t9 74q0 33 -16.5 70.5t-52 70.5t-90 53.5t-128.5 20.5h-164q-20 0 -20 20v164q0 16 20 20l205 21q123 12 184.5 71.5t61.5 122.5q0 37 -9 70 t-36 58.5t-75 41t-126 15.5q-61 0 -120.5 -13.5t-107.5 -29t-80 -27.5t-40 -12q-20 0 -20 20q0 4 3 35t7 70q4 43 10 100q4 14 21 21q45 16 98 30q45 10 104.5 20.5t124.5 10.5q168 0 272.5 -29.5t163 -83t78 -129t19.5 -168.5q0 -92 -41 -176t-133 -125q45 -18 78.5 -52 t54 -79t31 -97t10.5 -105q0 -92 -19.5 -171t-78 -136.5t-163 -90t-272.5 -32.5q-66 0 -131 6t-119 14q-61 8 -118 20q-21 5 -21 21z" />
<glyph unicode="4" horiz-adv-x="1312" d="M51 348v205l574 840q10 16 30 20l164 21h205q20 0 20 -21v-860h185q20 0 20 -21q0 -4 -3 -32.5t-7 -63.5q-6 -39 -10 -88q-4 -20 -21 -20h-164v-308q0 -20 -20 -20h-246q-20 0 -20 20v308h-686q-21 0 -21 20zM287 553h471v655l-41 -123l-328 -491z" />
<glyph unicode="5" horiz-adv-x="1159" d="M125 266q0 20 20 21q8 0 40 -13.5t78 -29t101.5 -27.5t108.5 -12q162 0 234.5 51t72.5 174q0 53 -22.5 90t-62.5 60.5t-96 34t-126 10.5h-307q-16 0 -21 20v748q0 16 21 20l184 21h615q16 0 20 -21q4 -51 10 -90q4 -35 7.5 -62.5t3.5 -31.5q0 -20 -21 -21h-553v-358h41 q160 0 273.5 -19.5t184 -67.5t103.5 -129t33 -204q0 -117 -29.5 -202t-99.5 -140t-183.5 -81.5t-281.5 -26.5q-61 0 -116.5 9t-98.5 21q-51 12 -92 31q-16 6 -21 20q-6 53 -10 99q-4 37 -7 69.5t-3 36.5z" />
<glyph unicode="6" horiz-adv-x="1193" d="M117 717q0 150 17.5 284t72.5 235t160.5 159.5t281.5 58.5q66 0 128.5 -10t111.5 -21q57 -14 108 -30q16 -6 21 -21q4 -57 10 -100q4 -39 7 -70t3 -35q0 -20 -20 -20q-8 0 -41 12t-82 27.5t-112.5 29t-133.5 13.5q-78 0 -125 -32t-74.5 -86t-37 -125t-9.5 -146 q29 12 66 20q31 8 72 14.5t88 6.5q139 0 230 -37t144.5 -98.5t75 -143.5t21.5 -172t-21.5 -172t-75 -143.5t-144.5 -98t-230 -36.5q-176 0 -278.5 59t-155 159.5t-65.5 234.5t-13 284zM403 614q0 -100 9.5 -176t34 -128t68.5 -78.5t114 -26.5q53 0 89 20.5t57.5 53 t29.5 72.5t8 79t-9 79t-30.5 72.5t-57.5 53t-87 20.5q-53 0 -95 -6t-71 -14q-35 -9 -60 -21z" />
<glyph unicode="7" horiz-adv-x="1036" d="M57 1229v164q0 16 21 20l184 21h717q20 0 20 -21v-205l-553 -1188q-6 -20 -20 -20h-266q-20 0 -21 20l24 51q24 50 62.5 131t87.5 183t103 211q121 252 276 571l103 41h-717q-21 1 -21 21z" />
<glyph unicode="8" horiz-adv-x="1275" d="M104 389q0 68 17.5 121t48.5 94t72 73t88 56q-80 49 -132.5 122t-52.5 189q0 90 22.5 166t78 130.5t151 84t240.5 29.5t240.5 -29.5t150.5 -84t77.5 -130t22.5 -166.5q0 -109 -50 -177t-126 -115q92 -53 154.5 -139.5t62.5 -223.5q0 -90 -26.5 -166t-88 -130t-164 -83.5 t-253.5 -29.5q-152 0 -254 29.5t-163.5 83.5t-88.5 130t-27 166zM391 389q0 -27 8.5 -58.5t34 -59t74.5 -47t129 -19.5t129 19.5t74.5 47t34 59t8.5 58.5q0 43 -21.5 76t-57.5 58.5t-84 46t-102 40.5q-96 -39 -161.5 -88t-65.5 -133zM432 1044q0 -33 19.5 -58t53.5 -44.5 t79 -37t96 -36.5q72 29 117 70t45 106q0 27 -5.5 59t-24.5 59.5t-60 47t-115 19.5t-115 -19.5t-60.5 -47t-24.5 -59.5t-5 -59z" />
<glyph unicode="9" horiz-adv-x="1193" d="M94 1004q0 90 21.5 171.5t75 143t144.5 98.5t230 37q176 0 278.5 -59.5t155 -159.5t65.5 -234.5t13 -283.5q0 -152 -17.5 -285t-72.5 -234.5t-160.5 -159.5t-281.5 -58q-66 0 -128.5 9t-111.5 21q-57 12 -108 31q-16 6 -21 20q-6 53 -10 99q-4 37 -7 69.5t-3 36.5 q0 20 20 21q8 0 41 -13.5t82 -29t112.5 -27.5t133.5 -12q76 0 124 31.5t75.5 86t37 124t9.5 147.5q-31 -12 -68 -21q-31 -8 -71 -14t-87 -6q-139 0 -230 37t-144.5 98.5t-75 143.5t-21.5 172zM381 1004q0 -39 9 -79t30.5 -73t56.5 -53.5t88 -20.5t95 6.5t71 14.5q35 8 60 20 q0 100 -9.5 176t-34 128.5t-68.5 79t-114 26.5q-53 0 -89 -20.5t-57.5 -53.5t-29.5 -72.5t-8 -78.5z" />
<glyph unicode=":" horiz-adv-x="598" d="M135 143q0 68 48 116t116 48t116 -48t48 -116t-48 -115.5t-116 -47.5t-116 47.5t-48 115.5zM135 881q0 68 48 115.5t116 47.5t116 -48t48 -115q0 -68 -48 -116t-116 -48t-116 48t-48 116z" />
<glyph unicode=";" horiz-adv-x="634" d="M45 -266q0 2 5 22.5t14.5 54t19.5 76.5t22 86q27 102 62 232q4 20 20 20h267q20 0 20 -20q0 -2 -7 -24l-18 -55q-11 -34 -26.5 -76t-30.5 -85q-37 -102 -82 -231q-6 -20 -20 -21h-232q-10 0 -12 6.5t-2 14.5zM168 881q0 68 48 115.5t116 47.5t116 -48t48 -115 q0 -68 -48.5 -116t-115.5 -48q-68 0 -116 48t-48 116z" />
<glyph unicode="&#x3c;" horiz-adv-x="1148" d="M45 430v164q0 12 21 20q266 119 477 215q90 39 176 78t154.5 70t110.5 49t44 18q20 0 21 -20v-225q0 -10 -21 -21l-573 -246l-123 -20l123 -20l573 -246q20 -10 21 -21v-225q0 -20 -21 -20q-2 0 -44 18t-110.5 48t-154.5 69t-176 80q-211 94 -477 215q-21 8 -21 20z" />
<glyph unicode="=" horiz-adv-x="1353" d="M156 266q0 4 3 32t7 62q4 39 10 91q4 20 21 20h983q20 0 20 -20q0 -4 -3 -33t-7 -64q-6 -39 -10 -88q-4 -20 -21 -20h-983q-20 0 -20 20zM156 717q0 4 3 31.5t7 62.5q4 39 10 90q4 20 21 21h983q20 0 20 -21q0 -4 -3 -32.5t-7 -63.5q-6 -39 -10 -88q-4 -20 -21 -21h-983 q-20 1 -20 21z" />
<glyph unicode="&#x3e;" horiz-adv-x="1148" d="M100 0v225q0 10 21 21l573 246l123 20l-123 20l-573 246q-20 10 -21 21v225q0 20 21 20q2 0 44 -18t109.5 -49t153.5 -70t176 -78q211 -96 479 -215q20 -8 21 -20v-164q0 -12 -21 -20q-268 -121 -479 -215q-90 -41 -176 -80t-153.5 -69t-109.5 -48t-44 -18q-21 0 -21 20z " />
<glyph unicode="?" horiz-adv-x="1015" d="M51 1167q0 4 3 35t7 70q4 43 11 100q4 14 20 21q45 16 103 30q49 10 116.5 20.5t149.5 10.5q154 0 250 -31.5t149 -87t72.5 -130.5t19.5 -161q0 -70 -25.5 -121t-64.5 -93t-84 -79.5t-84 -80.5t-64.5 -95.5t-25.5 -123.5q0 -20 -20 -21l-246 -20q-20 0 -21 20 q0 96 26 167t64.5 124t84 93t84 76t64.5 71.5t26 82.5q0 37 -7.5 70t-30 58.5t-62.5 41t-105 15.5q-70 0 -136.5 -13.5t-119.5 -29t-89 -27.5t-44 -12q-21 0 -21 20zM297 143q0 68 48 116t116 48t116 -48t48 -116t-48.5 -115.5t-115.5 -47.5q-68 0 -116 47.5t-48 115.5z" />
<glyph unicode="@" horiz-adv-x="1665" d="M100 717q0 154 32 288t115 233t225 157.5t366 58.5q154 0 268.5 -26.5t196 -73.5t134 -109.5t83 -133.5t43 -145.5t12.5 -146.5q0 -123 -45 -215t-119 -153.5t-165 -92t-183 -30.5h-184q-115 0 -191 28.5t-120 80.5t-61.5 124t-17.5 156t17.5 155.5t61.5 124t120 81 t191 28.5h82l163 -21q20 -4 21 -20v-533q51 8 92 43q35 29 63.5 86.5t28.5 157.5q0 70 -16.5 146.5t-65.5 139t-142 103.5t-247 41q-139 0 -236.5 -36.5t-159 -106.5t-89 -168t-27.5 -221q0 -115 28.5 -213t94.5 -169t171 -111t259 -40q131 0 232.5 12.5t171 28t107.5 28.5 t42 13q20 0 21 -20q0 -4 -3.5 -33t-7.5 -63q-6 -39 -10 -89q-4 -14 -20 -20q-53 -18 -129 -31q-66 -12 -165.5 -21t-238.5 -9q-231 0 -385 58t-246 157.5t-130 233.5t-38 288zM735 717q0 -39 5 -73t20.5 -58.5t43 -39t75.5 -14.5h41v369h-41q-47 0 -75 -14.5t-43.5 -39 t-20.5 -58t-5 -72.5z" />
<glyph unicode="A" horiz-adv-x="1404" d="M4 20q0 2 22.5 61.5t59.5 156t84 219.5t96 252l262 684q6 16 21 20l174 21h123q12 0 20 -21q150 -389 267 -694q49 -131 97 -256t86 -222.5t60.5 -157.5t22.5 -63q0 -20 -21 -20h-258q-14 0 -20 20l-137 379h-527l-135 -379q-6 -20 -20 -20h-256q-21 0 -21 20zM518 625 h365l-158 440l-25 143l-22 -143z" />
<glyph unicode="B" horiz-adv-x="1333" d="M178 20v1373q0 16 21 20l184 21h266q176 0 281.5 -30t161 -83t73 -129t17.5 -168q0 -104 -43 -173t-121 -114q88 -47 146.5 -121.5t58.5 -185.5q0 -92 -17.5 -171t-77 -136t-173 -90t-306.5 -33h-450q-21 0 -21 20zM465 225h184q94 0 150.5 17.5t87.5 46t40 65.5t9 76 q0 35 -9 70t-40 62.5t-87.5 45t-150.5 17.5h-184v-400zM465 850h184q80 0 128 14.5t74 38t35 55t9 66.5t-9 67.5t-35 59.5t-74 42t-128 15h-184v-358z" />
<glyph unicode="C" horiz-adv-x="1275" d="M109 717q0 74 7 156.5t30.5 164.5t68.5 158t120 133t185.5 91t263.5 34q68 0 130.5 -10t111.5 -21q55 -14 107 -30q16 -6 20 -21q4 -57 10 -100q4 -39 7.5 -70t3.5 -35q0 -20 -21 -20q-8 0 -43 12t-87 27.5t-114.5 29t-124.5 13.5q-123 0 -197.5 -52.5t-114.5 -130 t-53 -166.5t-13 -163t13 -163t53 -167t115 -130t197 -52q61 0 121 9t108 21.5t79.5 21.5t40.5 9q16 0 20 -20q4 -57 10 -101q4 -39 7.5 -69.5t3.5 -34.5q0 -16 -21 -21q-4 0 -35 -7t-80 -14t-114.5 -13t-139.5 -6q-154 0 -264 33.5t-185 91t-120 133t-68.5 157.5t-30.5 165 t-7 157z" />
<glyph unicode="D" horiz-adv-x="1431" d="M178 20v1373q0 16 21 20l184 21h266q154 0 263.5 -33t185.5 -88.5t120 -127t68.5 -151.5t31.5 -161.5t7 -155.5t-7 -156t-31.5 -162t-68.5 -151.5t-120 -126.5t-185.5 -88t-263.5 -33h-450q-21 0 -21 20zM465 225h184q123 0 198 51.5t114.5 126t53 159.5t13.5 155 t-13.5 154.5t-53 159.5t-114.5 126t-198 51h-184v-983z" />
<glyph unicode="E" horiz-adv-x="1236" d="M178 20v1373q0 16 21 20l204 21h676q16 0 21 -21q4 -51 10 -90q4 -35 7 -62.5t3 -31.5q0 -20 -20 -21h-635v-358h573q20 0 21 -21v-184q0 -20 -21 -20h-573v-400h635q20 0 20 -20q0 -4 -3 -33t-7 -63q-6 -39 -10 -89q-4 -20 -21 -20h-880q-21 0 -21 20z" />
<glyph unicode="F" horiz-adv-x="1187" d="M178 20v1373q0 16 21 20l204 21h676q16 0 21 -21q4 -51 10 -90q4 -35 7 -62.5t3 -31.5q0 -20 -20 -21h-635v-358h573q20 0 21 -21v-184q0 -20 -21 -20h-573v-605q0 -20 -21 -20h-245q-21 0 -21 20z" />
<glyph unicode="G" horiz-adv-x="1396" d="M109 717q0 74 7 156.5t30.5 164.5t68.5 158t120 133t185.5 91t263.5 34q68 0 133.5 -10t118.5 -21q61 -14 117 -30q16 -6 21 -21q4 -57 10 -100q4 -39 7 -70t3 -35q0 -20 -20 -20q-8 0 -47.5 12t-94.5 27.5t-120.5 29t-127.5 13.5q-123 0 -197.5 -52.5t-114.5 -130 t-53 -166.5t-13 -163t13 -163t53 -167t115 -130t197 -52q39 0 76 4t66 10q35 8 63 17v389h-307q-20 0 -20 20q0 4 3 32t7 62q4 39 10 90q4 20 20 21h553q20 0 21 -21v-768q0 -14 -21 -20q-55 -18 -125 -31q-59 -12 -147 -21t-199 -9q-154 0 -263 33.5t-185 91t-120 133 t-68.5 157.5t-31.5 165t-7 157z" />
<glyph unicode="H" horiz-adv-x="1462" d="M178 20v1373q0 16 21 20q66 4 118 10q45 4 84 7.5t43 3.5q20 0 21 -21v-563h532v543q0 20 21 20l246 21q20 0 20 -21v-1393q0 -20 -20 -20h-246q-20 0 -21 20v605h-532v-605q0 -20 -21 -20h-245q-21 0 -21 20z" />
<glyph unicode="I" horiz-adv-x="643" d="M178 20v1373q0 16 21 20q68 4 120 10q47 4 85 7.5t40 3.5q20 0 21 -21v-1393q0 -20 -21 -20h-245q-21 0 -21 20z" />
<glyph unicode="J" horiz-adv-x="768" d="M29 25q0 4 3 36.5t7 69.5q4 43 10 98q4 16 21 17q16 0 56 -20.5t87 -20.5q41 0 71.5 34.5t30.5 108.5v1045q0 20 21 20l246 21q20 0 20 -21v-1044q0 -84 -26.5 -156t-75.5 -124t-122 -80.5t-165 -28.5q-61 0 -113 10q-27 4 -51 10q-20 7 -20 25z" />
<glyph unicode="K" horiz-adv-x="1341" d="M178 20v1373q0 20 21 20l245 21q20 0 21 -21v-573l41 102l430 471q25 20 41 21h307q20 0 21 -21q0 -8 -7 -14l-639 -662q190 -197 342 -352q63 -66 126 -130.5t111 -115.5t78 -83.5t30 -35.5q0 -20 -21 -20h-315q-16 0 -25.5 6t-15.5 14l-463 492l-41 102v-594 q0 -20 -21 -20h-245q-21 0 -21 20z" />
<glyph unicode="L" horiz-adv-x="1114" d="M178 20v1373q0 20 21 20l245 21q20 0 21 -21v-1188h614q20 0 21 -20q0 -4 -3 -33t-7 -63q-6 -39 -11 -89q-4 -20 -20 -20h-860q-21 0 -21 20z" />
<glyph unicode="M" horiz-adv-x="1994" d="M178 20v1373q0 20 21 20l163 21h246q14 0 21 -21l348 -983l20 -164l21 164l348 963q6 16 20 20l216 21h194q20 0 21 -21v-1393q0 -20 -21 -20h-246q-20 0 -20 20v1127l-41 -184l-328 -943q-6 -20 -20 -20h-287q-14 0 -20 20l-328 943l-41 184v-1127q0 -20 -21 -20h-245 q-21 0 -21 20z" />
<glyph unicode="N" horiz-adv-x="1564" d="M178 20v1373q0 16 21 20l163 21h226q10 0 20 -21l451 -962l41 -164v1106q0 16 20 20l246 21q20 0 20 -21v-1393q0 -20 -20 -20h-389q-10 0 -21 20l-450 963l-41 164v-1127q0 -20 -21 -20h-245q-21 0 -21 20z" />
<glyph unicode="O" horiz-adv-x="1519" d="M104 717q0 154 32 288t107.5 233t201.5 157.5t315 58.5q188 0 314 -58.5t202 -157.5t107.5 -233.5t31.5 -287.5q0 -154 -31.5 -288t-107.5 -233.5t-202 -157.5t-314 -58t-314.5 58t-202 157.5t-107.5 233.5t-32 288zM401 717q0 -100 15.5 -192.5t56.5 -163t109.5 -113.5 t177.5 -43q106 0 176 43t110.5 113.5t56 162.5t15.5 193q0 100 -15.5 192t-56 163t-110.5 114t-176 43q-109 0 -177.5 -43t-109.5 -114t-56.5 -163t-15.5 -192z" />
<glyph unicode="P" horiz-adv-x="1241" d="M178 20v1373q0 16 21 20l163 21h287q176 0 281.5 -39t161 -101.5t73 -141.5t17.5 -159t-17.5 -162.5t-73 -148.5t-161 -108t-281.5 -42h-184v-512q0 -20 -21 -20h-245q-21 0 -21 20zM465 758h184q86 0 135.5 24.5t74 60.5t30.5 77t6 73q0 33 -6 71t-30.5 69.5t-74 53 t-135.5 21.5h-184v-450z" />
<glyph unicode="Q" horiz-adv-x="1521" d="M104 717q0 154 32 288t107.5 233t201.5 157.5t315 58.5q188 0 314 -58.5t202 -157.5t107.5 -233.5t31.5 -287.5q0 -104 -14.5 -200.5t-47 -180.5t-86 -151.5t-128.5 -114.5q16 -20 42.5 -51t56.5 -65t59.5 -70t53 -63.5t39 -46t15.5 -20.5q0 -20 -21 -20h-286 q-16 0 -25.5 6t-15.5 14l-187 232q-53 -6 -110 -6q-188 0 -314.5 58t-202 157.5t-107.5 233.5t-32 288zM401 717q0 -100 15.5 -192.5t56.5 -163t109.5 -113.5t177.5 -43q106 0 176 43t110.5 113.5t56 162.5t15.5 193q0 100 -15.5 192t-56 163t-110.5 114t-176 43 q-109 0 -177.5 -43t-109.5 -114t-56.5 -163t-15.5 -192z" />
<glyph unicode="R" horiz-adv-x="1327" d="M178 20v1373q0 16 21 20l163 21h287q176 0 281.5 -34t161 -90.5t73 -131t17.5 -154.5q0 -59 -8.5 -114.5t-33 -103.5t-69.5 -87t-119 -64q37 -39 68 -83t45 -80q49 -127 88 -228q16 -43 32.5 -85t28.5 -76l21 -56q8 -23 8 -27q0 -20 -20 -20h-267q-14 0 -20 20l-174 451 q-6 18 -21.5 43t-38 47.5t-51 37.5t-63.5 15h-123v-594q0 -20 -21 -20h-245q-21 0 -21 20zM465 840h164q86 0 138 14t81 39t38 58.5t9 72.5t-9 72.5t-38 58.5t-81 39t-138 14h-164v-368z" />
<glyph unicode="S" horiz-adv-x="1204" d="M102 1044q0 90 24 166t82 130.5t156.5 84t249.5 29.5q92 0 160 -10t115 -21q53 -14 94 -30q18 -6 21 -21q4 -57 10 -100q4 -39 7 -70t3 -35q0 -20 -20 -20q-8 0 -38 12t-80 27.5t-119 29t-153 13.5q-74 0 -117.5 -19.5t-67 -47t-32 -59.5t-8.5 -59q0 -33 20.5 -61.5 t54.5 -52t78 -43t93 -33.5q84 -27 172 -62.5t158.5 -90t115.5 -130t45 -182.5q0 -90 -23.5 -166t-81.5 -130t-156.5 -83.5t-250.5 -29.5q-100 0 -181 12t-139 26.5t-92 27.5t-38 15q-18 10 -21 21q-6 53 -10 98q-4 37 -7 70t-3 37q0 10 7 15t13 5q8 0 53.5 -16.5t113 -34.5 t147.5 -34.5t157 -16.5q74 0 118 19.5t67.5 47t32 59t8.5 58.5q0 33 -20.5 61.5t-54.5 52t-78 42t-93 35.5q-84 27 -172 62.5t-158.5 89.5t-116 130t-45.5 182z" />
<glyph unicode="T" horiz-adv-x="1146" d="M27 1208v185q0 16 20 20l164 21h901q20 0 21 -21q0 -2 -3.5 -33.5t-7.5 -70.5q-6 -45 -10 -101q-4 -20 -20 -20h-369v-1168q0 -20 -21 -20h-245q-20 0 -21 20v1168h-389q-20 0 -20 20z" />
<glyph unicode="U" horiz-adv-x="1433" d="M164 532v861q0 20 20 20l246 21q20 0 21 -21v-860q0 -74 9 -138.5t37.5 -110.5t81 -72.5t138.5 -26.5t138 26.5t81 72.5t38 110.5t9 138.5v840q0 20 21 20l245 21q20 0 21 -21v-881q0 -154 -38 -259t-108.5 -170.5t-173 -94t-233.5 -28.5t-233.5 28.5t-173 94 t-108.5 170.5t-38 259z" />
<glyph unicode="V" horiz-adv-x="1366" d="M8 1393q0 16 21 20q72 4 127 10q47 4 89 7.5t46 3.5q16 0 22 -21l351 -1044l20 -144l21 144l339 1044q6 20 21 21h274q20 0 21 -21q0 -2 -22.5 -62.5t-58.5 -158.5t-82 -224t-93 -255q-113 -307 -256 -693q-6 -20 -21 -20h-286q-14 0 -21 20q-143 381 -256 682 q-49 129 -95 252t-82 220.5t-57.5 157t-21.5 61.5z" />
<glyph unicode="W" horiz-adv-x="2283" d="M20 1393q0 16 21 20q72 4 129 10q49 4 90 7.5t45 3.5q14 0 21 -21l288 -1003l21 -144l20 144l299 983q6 16 21 20l174 21h160q12 0 20 -21l289 -1003l20 -144l21 144l299 1003q6 20 20 21h275q20 0 20 -21q0 -2 -20.5 -62.5t-53 -158.5t-75.5 -224t-86 -255 q-104 -307 -236 -693q-6 -20 -20 -20h-287q-14 0 -20 20l-308 1004l-20 143l-21 -143l-327 -1004q-6 -20 -21 -20h-286q-14 0 -21 20q-127 381 -225 682q-43 129 -83 252t-72 220.5t-51.5 157t-19.5 61.5z" />
<glyph unicode="X" horiz-adv-x="1347" d="M37 20l20 32q20 32 54 82t77 115l88 132l242 356l-221 324q-41 61 -81 119.5t-70.5 104.5t-49 76t-18.5 32q0 16 20 20q72 4 129 10q49 4 90 7.5t45 3.5q8 0 17.5 -6.5t13.5 -14.5l248 -389l31 -133l30 133l248 389q14 20 31 21h285q20 0 20 -21q0 -2 -20.5 -31.5 t-52 -77t-73.5 -107.5t-85 -124l-230 -336q133 -199 240 -356q45 -68 89 -132.5t78 -114.5t54 -82l21 -32q0 -20 -21 -20h-285q-8 0 -17 6t-13 14l-269 431l-30 133l-31 -133l-268 -431q-4 -8 -13.5 -14t-17.5 -6h-285q-20 0 -20 20z" />
<glyph unicode="Y" horiz-adv-x="1257" d="M2 1393q0 16 21 20q72 4 127 10q47 4 88 7.5t45 3.5q10 0 18 -6.5t12 -14.5l293 -532l21 -123l20 123l293 532q10 20 31 21h270q20 0 21 -21l-27 -45q-27 -45 -70 -114.5t-96 -158.5t-107.5 -178.5t-105.5 -172t-86 -140.5v-584q0 -20 -20 -20h-246q-20 0 -21 20v584 q-135 219 -241 391q-45 74 -88 144.5t-77 126t-54.5 90.5t-20.5 37z" />
<glyph unicode="Z" horiz-adv-x="1210" d="M94 20v205q0 4 5 10.5t24.5 32t61.5 79.5t115 157.5t182.5 264.5t267.5 398l122 41h-737q-20 0 -20 21v164q0 16 20 20l180 21h762q20 0 21 -21v-205q0 -6 -5.5 -13t-25.5 -33.5t-61 -83t-114 -160t-182.5 -262t-267.5 -390.5l-123 -41h779q20 0 20 -20l-20 -185 q-4 -20 -21 -20h-962q-21 0 -21 20z" />
<glyph unicode="[" horiz-adv-x="712" d="M147 -205v1700q0 16 21 21l164 20h286q16 0 21 -20q4 -45 10 -80q4 -31 7 -55.5t3 -28.5q0 -20 -20 -21h-225v-1351h225q20 0 20 -21q0 -4 -3 -30.5t-7 -55.5q-6 -37 -10 -78q-4 -20 -21 -20h-450q-21 0 -21 20z" />
<glyph unicode="\" horiz-adv-x="802" d="M37 1413q0 20 20 21h236q14 0 20 -21q119 -387 215 -692q39 -129 78 -255t70 -224.5t49 -158.5t18 -63q0 -20 -20 -20h-236q-14 0 -20 20q-121 387 -215 693q-41 129 -80 254t-68.5 223t-48 159.5t-18.5 63.5z" />
<glyph unicode="]" horiz-adv-x="712" d="M53 -41q0 20 21 21h225v1351h-225q-20 0 -21 21q0 4 3 28.5t7 55.5q4 35 11 80q4 20 20 20h287l164 -20q20 -4 20 -21v-1700q0 -20 -20 -20h-451q-16 0 -20 20q-6 41 -11 78q-4 29 -7 55.5t-3 30.5z" />
<glyph unicode="^" horiz-adv-x="1097" d="M16 614q0 2 18.5 37t48.5 92.5t68.5 129t79.5 145.5q94 174 215 395q10 20 31 21h144q20 0 30 -21q119 -221 215 -395q39 -74 78 -145.5t69.5 -129t49 -92.5t18.5 -37q0 -20 -20 -20h-225q-20 0 -31 20l-236 471l-20 103l-21 -103l-235 -471q-10 -20 -31 -20h-225 q-21 0 -21 20z" />
<glyph unicode="_" horiz-adv-x="1097" d="M37 -143h1024v-226h-1024v226z" />
<glyph unicode="`" horiz-adv-x="1099" d="M266 1454q0 20 21 21h225q27 0 41 -21l102 -139q39 -53 71 -98.5t32 -49.5q0 -20 -21 -20h-184q-25 0 -41 20l-123 140q-23 27 -45 52t-39.5 45.5t-28 34t-10.5 15.5z" />
<glyph unicode="a" horiz-adv-x="1112" d="M76 317q0 162 112.5 240t296.5 78q39 0 76 -3t66 -7q35 -6 63 -11v82q0 43 -36 83t-128 40q-61 0 -124.5 -16.5t-116 -34.5t-88 -34.5t-39.5 -16.5q-20 0 -21 20q0 2 3 34t7 71q4 45 11 100q4 14 20 21q2 2 34 14t81 27.5t110.5 27.5t122.5 12q100 0 183.5 -22.5 t142.5 -64.5t92 -103t33 -137v-533q0 -78 10 -116.5t10 -47.5q0 -20 -20 -20h-246q-6 0 -12 5t-8 15l-11 82q-23 -35 -59 -61q-31 -23 -79 -42t-118 -19q-49 0 -113.5 14t-120.5 51t-95 102.5t-39 169.5zM362 317q0 -47 27 -79.5t96 -32.5q61 0 101.5 12t63 37t31.5 63.5 t9 92.5v20h-205q-70 0 -96.5 -33t-26.5 -80z" />
<glyph unicode="b" horiz-adv-x="1222" d="M127 20q0 10 10 48t10 116v1311q0 16 21 21q66 4 119 10q45 4 84 7t43 3q20 0 20 -20v-574q25 29 60 51q29 18 70.5 34.5t94.5 16.5q154 0 247 -41.5t143.5 -114.5t65.5 -169t15 -207t-15 -207t-65.5 -169t-143.5 -114.5t-247 -41.5q-61 0 -106 19t-74 42q-35 27 -55 61 l-10 -82q-4 -20 -21 -20h-246q-20 0 -20 20zM434 512q2 -63 12.5 -119.5t36 -97.5t68.5 -65.5t108 -24.5q57 0 93 25.5t56.5 68.5t28 98.5t7.5 114.5t-7.5 114.5t-28 98.5t-56 68.5t-93.5 25.5q-66 0 -108.5 -25.5t-69 -68.5t-37 -98.5t-10.5 -114.5z" />
<glyph unicode="c" horiz-adv-x="1042" d="M88 512q0 111 19.5 207t78 169t162 114.5t273.5 41.5q57 0 108 -10t92 -20q47 -14 86 -31q16 -6 21 -20q4 -57 10 -101q4 -39 7 -69.5t3 -34.5q0 -20 -20 -21q-4 0 -31 12.5t-69 28t-96 28.5t-111 13q-82 0 -130.5 -24.5t-74 -67.5t-33.5 -98.5t-8 -116.5t10 -116.5 t38 -98.5t76 -67.5t122 -24.5q57 0 107 9t89 21.5t62.5 21.5t27.5 9q16 0 21 -20q4 -57 10 -101q4 -39 7 -69.5t3 -34.5q0 -16 -20 -21q-6 -2 -36 -9t-73 -14t-95 -12t-103 -5q-170 0 -273.5 41.5t-162 114.5t-78 169t-19.5 207z" />
<glyph unicode="d" horiz-adv-x="1222" d="M92 512q0 111 15.5 207t65.5 169t143.5 114.5t246.5 41.5q53 0 95 -16t71 -35q35 -23 59 -51v574q0 20 21 20q4 0 43 -3t84 -7q53 -6 119 -10q20 -4 20 -21v-1311q0 -78 10.5 -115.5t10.5 -48.5q0 -20 -21 -20h-246q-16 0 -20 20l-10 82q-23 -35 -58 -61 q-29 -23 -72.5 -42t-105.5 -19q-154 0 -247 41.5t-143 114.5t-65.5 169t-15.5 207zM379 512q0 -59 7 -114.5t27.5 -98.5t56.5 -68.5t93 -25.5q66 0 109 24.5t68.5 65.5t35.5 97.5t12 119.5q0 59 -10 114.5t-36.5 98.5t-69.5 68.5t-109 25.5q-57 0 -93 -25.5t-56.5 -68.5 t-27.5 -98.5t-7 -114.5z" />
<glyph unicode="e" horiz-adv-x="1130" d="M88 512q0 111 21.5 207t78 167.5t155.5 113.5t257 42q217 0 335 -127t118 -403v-82q0 -20 -23 -20h-645q0 -39 12.5 -76t40 -65.5t72.5 -46t111 -17.5t127 9t108 21.5t78 21.5t35 9q20 0 20 -20q0 -4 -3 -35t-7 -70q-6 -45 -10 -100q-2 -14 -21 -21q-2 0 -27.5 -7 t-69.5 -14t-102.5 -13t-127.5 -6q-166 0 -269.5 41.5t-162 114.5t-80 169t-21.5 207zM385 614h377q0 39 -11.5 76t-32 65.5t-50 46t-68.5 17.5q-61 0 -102 -17.5t-66.5 -46t-36 -65.5t-10.5 -76z" />
<glyph unicode="f" horiz-adv-x="772" d="M39 819q0 4 3 32t7 62q4 39 10 91q4 20 21 20h164v123q0 86 20.5 160.5t63.5 130t110.5 87t163.5 31.5q29 0 53.5 -3t42.5 -7q20 -6 37 -10q20 -6 21 -25q0 -4 -3 -36.5t-8 -69.5q-6 -43 -10 -98q-4 -16 -20 -17q-8 0 -16.5 6.5t-19.5 14.5t-27.5 14t-39.5 6 q-53 0 -67.5 -51t-14.5 -154v-102h185q20 0 20 -20q0 -4 -3 -32t-7 -63q-6 -39 -10 -90q-4 -20 -21 -20h-164v-635q0 -31 -3 -57.5t-7 -45.5q-6 -23 -10 -41q-6 -20 -21 -20h-245q-20 0 -21 20q0 6 10.5 44t10.5 100v635h-185q-20 0 -20 20z" />
<glyph unicode="g" horiz-adv-x="1222" d="M92 512q0 111 15.5 207t65.5 169t143.5 114.5t246.5 41.5q59 0 101.5 -19t70.5 -42q33 -27 58 -61l8 36q4 14 5 27.5t3 18.5q6 20 20 20h246q20 0 21 -20q0 -10 -10.5 -48t-10.5 -116v-840q0 -109 -19.5 -196t-74.5 -148.5t-155.5 -94t-262.5 -32.5q-76 0 -139.5 9 t-110.5 22q-53 12 -98 30q-16 6 -20 21q-6 55 -11 100q-4 39 -7 71t-3 34q0 20 21 20q4 0 37.5 -13t85 -28.5t116 -28t129.5 -12.5q80 0 125 24.5t67.5 61.5t27.5 80t5 80v82q-25 -29 -59 -51q-29 -20 -71 -35.5t-95 -15.5q-154 0 -247 41.5t-143 114.5t-65.5 169t-15.5 207 zM379 512q0 -59 7 -114.5t27.5 -98.5t56.5 -68.5t93 -25.5q66 0 109 24.5t69.5 67.5t36.5 98.5t10 116.5q0 66 -10 122t-36.5 97t-69.5 64.5t-109 23.5q-57 0 -93 -25.5t-56.5 -68.5t-27.5 -98.5t-7 -114.5z" />
<glyph unicode="h" d="M127 20q0 6 10 44t10 100v1331q0 20 21 21l246 20q20 0 20 -20v-574q25 29 60 51q29 18 70.5 34.5t94.5 16.5q131 0 211 -29.5t124 -88t59.5 -142.5t15.5 -190v-574q0 -20 -20 -20h-246q-20 0 -21 20v574q0 43 -4 84t-16 72.5t-37 50t-66 18.5q-106 0 -165.5 -61.5 t-59.5 -163.5v-430q0 -31 -3 -57.5t-7 -45.5q-6 -23 -10 -41q-6 -20 -21 -20h-246q-20 0 -20 20z" />
<glyph unicode="i" horiz-adv-x="577" d="M123 1290q0 68 48 116t116 48t116 -48t48 -116t-48.5 -116t-115.5 -48q-68 0 -116 48t-48 116zM143 164v819q0 20 21 21l246 20q20 0 20 -20v-840q0 -61 10.5 -99t10.5 -45q0 -20 -21 -20h-246q-14 0 -20 20q-6 18 -10 41q-11 42 -11 103z" />
<glyph unicode="j" horiz-adv-x="577" d="M-80 -406q0 4 3 36t7 69q4 43 11 96q4 20 20 21q16 0 44 -20.5t58 -20.5q45 0 63.5 60.5t18.5 144.5v1003q0 20 21 21l246 20q20 0 20 -20v-1004q0 -92 -20.5 -174t-63.5 -143.5t-110.5 -97.5t-161.5 -36q-55 0 -96 11q-23 4 -39 10q-21 6 -21 24zM125 1290q0 68 48 116 t116 48t116 -48t48 -116t-48.5 -116t-115.5 -48q-68 0 -116 48t-48 116z" />
<glyph unicode="k" horiz-adv-x="1138" d="M127 20q0 6 10 44t10 100v1331q0 20 21 21l246 20q20 0 20 -20v-861l41 103l266 246q25 20 41 20h308q20 0 20 -20q0 -4 -20.5 -25t-53 -52.5t-75.5 -70.5t-87 -80q-104 -96 -235 -213q131 -147 235 -264l87 -98q43 -49 75.5 -88t53 -64.5t20.5 -28.5q0 -20 -20 -20h-287 q-16 0 -25.5 6t-15.5 14l-287 328l-41 103v-287q0 -31 -3 -57.5t-7 -45.5q-6 -23 -10 -41q-6 -20 -21 -20h-246q-20 0 -20 20z" />
<glyph unicode="l" horiz-adv-x="579" d="M145 164v1331q0 20 21 21l246 20q20 0 20 -20v-1352q0 -61 10.5 -99t10.5 -45q0 -20 -21 -20h-246q-14 0 -20 20q-6 18 -10 41q-11 42 -11 103z" />
<glyph unicode="m" horiz-adv-x="1837" d="M127 1004q0 20 20 20h246q16 0 21 -20l10 -82q29 35 65 61q33 23 81 42t110 19q135 0 216 -40.5t112 -102.5q14 23 38.5 48.5t61.5 47t87 34.5t120 13q123 0 198.5 -27.5t118.5 -82.5t57.5 -140t14.5 -200v-574q0 -20 -21 -20h-245q-20 0 -21 20v574q0 127 -31.5 176 t-91.5 49q-117 0 -171 -61.5t-54 -163.5v-574q0 -20 -20 -20h-246q-20 0 -21 20v574q0 127 -31.5 176t-91.5 49q-117 0 -171 -61.5t-54 -163.5v-574q0 -20 -20 -20h-246q-20 0 -21 20v840q0 61 -10 99.5t-10 44.5z" />
<glyph unicode="n" d="M127 1004q0 20 20 20h246q16 0 21 -20l8 -82q29 35 67 61q33 23 81 42t110 19q123 0 198.5 -27.5t118.5 -82.5t57.5 -140t14.5 -200v-574q0 -20 -20 -20h-246q-20 0 -21 20v574q0 127 -31.5 176t-91.5 49q-117 0 -171 -61.5t-54 -163.5v-574q0 -20 -20 -20h-246 q-20 0 -21 20v840q0 61 -10 99.5t-10 44.5z" />
<glyph unicode="o" horiz-adv-x="1191" d="M84 512q0 137 37 237.5t104.5 166t161.5 97t209 31.5t209 -31.5t161.5 -97t104.5 -166t37 -237.5t-37 -237.5t-104.5 -166t-161.5 -97t-209 -31.5t-209 31.5t-161.5 97t-104.5 166t-37 237.5zM373 512q0 -66 11 -122t36.5 -97t68.5 -64.5t107 -23.5q63 0 106 23.5 t70 64.5t38 97t11 122t-11 122t-38 97t-70 64.5t-106 23.5t-106.5 -23.5t-69 -64.5t-36.5 -97t-11 -122z" />
<glyph unicode="p" horiz-adv-x="1222" d="M127 1004q0 20 20 20h246q16 0 21 -20l10 -82q20 35 55 61q29 23 74 42t106 19q154 0 247 -41.5t143.5 -114.5t65.5 -169t15 -207t-15 -207t-65.5 -169t-143.5 -114.5t-247 -41.5q-53 0 -95 15t-70 36q-35 23 -60 51v-533q0 -20 -20 -20q-4 0 -43 3t-84 7q-53 4 -119 10 q-20 4 -21 21v1270q0 78 -10 116t-10 48zM434 512q0 -59 10.5 -114.5t37 -98.5t69.5 -68.5t108 -25.5q57 0 93 25.5t56.5 68.5t28 98.5t7.5 114.5t-7.5 114.5t-28 98.5t-56 68.5t-93.5 25.5q-66 0 -108.5 -24.5t-68 -65.5t-36 -97.5t-12.5 -119.5z" />
<glyph unicode="q" horiz-adv-x="1222" d="M92 512q0 111 15.5 207t65.5 169t143.5 114.5t246.5 41.5q61 0 105.5 -19t72.5 -42q35 -27 58 -61l10 82q4 20 20 20h246q20 0 21 -20q0 -10 -10.5 -48t-10.5 -116v-1270q0 -16 -20 -21q-66 -6 -119 -10q-45 -4 -84 -7t-43 -3q-20 0 -21 20v533q-25 -29 -59 -51 q-29 -20 -71 -35.5t-95 -15.5q-154 0 -247 41.5t-143 114.5t-65.5 169t-15.5 207zM379 512q0 -59 7 -114.5t27.5 -98.5t56.5 -68.5t93 -25.5q66 0 109 25.5t69.5 68.5t36.5 98.5t10 114.5q-2 63 -12 119.5t-35.5 97.5t-68.5 65.5t-109 24.5q-57 0 -93 -25.5t-56.5 -68.5 t-27.5 -98.5t-7 -114.5z" />
<glyph unicode="r" horiz-adv-x="870" d="M127 1004q0 20 20 20h246q16 0 21 -20l10 -82q20 35 55 61q29 23 74 42t106 19q23 0 47.5 -3t47.5 -7q25 -6 49 -10q16 -4 20 -20q4 -57 11 -101q4 -39 7 -69.5t3 -34.5q0 -20 -21 -21q-4 0 -21.5 6.5t-41 14.5t-51 14t-50.5 6q-106 0 -165.5 -62.5t-59.5 -162.5v-574 q0 -20 -20 -20h-246q-20 0 -21 20v840q0 61 -10 99.5t-10 44.5z" />
<glyph unicode="s" horiz-adv-x="970" d="M96 266q0 20 21 21q8 0 44 -13.5t91 -29t126 -27.5t148 -12q47 0 64.5 25.5t17.5 56.5q0 39 -30.5 56t-92.5 34q-66 18 -134 41.5t-125.5 63.5t-93.5 101.5t-36 153.5q0 145 84 226t285 81q70 0 129 -6t104 -14q53 -8 95 -20q16 -6 20 -21q4 -57 10 -100q4 -39 7.5 -70 t3.5 -35q0 -20 -21 -20q-8 0 -38 9t-76 21.5t-105 21.5t-129 9q-47 0 -64.5 -25.5t-17.5 -56.5q0 -39 30.5 -56t92.5 -34q74 -18 143.5 -41.5t123.5 -63.5t88 -101.5t34 -153.5q0 -147 -95 -227t-274 -80q-86 0 -155.5 9t-122.5 21q-61 12 -111 31q-16 6 -20 20 q-6 53 -11 99q-4 37 -7 69.5t-3 36.5z" />
<glyph unicode="t" horiz-adv-x="827" d="M20 1004q0 20 21 20h184v369q0 20 21 20l246 21q20 0 20 -21v-389h184q16 0 21 -20q4 -51 10 -91q4 -35 7 -63.5t3 -30.5q0 -20 -20 -20h-205v-389q0 -102 15.5 -153.5t66.5 -51.5q47 0 76.5 20.5t46.5 20.5q16 0 20 -17q4 -55 11 -98q4 -37 7 -69.5t3 -36.5 q0 -18 -21 -25q-25 -6 -51 -10q-51 -10 -113 -10q-109 0 -176 31.5t-105 87t-52.5 130t-14.5 160.5v410h-164q-16 0 -20 20q-6 49 -10 88q-4 35 -7.5 64t-3.5 33z" />
<glyph unicode="u" d="M133 430v553q0 20 21 21l245 20q20 0 21 -20v-574q0 -127 31.5 -176t91.5 -49q117 0 171 61.5t54 163.5v553q0 20 20 21l246 20q20 0 21 -20v-840q0 -61 10 -99t10 -45q0 -20 -20 -20h-246q-16 0 -21 20l-8 82q-23 -35 -57 -61q-29 -23 -74 -42t-106 -19 q-123 0 -203 27.5t-126 82.5t-63.5 140t-17.5 200z" />
<glyph unicode="v" horiz-adv-x="1093" d="M23 983q0 16 20 21q66 4 119 10q45 4 84 7t43 3q14 0 20 -20l213 -635l23 -164l22 164l213 635q6 20 21 20h256q20 0 20 -20q0 -2 -15 -45.5t-42 -113t-59.5 -157.5t-67.5 -180q-82 -217 -184 -488q-6 -20 -21 -20h-287q-14 0 -20 20q-100 266 -180 478q-35 90 -67 176 t-56.5 154.5t-39.5 110.5t-15 44z" />
<glyph unicode="w" horiz-adv-x="1765" d="M31 983q0 16 20 21q66 4 119 10q45 4 84 7t43 3q14 0 20 -20l193 -637l22 -164l23 164l172 616q6 16 21 21l153 20h103q12 0 20 -20l182 -637l23 -164l22 164l193 637q6 20 20 20h256q20 0 21 -20q0 -2 -15.5 -45.5t-40 -113t-55.5 -157.5t-63 -180q-78 -217 -174 -488 q-6 -20 -21 -20h-287q-14 0 -20 20l-154 533l-28 164l-27 -164l-160 -533q-6 -20 -20 -20h-287q-14 0 -20 20q-96 266 -170 478q-31 90 -62 176t-54.5 154.5t-37.5 110.5t-14 44z" />
<glyph unicode="x" horiz-adv-x="1110" d="M35 20q0 2 30.5 46.5t81 116t114 161.5t128.5 182q-63 88 -120.5 170t-100.5 144.5t-67.5 100.5t-24.5 42q0 16 20 21q70 4 125 10q47 4 87 7t44 3q8 0 17.5 -6t13.5 -14l143 -250l31 -140l31 140l153 250q14 20 31 20h266q20 0 21 -20q0 -2 -29 -44t-76 -109 t-107.5 -152t-123.5 -173q66 -92 130.5 -182t114.5 -161.5t80.5 -115.5t30.5 -47q0 -20 -20 -20h-266q-8 0 -16.5 6t-14.5 14l-174 271l-31 139l-31 -139l-174 -271q-6 -8 -14 -14t-16 -6h-267q-20 0 -20 20z" />
<glyph unicode="y" horiz-adv-x="1087" d="M16 983q0 16 21 21q63 4 115 10q43 4 79.5 7t40.5 3q10 0 18.5 -6t12.5 -14l223 -656l21 -164l20 164l207 656q6 20 21 20h256q20 0 20 -20q0 -2 -25.5 -72t-64.5 -174.5t-85 -228t-87 -234.5t-71.5 -193t-39.5 -102q-31 -84 -66.5 -165t-87.5 -144.5t-125 -102.5 t-177 -39q-59 0 -97 11q-20 4 -34 10q-20 6 -21 24q0 4 3 37t7 70q4 43 11 98q4 16 20 17q14 0 46 -20.5t85 -20.5q31 0 57.5 28.5t47.5 63.5q23 39 43 92q-111 283 -197 508q-37 94 -73 186t-63.5 165t-44 118t-16.5 47z" />
<glyph unicode="z" horiz-adv-x="1038" d="M90 20v205q0 6 3 10.5l7 10.5l461 512l123 41h-553q-20 0 -20 20v164q0 16 20 21l180 20h598q20 0 21 -20v-205q0 -6 -4 -12.5t-6 -8.5l-461 -512l-123 -41h594q20 0 20 -20l-20 -185q-4 -20 -21 -20h-798q-21 0 -21 20z" />
<glyph unicode="{" horiz-adv-x="745" d="M70 569v179q0 20 20 20q23 0 48.5 12.5t47 34t34.5 50t13 59.5v346q0 74 24 124t60.5 81.5t79.5 46t82 14.5h164q16 0 21 -20q4 -45 10 -80q4 -31 7 -55.5t3 -28.5q0 -20 -20 -21h-113q-51 0 -51 -51v-399q0 -53 -12.5 -92t-28.5 -64q-18 -29 -41 -49l-103 -19l103 -18 q23 -20 41 -49q16 -25 28.5 -64t12.5 -92v-403q0 -51 51 -51h113q20 0 20 -21q0 -4 -3 -30.5t-7 -55.5q-6 -37 -10 -78q-4 -20 -21 -20h-164q-39 0 -82 14t-79.5 46t-60.5 82t-24 124v350q0 31 -13 59.5t-34.5 50t-47 35t-48.5 13.5q-20 0 -20 20z" />
<glyph unicode="|" horiz-adv-x="618" d="M178 -20v1515q0 16 21 21q61 4 110 10q41 4 77 7t38 3q20 0 20 -20v-1516q0 -16 -20 -20q-61 -6 -111 -11q-41 -4 -76.5 -7t-37.5 -3q-21 1 -21 21z" />
<glyph unicode="}" horiz-adv-x="745" d="M61 -41q0 20 21 21h113q51 0 51 51v403q0 53 12 92t29 64q18 29 41 49l102 18l-102 19q-23 20 -41 49q-16 25 -28.5 63.5t-12.5 92.5v399q0 51 -51 51h-113q-20 0 -21 21q0 4 3.5 28.5t7.5 55.5q4 35 10 80q4 20 20 20h164q39 0 82 -14.5t80 -46t60.5 -82t23.5 -123.5 v-346q0 -31 13.5 -59.5t35 -50t47 -34t47.5 -12.5q20 0 21 -20v-179q0 -20 -21 -20q-23 0 -48 -13.5t-46.5 -35t-35 -50t-13.5 -59.5v-350q0 -74 -23.5 -124t-60.5 -82t-80 -46t-82 -14h-164q-16 0 -20 20q-6 41 -10 78q-4 29 -7.5 55.5t-3.5 30.5z" />
<glyph unicode="~" horiz-adv-x="1253" d="M117 461q0 70 14 126t48 96t89.5 62.5t134.5 22.5q70 0 131.5 -22.5t114.5 -49t99.5 -49t85.5 -22.5t56 16t24.5 34.5t12.5 35t19 16.5h174q20 0 21 -20q0 -70 -14.5 -126.5t-48.5 -96.5t-89 -62.5t-135 -22.5q-78 0 -139.5 22.5t-113.5 49.5t-95 49.5t-82 22.5 t-56.5 -16.5t-24.5 -35t-12 -35t-20 -16.5h-174q-20 1 -20 21z" />
<glyph unicode="&#xa1;" horiz-adv-x="575" d="M127 -389q0 6 10 44t10 99v819q0 20 21 21l246 20q20 0 20 -20v-840q0 -31 -3 -57.5t-7 -44.5q-6 -23 -10 -41q-6 -20 -21 -21h-246q-20 1 -20 21zM127 881q0 68 48 115.5t116 47.5t116 -48t48 -115q0 -68 -48.5 -116t-115.5 -48q-68 0 -116 48t-48 116z" />
<glyph unicode="&#xa2;" horiz-adv-x="1044" d="M90 512q0 96 14.5 182t56.5 156t115.5 117t192.5 65v176q0 16 20 21q61 4 111 10q41 4 77 7t38 3q20 0 20 -20v-195q37 -8 70 -16t55 -17q27 -8 49 -18q16 -6 21 -20q4 -57 10 -101q4 -39 7 -69.5t3 -34.5q0 -20 -20 -21q-4 0 -31 12.5t-69 28t-96 28.5t-111 13 q-82 0 -130.5 -24.5t-74 -67.5t-33.5 -98.5t-8 -116.5t10 -116.5t38 -98.5t76 -67.5t122 -24.5q57 0 107 9t89 21.5t62.5 21.5t27.5 9q16 0 21 -20q4 -57 10 -101q4 -39 7 -69.5t3 -34.5q0 -16 -20 -21q-10 -4 -65.5 -15t-129.5 -19v-191q0 -20 -20 -20h-226q-20 0 -20 20 v197q-119 18 -192.5 65t-115.5 117t-56.5 156t-14.5 182z" />
<glyph unicode="&#xa3;" horiz-adv-x="1146" d="M100 645q0 4 3 32t8 62q4 39 10 90q4 20 20 21h123q0 115 16.5 223.5t64.5 193.5t136 136t234 51q141 0 216 -17.5t91 -23.5q20 -6 20 -24q0 -4 -3 -36t-7 -69q-6 -43 -10 -96q-4 -20 -21 -21q-8 0 -30.5 9.5t-56 21.5t-80 21.5t-99.5 9.5q-55 0 -90 -34t-56.5 -87 t-29.5 -120.5t-8 -137.5h307q20 0 21 -21q0 -4 -3.5 -32.5t-7.5 -63.5q-6 -39 -10 -88q-4 -20 -20 -20h-287q0 -78 -6 -143.5t-15 -112.5q-8 -55 -20 -103l-123 -41h635q20 0 20 -20q0 -4 -3 -33t-7 -63q-6 -39 -10 -89q-4 -20 -21 -20h-860q-20 0 -20 20v185q0 20 20 20 q31 0 53.5 39t38 99.5t23.5 130t8 131.5h-143q-21 0 -21 20z" />
<glyph unicode="&#xa4;" horiz-adv-x="1380" d="M147 338q0 4 2.5 7t4.5 7l110 111q-23 51 -34 112.5t-11 141.5q0 150 47 254l-90 90q-8 6 -8 14q0 4 2 7t6 8q33 43 57 79q23 31 41.5 55.5t22.5 28.5q6 6 14 7q4 0 7.5 -2.5t7.5 -4.5l102 -102q55 29 122.5 43t141.5 14t139.5 -13t122.5 -42l80 80q6 6 15 6q4 0 14 -6 q43 -33 80 -59q31 -23 55.5 -42.5t28.5 -21.5q6 -6 6 -14q0 -4 -1 -8.5t-5 -6.5l-111 -110q23 -51 34 -113.5t11 -140.5t-11 -141.5t-34 -114.5l90 -88q6 -6 6 -15q0 -6 -6 -14q-33 -43 -59 -80q-23 -31 -42.5 -56.5t-21.5 -27.5q-6 -6 -14 -6q-4 0 -8 1t-6 5l-101 101 q-57 -31 -122.5 -43.5t-139.5 -12.5q-76 0 -143.5 12.5t-124.5 43.5l-78 -78q-6 -8 -14 -8q-4 0 -7 2t-8 6q-43 33 -79 57q-31 23 -56.5 41t-27.5 23q-7 6 -7 14zM485 717q0 -55 12.5 -103.5t37 -85t63.5 -57t92 -20.5q104 0 154.5 77.5t50.5 188.5t-50 188.5t-155 77.5 q-53 0 -92 -20.5t-63.5 -57.5t-37 -85t-12.5 -103z" />
<glyph unicode="&#xa5;" horiz-adv-x="1335" d="M39 1393q0 16 20 20q72 4 127 10q47 4 88 7.5t45 3.5q10 0 18.5 -6.5t12.5 -14.5l283 -498l31 -102l30 102l283 498q14 20 31 21h270q20 0 20 -21q0 -2 -31.5 -55t-82.5 -136t-112.5 -184.5t-121.5 -197.5h174q20 0 21 -21q0 -4 -3 -32.5t-7 -63.5q-6 -39 -11 -88 q-4 -20 -20 -21h-297v-163h317q20 0 21 -21q0 -4 -3 -32.5t-7 -63.5q-6 -39 -11 -88q-4 -20 -20 -21h-297v-205q0 -20 -21 -20h-245q-20 0 -21 20v205h-317q-20 0 -21 21q0 4 3 31.5t8 62.5q4 39 10 90q4 20 20 21h297v163h-317q-20 0 -21 21q0 4 3 31.5t8 62.5q4 39 10 90 q4 20 20 21h152q-53 86 -112.5 182t-109 178t-82 136.5t-32.5 56.5z" />
<glyph unicode="&#xa6;" horiz-adv-x="702" d="M219 -20v573q0 16 21 20q61 4 110 11q41 4 77 7t38 3q20 0 20 -21v-573q0 -16 -20 -20q-61 -6 -111 -11q-41 -4 -76.5 -7t-37.5 -3q-21 1 -21 21zM219 922v573q0 16 21 21q61 4 110 10q41 4 77 7t38 3q20 0 20 -20v-574q0 -16 -20 -20q-61 -6 -111 -11q-41 -4 -76.5 -7 t-37.5 -3q-21 1 -21 21z" />
<glyph unicode="&#xa7;" horiz-adv-x="1073" d="M106 707q0 66 26 129t77 106q-35 37 -58.5 94.5t-23.5 120.5q0 131 94 214t295 83q70 0 133.5 -6t110.5 -14q55 -8 104 -21q16 -6 21 -20q4 -57 10 -101q4 -39 7 -69.5t3 -34.5q0 -20 -20 -21q-8 0 -38 9.5t-78 21.5t-112.5 21.5t-140.5 9.5q-49 0 -75.5 -26.5 t-26.5 -65.5q0 -35 17.5 -59.5t46 -42t65.5 -30t75 -22.5q39 -10 98.5 -29.5t115 -54.5t95.5 -89t40 -134q0 -68 -27 -134.5t-76 -111.5q82 -72 82 -225q0 -123 -95 -205t-294 -82q-68 0 -130 6t-112 15q-57 8 -106 20q-16 6 -21 21q-6 53 -10 98q-4 37 -7 69.5t-3 36.5 q0 20 20 21q8 0 38 -9.5t78 -21.5t111.5 -21.5t141.5 -9.5q49 0 75.5 27t26.5 66q0 31 -17 55t-46 42.5t-65.5 32t-75.5 23.5q-47 12 -107.5 29.5t-114 52.5t-90.5 91.5t-37 144.5zM373 717q0 -39 17.5 -63.5t48 -40t71.5 -23.5t88 -17q29 2 51 11q18 8 34.5 24.5t16.5 46.5 q0 39 -18 62.5t-49 39t-72 25t-86 17.5q-29 -2 -51 -11q-20 -8 -35.5 -24t-15.5 -47z" />
<glyph unicode="&#xa8;" horiz-adv-x="1097" d="M180 1290q0 68 48 116t116 48t116 -48t48 -116t-48 -116t-116 -48t-116 48t-48 116zM590 1290q0 68 48 116t116 48t116 -48t48 -116t-48.5 -116t-115.5 -48q-68 0 -116 48t-48 116z" />
<glyph unicode="&#xa9;" horiz-adv-x="1671" d="M98 717q0 154 38 288t124 233t227.5 157.5t348.5 58.5t348 -58.5t227 -157.5t124 -233.5t38 -287.5q0 -154 -38 -288t-124 -233.5t-227.5 -157.5t-347.5 -58q-207 0 -348.5 58t-227.5 157.5t-124 233.5t-38 288zM324 717q0 -109 25.5 -205t85 -169t157.5 -116t244 -43 q145 0 243.5 43t157.5 116t85 169t26 205q0 106 -26 203.5t-85 170t-157.5 115.5t-243.5 43t-243.5 -43t-158 -115.5t-85 -170t-25.5 -203.5zM446 717q0 92 17.5 170t63.5 136t125 91t204 33q47 0 91 -10.5t79 -20.5q39 -14 76 -31q18 -6 20 -20q4 -49 11 -88q4 -35 7 -63.5 t3 -32.5q0 -20 -21 -21q-8 0 -32.5 16.5t-61.5 35t-82 35t-90 16.5q-53 0 -89 -18.5t-57.5 -51.5t-29.5 -78t-8 -98q0 -47 8 -91t29.5 -78t57.5 -55.5t89 -21.5q45 0 85 9t70.5 21.5t51 21.5t29.5 9q8 0 12 -1t8 -11l8 -74q4 -29 7 -51t3 -26q0 -10 -5 -14.5t-13 -8.5 q-41 -18 -84 -31q-37 -10 -82 -19t-90 -9q-125 0 -204 32.5t-125 91t-63.5 136.5t-17.5 170z" />
<glyph unicode="&#xaa;" horiz-adv-x="819" d="M80 942q0 117 73.5 176.5t213.5 59.5q18 0 36.5 -2t32.5 -5l33 -4q0 47 -14.5 75t-67.5 28q-39 0 -81 -8.5t-76.5 -17.5t-59.5 -17t-29 -8q-20 0 -20 20q0 10 2 23q0 10 1 23t3 28q2 33 6 71q2 14 21 21q2 0 22.5 8t53 17.5t73.5 16.5t84 7q139 0 223 -58.5t84 -166.5 v-369q0 -41 10.5 -69.5t10.5 -32.5q0 -20 -21 -21h-194q-12 0 -17 21l-8 51q-14 -23 -37 -41q-18 -16 -45.5 -28.5t-66.5 -12.5q-33 0 -75 9t-80 33t-64.5 65.5t-26.5 107.5zM285 969q0 -23 11 -40.5t50 -17.5q31 0 53.5 3.5t38 14.5t23.5 33.5t8 61.5h-113q-39 0 -55 -16 t-16 -39z" />
<glyph unicode="&#xab;" horiz-adv-x="1200" d="M51 573q0 8 8 21l265 410q12 20 30 20h250q20 0 21 -20q0 -2 -12.5 -21.5t-33 -50.5t-46 -70t-52.5 -78q-63 -94 -143 -211l143 -213q27 -41 52.5 -78.5t46.5 -68.5l32 -49q12 -18 13 -21q0 -20 -21 -20h-250q-18 0 -30 20l-265 410q-8 8 -8 20zM543 573q0 8 8 21 l264 410q12 20 31 20h250q20 0 20 -20q0 -2 -12 -21.5t-32.5 -50.5t-46.5 -70l-52 -78q-63 -94 -144 -211l144 -213q27 -41 52.5 -78.5t45.5 -68.5l33 -49q12 -18 12 -21q0 -20 -20 -20h-250q-18 0 -31 20l-264 410q-8 8 -8 20z" />
<glyph unicode="&#xac;" horiz-adv-x="1259" d="M78 676q0 4 3 31.5t7 62.5q4 39 10 90q4 20 21 21h983q20 0 20 -21v-594q0 -20 -20 -20h-225q-20 0 -21 20v389h-758q-20 1 -20 21z" />
<glyph unicode="&#xad;" horiz-adv-x="874" d="M152 492q0 4 3 31.5t7 62.5q4 39 10 90q4 20 21 20h512q20 0 20 -20q0 -4 -3 -33t-7 -63q-6 -39 -10 -88q-4 -20 -21 -21h-512q-20 1 -20 21z" />
<glyph unicode="&#xae;" horiz-adv-x="1470" d="M162 881q0 115 28.5 219t96 183t177 125t271.5 46t271.5 -46t177 -125t96.5 -183.5t29 -218.5q0 -115 -29 -219.5t-96.5 -183.5t-177 -125t-271.5 -46t-271.5 46t-177 125t-96 183.5t-28.5 219.5zM367 881q0 -78 17 -147.5t59 -124t113 -86t179 -31.5q106 0 178 31.5 t114 86t59.5 124t17.5 147.5q0 76 -17.5 146.5t-59.5 124.5t-113.5 86t-178.5 32q-109 0 -179.5 -32t-112.5 -86t-59 -124.5t-17 -146.5zM530 614v564q0 20 21 20l82 10h92q80 0 130 -16t78 -44t38 -66t10 -78q0 -53 -22.5 -86t-49.5 -50q-33 -20 -71 -28q16 0 33.5 -9.5 t27.5 -31.5l41 -90q16 -35 28.5 -63t12.5 -32q0 -20 -20 -20h-134q-14 0 -20 20l-72 185q-4 16 -14 18t-27 2v-205q0 -20 -20 -20h-123q-21 0 -21 20zM694 942q23 0 45.5 1t40 7t27.5 18.5t10 35.5t-10 35t-27.5 18t-40 7t-45.5 1v-123z" />
<glyph unicode="&#xaf;" horiz-adv-x="1099" d="M266 1188q0 4 3 31.5t7 62.5q4 39 11 90q4 20 20 21h512q20 0 21 -21q0 -4 -3 -32.5t-8 -63.5q-6 -39 -10 -88q-4 -20 -20 -21h-512q-21 1 -21 21z" />
<glyph unicode="&#xb0;" horiz-adv-x="798" d="M72 1147q0 63 19.5 119.5t59 97.5t102 65.5t146.5 24.5t146.5 -24.5t102.5 -65.5t59.5 -97.5t19.5 -119.5t-19.5 -119.5t-59.5 -97.5t-102.5 -65.5t-146.5 -24.5t-146.5 24.5t-102 65.5t-59 97.5t-19.5 119.5zM317 1147q0 -39 17.5 -71t64.5 -32t64.5 32t17.5 71 t-17.5 70.5t-64.5 31.5t-64.5 -31.5t-17.5 -70.5z" />
<glyph unicode="&#xb1;" horiz-adv-x="1288" d="M119 20q0 4 3 32t7 63q4 39 10 90q4 20 21 20h983q20 0 20 -20q0 -4 -3 -33t-7 -63q-6 -39 -10 -89q-4 -20 -21 -20h-983q-20 0 -20 20zM119 717q0 4 3 31.5t7 62.5q4 39 10 90q4 20 21 21h348v327q0 16 20 21q59 4 109 10q41 4 77 7t40 3q20 0 20 -20v-348h369 q20 0 20 -21q0 -4 -3 -32.5t-7 -63.5q-6 -39 -10 -88q-4 -20 -21 -21h-348v-327q0 -16 -20 -21q-61 -6 -111 -10q-41 -4 -76 -7t-39 -3q-20 0 -20 20v348h-369q-20 1 -20 21z" />
<glyph unicode="&#xb2;" horiz-adv-x="856" d="M115 594v184q0 55 27.5 99.5t68.5 80t88 64.5t88 55.5t68.5 53t27.5 57.5t-27.5 46t-74.5 15q-39 0 -79 -9t-74.5 -21.5t-59.5 -21.5t-33 -9q-20 0 -20 20q0 4 3 32t7 63q4 39 10 90q2 10 7 13t14 7q29 12 63 21q29 8 69 14t83 6q203 0 291 -63.5t88 -202.5 q0 -68 -26 -114t-66 -78.5t-88 -58.5t-91 -48.5t-75.5 -49t-43.5 -61.5h369q20 0 21 -20q0 -4 -3.5 -31t-7.5 -55q-6 -35 -10 -78q-4 -20 -20 -21h-574q-4 0 -12 5.5t-8 15.5z" />
<glyph unicode="&#xb3;" horiz-adv-x="796" d="M104 594q0 4 3.5 31.5t7.5 62.5q4 39 10 90q4 20 20 21q8 0 30 -6l50 -15q29 -8 61.5 -14t63.5 -6q43 0 62.5 25.5t19.5 56.5t-25.5 51t-97.5 20h-92q-20 0 -20 21v143q0 16 20 21l113 16q53 8 77.5 27.5t24.5 48.5q0 23 -19.5 42t-62.5 19q-31 0 -66.5 -9t-68.5 -21 l-57 -22q-25 -9 -33 -9q-20 0 -21 20q0 4 3.5 32t7.5 63q4 39 10 90q4 14 20 20q14 6 71.5 23.5t133.5 17.5q104 0 172 -17.5t107 -50t54 -79.5t15 -109q0 -113 -92 -174q92 -61 92 -184q0 -70 -15 -123t-55 -90t-106.5 -55.5t-171.5 -18.5q-41 0 -80 3t-71 7q-37 4 -74 10 q-21 5 -21 21z" />
<glyph unicode="&#xb4;" horiz-adv-x="1099" d="M342 1167q0 4 32 49.5t70 98.5l103 139q14 20 41 21h225q20 0 21 -21q0 -2 -10.5 -15.5t-28 -34t-40 -46t-44.5 -51.5l-123 -140q-16 -20 -41 -20h-185q-20 0 -20 20z" />
<glyph unicode="&#xb5;" horiz-adv-x="1230" d="M145 -205v1188q0 20 21 21l246 20q20 0 20 -20v-574q0 -127 32 -176t91 -49q117 0 171 61.5t54 163.5v553q0 20 21 21l246 20q20 0 20 -20v-840q0 -61 10 -99t10 -45q0 -20 -20 -20h-246q-16 0 -20 20l-8 82q-23 -35 -58 -61q-29 -23 -74 -42t-106 -19q-35 0 -64.5 3 t-58.5 7v-195q0 -61 10.5 -99t10.5 -44q0 -20 -21 -21h-246q-14 0 -20 21q-6 18 -10 41q-11 41 -11 102z" />
<glyph unicode="&#x3bc;" horiz-adv-x="1230" d="M145 -205v1188q0 20 21 21l246 20q20 0 20 -20v-574q0 -127 32 -176t91 -49q117 0 171 61.5t54 163.5v553q0 20 21 21l246 20q20 0 20 -20v-840q0 -61 10 -99t10 -45q0 -20 -20 -20h-246q-16 0 -20 20l-8 82q-23 -35 -58 -61q-29 -23 -74 -42t-106 -19q-35 0 -64.5 3 t-58.5 7v-195q0 -61 10.5 -99t10.5 -44q0 -20 -21 -21h-246q-14 0 -20 21q-6 18 -10 41q-11 41 -11 102z" />
<glyph unicode="&#xb6;" horiz-adv-x="1290" d="M51 1024q0 76 20.5 149.5t80 132t168 93.5t284.5 35h348l164 -21q20 -4 21 -20v-1536q0 -20 -21 -21h-225q-20 0 -21 21v1351h-143v-1351q0 -20 -20 -21h-226q-20 0 -20 21v768q-115 0 -194 36.5t-127 94t-68.5 128t-20.5 140.5zM317 1024q0 -39 12.5 -70.5t33 -55.5 t46 -36t52.5 -12v358q-27 0 -52.5 -14t-46 -39t-33 -58.5t-12.5 -72.5z" />
<glyph unicode="&#xb7;" horiz-adv-x="552" d="M113 614q0 68 47 116t116 48q68 0 116 -48t48 -116q0 -70 -48 -116.5t-116 -46.5q-70 0 -116.5 46.5t-46.5 116.5z" />
<glyph unicode="&#xb8;" horiz-adv-x="1097" d="M274 -440q0 4 6.5 21.5t14.5 39.5q8 25 20 55q6 16 23 17q6 0 28.5 -6t55.5 -14.5t68.5 -14.5t66.5 -6t51.5 15.5t20.5 45.5q0 31 -20.5 46.5t-51.5 15.5h-184q-14 0 -15 20q0 4 11.5 37t25.5 74q16 47 39 104h297l-153 -61q109 0 177 -63.5t68 -172.5q0 -49 -20.5 -94 t-55 -79t-84 -53t-106.5 -19q-45 0 -91 10t-85 24q-45 16 -88 37q-19 9 -19 21z" />
<glyph unicode="&#xb9;" horiz-adv-x="655" d="M37 1249q0 10 8 17l238 147q59 4 108 10q41 4 77 7.5t40 3.5q20 0 20 -21v-819q0 -20 -20 -21h-205q-20 0 -20 21v655l-41 -123q-37 -23 -68 -39q-27 -14 -49.5 -25t-26.5 -11q-14 0 -20 14q-12 49 -21 88q-8 35 -14 63.5t-6 32.5z" />
<glyph unicode="&#xba;" horiz-adv-x="851" d="M78 1085q0 193 94 281t254 88t254 -88t94 -281q0 -190 -94 -279t-254 -89t-254 89t-94 279zM303 1085q0 -35 4 -66.5t17.5 -55t38 -38t63.5 -14.5t63.5 14.5t38 38t17.5 55.5t4 66q0 70 -23.5 122.5t-99.5 52.5q-39 0 -62.5 -14.5t-37 -38t-18.5 -55.5t-5 -67z" />
<glyph unicode="&#xbb;" horiz-adv-x="1200" d="M84 143q0 2 12 21l33 49q20 31 46 68.5t52 78.5l144 213q-80 117 -144 211q-27 39 -52 78t-45.5 70t-33 50t-12.5 22q0 20 20 20h250q18 0 31 -20l264 -410q8 -12 8 -21q0 -12 -8 -20l-264 -410q-12 -20 -31 -20h-250q-20 0 -20 20zM575 143q0 2 13 21l33 49 q20 31 45.5 68.5t52.5 78.5l143 213q-80 117 -143 211q-27 39 -52.5 78t-46 70t-33 50t-12.5 22q0 20 21 20h250q18 0 31 -20l264 -410q8 -12 8 -21q0 -12 -8 -20l-264 -410q-12 -20 -31 -20h-250q-21 0 -21 20z" />
<glyph unicode="&#xbc;" horiz-adv-x="1855" d="M39 1249q0 10 8 17l238 147q59 4 108 10q41 4 77 7.5t40 3.5q20 0 20 -21v-819q0 -20 -20 -21h-205q-20 0 -20 21v655l-41 -123q-37 -23 -68 -39q-27 -14 -49.5 -25t-26.5 -11q-14 0 -20 14q-12 49 -21 88q-8 35 -14 63.5t-6 32.5zM285 20q0 2 37.5 62.5t99 159 t140.5 224.5t163 255q193 305 440 692q12 20 31 21h236q20 0 20 -21q0 -2 -38 -63.5t-100.5 -159.5t-141 -223t-160.5 -254q-195 -305 -441 -693q-8 -12 -16 -16t-14 -4h-236q-20 0 -20 20zM981 184v226l279 430q10 18 28 20l185 21h163q20 0 21 -21v-491h102q20 0 21 -21 q0 -4 -3 -30.5t-8 -55.5q-6 -37 -10 -78q-4 -20 -20 -20h-82v-144q0 -20 -21 -20h-204q-20 0 -21 20v144h-410q-20 0 -20 20zM1124 369h267v348l-35 -103l-129 -204z" />
<glyph unicode="&#xbd;" horiz-adv-x="1884" d="M39 1249q0 10 8 17l238 147q59 4 108 10q41 4 77 7.5t40 3.5q20 0 20 -21v-819q0 -20 -20 -21h-205q-20 0 -20 21v655l-41 -123q-37 -23 -68 -39q-27 -14 -49.5 -25t-26.5 -11q-14 0 -20 14q-12 49 -21 88q-8 35 -14 63.5t-6 32.5zM285 20q0 2 37.5 62.5t99 159 t140.5 224.5t163 255q193 305 440 692q12 20 31 21h236q20 0 20 -21q0 -2 -38 -63.5t-100.5 -159.5t-141 -223t-160.5 -254q-195 -305 -441 -693q-8 -12 -16 -16t-14 -4h-236q-20 0 -20 20zM1145 20v185q0 55 27.5 99t68.5 80t88 64.5t88 55t68.5 53.5t27.5 57 q0 31 -27.5 46.5t-74.5 15.5q-39 0 -79 -9.5t-74.5 -21.5t-59 -21.5t-33.5 -9.5q-20 0 -20 21q0 4 3 31.5t7 62.5q4 39 10 90q2 10 7.5 13.5t13.5 7.5q29 12 63 20q29 8 69 14.5t83 6.5q203 0 291 -63.5t88 -203.5q0 -68 -25.5 -113.5t-65.5 -78.5t-88.5 -58.5t-91.5 -48 t-75.5 -49t-42.5 -61.5h368q20 0 21 -21q0 -4 -3 -30.5t-8 -55.5q-6 -35 -10 -78q-4 -20 -20 -20h-574q-4 0 -12 5t-8 15z" />
<glyph unicode="&#xbe;" horiz-adv-x="1937" d="M100 594q0 4 3 31.5t8 62.5q4 39 10 90q4 20 20 21q8 0 30 -6l50 -15q29 -8 61.5 -14t63.5 -6q43 0 62.5 25.5t19.5 56.5t-25.5 51t-97.5 20h-92q-20 0 -20 21v143q0 16 20 21l113 16q53 8 77.5 27.5t24.5 48.5q0 23 -19.5 42t-62.5 19q-31 0 -66.5 -9t-68.5 -21l-57 -22 q-25 -9 -33 -9q-20 0 -21 20q0 4 3 32t8 63q4 39 10 90q4 14 20 20q14 6 71.5 23.5t133.5 17.5q104 0 172 -17.5t107 -50t54 -79.5t15 -109q0 -113 -92 -174q92 -61 92 -184q0 -70 -15 -123t-55 -90t-106.5 -55.5t-171.5 -18.5q-41 0 -80 3t-71 7q-37 4 -74 10q-21 5 -21 21 zM367 20q0 2 37.5 62.5t99 159t140.5 224.5t163 255q193 305 440 692q12 20 31 21h235q20 0 21 -21q0 -2 -38 -63.5t-100.5 -159.5t-141 -223t-160.5 -254q-195 -305 -441 -693q-8 -12 -16 -16t-14 -4h-236q-20 0 -20 20zM1063 184v226l278 430q10 18 29 20l184 21h164 q20 0 21 -21v-491h102q20 0 21 -21q0 -4 -3.5 -30.5t-7.5 -55.5q-6 -37 -10 -78q-4 -20 -20 -20h-82v-144q0 -20 -21 -20h-205q-20 0 -20 20v144h-410q-20 0 -20 20zM1206 369h267v348l-35 -103l-129 -204z" />
<glyph unicode="&#xbf;" horiz-adv-x="974" d="M37 -20q0 70 25.5 121t64.5 93t84 79.5t84 80.5t64.5 95.5t25.5 123.5q0 20 21 21l245 20q20 0 21 -20q0 -96 -25.5 -167t-64.5 -124t-84 -93t-84 -76t-64.5 -72.5t-25.5 -81.5q0 -37 7 -70t29.5 -58.5t62.5 -41t105 -15.5q70 0 136.5 12.5t120 27.5t89 28.5t44.5 13.5 q20 0 20 -20q0 -4 -3 -37t-7 -70q-6 -45 -10 -98q-4 -14 -21 -21q-45 -18 -102 -30q-49 -12 -117 -21.5t-150 -9.5q-154 0 -250 31.5t-149 87t-72.5 130.5t-19.5 161zM365 881q0 68 48 115.5t115 47.5q68 0 116 -48t48 -115q0 -68 -48 -116t-116 -48t-115.5 48t-47.5 116z " />
<glyph unicode="&#xc0;" horiz-adv-x="1404" d="M4 20q0 2 22.5 61.5t59.5 156t84 219.5t96 252l262 684q6 16 21 20l174 21h123q12 0 20 -21q150 -389 267 -694q49 -131 97 -256t86 -222.5t60.5 -157.5t22.5 -63q0 -20 -21 -20h-258q-14 0 -20 20l-137 379h-527l-135 -379q-6 -20 -20 -20h-256q-21 0 -21 20zM332 1864 q0 20 20 20h226q27 0 40 -20l103 -140q39 -53 70.5 -98t31.5 -49q0 -20 -20 -21h-185q-25 0 -40 21l-123 139q-23 27 -45.5 52.5t-40 46t-27.5 34t-10 15.5zM518 625h365l-158 440l-25 143l-22 -143z" />
<glyph unicode="&#xc1;" horiz-adv-x="1404" d="M4 20q0 2 22.5 61.5t59.5 156t84 219.5t96 252l262 684q6 16 21 20l174 21h123q12 0 20 -21q150 -389 267 -694q49 -131 97 -256t86 -222.5t60.5 -157.5t22.5 -63q0 -20 -21 -20h-258q-14 0 -20 20l-137 379h-527l-135 -379q-6 -20 -20 -20h-256q-21 0 -21 20zM518 625 h365l-158 440l-25 143l-22 -143zM578 1577q0 4 31.5 49t70.5 98l102 140q14 20 41 20h226q20 0 20 -20q0 -2 -10 -15.5t-27.5 -34t-40 -46t-45.5 -52.5l-123 -139q-16 -20 -41 -21h-184q-20 1 -20 21z" />
<glyph unicode="&#xc2;" horiz-adv-x="1404" d="M4 20q0 2 22.5 61.5t59.5 156t84 219.5t96 252l262 684q6 16 21 20l174 21h123q12 0 20 -21q150 -389 267 -694q49 -131 97 -256t86 -222.5t60.5 -157.5t22.5 -63q0 -20 -21 -20h-258q-14 0 -20 20l-137 379h-527l-135 -379q-6 -20 -20 -20h-256q-21 0 -21 20zM373 1577 q0 4 31.5 49t70.5 98l103 140q16 20 40 20h164q25 0 41 -20l103 -140q39 -53 70.5 -98t31.5 -49q0 -20 -20 -21h-205q-27 0 -41 21l-41 82l-21 102l-20 -102l-41 -82q-14 -20 -41 -21h-205q-20 1 -20 21zM518 625h365l-158 440l-25 143l-22 -143z" />
<glyph unicode="&#xc3;" horiz-adv-x="1404" d="M4 20q0 2 22.5 61.5t59.5 156t84 219.5t96 252l262 684q6 16 21 20l174 21h123q12 0 20 -21q150 -389 267 -694q49 -131 97 -256t86 -222.5t60.5 -157.5t22.5 -63q0 -20 -21 -20h-258q-14 0 -20 20l-137 379h-527l-135 -379q-6 -20 -20 -20h-256q-21 0 -21 20zM311 1618 q0 117 64.5 191.5t181.5 74.5q43 0 81 -17.5t72.5 -39t65.5 -38.5t58 -17q23 0 37 17t14 34q0 20 20 20h164q20 0 21 -20q0 -117 -64.5 -192t-181.5 -75q-43 0 -81 17.5t-73 39t-65.5 39t-57.5 17.5q-23 0 -37 -17.5t-14 -33.5q0 -20 -20 -21h-164q-21 1 -21 21zM518 625 h365l-158 440l-25 143l-22 -143z" />
<glyph unicode="&#xc4;" horiz-adv-x="1404" d="M4 20q0 2 22.5 61.5t59.5 156t84 219.5t96 252l262 684q6 16 21 20l174 21h123q12 0 20 -21q150 -389 267 -694q49 -131 97 -256t86 -222.5t60.5 -157.5t22.5 -63q0 -20 -21 -20h-258q-14 0 -20 20l-137 379h-527l-135 -379q-6 -20 -20 -20h-256q-21 0 -21 20zM332 1700 q0 68 48 116t116 48t115.5 -48.5t47.5 -115.5q0 -68 -48 -116t-115 -48q-68 0 -116 48t-48 116zM518 625h365l-158 440l-25 143l-22 -143zM741 1700q0 68 48.5 116t115.5 48q68 0 116 -48.5t48 -115.5q0 -68 -48 -116t-116 -48t-116 48t-48 116z" />
<glyph unicode="&#xc5;" horiz-adv-x="1404" d="M4 20q0 2 22.5 61.5t59.5 156t84 219.5t96 252l262 684q6 16 21 20l174 21h123q12 0 20 -21q150 -389 267 -694q49 -131 97 -256t86 -222.5t60.5 -157.5t22.5 -63q0 -20 -21 -20h-258q-14 0 -20 20l-137 379h-527l-135 -379q-6 -20 -20 -20h-256q-21 0 -21 20zM434 1761 q0 45 12.5 89t43 79t82 56.5t128.5 21.5q76 0 127.5 -20.5t82 -54.5t44 -78t13.5 -93t-13.5 -94t-44 -79t-82 -53t-127.5 -19q-78 0 -129 21.5t-81.5 55t-43 77.5t-12.5 91zM518 625h365l-158 440l-25 143l-22 -143zM639 1761q0 -61 61 -61t62 61q0 61 -62 62 q-61 -1 -61 -62z" />
<glyph unicode="&#xc6;" horiz-adv-x="1738" d="M4 20q0 2 22.5 61.5t59.5 156t84 219.5t96 252l262 684q8 20 21 20l172 21h860q16 0 21 -21q4 -51 10 -90q4 -35 7 -62.5t3 -31.5q0 -20 -20 -21h-662l82 -358h518q20 0 21 -21v-184q0 -20 -21 -20h-473l88 -400h447q20 0 20 -20q0 -4 -3 -33t-7 -63q-6 -39 -10 -89 q-4 -20 -21 -20h-655q-16 0 -21 20l-76 379h-393l-135 -379q-6 -20 -20 -20h-256q-21 0 -21 20zM518 625h266l-104 522l-25 -143z" />
<glyph unicode="&#xc7;" horiz-adv-x="1275" d="M109 717q0 74 7 156.5t30.5 164.5t68.5 158t120 133t185.5 91t263.5 34q68 0 130.5 -10t111.5 -21q55 -14 107 -30q16 -6 20 -21q4 -57 10 -100q4 -39 7.5 -70t3.5 -35q0 -20 -21 -20q-8 0 -43 12t-87 27.5t-114.5 29t-124.5 13.5q-123 0 -197.5 -52.5t-114.5 -130 t-53 -166.5t-13 -163t13 -163t53 -167t115 -130t197 -52q61 0 121 9t108 21.5t79.5 21.5t40.5 9q16 0 20 -20q4 -57 10 -101q4 -39 7.5 -69.5t3.5 -34.5q0 -16 -21 -21q-12 -4 -85 -17t-185 -19l-84 -35q109 0 177 -63.5t68 -172.5q0 -49 -20 -94t-55 -79t-84 -53t-107 -19 q-45 0 -91 10t-85 24q-45 16 -88 37q-18 8 -18 21q0 4 6 21.5t14 39.5q8 25 21 55q6 16 22 17q6 0 28.5 -6t55.5 -14.5t69 -14.5t66 -6q31 0 51.5 15.5t20.5 45.5q0 31 -20.5 46.5t-51.5 15.5h-184q-14 0 -14 20q0 2 7 25.5t18 54.5t22.5 62.5t17.5 50.5q-121 16 -209 57 t-147.5 99.5t-95 129t-54 146.5t-24.5 152.5t-6 144.5z" />
<glyph unicode="&#xc8;" horiz-adv-x="1236" d="M178 20v1373q0 16 21 20l204 21h676q16 0 21 -21q4 -51 10 -90q4 -35 7 -62.5t3 -31.5q0 -20 -20 -21h-635v-358h573q20 0 21 -21v-184q0 -20 -21 -20h-573v-400h635q20 0 20 -20q0 -4 -3 -33t-7 -63q-6 -39 -10 -89q-4 -20 -21 -20h-880q-21 0 -21 20zM301 1864 q0 20 21 20h225q27 0 41 -20l102 -140q39 -53 71 -98t32 -49q0 -20 -21 -21h-184q-25 0 -41 21l-123 139q-23 27 -45.5 52.5t-39.5 46t-27.5 34t-10.5 15.5z" />
<glyph unicode="&#xc9;" horiz-adv-x="1236" d="M178 20v1373q0 16 21 20l204 21h676q16 0 21 -21q4 -51 10 -90q4 -35 7 -62.5t3 -31.5q0 -20 -20 -21h-635v-358h573q20 0 21 -21v-184q0 -20 -21 -20h-573v-400h635q20 0 20 -20q0 -4 -3 -33t-7 -63q-6 -39 -10 -89q-4 -20 -21 -20h-880q-21 0 -21 20zM528 1577 q0 4 32 49t71 98l102 140q14 20 41 20h225q20 0 21 -20q0 -2 -10.5 -15.5t-27.5 -34t-39.5 -46t-45.5 -52.5l-123 -139q-16 -20 -41 -21h-184q-21 1 -21 21z" />
<glyph unicode="&#xca;" horiz-adv-x="1236" d="M178 20v1373q0 16 21 20l204 21h676q16 0 21 -21q4 -51 10 -90q4 -35 7 -62.5t3 -31.5q0 -20 -20 -21h-635v-358h573q20 0 21 -21v-184q0 -20 -21 -20h-573v-400h635q20 0 20 -20q0 -4 -3 -33t-7 -63q-6 -39 -10 -89q-4 -20 -21 -20h-880q-21 0 -21 20zM322 1577 q0 4 31.5 49t70.5 98l102 140q16 20 41 20h164q25 0 41 -20l102 -140q39 -53 71 -98t32 -49q0 -20 -21 -21h-204q-27 0 -41 21l-41 82l-21 102l-20 -102l-41 -82q-14 -20 -41 -21h-205q-20 1 -20 21z" />
<glyph unicode="&#xcb;" horiz-adv-x="1236" d="M178 20v1373q0 16 21 20l204 21h676q16 0 21 -21q4 -51 10 -90q4 -35 7 -62.5t3 -31.5q0 -20 -20 -21h-635v-358h573q20 0 21 -21v-184q0 -20 -21 -20h-573v-400h635q20 0 20 -20q0 -4 -3 -33t-7 -63q-6 -39 -10 -89q-4 -20 -21 -20h-880q-21 0 -21 20zM281 1700 q0 68 48 116t115 48q68 0 116 -48.5t48 -115.5q0 -68 -48 -116t-116 -48t-115.5 48t-47.5 116zM690 1700q0 68 48 116t116 48t116 -48.5t48 -115.5q0 -68 -48 -116t-116 -48t-116 48t-48 116z" />
<glyph unicode="&#xcc;" horiz-adv-x="643" d="M-27 1864q0 20 21 20h225q27 0 41 -20l102 -140q39 -53 71 -98t32 -49q0 -20 -21 -21h-184q-25 0 -41 21l-123 139q-23 27 -45 52.5t-39.5 46t-28 34t-10.5 15.5zM178 20v1373q0 16 21 20q68 4 120 10q47 4 85 7.5t40 3.5q20 0 21 -21v-1393q0 -20 -21 -20h-245 q-21 0 -21 20z" />
<glyph unicode="&#xcd;" horiz-adv-x="643" d="M178 20v1373q0 16 21 20q68 4 120 10q47 4 85 7.5t40 3.5q20 0 21 -21v-1393q0 -20 -21 -20h-245q-21 0 -21 20zM178 1577q0 4 32 49t71 98l102 140q14 20 41 20h225q20 0 21 -20q0 -2 -10.5 -15.5t-28 -34t-40 -46t-44.5 -52.5l-123 -139q-16 -20 -41 -21h-184 q-21 1 -21 21z" />
<glyph unicode="&#xce;" horiz-adv-x="643" d="M-6 1577q0 4 31.5 49t70.5 98l103 140q16 20 41 20h163q25 0 41 -20l103 -140q39 -53 70.5 -98t31.5 -49q0 -20 -20 -21h-205q-27 0 -41 21l-41 82l-20 102l-21 -102l-41 -82q-14 -20 -41 -21h-205q-20 1 -20 21zM178 20v1373q0 16 21 20q68 4 120 10q47 4 85 7.5t40 3.5 q20 0 21 -21v-1393q0 -20 -21 -20h-245q-21 0 -21 20z" />
<glyph unicode="&#xcf;" horiz-adv-x="643" d="M-47 1700q0 68 48 116t116 48t116 -48.5t48 -115.5q0 -68 -48.5 -116t-115.5 -48q-68 0 -116 48t-48 116zM178 20v1373q0 16 21 20q68 4 120 10q47 4 85 7.5t40 3.5q20 0 21 -21v-1393q0 -20 -21 -20h-245q-21 0 -21 20zM362 1700q0 68 48.5 116t115.5 48q68 0 116 -48.5 t48 -115.5q0 -68 -48 -116t-116 -48t-116 48t-48 116z" />
<glyph unicode="&#xd0;" horiz-adv-x="1490" d="M53 645q0 4 3 32t7 62q4 39 11 90q4 20 20 21h144v543q0 16 20 20l184 21h267q154 0 263 -33t185 -88.5t120 -127t68.5 -151.5t31.5 -161.5t7 -155.5t-7 -156t-31.5 -162t-68.5 -151.5t-120 -126.5t-185.5 -88t-262.5 -33h-451q-20 0 -20 20v605h-164q-21 0 -21 20z M524 225h185q123 0 197.5 51.5t114.5 126t53 159.5t13 155t-13 154.5t-53 159.5t-115 126t-197 51h-185v-358h164q20 0 21 -21q0 -4 -3.5 -32.5t-7.5 -63.5q-6 -39 -10 -88q-4 -20 -20 -20h-144v-400z" />
<glyph unicode="&#xd1;" horiz-adv-x="1564" d="M178 20v1373q0 16 21 20l163 21h226q10 0 20 -21l451 -962l41 -164v1106q0 16 20 20l246 21q20 0 20 -21v-1393q0 -20 -20 -20h-389q-10 0 -21 20l-450 963l-41 164v-1127q0 -20 -21 -20h-245q-21 0 -21 20zM383 1597q0 117 64.5 192t181.5 75q43 0 81 -17.5t72.5 -39 t65.5 -39t57 -17.5q23 0 37 17.5t14 33.5q0 20 21 21h164q20 0 20 -21q0 -117 -64.5 -191.5t-181.5 -74.5q-43 0 -80.5 17.5t-72.5 39t-65.5 39t-57.5 17.5q-23 0 -37 -17.5t-14 -34.5q0 -20 -21 -20h-164q-20 0 -20 20z" />
<glyph unicode="&#xd2;" horiz-adv-x="1519" d="M104 717q0 154 32 288t107.5 233t201.5 157.5t315 58.5q188 0 314 -58.5t202 -157.5t107.5 -233.5t31.5 -287.5q0 -154 -31.5 -288t-107.5 -233.5t-202 -157.5t-314 -58t-314.5 58t-202 157.5t-107.5 233.5t-32 288zM401 717q0 -100 15.5 -192.5t56.5 -163t109.5 -113.5 t177.5 -43q106 0 176 43t110.5 113.5t56 162.5t15.5 193q0 100 -15.5 192t-56 163t-110.5 114t-176 43q-109 0 -177.5 -43t-109.5 -114t-56.5 -163t-15.5 -192zM412 1864q0 20 20 20h225q27 0 41 -20l103 -140q39 -53 70.5 -98t31.5 -49q0 -20 -20 -21h-185q-25 0 -41 21 l-122 139q-23 27 -45.5 52.5t-40 46t-27.5 34t-10 15.5z" />
<glyph unicode="&#xd3;" horiz-adv-x="1519" d="M104 717q0 154 32 288t107.5 233t201.5 157.5t315 58.5q188 0 314 -58.5t202 -157.5t107.5 -233.5t31.5 -287.5q0 -154 -31.5 -288t-107.5 -233.5t-202 -157.5t-314 -58t-314.5 58t-202 157.5t-107.5 233.5t-32 288zM401 717q0 -100 15.5 -192.5t56.5 -163t109.5 -113.5 t177.5 -43q106 0 176 43t110.5 113.5t56 162.5t15.5 193q0 100 -15.5 192t-56 163t-110.5 114t-176 43q-109 0 -177.5 -43t-109.5 -114t-56.5 -163t-15.5 -192zM616 1577q0 4 32 49t71 98l102 140q14 20 41 20h225q20 0 21 -20q0 -2 -10.5 -15.5t-27.5 -34t-39.5 -46 t-45.5 -52.5l-123 -139q-16 -20 -41 -21h-184q-21 1 -21 21z" />
<glyph unicode="&#xd4;" horiz-adv-x="1519" d="M104 717q0 154 32 288t107.5 233t201.5 157.5t315 58.5q188 0 314 -58.5t202 -157.5t107.5 -233.5t31.5 -287.5q0 -154 -31.5 -288t-107.5 -233.5t-202 -157.5t-314 -58t-314.5 58t-202 157.5t-107.5 233.5t-32 288zM401 717q0 -100 15.5 -192.5t56.5 -163t109.5 -113.5 t177.5 -43q106 0 176 43t110.5 113.5t56 162.5t15.5 193q0 100 -15.5 192t-56 163t-110.5 114t-176 43q-109 0 -177.5 -43t-109.5 -114t-56.5 -163t-15.5 -192zM432 1577q0 4 32 49t71 98l102 140q16 20 41 20h164q25 0 41 -20l102 -140q39 -53 70.5 -98t31.5 -49 q0 -20 -20 -21h-205q-27 0 -41 21l-41 82l-20 102l-21 -102l-41 -82q-14 -20 -41 -21h-204q-21 1 -21 21z" />
<glyph unicode="&#xd5;" horiz-adv-x="1519" d="M104 717q0 154 32 288t107.5 233t201.5 157.5t315 58.5q188 0 314 -58.5t202 -157.5t107.5 -233.5t31.5 -287.5q0 -154 -31.5 -288t-107.5 -233.5t-202 -157.5t-314 -58t-314.5 58t-202 157.5t-107.5 233.5t-32 288zM371 1618q0 117 64.5 191.5t180.5 74.5q43 0 81 -17.5 t73 -39t65.5 -38.5t57.5 -17q23 0 37 17t14 34q0 20 21 20h163q20 0 21 -20q0 -117 -64.5 -192t-181.5 -75q-43 0 -81 17.5t-72.5 39t-65.5 39t-57 17.5q-23 0 -37.5 -17.5t-14.5 -33.5q0 -20 -20 -21h-164q-20 1 -20 21zM401 717q0 -100 15.5 -192.5t56.5 -163 t109.5 -113.5t177.5 -43q106 0 176 43t110.5 113.5t56 162.5t15.5 193q0 100 -15.5 192t-56 163t-110.5 114t-176 43q-109 0 -177.5 -43t-109.5 -114t-56.5 -163t-15.5 -192z" />
<glyph unicode="&#xd6;" horiz-adv-x="1519" d="M104 717q0 154 32 288t107.5 233t201.5 157.5t315 58.5q188 0 314 -58.5t202 -157.5t107.5 -233.5t31.5 -287.5q0 -154 -31.5 -288t-107.5 -233.5t-202 -157.5t-314 -58t-314.5 58t-202 157.5t-107.5 233.5t-32 288zM391 1700q0 68 48 116t116 48t116 -48.5t48 -115.5 q0 -68 -48 -116t-116 -48t-116 48t-48 116zM401 717q0 -100 15.5 -192.5t56.5 -163t109.5 -113.5t177.5 -43q106 0 176 43t110.5 113.5t56 162.5t15.5 193q0 100 -15.5 192t-56 163t-110.5 114t-176 43q-109 0 -177.5 -43t-109.5 -114t-56.5 -163t-15.5 -192zM801 1700 q0 68 48 116t116 48t115.5 -48.5t47.5 -115.5q0 -68 -48 -116t-115 -48q-68 0 -116 48t-48 116z" />
<glyph unicode="&#xd7;" horiz-adv-x="1177" d="M76 236q0 10 6 16l332 332l-330 331q-6 6 -6 17q0 8 6 14l143 144q6 6 15 6q10 0 16 -6l330 -332l332 332q6 6 16 6q8 0 14 -6l144 -144q6 -6 6 -14q0 -10 -6 -17l-332 -331l334 -332q6 -6 6 -16q0 -8 -6 -15l-144 -143q-6 -6 -14 -6q-10 0 -16 6l-334 332l-332 -332 q-6 -6 -16 -6q-8 0 -15 6l-143 143q-6 7 -6 15z" />
<glyph unicode="&#xd8;" horiz-adv-x="1611" d="M70 20l188 222q-59 98 -82.5 219t-23.5 256q0 154 31.5 288t107.5 233t201.5 157.5t314.5 58.5q129 0 226 -27.5t171 -76.5l53 63q10 12 23.5 16.5t17.5 4.5h226q20 0 20 -21l-190 -223q59 -96 83.5 -217t24.5 -256q0 -154 -31.5 -288t-107.5 -233.5t-202 -157.5 t-314 -58q-129 0 -227.5 26.5t-169.5 75.5l-54 -62q-14 -20 -41 -20h-225q-20 0 -20 20zM449 717q0 -59 5 -115.5t17 -109.5l561 657q-41 37 -96 58.5t-129 21.5q-109 0 -177.5 -43t-109.5 -114t-56 -163t-15 -192zM580 283q41 -37 96 -57.5t131 -20.5q106 0 176 43 t111 113.5t56 162.5t15 193q0 59 -5 115.5t-17 109.5z" />
<glyph unicode="&#xd9;" horiz-adv-x="1433" d="M164 532v861q0 20 20 20l246 21q20 0 21 -21v-860q0 -74 9 -138.5t37.5 -110.5t81 -72.5t138.5 -26.5t138 26.5t81 72.5t38 110.5t9 138.5v840q0 20 21 20l245 21q20 0 21 -21v-881q0 -154 -38 -259t-108.5 -170.5t-173 -94t-233.5 -28.5t-233.5 28.5t-173 94 t-108.5 170.5t-38 259zM369 1864q0 20 20 20h225q27 0 41 -20l103 -140q39 -53 70.5 -98t31.5 -49q0 -20 -20 -21h-185q-25 0 -41 21l-122 139q-23 27 -45.5 52.5t-40 46t-27.5 34t-10 15.5z" />
<glyph unicode="&#xda;" horiz-adv-x="1433" d="M164 532v861q0 20 20 20l246 21q20 0 21 -21v-860q0 -74 9 -138.5t37.5 -110.5t81 -72.5t138.5 -26.5t138 26.5t81 72.5t38 110.5t9 138.5v840q0 20 21 20l245 21q20 0 21 -21v-881q0 -154 -38 -259t-108.5 -170.5t-173 -94t-233.5 -28.5t-233.5 28.5t-173 94 t-108.5 170.5t-38 259zM573 1577q0 4 32 49t71 98l102 140q14 20 41 20h225q20 0 21 -20q0 -2 -10.5 -15.5t-27.5 -34t-39.5 -46t-45.5 -52.5l-123 -139q-16 -20 -41 -21h-184q-21 1 -21 21z" />
<glyph unicode="&#xdb;" horiz-adv-x="1433" d="M164 532v861q0 20 20 20l246 21q20 0 21 -21v-860q0 -74 9 -138.5t37.5 -110.5t81 -72.5t138.5 -26.5t138 26.5t81 72.5t38 110.5t9 138.5v840q0 20 21 20l245 21q20 0 21 -21v-881q0 -154 -38 -259t-108.5 -170.5t-173 -94t-233.5 -28.5t-233.5 28.5t-173 94 t-108.5 170.5t-38 259zM389 1577q0 4 32 49t71 98l102 140q16 20 41 20h164q25 0 41 -20l102 -140q39 -53 70.5 -98t31.5 -49q0 -20 -20 -21h-205q-27 0 -41 21l-41 82l-20 102l-21 -102l-41 -82q-14 -20 -41 -21h-204q-21 1 -21 21z" />
<glyph unicode="&#xdc;" horiz-adv-x="1433" d="M164 532v861q0 20 20 20l246 21q20 0 21 -21v-860q0 -74 9 -138.5t37.5 -110.5t81 -72.5t138.5 -26.5t138 26.5t81 72.5t38 110.5t9 138.5v840q0 20 21 20l245 21q20 0 21 -21v-881q0 -154 -38 -259t-108.5 -170.5t-173 -94t-233.5 -28.5t-233.5 28.5t-173 94 t-108.5 170.5t-38 259zM348 1700q0 68 48 116t116 48t116 -48.5t48 -115.5q0 -68 -48 -116t-116 -48t-116 48t-48 116zM758 1700q0 68 48 116t116 48t115.5 -48.5t47.5 -115.5q0 -68 -48 -116t-115 -48q-68 0 -116 48t-48 116z" />
<glyph unicode="&#xdd;" horiz-adv-x="1257" d="M2 1393q0 16 21 20q72 4 127 10q47 4 88 7.5t45 3.5q10 0 18 -6.5t12 -14.5l293 -532l21 -123l20 123l293 532q10 20 31 21h270q20 0 21 -21l-27 -45q-27 -45 -70 -114.5t-96 -158.5t-107.5 -178.5t-105.5 -172t-86 -140.5v-584q0 -20 -20 -20h-246q-20 0 -21 20v584 q-135 219 -241 391q-45 74 -88 144.5t-77 126t-54.5 90.5t-20.5 37zM504 1577q0 4 31.5 49t70.5 98l103 140q14 20 41 20h225q20 0 20 -20q0 -2 -10 -15.5t-27.5 -34t-40 -46t-45.5 -52.5l-122 -139q-16 -20 -41 -21h-185q-20 1 -20 21z" />
<glyph unicode="&#xde;" d="M178 20v1373q0 16 21 20q68 4 120 10q47 4 85 7.5t40 3.5q20 0 21 -21v-246h143q176 0 281.5 -38.5t161 -100t73 -138.5t17.5 -153q0 -78 -17.5 -154.5t-73 -138t-161 -99.5t-281.5 -38h-143v-287q0 -20 -21 -20h-245q-21 0 -21 20zM465 532h143q84 0 133.5 20.5t74 51.5 t31.5 67t7 66q0 31 -7 67t-31.5 66.5t-74 51t-133.5 20.5h-143v-410z" />
<glyph unicode="&#xdf;" horiz-adv-x="1259" d="M127 20q0 6 10 44t10 100v942q0 94 23 173t78 136.5t150.5 89t240.5 31.5q141 0 229 -36t137.5 -95t67 -137t17.5 -162q0 -49 -3.5 -90t-7.5 -72q-6 -37 -10 -63h-123q-53 0 -77.5 -27t-24.5 -66q0 -41 25.5 -69.5t64.5 -54t84 -52t84 -64.5t64.5 -91.5t25.5 -128.5 q0 -166 -102.5 -257t-307.5 -91q-88 0 -137 5t-73.5 11t-29.5 13t-5 11t3 35t7 70q4 43 10 100q4 20 21 21q8 0 29 -6l50 -15q29 -8 62 -14t63 -6q61 0 92 27.5t31 74.5q0 35 -25.5 61.5t-64.5 51t-84 53.5t-84 70t-64.5 97t-25.5 138q0 61 16.5 114.5t48 94.5t76.5 66.5 t105 31.5v21q0 37 -5 72.5t-22.5 65.5t-50.5 48.5t-86 18.5q-61 0 -101 -18.5t-62.5 -48.5t-32 -65.5t-9.5 -72.5v-942q0 -31 -3 -57.5t-7 -45.5q-6 -23 -10 -41q-6 -20 -21 -20h-246q-20 0 -20 20z" />
<glyph unicode="&#xe0;" horiz-adv-x="1112" d="M76 317q0 162 112.5 240t296.5 78q39 0 76 -3t66 -7q35 -6 63 -11v82q0 43 -36 83t-128 40q-61 0 -124.5 -16.5t-116 -34.5t-88 -34.5t-39.5 -16.5q-20 0 -21 20q0 2 3 34t7 71q4 45 11 100q4 14 20 21q2 2 34 14t81 27.5t110.5 27.5t122.5 12q100 0 183.5 -22.5 t142.5 -64.5t92 -103t33 -137v-533q0 -78 10 -116.5t10 -47.5q0 -20 -20 -20h-246q-6 0 -12 5t-8 15l-11 82q-23 -35 -59 -61q-31 -23 -79 -42t-118 -19q-49 0 -113.5 14t-120.5 51t-95 102.5t-39 169.5zM219 1454q0 20 21 21h225q27 0 41 -21l102 -139q39 -53 71 -98.5 t32 -49.5q0 -20 -21 -20h-184q-25 0 -41 20l-123 140q-23 27 -45.5 52t-39.5 45.5t-27.5 34t-10.5 15.5zM362 317q0 -47 27 -79.5t96 -32.5q61 0 101.5 12t63 37t31.5 63.5t9 92.5v20h-205q-70 0 -96.5 -33t-26.5 -80z" />
<glyph unicode="&#xe1;" horiz-adv-x="1112" d="M76 317q0 162 112.5 240t296.5 78q39 0 76 -3t66 -7q35 -6 63 -11v82q0 43 -36 83t-128 40q-61 0 -124.5 -16.5t-116 -34.5t-88 -34.5t-39.5 -16.5q-20 0 -21 20q0 2 3 34t7 71q4 45 11 100q4 14 20 21q2 2 34 14t81 27.5t110.5 27.5t122.5 12q100 0 183.5 -22.5 t142.5 -64.5t92 -103t33 -137v-533q0 -78 10 -116.5t10 -47.5q0 -20 -20 -20h-246q-6 0 -12 5t-8 15l-11 82q-23 -35 -59 -61q-31 -23 -79 -42t-118 -19q-49 0 -113.5 14t-120.5 51t-95 102.5t-39 169.5zM362 317q0 -47 27 -79.5t96 -32.5q61 0 101.5 12t63 37t31.5 63.5 t9 92.5v20h-205q-70 0 -96.5 -33t-26.5 -80zM403 1167q0 4 32 49.5t71 98.5l102 139q14 20 41 21h225q20 0 21 -21q0 -2 -10.5 -15.5t-27.5 -34t-39.5 -46t-45.5 -51.5l-123 -140q-16 -20 -41 -20h-184q-21 0 -21 20z" />
<glyph unicode="&#xe2;" horiz-adv-x="1112" d="M76 317q0 162 112.5 240t296.5 78q39 0 76 -3t66 -7q35 -6 63 -11v82q0 43 -36 83t-128 40q-61 0 -124.5 -16.5t-116 -34.5t-88 -34.5t-39.5 -16.5q-20 0 -21 20q0 2 3 34t7 71q4 45 11 100q4 14 20 21q2 2 34 14t81 27.5t110.5 27.5t122.5 12q100 0 183.5 -22.5 t142.5 -64.5t92 -103t33 -137v-533q0 -78 10 -116.5t10 -47.5q0 -20 -20 -20h-246q-6 0 -12 5t-8 15l-11 82q-23 -35 -59 -61q-31 -23 -79 -42t-118 -19q-49 0 -113.5 14t-120.5 51t-95 102.5t-39 169.5zM209 1167q0 4 31.5 49.5t70.5 98.5l103 139q16 20 41 21h163 q25 0 41 -21l103 -139q39 -53 70.5 -98.5t31.5 -49.5q0 -20 -20 -20h-205q-27 0 -41 20l-41 82l-20 103l-21 -103l-41 -82q-14 -20 -41 -20h-205q-20 0 -20 20zM362 317q0 -47 27 -79.5t96 -32.5q61 0 101.5 12t63 37t31.5 63.5t9 92.5v20h-205q-70 0 -96.5 -33t-26.5 -80z " />
<glyph unicode="&#xe3;" horiz-adv-x="1112" d="M76 317q0 162 112.5 240t296.5 78q39 0 76 -3t66 -7q35 -6 63 -11v82q0 43 -36 83t-128 40q-61 0 -124.5 -16.5t-116 -34.5t-88 -34.5t-39.5 -16.5q-20 0 -21 20q0 2 3 34t7 71q4 45 11 100q4 14 20 21q2 2 34 14t81 27.5t110.5 27.5t122.5 12q100 0 183.5 -22.5 t142.5 -64.5t92 -103t33 -137v-533q0 -78 10 -116.5t10 -47.5q0 -20 -20 -20h-246q-6 0 -12 5t-8 15l-11 82q-23 -35 -59 -61q-31 -23 -79 -42t-118 -19q-49 0 -113.5 14t-120.5 51t-95 102.5t-39 169.5zM158 1208q0 117 64.5 192t180.5 75q43 0 81 -17.5t73 -39t65.5 -39 t57.5 -17.5q23 0 37 17.5t14 33.5q0 20 21 21h163q20 0 21 -21q0 -117 -64.5 -191.5t-181.5 -74.5q-43 0 -81 17.5t-72.5 39t-65.5 39t-57 17.5q-23 0 -37.5 -17.5t-14.5 -34.5q0 -20 -20 -20h-164q-20 0 -20 20zM362 317q0 -47 27 -79.5t96 -32.5q61 0 101.5 12t63 37 t31.5 63.5t9 92.5v20h-205q-70 0 -96.5 -33t-26.5 -80z" />
<glyph unicode="&#xe4;" horiz-adv-x="1112" d="M76 317q0 162 112.5 240t296.5 78q39 0 76 -3t66 -7q35 -6 63 -11v82q0 43 -36 83t-128 40q-61 0 -124.5 -16.5t-116 -34.5t-88 -34.5t-39.5 -16.5q-20 0 -21 20q0 2 3 34t7 71q4 45 11 100q4 14 20 21q2 2 34 14t81 27.5t110.5 27.5t122.5 12q100 0 183.5 -22.5 t142.5 -64.5t92 -103t33 -137v-533q0 -78 10 -116.5t10 -47.5q0 -20 -20 -20h-246q-6 0 -12 5t-8 15l-11 82q-23 -35 -59 -61q-31 -23 -79 -42t-118 -19q-49 0 -113.5 14t-120.5 51t-95 102.5t-39 169.5zM178 1290q0 68 48 116t116 48t116 -48t48 -116t-48 -116t-116 -48 t-116 48t-48 116zM362 317q0 -47 27 -79.5t96 -32.5q61 0 101.5 12t63 37t31.5 63.5t9 92.5v20h-205q-70 0 -96.5 -33t-26.5 -80zM588 1290q0 68 48 116t116 48t115.5 -48t47.5 -116t-48 -116t-115 -48q-68 0 -116 48t-48 116z" />
<glyph unicode="&#xe5;" horiz-adv-x="1112" d="M76 317q0 162 112.5 240t296.5 78q39 0 76 -3t66 -7q35 -6 63 -11v82q0 43 -36 83t-128 40q-61 0 -124.5 -16.5t-116 -34.5t-88 -34.5t-39.5 -16.5q-20 0 -21 20q0 2 3 34t7 71q4 45 11 100q4 14 20 21q2 2 34 14t81 27.5t110.5 27.5t122.5 12q100 0 183.5 -22.5 t142.5 -64.5t92 -103t33 -137v-533q0 -78 10 -116.5t10 -47.5q0 -20 -20 -20h-246q-6 0 -12 5t-8 15l-11 82q-23 -35 -59 -61q-31 -23 -79 -42t-118 -19q-49 0 -113.5 14t-120.5 51t-95 102.5t-39 169.5zM281 1352q0 45 12 89t43 78.5t82 56t129 21.5q76 0 127 -20.5 t81.5 -54t44 -77.5t13.5 -93t-13.5 -94.5t-44 -79t-81.5 -53t-127 -19.5q-78 0 -129 21.5t-82 55.5t-43 78t-12 91zM362 317q0 -47 27 -79.5t96 -32.5q61 0 101.5 12t63 37t31.5 63.5t9 92.5v20h-205q-70 0 -96.5 -33t-26.5 -80zM485 1352q0 -61 62 -62q61 0 61 62 q0 61 -61 61q-62 0 -62 -61z" />
<glyph unicode="&#xe6;" horiz-adv-x="1720" d="M76 317q0 162 112.5 240t296.5 78q39 0 76 -3t66 -7q35 -6 63 -11v82q0 43 -36 83t-128 40q-61 0 -124.5 -16.5t-116 -34.5t-88 -34.5t-39.5 -16.5q-20 0 -21 20q0 2 3 34t7 71q4 45 11 100q4 14 20 21q2 2 34 14t81 27.5t110.5 27.5t122.5 12q207 0 326 -88 q59 41 141 63.5t199 22.5q217 0 335 -127t118 -403v-82q0 -20 -23 -20h-645v-17q2 -37 16.5 -70.5t42 -59t71.5 -42t105 -16.5q66 0 127.5 9t108.5 21.5t77.5 21.5t35.5 9q20 0 20 -20q0 -4 -3 -35t-7 -70q-6 -45 -10 -100q-2 -14 -21 -21q-2 0 -27.5 -7t-69.5 -14 t-102.5 -13t-128.5 -6q-127 0 -216 27.5t-142 74.5q-23 -23 -55.5 -42.5t-80.5 -32.5t-114.5 -20t-159.5 -7q-49 0 -113.5 14t-120.5 51t-95 102.5t-39 169.5zM362 317q0 -47 27 -79.5t96 -32.5q61 0 101.5 12t63 37t31.5 63.5t9 92.5v20h-205q-70 0 -96.5 -33t-26.5 -80z M977 614h377q0 39 -11.5 76t-32 65.5t-50 46t-68.5 17.5q-61 0 -102 -17.5t-67 -46t-36 -65.5t-10 -76z" />
<glyph unicode="&#xe7;" horiz-adv-x="1044" d="M90 512q0 111 19.5 207t78 169t162 114.5t273.5 41.5q57 0 108 -10t92 -20q47 -14 86 -31q16 -6 21 -20q4 -57 10 -101q4 -39 7 -69.5t3 -34.5q0 -20 -20 -21q-4 0 -31 12.5t-69 28t-96 28.5t-111 13q-82 0 -130.5 -24.5t-74 -67.5t-33.5 -98.5t-8 -116.5t10 -116.5 t38 -98.5t76 -67.5t122 -24.5q57 0 107 9t89 21.5t62.5 21.5t27.5 9q16 0 21 -20q4 -57 10 -101q4 -39 7 -69.5t3 -34.5q0 -16 -20 -21q-10 -4 -67.5 -15t-133.5 -19l-90 -37q109 0 177.5 -63.5t68.5 -172.5q0 -49 -20.5 -94t-55.5 -79t-84 -53t-107 -19q-45 0 -91 10 t-85 24q-45 16 -88 37q-18 8 -18 21q0 4 6 21.5t14 39.5q8 25 21 55q6 16 22 17q6 0 29 -6t55.5 -14.5t68.5 -14.5t66 -6q31 0 51.5 15.5t20.5 45.5q0 31 -20.5 46.5t-51.5 15.5h-184q-14 0 -14 20q0 2 8 27l18 55q10 31 22.5 62.5t18.5 50.5q-125 16 -202.5 63t-120.5 116 t-58.5 157t-15.5 186z" />
<glyph unicode="&#xe8;" horiz-adv-x="1130" d="M88 512q0 111 21.5 207t78 167.5t155.5 113.5t257 42q217 0 335 -127t118 -403v-82q0 -20 -23 -20h-645q0 -39 12.5 -76t40 -65.5t72.5 -46t111 -17.5t127 9t108 21.5t78 21.5t35 9q20 0 20 -20q0 -4 -3 -35t-7 -70q-6 -45 -10 -100q-2 -14 -21 -21q-2 0 -27.5 -7 t-69.5 -14t-102.5 -13t-127.5 -6q-166 0 -269.5 41.5t-162 114.5t-80 169t-21.5 207zM221 1454q0 20 21 21h225q27 0 41 -21l102 -139q39 -53 71 -98.5t32 -49.5q0 -20 -21 -20h-184q-25 0 -41 20l-123 140q-23 27 -45.5 52t-39.5 45.5t-27.5 34t-10.5 15.5zM385 614h377 q0 39 -11.5 76t-32 65.5t-50 46t-68.5 17.5q-61 0 -102 -17.5t-66.5 -46t-36 -65.5t-10.5 -76z" />
<glyph unicode="&#xe9;" horiz-adv-x="1130" d="M88 512q0 111 21.5 207t78 167.5t155.5 113.5t257 42q217 0 335 -127t118 -403v-82q0 -20 -23 -20h-645q0 -39 12.5 -76t40 -65.5t72.5 -46t111 -17.5t127 9t108 21.5t78 21.5t35 9q20 0 20 -20q0 -4 -3 -35t-7 -70q-6 -45 -10 -100q-2 -14 -21 -21q-2 0 -27.5 -7 t-69.5 -14t-102.5 -13t-127.5 -6q-166 0 -269.5 41.5t-162 114.5t-80 169t-21.5 207zM385 614h377q0 39 -11.5 76t-32 65.5t-50 46t-68.5 17.5q-61 0 -102 -17.5t-66.5 -46t-36 -65.5t-10.5 -76zM426 1167q0 4 31.5 49.5t70.5 98.5l103 139q14 20 41 21h225q20 0 21 -21 q0 -2 -10.5 -15.5t-28 -34t-40 -46t-44.5 -51.5l-123 -140q-16 -20 -41 -20h-185q-20 0 -20 20z" />
<glyph unicode="&#xea;" horiz-adv-x="1130" d="M88 512q0 111 21.5 207t78 167.5t155.5 113.5t257 42q217 0 335 -127t118 -403v-82q0 -20 -23 -20h-645q0 -39 12.5 -76t40 -65.5t72.5 -46t111 -17.5t127 9t108 21.5t78 21.5t35 9q20 0 20 -20q0 -4 -3 -35t-7 -70q-6 -45 -10 -100q-2 -14 -21 -21q-2 0 -27.5 -7 t-69.5 -14t-102.5 -13t-127.5 -6q-166 0 -269.5 41.5t-162 114.5t-80 169t-21.5 207zM242 1167q0 4 31.5 49.5t70.5 98.5l102 139q16 20 41 21h164q25 0 41 -21l103 -139q39 -53 70.5 -98.5t31.5 -49.5q0 -20 -20 -20h-205q-27 0 -41 20l-41 82l-21 103l-20 -103l-41 -82 q-14 -20 -41 -20h-205q-20 0 -20 20zM385 614h377q0 39 -11.5 76t-32 65.5t-50 46t-68.5 17.5q-61 0 -102 -17.5t-66.5 -46t-36 -65.5t-10.5 -76z" />
<glyph unicode="&#xeb;" horiz-adv-x="1130" d="M88 512q0 111 21.5 207t78 167.5t155.5 113.5t257 42q217 0 335 -127t118 -403v-82q0 -20 -23 -20h-645q0 -39 12.5 -76t40 -65.5t72.5 -46t111 -17.5t127 9t108 21.5t78 21.5t35 9q20 0 20 -20q0 -4 -3 -35t-7 -70q-6 -45 -10 -100q-2 -14 -21 -21q-2 0 -27.5 -7 t-69.5 -14t-102.5 -13t-127.5 -6q-166 0 -269.5 41.5t-162 114.5t-80 169t-21.5 207zM201 1290q0 68 48 116t116 48t115.5 -48t47.5 -116t-48 -116t-115 -48q-68 0 -116 48t-48 116zM385 614h377q0 39 -11.5 76t-32 65.5t-50 46t-68.5 17.5q-61 0 -102 -17.5t-66.5 -46 t-36 -65.5t-10.5 -76zM610 1290q0 68 48.5 116t115.5 48q68 0 116 -48t48 -116t-48 -116t-116 -48t-116 48t-48 116z" />
<glyph unicode="&#xec;" horiz-adv-x="577" d="M-61 1454q0 20 20 21h225q27 0 41 -21l103 -139q39 -53 70.5 -98.5t31.5 -49.5q0 -20 -20 -20h-185q-25 0 -41 20l-123 140q-23 27 -45 52t-39.5 45.5t-27.5 34t-10 15.5zM143 164v819q0 16 21 21q4 0 41 4t82 7t82 6t41 3q20 0 20 -20v-840q0 -61 10.5 -99t10.5 -45 q0 -20 -21 -20h-246q-14 0 -20 20q-6 18 -10 41q-11 42 -11 103z" />
<glyph unicode="&#xed;" horiz-adv-x="577" d="M143 164v819q0 16 21 21q4 0 41 4t82 7t82 6t41 3q20 0 20 -20v-840q0 -61 10.5 -99t10.5 -45q0 -20 -21 -20h-246q-14 0 -20 20q-6 18 -10 41q-11 42 -11 103zM143 1167q0 4 32 49.5t71 98.5l102 139q14 20 41 21h225q20 0 21 -21q0 -2 -10.5 -15.5t-27.5 -34t-39.5 -46 t-45.5 -51.5l-123 -140q-16 -20 -41 -20h-184q-21 0 -21 20z" />
<glyph unicode="&#xee;" horiz-adv-x="577" d="M-41 1167q0 4 32 49.5t70 98.5l103 139q16 20 41 21h164q25 0 41 -21l102 -139q39 -53 70.5 -98.5t31.5 -49.5q0 -20 -20 -20h-205q-27 0 -41 20l-41 82l-20 103l-21 -103l-41 -82q-14 -20 -41 -20h-204q-21 0 -21 20zM143 164v819q0 16 21 21q4 0 41 4t82 7t82 6t41 3 q20 0 20 -20v-840q0 -61 10.5 -99t10.5 -45q0 -20 -21 -20h-246q-14 0 -20 20q-6 18 -10 41q-11 42 -11 103z" />
<glyph unicode="&#xef;" horiz-adv-x="577" d="M-82 1290q0 68 48 116t116 48t116 -48t48 -116t-48 -116t-116 -48t-116 48t-48 116zM143 164v819q0 16 21 21q4 0 41 4t82 7t82 6t41 3q20 0 20 -20v-840q0 -61 10.5 -99t10.5 -45q0 -20 -21 -20h-246q-14 0 -20 20q-6 18 -10 41q-11 42 -11 103zM328 1290q0 68 48 116 t116 48t115.5 -48t47.5 -116t-48 -116t-115 -48q-68 0 -116 48t-48 116z" />
<glyph unicode="&#xf0;" horiz-adv-x="1159" d="M66 430q0 84 21.5 164t75.5 141.5t144 98t230 36.5q68 0 127 -16t98 -35q0 53 -5 105.5t-16 99.5q-96 -41 -159.5 -66.5t-65.5 -25.5q-16 0 -20 18v164q0 10 5 18.5t15 12.5l123 51q-53 33 -123 33q-78 0 -141.5 -13.5t-111.5 -29t-77.5 -27.5t-38.5 -12q-20 0 -20 20 q0 4 3 35t7 70q4 43 10 100q4 14 21 21q51 16 108 30q49 10 112 20.5t128 10.5q141 0 235.5 -39t153.5 -108q111 45 167 68.5t58 23.5q20 0 21 -21v-161q0 -8 -5 -17.5t-16 -13.5l-131 -53q29 -92 39.5 -198t10.5 -218q0 -147 -13.5 -280.5t-65.5 -235t-154.5 -161.5 t-278.5 -60q-135 0 -225.5 38.5t-144.5 102t-77.5 144.5t-23.5 165zM352 430q0 -39 8.5 -79t30 -72.5t57 -53t89.5 -20.5q70 0 113.5 27.5t68 77.5t34 120t9.5 156q-33 16 -70 28q-33 10 -73.5 20.5t-81.5 10.5q-49 0 -85 -19.5t-57.5 -50t-32 -68.5t-10.5 -77z" />
<glyph unicode="&#xf1;" d="M127 1004q0 20 20 20h246q16 0 21 -20l8 -82q29 35 67 61q33 23 81 42t110 19q123 0 198.5 -27.5t118.5 -82.5t57.5 -140t14.5 -200v-574q0 -20 -20 -20h-246q-20 0 -21 20v574q0 127 -31.5 176t-91.5 49q-117 0 -171 -61.5t-54 -163.5v-574q0 -20 -20 -20h-246 q-20 0 -21 20v840q0 61 -10 99.5t-10 44.5zM219 1208q0 117 64.5 192t181.5 75q43 0 81 -17.5t72.5 -39t65.5 -39t57 -17.5q23 0 37.5 17.5t14.5 33.5q0 20 20 21h164q20 0 20 -21q0 -117 -64.5 -191.5t-180.5 -74.5q-43 0 -81 17.5t-73 39t-65.5 39t-57.5 17.5 q-23 0 -37 -17.5t-14 -34.5q0 -20 -21 -20h-163q-21 0 -21 20z" />
<glyph unicode="&#xf2;" horiz-adv-x="1191" d="M84 512q0 137 37 237.5t104.5 166t161.5 97t209 31.5t209 -31.5t161.5 -97t104.5 -166t37 -237.5t-37 -237.5t-104.5 -166t-161.5 -97t-209 -31.5t-209 31.5t-161.5 97t-104.5 166t-37 237.5zM248 1454q0 20 20 21h226q27 0 41 -21l102 -139q39 -53 70.5 -98.5 t31.5 -49.5q0 -20 -20 -20h-184q-25 0 -41 20l-123 140q-23 27 -45.5 52t-40 45.5t-27.5 34t-10 15.5zM373 512q0 -66 11 -122t36.5 -97t68.5 -64.5t107 -23.5q63 0 106 23.5t70 64.5t38 97t11 122t-11 122t-38 97t-70 64.5t-106 23.5t-106.5 -23.5t-69 -64.5t-36.5 -97 t-11 -122z" />
<glyph unicode="&#xf3;" horiz-adv-x="1191" d="M84 512q0 137 37 237.5t104.5 166t161.5 97t209 31.5t209 -31.5t161.5 -97t104.5 -166t37 -237.5t-37 -237.5t-104.5 -166t-161.5 -97t-209 -31.5t-209 31.5t-161.5 97t-104.5 166t-37 237.5zM373 512q0 -66 11 -122t36.5 -97t68.5 -64.5t107 -23.5q63 0 106 23.5 t70 64.5t38 97t11 122t-11 122t-38 97t-70 64.5t-106 23.5t-106.5 -23.5t-69 -64.5t-36.5 -97t-11 -122zM453 1167q0 4 31.5 49.5t70.5 98.5l102 139q14 20 41 21h226q20 0 20 -21q0 -2 -10 -15.5t-27.5 -34t-40 -46t-45.5 -51.5l-123 -140q-16 -20 -41 -20h-184 q-20 0 -20 20z" />
<glyph unicode="&#xf4;" horiz-adv-x="1191" d="M84 512q0 137 37 237.5t104.5 166t161.5 97t209 31.5t209 -31.5t161.5 -97t104.5 -166t37 -237.5t-37 -237.5t-104.5 -166t-161.5 -97t-209 -31.5t-209 31.5t-161.5 97t-104.5 166t-37 237.5zM268 1167q0 4 32 49.5t71 98.5l102 139q16 20 41 21h164q25 0 41 -21 l102 -139q39 -53 71 -98.5t32 -49.5q0 -20 -21 -20h-205q-27 0 -41 20l-41 82l-20 103l-21 -103l-40 -82q-14 -20 -41 -20h-205q-21 0 -21 20zM373 512q0 -66 11 -122t36.5 -97t68.5 -64.5t107 -23.5q63 0 106 23.5t70 64.5t38 97t11 122t-11 122t-38 97t-70 64.5t-106 23.5 t-106.5 -23.5t-69 -64.5t-36.5 -97t-11 -122z" />
<glyph unicode="&#xf5;" horiz-adv-x="1191" d="M84 512q0 137 37 237.5t104.5 166t161.5 97t209 31.5t209 -31.5t161.5 -97t104.5 -166t37 -237.5t-37 -237.5t-104.5 -166t-161.5 -97t-209 -31.5t-209 31.5t-161.5 97t-104.5 166t-37 237.5zM207 1208q0 117 64.5 192t181.5 75q43 0 80.5 -17.5t72.5 -39t65.5 -39 t57.5 -17.5q23 0 37 17.5t14 33.5q0 20 21 21h164q20 0 20 -21q0 -117 -64.5 -191.5t-181.5 -74.5q-43 0 -80.5 17.5t-72.5 39t-66 39t-57 17.5q-23 0 -37 -17.5t-14 -34.5q0 -20 -21 -20h-164q-20 0 -20 20zM373 512q0 -66 11 -122t36.5 -97t68.5 -64.5t107 -23.5 q63 0 106 23.5t70 64.5t38 97t11 122t-11 122t-38 97t-70 64.5t-106 23.5t-106.5 -23.5t-69 -64.5t-36.5 -97t-11 -122z" />
<glyph unicode="&#xf6;" horiz-adv-x="1191" d="M84 512q0 137 37 237.5t104.5 166t161.5 97t209 31.5t209 -31.5t161.5 -97t104.5 -166t37 -237.5t-37 -237.5t-104.5 -166t-161.5 -97t-209 -31.5t-209 31.5t-161.5 97t-104.5 166t-37 237.5zM227 1290q0 68 48.5 116t115.5 48q68 0 116 -48t48 -116t-48 -116t-116 -48 t-116 48t-48 116zM373 512q0 -66 11 -122t36.5 -97t68.5 -64.5t107 -23.5q63 0 106 23.5t70 64.5t38 97t11 122t-11 122t-38 97t-70 64.5t-106 23.5t-106.5 -23.5t-69 -64.5t-36.5 -97t-11 -122zM637 1290q0 68 48 116t116 48t116 -48t48 -116t-48.5 -116t-115.5 -48 q-68 0 -116 48t-48 116z" />
<glyph unicode="&#xf7;" horiz-adv-x="1179" d="M68 492q0 4 3 31.5t7 62.5q4 39 10 90q4 20 21 20h983q20 0 20 -20q0 -4 -3 -33t-7 -63q-6 -39 -10 -88q-4 -20 -21 -21h-983q-20 1 -20 21zM426 225q0 68 47 116t117 48q68 0 116 -48t48 -116q0 -70 -48.5 -117t-115.5 -47q-70 0 -117 47t-47 117zM426 942q0 68 47 116 t117 48q68 0 116 -48t48 -116q0 -70 -48.5 -117t-115.5 -47q-70 0 -117 47t-47 117z" />
<glyph unicode="&#xf8;" horiz-adv-x="1288" d="M51 20l158 168q-37 61 -56.5 141.5t-19.5 182.5q0 137 37 237.5t104.5 166t161.5 97t209 31.5q176 0 297 -73l31 33q10 12 23.5 16t17.5 4h205q20 0 20 -20l-160 -170q37 -61 57.5 -141.5t20.5 -180.5q0 -137 -37 -237.5t-104.5 -166t-161.5 -97t-209 -31.5 q-180 0 -299 71l-29 -31q-14 -20 -41 -20h-204q-21 0 -21 20zM422 466q0 -22 4 -44l342 364q-49 33 -123 33q-63 0 -106 -23.5t-69 -64.5t-37 -97t-11 -122v-46zM520 238q53 -33 125 -33q63 0 106.5 23.5t70 64.5t37.5 97t11 122q0 49 -6 92z" />
<glyph unicode="&#xf9;" d="M133 430v553q0 20 21 21l245 20q20 0 21 -20v-574q0 -127 31.5 -176t91.5 -49q117 0 171 61.5t54 163.5v553q0 20 20 21l246 20q20 0 21 -20v-840q0 -61 10 -99t10 -45q0 -20 -20 -20h-246q-16 0 -21 20l-8 82q-23 -35 -57 -61q-29 -23 -74 -42t-106 -19 q-123 0 -203 27.5t-126 82.5t-63.5 140t-17.5 200zM246 1454q0 20 20 21h226q27 0 40 -21l103 -139q39 -53 70.5 -98.5t31.5 -49.5q0 -20 -20 -20h-185q-25 0 -40 20l-123 140q-23 27 -45.5 52t-40 45.5t-27.5 34t-10 15.5z" />
<glyph unicode="&#xfa;" d="M133 430v553q0 20 21 21l245 20q20 0 21 -20v-574q0 -127 31.5 -176t91.5 -49q117 0 171 61.5t54 163.5v553q0 20 20 21l246 20q20 0 21 -20v-840q0 -61 10 -99t10 -45q0 -20 -20 -20h-246q-16 0 -21 20l-8 82q-23 -35 -57 -61q-29 -23 -74 -42t-106 -19 q-123 0 -203 27.5t-126 82.5t-63.5 140t-17.5 200zM451 1167q0 4 31.5 49.5t70.5 98.5l102 139q14 20 41 21h226q20 0 20 -21q0 -2 -10 -15.5t-27.5 -34t-40 -46t-45.5 -51.5l-123 -140q-16 -20 -41 -20h-184q-20 0 -20 20z" />
<glyph unicode="&#xfb;" d="M133 430v553q0 20 21 21l245 20q20 0 21 -20v-574q0 -127 31.5 -176t91.5 -49q117 0 171 61.5t54 163.5v553q0 20 20 21l246 20q20 0 21 -20v-840q0 -61 10 -99t10 -45q0 -20 -20 -20h-246q-16 0 -21 20l-8 82q-23 -35 -57 -61q-29 -23 -74 -42t-106 -19 q-123 0 -203 27.5t-126 82.5t-63.5 140t-17.5 200zM266 1167q0 4 32 49.5t71 98.5l102 139q16 20 41 21h164q25 0 41 -21l102 -139q39 -53 71 -98.5t32 -49.5q0 -20 -21 -20h-205q-27 0 -41 20l-41 82l-20 103l-21 -103l-41 -82q-14 -20 -40 -20h-205q-21 0 -21 20z" />
<glyph unicode="&#xfc;" d="M133 430v553q0 20 21 21l245 20q20 0 21 -20v-574q0 -127 31.5 -176t91.5 -49q117 0 171 61.5t54 163.5v553q0 20 20 21l246 20q20 0 21 -20v-840q0 -61 10 -99t10 -45q0 -20 -20 -20h-246q-16 0 -21 20l-8 82q-23 -35 -57 -61q-29 -23 -74 -42t-106 -19 q-123 0 -203 27.5t-126 82.5t-63.5 140t-17.5 200zM225 1290q0 68 48.5 116t115.5 48q68 0 116 -48t48 -116t-48 -116t-116 -48t-116 48t-48 116zM635 1290q0 68 48 116t116 48t116 -48t48 -116t-48.5 -116t-115.5 -48q-68 0 -116 48t-48 116z" />
<glyph unicode="&#xfd;" horiz-adv-x="1087" d="M16 983q0 16 21 21q63 4 115 10q43 4 79.5 7t40.5 3q10 0 18.5 -6t12.5 -14l223 -656l21 -164l20 164l207 656q6 20 21 20h256q20 0 20 -20q0 -2 -25.5 -72t-64.5 -174.5t-85 -228t-87 -234.5t-71.5 -193t-39.5 -102q-31 -84 -66.5 -165t-87.5 -144.5t-125 -102.5 t-177 -39q-59 0 -97 11q-20 4 -34 10q-20 6 -21 24q0 4 3 37t7 70q4 43 11 98q4 16 20 17q14 0 46 -20.5t85 -20.5q31 0 57.5 28.5t47.5 63.5q23 39 43 92q-111 283 -197 508q-37 94 -73 186t-63.5 165t-44 118t-16.5 47zM406 1167q0 4 31.5 49.5t70.5 98.5l102 139 q14 20 41 21h226q20 0 20 -21q0 -2 -10 -15.5t-27.5 -34t-40 -46t-45.5 -51.5l-123 -140q-16 -20 -41 -20h-184q-20 0 -20 20z" />
<glyph unicode="&#xfe;" horiz-adv-x="1220" d="M145 -451v1946q0 16 21 21q68 4 121 10q47 4 85 8t40 4q20 0 20 -20v-576q25 29 60 51q29 18 70.5 34.5t94.5 16.5q154 0 247 -41.5t142.5 -113.5t65.5 -169t16 -208t-16 -208t-65.5 -169t-142.5 -113.5t-247 -41.5q-55 0 -97 12t-71 28q-35 18 -57 41v-491 q0 -16 -20 -21q-68 -6 -121 -10q-47 -4 -85 -7t-40 -3q-21 0 -21 20zM432 512q0 -59 10.5 -114.5t37 -98.5t69.5 -68.5t108 -25.5q51 0 87 27.5t57.5 71.5t31 99.5t9.5 108.5t-8.5 108.5t-30 99.5t-57 71.5t-89.5 27.5q-59 0 -101 -23.5t-69.5 -64.5t-41 -97t-13.5 -122z " />
<glyph unicode="&#xff;" horiz-adv-x="1087" d="M16 983q0 16 21 21q63 4 115 10q43 4 79.5 7t40.5 3q10 0 18.5 -6t12.5 -14l223 -656l21 -164l20 164l207 656q6 20 21 20h256q20 0 20 -20q0 -2 -25.5 -72t-64.5 -174.5t-85 -228t-87 -234.5t-71.5 -193t-39.5 -102q-31 -84 -66.5 -165t-87.5 -144.5t-125 -102.5 t-177 -39q-59 0 -97 11q-20 4 -34 10q-20 6 -21 24q0 4 3 37t7 70q4 43 11 98q4 16 20 17q14 0 46 -20.5t85 -20.5q31 0 57.5 28.5t47.5 63.5q23 39 43 92q-111 283 -197 508q-37 94 -73 186t-63.5 165t-44 118t-16.5 47zM174 1290q0 68 48 116t116 48t116 -48t48 -116 t-48 -116t-116 -48t-116 48t-48 116zM584 1290q0 68 48 116t116 48t115.5 -48t47.5 -116t-48 -116t-115 -48q-68 0 -116 48t-48 116z" />
<glyph unicode="&#x152;" horiz-adv-x="2756" d="M1698 20v1373q0 16 21 20l204 21h676q16 0 21 -21q4 -51 10 -90q4 -35 7 -62.5t3 -31.5q0 -20 -20 -21h-635v-358h573q20 0 21 -21v-184q0 -20 -21 -20h-573v-400h635q20 0 20 -20q0 -4 -3 -33t-7 -63q-6 -39 -10 -89q-4 -20 -21 -20h-880q-21 0 -21 20zM104 717 q0 154 32 288t107.5 233t201.5 157.5t315 58.5q188 0 314 -58.5t202 -157.5t107.5 -233.5t31.5 -287.5q0 -154 -31.5 -288t-107.5 -233.5t-202 -157.5t-314 -58t-314.5 58t-202 157.5t-107.5 233.5t-32 288zM401 717q0 -100 15.5 -192.5t56.5 -163t109.5 -113.5t177.5 -43 q106 0 176 43t110.5 113.5t56 162.5t15.5 193q0 100 -15.5 192t-56 163t-110.5 114t-176 43q-109 0 -177.5 -43t-109.5 -114t-56.5 -163t-15.5 -192z" />
<glyph unicode="&#x153;" horiz-adv-x="2322" d="M1280 512q0 111 21.5 207t78 167.5t155.5 113.5t257 42q217 0 335 -127t118 -403v-82q0 -20 -23 -20h-645q0 -39 12.5 -76t40 -65.5t72.5 -46t111 -17.5t127 9t108 21.5t78 21.5t35 9q20 0 20 -20q0 -4 -3 -35t-7 -70q-6 -45 -10 -100q-2 -14 -21 -21q-2 0 -27.5 -7 t-69.5 -14t-102.5 -13t-127.5 -6q-166 0 -269.5 41.5t-162 114.5t-80 169t-21.5 207zM1577 614h377q0 39 -11.5 76t-32 65.5t-50 46t-68.5 17.5q-61 0 -102 -17.5t-66.5 -46t-36 -65.5t-10.5 -76zM84 512q0 137 37 237.5t104.5 166t161.5 97t209 31.5t209 -31.5t161.5 -97 t104.5 -166t37 -237.5t-37 -237.5t-104.5 -166t-161.5 -97t-209 -31.5t-209 31.5t-161.5 97t-104.5 166t-37 237.5zM373 512q0 -66 11 -122t36.5 -97t68.5 -64.5t107 -23.5q63 0 106 23.5t70 64.5t38 97t11 122t-11 122t-38 97t-70 64.5t-106 23.5t-106.5 -23.5t-69 -64.5 t-36.5 -97t-11 -122z" />
<glyph unicode="&#x178;" horiz-adv-x="1257" d="M393 1741q0 68 48 116t116 48t116 -48t48 -116t-48 -116t-116 -48t-116 48t-48 116zM803 1741q0 68 48 116t116 48t116 -48t48 -116t-48.5 -116t-115.5 -48q-68 0 -116 48t-48 116zM2 1393q0 16 21 20q72 4 127 10q47 4 88 7.5t45 3.5q10 0 18 -6.5t12 -14.5l293 -532 l21 -123l20 123l293 532q10 20 31 21h270q20 0 21 -21l-27 -45q-27 -45 -70 -114.5t-96 -158.5t-107.5 -178.5t-105.5 -172t-86 -140.5v-584q0 -20 -20 -20h-246q-20 0 -21 20v584q-135 219 -241 391q-45 74 -88 144.5t-77 126t-54.5 90.5t-20.5 37z" />
<glyph unicode="&#x2c6;" horiz-adv-x="1097" d="M16 614q0 2 18.5 37t48.5 92.5t68.5 129t79.5 145.5q94 174 215 395q10 20 31 21h144q20 0 30 -21q119 -221 215 -395q39 -74 78 -145.5t69.5 -129t49 -92.5t18.5 -37q0 -20 -20 -20h-225q-20 0 -31 20l-236 471l-20 103l-21 -103l-235 -471q-10 -20 -31 -20h-225 q-21 0 -21 20z" />
<glyph unicode="&#x2dc;" horiz-adv-x="1097" d="M170 1208q0 117 64.5 192t181.5 75q43 0 81 -17.5t72.5 -39t65.5 -39t57 -17.5q23 0 37 17.5t14 33.5q0 20 21 21h164q20 0 20 -21q0 -117 -64.5 -191.5t-181.5 -74.5q-43 0 -80.5 17.5t-72.5 39t-65.5 39t-57.5 17.5q-23 0 -37 -17.5t-14 -34.5q0 -20 -21 -20h-164 q-20 0 -20 20z" />
<glyph unicode="&#x2000;" horiz-adv-x="1003" />
<glyph unicode="&#x2001;" horiz-adv-x="2007" />
<glyph unicode="&#x2002;" horiz-adv-x="1003" />
<glyph unicode="&#x2003;" horiz-adv-x="2007" />
<glyph unicode="&#x2004;" horiz-adv-x="667" />
<glyph unicode="&#x2005;" horiz-adv-x="501" />
<glyph unicode="&#x2006;" horiz-adv-x="333" />
<glyph unicode="&#x2007;" horiz-adv-x="333" />
<glyph unicode="&#x2008;" horiz-adv-x="249" />
<glyph unicode="&#x2009;" horiz-adv-x="401" />
<glyph unicode="&#x200a;" horiz-adv-x="110" />
<glyph unicode="&#x2010;" horiz-adv-x="874" d="M152 492q0 4 3 31.5t7 62.5q4 39 10 90q4 20 21 20h512q20 0 20 -20q0 -4 -3 -33t-7 -63q-6 -39 -10 -88q-4 -20 -21 -21h-512q-20 1 -20 21z" />
<glyph unicode="&#x2011;" horiz-adv-x="874" d="M152 492q0 4 3 31.5t7 62.5q4 39 10 90q4 20 21 20h512q20 0 20 -20q0 -4 -3 -33t-7 -63q-6 -39 -10 -88q-4 -20 -21 -21h-512q-20 1 -20 21z" />
<glyph unicode="&#x2012;" horiz-adv-x="874" d="M152 492q0 4 3 31.5t7 62.5q4 39 10 90q4 20 21 20h512q20 0 20 -20q0 -4 -3 -33t-7 -63q-6 -39 -10 -88q-4 -20 -21 -21h-512q-20 1 -20 21z" />
<glyph unicode="&#x2013;" horiz-adv-x="1159" d="M152 492q0 4 3 31.5t7 62.5q4 39 10 90q4 20 21 20h796q20 0 21 -20q0 -4 -3 -33t-8 -63q-6 -39 -10 -88q-4 -20 -20 -21h-797q-20 1 -20 21z" />
<glyph unicode="&#x2014;" horiz-adv-x="2185" d="M152 492q0 4 3 31.5t7 62.5q4 39 10 90q4 20 21 20h1822q20 0 21 -20q0 -4 -3 -33t-8 -63q-6 -39 -10 -88q-4 -20 -20 -21h-1823q-20 1 -20 21z" />
<glyph unicode="&#x2018;" horiz-adv-x="565" d="M78 942q0 2 7 22.5t18 54.5l26 77q14 43 31 86q37 102 82 231q6 20 20 21h232q10 0 12 -6.5t2 -14.5q0 -2 -5 -23.5t-14.5 -55.5t-19.5 -75.5t-23 -84.5q-27 -102 -61 -232q-4 -20 -20 -20h-267q-20 0 -20 20z" />
<glyph unicode="&#x2019;" horiz-adv-x="557" d="M84 942q0 2 5 22.5t14.5 54.5t19.5 77t22 86q27 102 62 231q4 20 20 21h267q20 0 20 -21q0 -2 -7 -23l-19 -56q-11 -34 -26.5 -75.5t-29.5 -84.5q-37 -102 -82 -232q-6 -20 -20 -20h-232q-10 0 -12 6t-2 14z" />
<glyph unicode="&#x201c;" horiz-adv-x="974" d="M78 942q0 2 7 22.5t18 54.5l26 77q14 43 31 86q37 102 82 231q6 20 20 21h232q10 0 12 -6.5t2 -14.5q0 -2 -5 -23.5t-14.5 -55.5t-19.5 -75.5t-23 -84.5q-27 -102 -61 -232q-4 -20 -20 -20h-267q-20 0 -20 20zM487 942q0 2 7.5 22.5t18.5 54.5l26 77q14 43 30 86 q37 102 82 231q6 20 21 21h231q10 0 12.5 -6.5t2.5 -14.5q0 -2 -5.5 -23.5t-14.5 -55.5t-19.5 -75.5t-22.5 -84.5q-27 -102 -61 -232q-4 -20 -21 -20h-266q-21 0 -21 20z" />
<glyph unicode="&#x201d;" horiz-adv-x="966" d="M84 942q0 2 5 22.5t14.5 54.5t19.5 77t22 86q27 102 62 231q4 20 20 21h267q20 0 20 -21q0 -2 -7 -23l-19 -56q-11 -34 -26.5 -75.5t-29.5 -84.5q-37 -102 -82 -232q-6 -20 -20 -20h-232q-10 0 -12 6t-2 14zM494 942q0 2 5 22.5t14 54.5t19.5 77t22.5 86q27 102 61 231 q4 20 21 21h266q20 0 21 -21q0 -2 -8 -23l-18 -56q-11 -34 -26.5 -75.5t-29.5 -84.5q-37 -102 -82 -232q-6 -20 -21 -20h-231q-10 0 -12 6t-2 14z" />
<glyph unicode="&#x201e;" horiz-adv-x="995" d="M35 -246q0 2 5 22.5t14 54.5t19.5 77t22.5 86q27 102 62 231q4 20 20 21h266q20 0 21 -21q0 -2 -7 -23l-19 -56q-11 -34 -26.5 -75.5t-29.5 -84.5q-37 -102 -82 -232q-6 -20 -20 -20h-232q-10 0 -12 6t-2 14zM444 -246q0 2 5.5 22.5t14.5 54.5t19.5 77t22.5 86 q27 102 61 231q4 20 21 21h266q20 0 20 -21q0 -2 -7 -23l-18 -56q-11 -34 -26.5 -75.5t-29.5 -84.5q-37 -102 -82 -232q-6 -20 -21 -20h-231q-10 0 -12.5 6t-2.5 14z" />
<glyph unicode="&#x2022;" horiz-adv-x="761" d="M94 655q0 57 16.5 108.5t50.5 91.5t88 63.5t132 23.5q76 0 131 -23.5t89 -63.5t50.5 -91t16.5 -109q0 -57 -16.5 -108t-50.5 -91t-89 -63.5t-131 -23.5q-78 0 -132 23.5t-88 63.5t-50.5 91t-16.5 108z" />
<glyph unicode="&#x2026;" horiz-adv-x="1845" d="M104 143q0 68 47.5 116t116.5 48q68 0 116 -48t48 -116q0 -70 -48 -116.5t-116 -46.5q-70 0 -117 46.5t-47 116.5zM760 143q0 68 47 116t117 48q68 0 115.5 -48t47.5 -116q0 -70 -48 -116.5t-115 -46.5q-70 0 -117 46.5t-47 116.5zM1415 143q0 68 47 116t117 48 q68 0 116 -48t48 -116q0 -70 -48 -116.5t-116 -46.5q-70 0 -117 46.5t-47 116.5z" />
<glyph unicode="&#x202f;" horiz-adv-x="401" />
<glyph unicode="&#x2039;" horiz-adv-x="708" d="M51 573q0 8 8 21l265 410q12 20 30 20h250q20 0 21 -20q0 -2 -12.5 -21.5t-33 -50.5t-46 -70t-52.5 -78q-63 -94 -143 -211l143 -213q27 -41 52.5 -78.5t46.5 -68.5l32 -49q12 -18 13 -21q0 -20 -21 -20h-250q-18 0 -30 20l-265 410q-8 8 -8 20z" />
<glyph unicode="&#x203a;" horiz-adv-x="708" d="M84 143q0 2 12 21l33 49q20 31 46 68.5t52 78.5l144 213q-80 117 -144 211q-27 39 -52 78t-45.5 70t-33 50t-12.5 22q0 20 20 20h250q18 0 31 -20l264 -410q8 -12 8 -21q0 -12 -8 -20l-264 -410q-12 -20 -31 -20h-250q-20 0 -20 20z" />
<glyph unicode="&#x205f;" horiz-adv-x="501" />
<glyph unicode="&#x20ac;" horiz-adv-x="1417" d="M68 430q0 4 3 31.5t7 62.5q4 39 10 90q4 20 21 21h165q-2 23 -2 42v40v40q0 19 2 42h-186q-20 0 -20 20q0 4 3 32t7 62q4 39 10 91q4 20 21 20h196q23 84 67 162t119.5 137t187.5 95t269 36q68 0 130.5 -10t111.5 -21q55 -14 106 -30q16 -6 21 -21q4 -57 10 -100 q4 -39 7 -70t3 -35q0 -20 -20 -20q-8 0 -43 12t-87 27.5t-114.5 29t-124.5 13.5q-133 0 -208.5 -60.5t-114.5 -144.5h467q20 0 20 -20q0 -4 -3 -33t-7 -64q-6 -39 -10 -88q-4 -20 -21 -20h-500q-2 -23 -2 -43v-39v-40q0 -19 2 -42h521q20 0 20 -21q0 -4 -3 -32.5t-7 -63.5 q-6 -39 -10 -88q-4 -20 -21 -20h-446q39 -86 114.5 -145.5t208.5 -59.5q61 0 120.5 9t108 21.5t80 21.5t39.5 9q16 0 21 -20q4 -57 10 -101q4 -39 7 -69.5t3 -34.5q0 -16 -20 -21q-4 0 -35 -7t-80 -14t-114.5 -13t-139.5 -6q-158 0 -269.5 35.5t-187 95t-119.5 137.5 t-67 162h-217q-20 0 -20 20z" />
<glyph unicode="&#x2122;" horiz-adv-x="2088" d="M37 1249v144q0 16 20 20l164 21h492q20 0 20 -21q0 -2 -3 -27.5t-7 -56.5q-6 -37 -10 -80q-4 -20 -21 -20h-184v-635q0 -20 -21 -21h-204q-20 0 -21 21v635h-205q-20 0 -20 20zM836 594v799q0 20 20 20l123 21h233q14 0 21 -21l145 -471l21 -143l20 143l142 451 q6 16 20 20l123 21h238q20 0 20 -21v-819q0 -20 -20 -21h-195q-20 0 -21 21v614l-30 -123l-164 -491q-6 -20 -21 -21h-225q-14 0 -20 21l-164 491l-31 123v-614q0 -20 -20 -21h-195q-20 1 -20 21z" />
<glyph unicode="&#xe000;" horiz-adv-x="1025" d="M0 1025h1025v-1025h-1025v1025z" />
<glyph unicode="&#xfb01;" horiz-adv-x="1349" d="M895 1290q0 68 48 116t116 48t116 -48t48 -116t-48.5 -116t-115.5 -48q-68 0 -116 48t-48 116zM915 164v819q0 20 21 21l246 20q20 0 20 -20v-840q0 -61 10.5 -99t10.5 -45q0 -20 -21 -20h-246q-14 0 -20 20q-6 18 -10 41q-11 42 -11 103zM39 819q0 4 3 32t7 62 q4 39 10 91q4 20 21 20h164v123q0 86 20.5 160.5t63.5 130t110.5 87t163.5 31.5q29 0 53.5 -3t42.5 -7q20 -6 37 -10q20 -6 21 -25q0 -4 -3 -36.5t-8 -69.5q-6 -43 -10 -98q-4 -16 -20 -17q-8 0 -16.5 6.5t-19.5 14.5t-27.5 14t-39.5 6q-53 0 -67.5 -51t-14.5 -154v-102h185 q20 0 20 -20q0 -4 -3 -32t-7 -63q-6 -39 -10 -90q-4 -20 -21 -20h-164v-635q0 -31 -3 -57.5t-7 -45.5q-6 -23 -10 -41q-6 -20 -21 -20h-245q-20 0 -21 20q0 6 10.5 44t10.5 100v635h-185q-20 0 -20 20z" />
<glyph unicode="&#xfb02;" horiz-adv-x="1351" d="M917 164v1331q0 20 21 21l246 20q20 0 20 -20v-1352q0 -61 10.5 -99t10.5 -45q0 -20 -21 -20h-246q-14 0 -20 20q-6 18 -10 41q-11 42 -11 103zM39 819q0 4 3 32t7 62q4 39 10 91q4 20 21 20h164v123q0 86 20.5 160.5t63.5 130t110.5 87t163.5 31.5q29 0 53.5 -3t42.5 -7 q20 -6 37 -10q20 -6 21 -25q0 -4 -3 -36.5t-8 -69.5q-6 -43 -10 -98q-4 -16 -20 -17q-8 0 -16.5 6.5t-19.5 14.5t-27.5 14t-39.5 6q-53 0 -67.5 -51t-14.5 -154v-102h185q20 0 20 -20q0 -4 -3 -32t-7 -63q-6 -39 -10 -90q-4 -20 -21 -20h-164v-635q0 -31 -3 -57.5t-7 -45.5 q-6 -23 -10 -41q-6 -20 -21 -20h-245q-20 0 -21 20q0 6 10.5 44t10.5 100v635h-185q-20 0 -20 20z" />
<glyph unicode="&#xfb03;" horiz-adv-x="2121" d="M1667 1290q0 68 48 116t116 48t116 -48t48 -116t-48.5 -116t-115.5 -48q-68 0 -116 48t-48 116zM1687 164v819q0 20 21 21l246 20q20 0 20 -20v-840q0 -61 10.5 -99t10.5 -45q0 -20 -21 -20h-246q-14 0 -20 20q-6 18 -10 41q-11 42 -11 103zM811 819q0 4 3 32t7 62 q4 39 10 91q4 20 21 20h164v123q0 86 20.5 160.5t63.5 130t110.5 87t163.5 31.5q29 0 53.5 -3t42.5 -7q20 -6 37 -10q20 -6 21 -25q0 -4 -3 -36.5t-8 -69.5q-6 -43 -10 -98q-4 -16 -20 -17q-8 0 -16.5 6.5t-19.5 14.5t-27.5 14t-39.5 6q-53 0 -67.5 -51t-14.5 -154v-102h185 q20 0 20 -20q0 -4 -3 -32t-7 -63q-6 -39 -10 -90q-4 -20 -21 -20h-164v-635q0 -31 -3 -57.5t-7 -45.5q-6 -23 -10 -41q-6 -20 -21 -20h-245q-20 0 -21 20q0 6 10.5 44t10.5 100v635h-185q-20 0 -20 20zM39 819q0 4 3 32t7 62q4 39 10 91q4 20 21 20h164v123q0 86 20.5 160.5 t63.5 130t110.5 87t163.5 31.5q29 0 53.5 -3t42.5 -7q20 -6 37 -10q20 -6 21 -25q0 -4 -3 -36.5t-8 -69.5q-6 -43 -10 -98q-4 -16 -20 -17q-8 0 -16.5 6.5t-19.5 14.5t-27.5 14t-39.5 6q-53 0 -67.5 -51t-14.5 -154v-102h185q20 0 20 -20q0 -4 -3 -32t-7 -63q-6 -39 -10 -90 q-4 -20 -21 -20h-164v-635q0 -31 -3 -57.5t-7 -45.5q-6 -23 -10 -41q-6 -20 -21 -20h-245q-20 0 -21 20q0 6 10.5 44t10.5 100v635h-185q-20 0 -20 20z" />
<glyph unicode="&#xfb04;" horiz-adv-x="2123" d="M1689 164v1331q0 20 21 21l246 20q20 0 20 -20v-1352q0 -61 10.5 -99t10.5 -45q0 -20 -21 -20h-246q-14 0 -20 20q-6 18 -10 41q-11 42 -11 103zM811 819q0 4 3 32t7 62q4 39 10 91q4 20 21 20h164v123q0 86 20.5 160.5t63.5 130t110.5 87t163.5 31.5q29 0 53.5 -3 t42.5 -7q20 -6 37 -10q20 -6 21 -25q0 -4 -3 -36.5t-8 -69.5q-6 -43 -10 -98q-4 -16 -20 -17q-8 0 -16.5 6.5t-19.5 14.5t-27.5 14t-39.5 6q-53 0 -67.5 -51t-14.5 -154v-102h185q20 0 20 -20q0 -4 -3 -32t-7 -63q-6 -39 -10 -90q-4 -20 -21 -20h-164v-635q0 -31 -3 -57.5 t-7 -45.5q-6 -23 -10 -41q-6 -20 -21 -20h-245q-20 0 -21 20q0 6 10.5 44t10.5 100v635h-185q-20 0 -20 20zM39 819q0 4 3 32t7 62q4 39 10 91q4 20 21 20h164v123q0 86 20.5 160.5t63.5 130t110.5 87t163.5 31.5q29 0 53.5 -3t42.5 -7q20 -6 37 -10q20 -6 21 -25 q0 -4 -3 -36.5t-8 -69.5q-6 -43 -10 -98q-4 -16 -20 -17q-8 0 -16.5 6.5t-19.5 14.5t-27.5 14t-39.5 6q-53 0 -67.5 -51t-14.5 -154v-102h185q20 0 20 -20q0 -4 -3 -32t-7 -63q-6 -39 -10 -90q-4 -20 -21 -20h-164v-635q0 -31 -3 -57.5t-7 -45.5q-6 -23 -10 -41 q-6 -20 -21 -20h-245q-20 0 -21 20q0 6 10.5 44t10.5 100v635h-185q-20 0 -20 20z" />
</font>
</defs>
</svg>
